<?xml version="1.0" encoding="UTF-8"?>
<svg xmlns="http://www.w3.org/2000/svg" version="1.1" width="100" height="100" viewBox="0 0 100 100"><rect x="0" y="0" width="100" height="100" fill="#ffffff"/><g transform="scale(3.448)"><g transform="translate(0,0)"><path fill-rule="evenodd" d="M9 0L9 1L8 1L8 3L9 3L9 4L8 4L8 8L6 8L6 9L5 9L5 10L3 10L3 9L4 9L4 8L3 8L3 9L2 9L2 8L0 8L0 9L2 9L2 10L3 10L3 11L0 11L0 13L1 13L1 14L0 14L0 17L1 17L1 18L0 18L0 19L1 19L1 18L2 18L2 21L8 21L8 23L9 23L9 25L8 25L8 26L9 26L9 27L8 27L8 29L10 29L10 28L9 28L9 27L11 27L11 28L12 28L12 26L11 26L11 25L14 25L14 27L13 27L13 28L14 28L14 29L15 29L15 28L14 28L14 27L15 27L15 24L16 24L16 25L17 25L17 26L16 26L16 27L17 27L17 28L16 28L16 29L18 29L18 28L19 28L19 26L21 26L21 25L22 25L22 26L24 26L24 28L23 28L23 29L26 29L26 28L25 28L25 27L27 27L27 29L28 29L28 27L29 27L29 26L28 26L28 27L27 27L27 25L25 25L25 24L28 24L28 25L29 25L29 23L28 23L28 22L29 22L29 21L27 21L27 20L29 20L29 17L28 17L28 15L29 15L29 14L24 14L24 15L23 15L23 16L24 16L24 15L25 15L25 16L26 16L26 15L27 15L27 17L28 17L28 18L27 18L27 20L26 20L26 22L27 22L27 23L25 23L25 18L26 18L26 17L25 17L25 18L24 18L24 17L22 17L22 16L19 16L19 17L22 17L22 18L20 18L20 19L19 19L19 18L17 18L17 17L18 17L18 15L19 15L19 14L20 14L20 15L21 15L21 14L22 14L22 13L23 13L23 12L24 12L24 11L26 11L26 12L25 12L25 13L26 13L26 12L27 12L27 13L29 13L29 12L28 12L28 10L29 10L29 9L28 9L28 8L26 8L26 9L25 9L25 8L22 8L22 9L20 9L20 8L21 8L21 6L20 6L20 5L21 5L21 4L20 4L20 5L19 5L19 3L21 3L21 1L20 1L20 0L18 0L18 1L17 1L17 2L16 2L16 0L12 0L12 1L11 1L11 0ZM9 1L9 2L11 2L11 4L9 4L9 5L10 5L10 6L9 6L9 7L10 7L10 8L8 8L8 10L7 10L7 9L6 9L6 10L7 10L7 11L6 11L6 12L8 12L8 11L9 11L9 14L7 14L7 13L6 13L6 14L5 14L5 15L4 15L4 16L2 16L2 15L3 15L3 14L4 14L4 13L5 13L5 12L3 12L3 13L2 13L2 15L1 15L1 17L2 17L2 18L3 18L3 19L5 19L5 18L3 18L3 17L5 17L5 15L6 15L6 16L7 16L7 17L6 17L6 18L7 18L7 19L6 19L6 20L10 20L10 21L9 21L9 22L10 22L10 21L11 21L11 23L10 23L10 25L11 25L11 23L14 23L14 24L15 24L15 23L17 23L17 24L18 24L18 26L19 26L19 25L20 25L20 24L18 24L18 23L20 23L20 22L19 22L19 19L18 19L18 20L17 20L17 18L16 18L16 17L17 17L17 14L19 14L19 12L21 12L21 10L20 10L20 9L19 9L19 8L20 8L20 6L19 6L19 5L18 5L18 3L16 3L16 2L13 2L13 1L12 1L12 2L11 2L11 1ZM19 1L19 2L20 2L20 1ZM11 4L11 5L12 5L12 7L11 7L11 6L10 6L10 7L11 7L11 8L10 8L10 10L9 10L9 11L11 11L11 12L12 12L12 14L11 14L11 13L10 13L10 14L9 14L9 15L8 15L8 17L7 17L7 18L8 18L8 19L9 19L9 18L10 18L10 19L11 19L11 20L12 20L12 22L13 22L13 21L14 21L14 20L15 20L15 21L17 21L17 20L15 20L15 19L14 19L14 20L13 20L13 18L14 18L14 17L15 17L15 16L16 16L16 15L12 15L12 14L13 14L13 13L14 13L14 14L15 14L15 12L16 12L16 13L18 13L18 12L19 12L19 11L20 11L20 10L19 10L19 9L17 9L17 8L19 8L19 6L18 6L18 7L17 7L17 4L14 4L14 5L15 5L15 6L14 6L14 8L12 8L12 7L13 7L13 5L12 5L12 4ZM15 6L15 7L16 7L16 8L17 8L17 7L16 7L16 6ZM11 8L11 11L14 11L14 10L12 10L12 8ZM14 8L14 9L15 9L15 11L17 11L17 12L18 12L18 11L17 11L17 10L16 10L16 9L15 9L15 8ZM23 9L23 10L25 10L25 9ZM26 9L26 10L28 10L28 9ZM22 11L22 12L23 12L23 11ZM6 14L6 15L7 15L7 14ZM10 14L10 15L9 15L9 17L8 17L8 18L9 18L9 17L10 17L10 18L11 18L11 19L12 19L12 18L11 18L11 16L12 16L12 15L11 15L11 14ZM13 16L13 17L14 17L14 16ZM0 20L0 21L1 21L1 20ZM21 21L21 24L24 24L24 21ZM17 22L17 23L18 23L18 22ZM22 22L22 23L23 23L23 22ZM20 27L20 29L22 29L22 28L21 28L21 27ZM0 0L0 7L7 7L7 0ZM1 1L1 6L6 6L6 1ZM2 2L2 5L5 5L5 2ZM22 0L22 7L29 7L29 0ZM23 1L23 6L28 6L28 1ZM24 2L24 5L27 5L27 2ZM0 22L0 29L7 29L7 22ZM1 23L1 28L6 28L6 23ZM2 24L2 27L5 27L5 24Z" fill="#000000"/></g></g></svg>
