<?xml version="1.0" encoding="UTF-8"?>
<svg xmlns="http://www.w3.org/2000/svg" version="1.1" width="100" height="100" viewBox="0 0 100 100"><rect x="0" y="0" width="100" height="100" fill="#ffffff"/><g transform="scale(3.448)"><g transform="translate(0,0)"><path fill-rule="evenodd" d="M9 0L9 1L11 1L11 2L9 2L9 3L8 3L8 5L9 5L9 6L8 6L8 7L9 7L9 9L10 9L10 10L6 10L6 11L5 11L5 12L4 12L4 10L5 10L5 9L8 9L8 8L5 8L5 9L4 9L4 10L2 10L2 8L0 8L0 9L1 9L1 11L3 11L3 13L2 13L2 12L1 12L1 13L2 13L2 15L3 15L3 13L4 13L4 15L7 15L7 16L5 16L5 19L4 19L4 17L3 17L3 16L1 16L1 14L0 14L0 21L1 21L1 19L3 19L3 21L5 21L5 20L6 20L6 21L7 21L7 20L8 20L8 19L10 19L10 20L11 20L11 22L10 22L10 21L8 21L8 24L9 24L9 25L10 25L10 27L11 27L11 28L9 28L9 27L8 27L8 29L18 29L18 28L17 28L17 27L16 27L16 26L17 26L17 23L18 23L18 22L19 22L19 23L20 23L20 24L19 24L19 25L18 25L18 27L19 27L19 29L20 29L20 27L19 27L19 26L21 26L21 28L23 28L23 29L25 29L25 28L26 28L26 29L27 29L27 27L28 27L28 28L29 28L29 27L28 27L28 26L29 26L29 25L28 25L28 26L27 26L27 25L26 25L26 24L25 24L25 23L27 23L27 24L29 24L29 23L27 23L27 22L26 22L26 21L29 21L29 20L26 20L26 21L25 21L25 20L21 20L21 18L22 18L22 19L23 19L23 18L24 18L24 19L26 19L26 18L28 18L28 19L29 19L29 17L27 17L27 14L29 14L29 12L28 12L28 13L27 13L27 14L25 14L25 13L24 13L24 12L26 12L26 11L25 11L25 9L26 9L26 10L28 10L28 9L26 9L26 8L24 8L24 9L23 9L23 10L22 10L22 11L23 11L23 12L22 12L22 14L21 14L21 10L20 10L20 8L21 8L21 5L20 5L20 4L21 4L21 1L20 1L20 2L18 2L18 3L16 3L16 2L17 2L17 1L19 1L19 0L17 0L17 1L16 1L16 2L15 2L15 0L14 0L14 1L12 1L12 0ZM12 2L12 4L11 4L11 7L10 7L10 6L9 6L9 7L10 7L10 8L11 8L11 10L10 10L10 11L6 11L6 12L8 12L8 13L6 13L6 14L7 14L7 15L8 15L8 14L9 14L9 12L10 12L10 11L11 11L11 10L14 10L14 11L12 11L12 12L11 12L11 14L10 14L10 15L9 15L9 17L10 17L10 18L11 18L11 15L12 15L12 16L14 16L14 17L12 17L12 19L11 19L11 20L12 20L12 19L13 19L13 20L14 20L14 21L17 21L17 20L18 20L18 21L19 21L19 22L20 22L20 21L19 21L19 20L18 20L18 17L25 17L25 18L26 18L26 17L25 17L25 16L26 16L26 15L25 15L25 16L24 16L24 15L23 15L23 16L18 16L18 14L17 14L17 16L16 16L16 15L12 15L12 12L13 12L13 13L14 13L14 14L15 14L15 13L14 13L14 12L16 12L16 11L17 11L17 13L20 13L20 12L19 12L19 11L20 11L20 10L19 10L19 8L20 8L20 5L19 5L19 7L18 7L18 4L19 4L19 3L18 3L18 4L17 4L17 8L16 8L16 4L14 4L14 5L15 5L15 8L14 8L14 6L13 6L13 5L12 5L12 4L13 4L13 3L15 3L15 2ZM9 3L9 5L10 5L10 3ZM12 6L12 9L14 9L14 8L13 8L13 6ZM17 8L17 9L18 9L18 8ZM15 9L15 11L16 11L16 9ZM17 10L17 11L19 11L19 10ZM19 14L19 15L20 15L20 14ZM28 15L28 16L29 16L29 15ZM7 16L7 17L6 17L6 18L7 18L7 19L6 19L6 20L7 20L7 19L8 19L8 18L7 18L7 17L8 17L8 16ZM15 16L15 17L14 17L14 18L13 18L13 19L14 19L14 20L17 20L17 19L16 19L16 18L17 18L17 17L18 17L18 16L17 16L17 17L16 17L16 16ZM1 17L1 18L2 18L2 17ZM12 21L12 22L11 22L11 23L12 23L12 24L13 24L13 25L12 25L12 26L11 26L11 27L12 27L12 28L14 28L14 26L15 26L15 24L16 24L16 23L17 23L17 22L16 22L16 23L15 23L15 24L14 24L14 23L13 23L13 21ZM21 21L21 24L24 24L24 21ZM22 22L22 23L23 23L23 22ZM9 23L9 24L10 24L10 25L11 25L11 24L10 24L10 23ZM13 25L13 26L14 26L14 25ZM22 25L22 26L25 26L25 25ZM24 27L24 28L25 28L25 27ZM0 0L0 7L7 7L7 0ZM1 1L1 6L6 6L6 1ZM2 2L2 5L5 5L5 2ZM22 0L22 7L29 7L29 0ZM23 1L23 6L28 6L28 1ZM24 2L24 5L27 5L27 2ZM0 22L0 29L7 29L7 22ZM1 23L1 28L6 28L6 23ZM2 24L2 27L5 27L5 24Z" fill="#000000"/></g></g></svg>
