<?xml version="1.0" encoding="UTF-8"?>
<svg xmlns="http://www.w3.org/2000/svg" version="1.1" width="100" height="100" viewBox="0 0 100 100"><rect x="0" y="0" width="100" height="100" fill="#ffffff"/><g transform="scale(3.448)"><g transform="translate(0,0)"><path fill-rule="evenodd" d="M8 0L8 1L9 1L9 2L10 2L10 3L11 3L11 4L13 4L13 6L12 6L12 5L10 5L10 4L9 4L9 5L10 5L10 8L9 8L9 6L8 6L8 8L9 8L9 9L7 9L7 8L6 8L6 9L7 9L7 10L6 10L6 11L4 11L4 12L3 12L3 11L2 11L2 10L4 10L4 9L5 9L5 8L3 8L3 9L2 9L2 8L0 8L0 10L1 10L1 11L0 11L0 14L1 14L1 15L0 15L0 21L3 21L3 19L4 19L4 21L5 21L5 20L6 20L6 21L8 21L8 22L9 22L9 23L10 23L10 24L11 24L11 23L12 23L12 21L13 21L13 23L14 23L14 25L13 25L13 24L12 24L12 25L9 25L9 24L8 24L8 26L10 26L10 27L11 27L11 26L14 26L14 25L15 25L15 28L13 28L13 27L12 27L12 28L11 28L11 29L12 29L12 28L13 28L13 29L17 29L17 24L18 24L18 23L17 23L17 24L15 24L15 23L16 23L16 22L19 22L19 23L20 23L20 24L19 24L19 25L18 25L18 27L19 27L19 29L21 29L21 28L24 28L24 29L25 29L25 28L27 28L27 27L28 27L28 28L29 28L29 24L27 24L27 26L26 26L26 27L25 27L25 26L23 26L23 27L22 27L22 25L26 25L26 24L25 24L25 23L26 23L26 21L28 21L28 20L27 20L27 19L26 19L26 18L28 18L28 19L29 19L29 18L28 18L28 17L26 17L26 16L27 16L27 14L28 14L28 16L29 16L29 11L28 11L28 13L24 13L24 12L26 12L26 11L27 11L27 10L28 10L28 9L29 9L29 8L28 8L28 9L26 9L26 11L25 11L25 9L23 9L23 8L22 8L22 9L23 9L23 10L22 10L22 14L19 14L19 13L17 13L17 12L18 12L18 11L19 11L19 12L20 12L20 13L21 13L21 11L19 11L19 10L20 10L20 9L19 9L19 10L18 10L18 11L17 11L17 12L15 12L15 11L16 11L16 9L18 9L18 8L17 8L17 6L18 6L18 7L19 7L19 8L20 8L20 7L21 7L21 2L20 2L20 1L19 1L19 0L17 0L17 1L16 1L16 2L15 2L15 3L14 3L14 2L13 2L13 0L10 0L10 1L9 1L9 0ZM14 0L14 1L15 1L15 0ZM11 1L11 2L12 2L12 3L13 3L13 2L12 2L12 1ZM17 1L17 3L18 3L18 4L19 4L19 3L20 3L20 2L19 2L19 1ZM18 2L18 3L19 3L19 2ZM15 4L15 7L14 7L14 6L13 6L13 7L14 7L14 8L13 8L13 9L12 9L12 11L11 11L11 12L10 12L10 13L9 13L9 14L8 14L8 12L9 12L9 11L10 11L10 10L11 10L11 9L10 9L10 10L8 10L8 11L6 11L6 12L5 12L5 13L6 13L6 14L5 14L5 15L4 15L4 13L3 13L3 12L2 12L2 11L1 11L1 13L2 13L2 15L1 15L1 16L2 16L2 18L4 18L4 17L3 17L3 16L5 16L5 15L6 15L6 16L7 16L7 17L6 17L6 18L7 18L7 17L8 17L8 16L7 16L7 15L9 15L9 16L11 16L11 17L9 17L9 18L10 18L10 19L11 19L11 20L10 20L10 23L11 23L11 20L13 20L13 21L16 21L16 20L13 20L13 19L15 19L15 18L14 18L14 17L12 17L12 16L14 16L14 15L15 15L15 16L16 16L16 19L17 19L17 20L18 20L18 21L19 21L19 22L20 22L20 20L25 20L25 19L24 19L24 17L25 17L25 18L26 18L26 17L25 17L25 16L26 16L26 14L25 14L25 16L24 16L24 15L23 15L23 14L22 14L22 15L23 15L23 16L21 16L21 17L22 17L22 18L21 18L21 19L19 19L19 20L18 20L18 18L17 18L17 17L20 17L20 16L18 16L18 14L16 14L16 15L15 15L15 13L14 13L14 10L15 10L15 9L16 9L16 6L17 6L17 5L16 5L16 4ZM19 5L19 7L20 7L20 5ZM11 6L11 8L12 8L12 6ZM23 10L23 12L24 12L24 10ZM6 12L6 13L7 13L7 12ZM11 12L11 14L10 14L10 15L11 15L11 16L12 16L12 15L11 15L11 14L12 14L12 13L13 13L13 14L14 14L14 13L13 13L13 12ZM6 14L6 15L7 15L7 14ZM2 15L2 16L3 16L3 15ZM16 15L16 16L17 16L17 15ZM23 16L23 17L24 17L24 16ZM11 18L11 19L13 19L13 18ZM22 18L22 19L23 19L23 18ZM6 19L6 20L7 20L7 19ZM21 21L21 24L24 24L24 21ZM14 22L14 23L15 23L15 22ZM22 22L22 23L23 23L23 22ZM19 25L19 26L20 26L20 28L21 28L21 25ZM8 27L8 29L9 29L9 27ZM24 27L24 28L25 28L25 27ZM0 0L0 7L7 7L7 0ZM1 1L1 6L6 6L6 1ZM2 2L2 5L5 5L5 2ZM22 0L22 7L29 7L29 0ZM23 1L23 6L28 6L28 1ZM24 2L24 5L27 5L27 2ZM0 22L0 29L7 29L7 22ZM1 23L1 28L6 28L6 23ZM2 24L2 27L5 27L5 24Z" fill="#000000"/></g></g></svg>
