<?xml version="1.0" encoding="UTF-8"?>
<svg xmlns="http://www.w3.org/2000/svg" version="1.1" width="100" height="100" viewBox="0 0 100 100"><rect x="0" y="0" width="100" height="100" fill="#ffffff"/><g transform="scale(3.448)"><g transform="translate(0,0)"><path fill-rule="evenodd" d="M9 0L9 1L8 1L8 2L9 2L9 3L8 3L8 4L10 4L10 7L11 7L11 4L12 4L12 5L13 5L13 6L12 6L12 9L14 9L14 12L12 12L12 11L13 11L13 10L11 10L11 11L10 11L10 9L11 9L11 8L6 8L6 9L8 9L8 10L9 10L9 11L7 11L7 10L6 10L6 11L7 11L7 12L6 12L6 13L7 13L7 14L6 14L6 15L4 15L4 14L5 14L5 13L3 13L3 12L5 12L5 11L3 11L3 10L5 10L5 8L0 8L0 9L2 9L2 10L1 10L1 11L0 11L0 12L1 12L1 13L0 13L0 14L3 14L3 16L4 16L4 17L3 17L3 18L2 18L2 20L3 20L3 21L4 21L4 20L3 20L3 18L4 18L4 19L5 19L5 20L6 20L6 21L7 21L7 20L6 20L6 19L7 19L7 18L4 18L4 17L8 17L8 14L9 14L9 15L10 15L10 14L11 14L11 13L12 13L12 15L11 15L11 18L12 18L12 17L14 17L14 18L13 18L13 19L12 19L12 20L11 20L11 19L10 19L10 20L9 20L9 18L8 18L8 23L9 23L9 22L10 22L10 21L11 21L11 22L12 22L12 21L13 21L13 23L14 23L14 24L12 24L12 23L10 23L10 25L9 25L9 24L8 24L8 29L9 29L9 26L12 26L12 25L13 25L13 26L14 26L14 27L16 27L16 26L17 26L17 25L18 25L18 27L19 27L19 29L20 29L20 28L21 28L21 27L23 27L23 29L25 29L25 28L26 28L26 29L27 29L27 28L28 28L28 26L29 26L29 23L28 23L28 25L27 25L27 24L26 24L26 25L25 25L25 23L27 23L27 22L29 22L29 20L28 20L28 19L27 19L27 16L28 16L28 15L27 15L27 14L25 14L25 13L27 13L27 12L28 12L28 11L27 11L27 12L26 12L26 11L25 11L25 9L26 9L26 8L25 8L25 9L24 9L24 8L23 8L23 9L22 9L22 8L21 8L21 5L20 5L20 3L21 3L21 0L18 0L18 1L20 1L20 2L18 2L18 3L17 3L17 4L16 4L16 5L14 5L14 3L13 3L13 4L12 4L12 2L15 2L15 3L16 3L16 2L17 2L17 0L16 0L16 1L14 1L14 0L13 0L13 1L11 1L11 2L10 2L10 0ZM10 3L10 4L11 4L11 3ZM18 3L18 4L17 4L17 8L14 8L14 6L13 6L13 8L14 8L14 9L15 9L15 10L16 10L16 11L17 11L17 12L16 12L16 13L15 13L15 12L14 12L14 14L16 14L16 13L17 13L17 12L18 12L18 13L19 13L19 11L20 11L20 10L19 10L19 8L20 8L20 9L21 9L21 8L20 8L20 5L19 5L19 7L18 7L18 4L19 4L19 3ZM8 5L8 7L9 7L9 5ZM15 6L15 7L16 7L16 6ZM17 8L17 9L16 9L16 10L17 10L17 11L19 11L19 10L17 10L17 9L18 9L18 8ZM27 8L27 9L28 9L28 10L29 10L29 9L28 9L28 8ZM21 10L21 11L22 11L22 12L20 12L20 13L25 13L25 12L23 12L23 11L22 11L22 10ZM1 11L1 12L3 12L3 11ZM10 12L10 13L9 13L9 14L10 14L10 13L11 13L11 12ZM28 13L28 14L29 14L29 13ZM17 14L17 15L16 15L16 17L15 17L15 16L14 16L14 15L12 15L12 16L14 16L14 17L15 17L15 18L14 18L14 19L13 19L13 20L14 20L14 22L16 22L16 23L17 23L17 24L16 24L16 25L14 25L14 26L16 26L16 25L17 25L17 24L18 24L18 25L20 25L20 23L19 23L19 22L20 22L20 21L19 21L19 20L18 20L18 19L17 19L17 20L16 20L16 19L15 19L15 18L16 18L16 17L17 17L17 18L18 18L18 17L21 17L21 18L19 18L19 19L22 19L22 20L25 20L25 21L26 21L26 20L27 20L27 19L26 19L26 17L25 17L25 16L27 16L27 15L25 15L25 16L24 16L24 15L20 15L20 14L19 14L19 15L20 15L20 16L18 16L18 14ZM0 15L0 21L1 21L1 15ZM6 15L6 16L7 16L7 15ZM17 16L17 17L18 17L18 16ZM22 17L22 18L23 18L23 19L25 19L25 17ZM28 17L28 18L29 18L29 17ZM17 20L17 23L18 23L18 22L19 22L19 21L18 21L18 20ZM21 21L21 24L24 24L24 21ZM22 22L22 23L23 23L23 22ZM11 24L11 25L12 25L12 24ZM21 25L21 26L19 26L19 27L21 27L21 26L25 26L25 25ZM11 27L11 28L10 28L10 29L18 29L18 28L12 28L12 27ZM24 27L24 28L25 28L25 27ZM26 27L26 28L27 28L27 27ZM0 0L0 7L7 7L7 0ZM1 1L1 6L6 6L6 1ZM2 2L2 5L5 5L5 2ZM22 0L22 7L29 7L29 0ZM23 1L23 6L28 6L28 1ZM24 2L24 5L27 5L27 2ZM0 22L0 29L7 29L7 22ZM1 23L1 28L6 28L6 23ZM2 24L2 27L5 27L5 24Z" fill="#000000"/></g></g></svg>
