<svg width="303" height="202" viewBox="0 0 303 202" fill="none" xmlns="http://www.w3.org/2000/svg">
    <path d="M284.598 119.786C283.568 82.0724 250.44 52.7016 217.312 36.9456C199.132 28.3 178.164 22.139 157.701 24.8256C146.935 26.2194 137.4 31.3502 128.028 36.279C118.029 41.531 107.767 45.2478 97.1013 49.005C81.9513 54.3378 66.6397 59.4484 52.0553 66.1548C40.3797 71.5078 28.5425 77.891 20.2605 87.6476C5.97911 104.474 5.09031 132.189 15.7357 150.934C21.5937 161.256 32.0977 167.761 43.3087 171.922C64.0541 179.618 86.6781 182.022 108.797 181.961C128.775 181.901 147.601 177.538 167.296 175.356C177.093 174.265 186.87 174.629 196.526 176.467C224.846 181.881 260.883 174.043 276.76 149.076C282.558 139.966 284.881 129.906 284.598 119.786Z" fill="#83A4FF"/>
    <path opacity="0.7" d="M284.598 119.786C283.568 82.0724 250.44 52.7016 217.312 36.9456C199.132 28.3 178.164 22.139 157.701 24.8256C146.935 26.2194 137.4 31.3502 128.028 36.279C118.029 41.531 107.767 45.2478 97.1013 49.005C81.9513 54.3378 66.6397 59.4484 52.0553 66.1548C40.3797 71.5078 28.5425 77.891 20.2605 87.6476C5.97911 104.474 5.09031 132.189 15.7357 150.934C21.5937 161.256 32.0977 167.761 43.3087 171.922C64.0541 179.618 86.6781 182.022 108.797 181.961C128.775 181.901 147.601 177.538 167.296 175.356C177.093 174.265 186.87 174.629 196.526 176.467C224.846 181.881 260.883 174.043 276.76 149.076C282.558 139.966 284.881 129.906 284.598 119.786Z" fill="white"/>
    <path d="M13.7158 194.688H289.587" stroke="#263238" stroke-width="0.5" stroke-linecap="round" stroke-linejoin="round"/>
    <path d="M241.693 173.983C242.4 174.286 244.097 174.245 244.097 174.245C244.117 174.245 243.733 173.134 243.693 173.054C243.329 172.286 242.137 170.993 241.188 171.114C240.501 171.215 240.097 171.902 240.259 172.549C240.42 173.215 241.107 173.72 241.693 173.983Z" fill="#263238"/>
    <path d="M242.279 178.912C243.006 179.013 244.521 178.568 244.642 178.548C244.885 179.396 245.208 180.245 245.571 181.093C245.787 181.578 246.009 182.056 246.238 182.527C246.097 182.325 245.975 182.144 245.955 182.123C245.39 181.477 243.915 180.528 243.006 180.911C242.36 181.194 242.178 181.962 242.501 182.548C242.824 183.154 243.632 183.436 244.258 183.537C244.905 183.638 246.218 183.275 246.561 183.194C246.655 183.369 246.743 183.551 246.824 183.739C247.268 184.608 247.713 185.477 248.117 186.345C248.258 186.648 248.399 186.971 248.521 187.274C248.399 187.093 248.298 186.931 248.278 186.911C247.713 186.264 246.238 185.335 245.349 185.719C244.703 185.982 244.501 186.749 244.824 187.335C245.167 187.941 245.955 188.244 246.602 188.325C247.208 188.426 248.42 188.103 248.824 188.002C248.945 188.305 249.086 188.628 249.187 188.951C249.248 189.153 249.329 189.375 249.389 189.577C249.457 189.806 249.517 190.022 249.571 190.224C249.672 190.648 249.773 191.072 249.854 191.476C249.935 191.759 249.975 192.042 250.036 192.304C249.894 192.001 249.611 191.395 249.571 191.355C249.127 190.628 247.793 189.476 246.864 189.719C246.177 189.88 245.874 190.628 246.117 191.254C246.339 191.9 247.086 192.304 247.692 192.506C248.379 192.708 249.894 192.506 250.076 192.486C250.157 192.951 250.258 193.375 250.318 193.799C250.372 194.109 250.419 194.405 250.46 194.688H251.066C251.012 194.365 250.951 194.035 250.884 193.698C250.803 193.233 250.682 192.749 250.581 192.244C250.682 192.203 251.328 191.941 251.894 191.617C252.399 192.163 253.672 192.789 253.833 192.87C253.658 193.301 253.49 193.711 253.328 194.102C253.234 194.304 253.146 194.499 253.066 194.688H253.692C253.746 194.567 253.8 194.445 253.853 194.324C254.035 193.88 254.217 193.415 254.399 192.951C254.581 192.971 256.075 193.274 256.762 193.132C257.388 192.991 258.156 192.627 258.439 192.001C258.722 191.395 258.479 190.648 257.813 190.426C256.883 190.102 255.49 191.153 254.964 191.84C254.944 191.88 254.661 192.365 254.48 192.688C254.56 192.486 254.641 192.284 254.702 192.082C254.863 191.698 254.985 191.294 255.146 190.85C255.2 190.634 255.261 190.419 255.328 190.203C255.389 190.001 255.449 189.759 255.51 189.537C255.631 189.012 255.732 188.486 255.813 187.941C256.176 188.062 257.429 188.486 258.075 188.446C258.722 188.406 259.53 188.163 259.893 187.598C260.257 187.032 260.136 186.244 259.509 185.921C258.641 185.477 257.106 186.305 256.479 186.911C256.459 186.951 256.055 187.436 255.853 187.719C255.894 187.396 255.954 187.052 255.995 186.729C256.116 185.759 256.197 184.79 256.298 183.82C256.325 183.524 256.358 183.221 256.399 182.911C256.52 182.972 257.994 183.517 258.722 183.457C259.368 183.416 260.176 183.174 260.54 182.608C260.923 182.043 260.782 181.275 260.156 180.952C259.307 180.507 257.752 181.315 257.146 181.921C257.085 181.982 256.54 182.689 256.399 182.871C256.459 182.204 256.54 181.558 256.641 180.911C256.782 180.043 256.964 179.174 257.207 178.366C257.267 178.386 258.802 178.952 259.55 178.912C260.196 178.871 261.004 178.629 261.368 178.043C261.731 177.498 261.61 176.71 260.984 176.387C260.115 175.942 258.58 176.77 257.954 177.376C257.914 177.417 257.308 178.184 257.207 178.326C257.22 178.272 257.234 178.218 257.247 178.164C257.51 177.296 257.893 176.488 258.257 175.74C258.479 175.316 258.722 174.912 258.964 174.528C259.227 174.67 260.499 175.276 261.166 175.316C261.812 175.336 262.64 175.195 263.085 174.67C263.509 174.144 263.469 173.357 262.883 172.973C262.075 172.427 260.459 173.074 259.772 173.619C259.732 173.639 259.388 173.983 259.146 174.225C259.267 174.064 259.368 173.882 259.469 173.72C259.893 173.114 260.297 172.569 260.661 172.104C260.863 171.842 261.065 171.599 261.247 171.377C261.59 171.377 262.964 171.337 263.57 171.054C264.155 170.771 264.822 170.266 264.963 169.599C265.105 168.933 264.701 168.266 263.994 168.185C263.044 168.084 261.893 169.397 261.529 170.185C261.509 170.266 261.146 171.377 261.166 171.377H261.186C261.011 171.592 260.816 171.821 260.6 172.064C260.237 172.528 259.812 173.054 259.388 173.66C258.964 174.266 258.52 174.932 258.116 175.68C257.732 176.427 257.328 177.235 257.045 178.104C257.045 178.117 257.045 178.13 257.045 178.144C257.045 177.861 257.025 177.053 257.025 176.993C256.904 176.144 256.197 174.548 255.227 174.367C254.54 174.245 253.975 174.771 253.914 175.457C253.853 176.124 254.358 176.811 254.843 177.235C255.368 177.74 256.883 178.205 257.005 178.245C256.742 179.073 256.54 179.962 256.378 180.871C256.284 181.396 256.203 181.921 256.136 182.447C256.136 182.204 256.116 181.982 256.116 181.942C256.015 181.093 255.288 179.497 254.338 179.316C253.651 179.194 253.066 179.74 253.005 180.406C252.944 181.073 253.449 181.76 253.934 182.204C254.419 182.628 255.692 183.053 256.035 183.174C256.008 183.376 255.981 183.578 255.954 183.78C255.853 184.749 255.732 185.719 255.591 186.668C255.55 187.012 255.49 187.335 255.429 187.658C255.429 187.436 255.409 187.254 255.409 187.234C255.308 186.365 254.581 184.77 253.631 184.608C252.944 184.467 252.359 185.012 252.298 185.679C252.258 186.365 252.742 187.052 253.227 187.476C253.692 187.901 254.863 188.305 255.267 188.426C255.207 188.769 255.126 189.092 255.045 189.416C254.985 189.638 254.944 189.86 254.863 190.062C254.796 190.277 254.729 190.493 254.661 190.708C254.52 191.112 254.379 191.516 254.217 191.9C254.116 192.183 254.015 192.425 253.914 192.688C253.954 192.365 254.055 191.698 254.055 191.658C254.055 191.072 253.853 190.143 253.449 189.476C253.449 189.395 253.443 189.315 253.429 189.234C253.328 188.567 252.702 188.082 252.035 188.264C251.086 188.507 250.5 190.143 250.46 191.011C250.46 191.072 250.48 191.617 250.52 191.981C250.46 191.759 250.419 191.577 250.379 191.355C250.278 190.951 250.157 190.527 250.056 190.102C249.988 189.887 249.921 189.671 249.854 189.456C249.793 189.234 249.692 189.012 249.632 188.789C249.45 188.284 249.228 187.779 249.005 187.274C249.369 187.194 250.642 186.87 251.167 186.466C251.672 186.083 252.217 185.436 252.217 184.749C252.217 184.083 251.672 183.497 250.985 183.578C250.015 183.679 249.187 185.214 249.005 186.062C248.985 186.123 248.925 186.729 248.904 187.072C248.763 186.769 248.642 186.487 248.48 186.184C248.056 185.315 247.591 184.446 247.127 183.578C246.992 183.308 246.857 183.046 246.723 182.79C246.844 182.75 248.379 182.406 248.965 181.962C249.47 181.558 250.015 180.911 250.015 180.225C250.015 179.558 249.47 178.972 248.763 179.053C247.814 179.154 246.965 180.689 246.804 181.538C246.783 181.618 246.703 182.507 246.703 182.729C246.379 182.144 246.097 181.558 245.814 180.972C245.45 180.164 245.127 179.336 244.885 178.528C244.945 178.508 246.541 178.144 247.127 177.7C247.652 177.296 248.197 176.669 248.177 175.983C248.177 175.296 247.632 174.73 246.945 174.791C245.975 174.912 245.147 176.447 244.965 177.296C244.945 177.356 244.864 178.326 244.864 178.487C244.851 178.447 244.837 178.4 244.824 178.346C244.561 177.477 244.42 176.589 244.319 175.76C244.279 175.296 244.238 174.831 244.238 174.367C244.541 174.326 245.935 174.144 246.501 173.801C247.066 173.458 247.672 172.892 247.753 172.205C247.814 171.539 247.349 170.892 246.642 170.892C245.672 170.892 244.662 172.326 244.4 173.155C244.38 173.195 244.299 173.68 244.218 174.023C244.218 173.821 244.218 173.599 244.218 173.417C244.218 172.67 244.258 172.003 244.319 171.417C244.339 171.074 244.38 170.771 244.4 170.488C244.683 170.286 245.814 169.498 246.157 168.933C246.48 168.387 246.763 167.579 246.521 166.953C246.258 166.327 245.551 165.984 244.925 166.287C244.077 166.731 243.854 168.468 243.996 169.337C243.996 169.397 244.319 170.529 244.339 170.529L244.359 170.508C244.319 170.778 244.279 171.074 244.238 171.397C244.198 172.003 244.117 172.67 244.117 173.397C244.097 174.144 244.097 174.932 244.157 175.781C244.238 176.629 244.359 177.518 244.602 178.407C244.602 178.42 244.609 178.433 244.622 178.447C244.46 178.205 244.016 177.538 243.976 177.498C243.41 176.851 241.935 175.902 241.026 176.286C240.4 176.568 240.198 177.336 240.521 177.922C240.865 178.528 241.653 178.811 242.279 178.912Z" fill="#263238"/>
    <path d="M258.923 174.346C258.923 174.367 259.226 173.215 259.247 173.155C259.368 172.286 259.085 170.569 258.216 170.145C257.59 169.842 256.883 170.205 256.641 170.832C256.419 171.478 256.722 172.266 257.065 172.811C257.469 173.437 258.923 174.346 258.923 174.346Z" fill="#263238"/>
    <path d="M29.2292 173.983C29.916 174.286 31.633 174.245 31.633 174.245C31.6532 174.245 31.2694 173.134 31.229 173.054C30.8654 172.286 29.6736 170.993 28.7242 171.114C28.0172 171.215 27.6334 171.902 27.795 172.549C27.9566 173.215 28.6434 173.72 29.2292 173.983Z" fill="#263238"/>
    <path d="M29.8148 178.912C30.542 179.013 32.057 178.568 32.1782 178.548C32.4206 179.396 32.7438 180.245 33.1074 181.093C33.3094 181.578 33.5316 182.056 33.774 182.527C33.6326 182.325 33.5114 182.144 33.4912 182.123C32.9256 181.477 31.4308 180.528 30.542 180.911C29.8956 181.194 29.7138 181.962 30.037 182.548C30.3602 183.154 31.148 183.436 31.7944 183.537C32.4408 183.638 33.7538 183.275 34.0972 183.194C34.178 183.369 34.2655 183.551 34.3598 183.739C34.8042 184.608 35.2486 185.477 35.6526 186.345C35.794 186.648 35.9354 186.971 36.0566 187.274C35.9354 187.093 35.8344 186.931 35.8142 186.911C35.2486 186.264 33.774 185.335 32.865 185.719C32.2388 185.982 32.0368 186.749 32.36 187.335C32.7034 187.941 33.4912 188.244 34.1174 188.325C34.7436 188.426 35.9556 188.103 36.3596 188.002C36.4808 188.305 36.602 188.628 36.7232 188.951C36.7838 189.153 36.8646 189.375 36.9252 189.577C36.979 189.806 37.0396 190.022 37.107 190.224C37.208 190.648 37.309 191.072 37.3898 191.476C37.4504 191.759 37.511 192.042 37.5716 192.304C37.4302 192.001 37.1474 191.395 37.107 191.355C36.6424 190.628 35.3294 189.476 34.38 189.719C33.7134 189.88 33.4104 190.628 33.6326 191.254C33.875 191.9 34.6022 192.304 35.2284 192.506C35.9152 192.708 37.41 192.506 37.612 192.486C37.6928 192.951 37.7736 193.375 37.8544 193.799C37.9082 194.109 37.9554 194.405 37.9958 194.688H38.6018C38.5479 194.365 38.4873 194.035 38.42 193.698C38.319 193.233 38.218 192.749 38.117 192.244C38.218 192.203 38.8644 191.941 39.43 191.617C39.935 192.163 41.2076 192.789 41.3692 192.87C41.1941 193.301 41.019 193.711 40.844 194.102C40.7632 194.304 40.6824 194.499 40.6016 194.688H41.2278C41.2816 194.567 41.3355 194.445 41.3894 194.324C41.551 193.88 41.7328 193.415 41.9146 192.951C42.0964 192.971 43.5912 193.274 44.2982 193.132C44.9244 192.991 45.692 192.627 45.9748 192.001C46.2576 191.395 45.995 190.648 45.3284 190.426C44.4194 190.102 43.0256 191.153 42.5004 191.84C42.4802 191.88 42.1974 192.365 42.0156 192.688C42.0964 192.486 42.157 192.284 42.2378 192.082C42.3792 191.698 42.5206 191.294 42.662 190.85C42.7293 190.634 42.7966 190.419 42.864 190.203C42.9246 190.001 42.965 189.759 43.0256 189.537C43.167 189.012 43.268 188.486 43.3488 187.941C43.6922 188.062 44.9446 188.486 45.591 188.446C46.2374 188.406 47.0454 188.163 47.4292 187.598C47.7928 187.032 47.6716 186.244 47.0454 185.921C46.1768 185.477 44.6416 186.305 44.0154 186.911C43.975 186.951 43.5912 187.436 43.3892 187.719C43.4296 187.396 43.4902 187.052 43.5306 186.729C43.6518 185.759 43.7326 184.79 43.8336 183.82C43.8605 183.524 43.8874 183.221 43.9144 182.911C44.0558 182.972 45.5304 183.517 46.2576 183.457C46.904 183.416 47.712 183.174 48.0756 182.608C48.4392 182.043 48.318 181.275 47.6918 180.952C46.8232 180.507 45.288 181.315 44.682 181.921C44.6214 181.982 44.0558 182.689 43.9346 182.871C43.9952 182.204 44.076 181.558 44.177 180.911C44.3184 180.043 44.5002 179.174 44.7426 178.366C44.783 178.386 46.3384 178.952 47.0656 178.912C47.712 178.871 48.52 178.629 48.9038 178.043C49.2674 177.498 49.1462 176.71 48.52 176.387C47.6514 175.942 46.1162 176.77 45.49 177.376C45.4496 177.417 44.8436 178.184 44.7426 178.326C44.756 178.272 44.7695 178.218 44.783 178.164C45.0456 177.296 45.4092 176.488 45.793 175.74C46.0152 175.316 46.2576 174.912 46.4798 174.528C46.7626 174.67 48.0352 175.276 48.7018 175.316C49.3482 175.336 50.1764 175.195 50.6208 174.67C51.045 174.144 51.0046 173.357 50.4188 172.973C49.6108 172.427 47.9746 173.074 47.308 173.619C47.2676 173.639 46.9242 173.983 46.6818 174.225C46.7828 174.064 46.904 173.882 47.005 173.72C47.409 173.114 47.8332 172.569 48.1968 172.104C48.3988 171.842 48.6008 171.599 48.7826 171.377C49.126 171.377 50.4996 171.337 51.0854 171.054C51.6712 170.771 52.358 170.266 52.4994 169.599C52.6206 168.933 52.2166 168.266 51.5298 168.185C50.5602 168.084 49.429 169.397 49.0654 170.185C49.0452 170.266 48.6816 171.377 48.7018 171.377H48.722C48.5469 171.592 48.3516 171.821 48.1362 172.064C47.7726 172.528 47.3484 173.054 46.9242 173.66C46.5 174.266 46.0556 174.932 45.6516 175.68C45.2476 176.427 44.8638 177.235 44.581 178.104C44.581 178.117 44.5742 178.13 44.5608 178.144C44.581 177.861 44.5608 177.053 44.5608 176.993C44.4396 176.144 43.7124 174.548 42.763 174.367C42.0762 174.245 41.4904 174.771 41.45 175.457C41.3894 176.124 41.8742 176.811 42.359 177.235C42.9044 177.74 44.4194 178.205 44.5406 178.245C44.278 179.073 44.0558 179.962 43.8942 180.871C43.8134 181.396 43.7326 181.921 43.6518 182.447C43.6518 182.204 43.6518 181.982 43.6518 181.942C43.5306 181.093 42.8236 179.497 41.854 179.316C41.1672 179.194 40.6016 179.74 40.541 180.406C40.4804 181.073 40.9854 181.76 41.4702 182.204C41.955 182.628 43.2276 183.053 43.571 183.174C43.544 183.376 43.5171 183.578 43.4902 183.78C43.369 184.749 43.268 185.719 43.1266 186.668C43.0862 187.012 43.0256 187.335 42.965 187.658C42.9448 187.436 42.9448 187.254 42.9448 187.234C42.8438 186.365 42.1166 184.77 41.1672 184.608C40.4804 184.467 39.8946 185.012 39.834 185.679C39.7734 186.365 40.2784 187.052 40.7632 187.476C41.2278 187.901 42.3994 188.305 42.8034 188.426C42.7428 188.769 42.662 189.092 42.5812 189.416C42.5206 189.638 42.4802 189.86 42.3994 190.062C42.332 190.277 42.2647 190.493 42.1974 190.708C42.056 191.112 41.8944 191.516 41.753 191.9C41.652 192.183 41.551 192.425 41.4298 192.688C41.4904 192.365 41.5712 191.698 41.5712 191.658C41.5914 191.072 41.3894 190.143 40.9854 189.476C40.9854 189.395 40.9786 189.315 40.9652 189.234C40.8642 188.567 40.238 188.082 39.5714 188.264C38.622 188.507 38.0362 190.143 37.9958 191.011C37.9756 191.072 38.016 191.617 38.0362 191.981C37.9958 191.759 37.9554 191.577 37.8948 191.355C37.814 190.951 37.6928 190.527 37.5716 190.102C37.5177 189.887 37.4571 189.671 37.3898 189.456C37.3292 189.234 37.2282 189.012 37.1474 188.789C36.9656 188.284 36.7636 187.779 36.5414 187.274C36.905 187.194 38.1776 186.87 38.7028 186.466C39.2078 186.083 39.7532 185.436 39.7532 184.749C39.7532 184.083 39.2078 183.497 38.5008 183.578C37.5514 183.679 36.703 185.214 36.5414 186.062C36.5212 186.123 36.4606 186.729 36.4404 187.072C36.299 186.769 36.1576 186.487 36.0162 186.184C35.592 185.315 35.1274 184.446 34.6628 183.578C34.5281 183.308 34.3934 183.046 34.2588 182.79C34.38 182.75 35.9152 182.406 36.4808 181.962C37.006 181.558 37.5514 180.911 37.5514 180.225C37.5312 179.558 37.006 178.972 36.299 179.053C35.3294 179.154 34.5012 180.689 34.3194 181.538C34.3194 181.618 34.2386 182.507 34.2184 182.729C33.9154 182.144 33.6326 181.558 33.3498 180.972C32.9862 180.164 32.663 179.336 32.4004 178.528C32.461 178.508 34.077 178.144 34.6628 177.7C35.1678 177.296 35.7132 176.669 35.7132 175.983C35.7132 175.296 35.1678 174.73 34.481 174.791C33.5114 174.912 32.6832 176.447 32.5014 177.296C32.4812 177.356 32.4004 178.326 32.4004 178.487C32.3734 178.447 32.3532 178.4 32.3398 178.346C32.0772 177.477 31.9358 176.589 31.855 175.76C31.7944 175.296 31.7742 174.831 31.754 174.367C32.057 174.326 33.471 174.144 34.0366 173.801C34.6022 173.458 35.2082 172.892 35.2688 172.205C35.3496 171.539 34.8648 170.892 34.178 170.892C33.2084 170.892 32.1984 172.326 31.9358 173.155C31.9156 173.195 31.8146 173.68 31.754 174.023C31.754 173.821 31.754 173.599 31.754 173.417C31.754 172.67 31.7944 172.003 31.8348 171.417C31.8752 171.074 31.8954 170.771 31.9358 170.488C32.2186 170.286 33.3296 169.498 33.6932 168.933C34.0164 168.387 34.2992 167.579 34.0366 166.953C33.7942 166.327 33.0872 165.984 32.461 166.287C31.5924 166.731 31.3702 168.468 31.5116 169.337C31.5318 169.397 31.855 170.529 31.8752 170.529C31.8752 170.529 31.8752 170.508 31.8954 170.508C31.855 170.778 31.8146 171.074 31.7742 171.397C31.7136 172.003 31.653 172.67 31.6328 173.397C31.6126 174.144 31.6126 174.932 31.6934 175.781C31.7742 176.629 31.8954 177.518 32.1378 178.407C32.1378 178.42 32.1378 178.433 32.1378 178.447C31.9964 178.205 31.552 177.538 31.5116 177.498C30.946 176.851 29.4512 175.902 28.5624 176.286C27.916 176.568 27.7342 177.336 28.0574 177.922C28.3806 178.528 29.1684 178.811 29.8148 178.912Z" fill="#263238"/>
    <path d="M46.4599 174.346C46.4599 174.367 46.7629 173.215 46.7629 173.155C46.8841 172.286 46.6214 170.569 45.7326 170.145C45.1064 169.842 44.4197 170.205 44.1773 170.832C43.9551 171.478 44.2379 172.266 44.6015 172.811C45.0055 173.437 46.4397 174.346 46.4599 174.346Z" fill="#263238"/>
    <path d="M284.84 155.318V175.376H251.692V136.027H284.84V152.268" stroke="#263238" stroke-width="0.5" stroke-linecap="round" stroke-linejoin="round"/>
    <path d="M284.84 140.814H251.692V136.027H284.84V140.814Z" stroke="#263238" stroke-width="0.5" stroke-linecap="round" stroke-linejoin="round"/>
    <path d="M258.661 150.934H254.52V146.793H258.661V150.934Z" stroke="#263238" stroke-width="0.5" stroke-linecap="round" stroke-linejoin="round"/>
    <path d="M258.661 159.237H254.52V155.096H258.661V159.237Z" stroke="#263238" stroke-width="0.5" stroke-linecap="round" stroke-linejoin="round"/>
    <path d="M258.661 167.518H254.52V163.377H258.661V167.518Z" stroke="#263238" stroke-width="0.5" stroke-linecap="round" stroke-linejoin="round"/>
    <path d="M261.247 148.571H280.376" stroke="#263238" stroke-width="0.5" stroke-linecap="round" stroke-linejoin="round"/>
    <path d="M261.247 157.459H280.376" stroke="#263238" stroke-width="0.5" stroke-linecap="round" stroke-linejoin="round"/>
    <path d="M261.247 165.559H280.376" stroke="#263238" stroke-width="0.5" stroke-linecap="round" stroke-linejoin="round"/>
    <path d="M158.853 160.105H134.653V180.326V186.002L144.006 180.326H184.426V160.105H162.893" stroke="#263238" stroke-width="0.5" stroke-linecap="round" stroke-linejoin="round"/>
    <path d="M147.238 168.347C147.238 169.781 146.551 171.074 145.481 171.882C144.733 172.447 143.804 172.771 142.794 172.771C141.804 172.771 140.875 172.447 140.128 171.882C139.057 171.074 138.37 169.781 138.37 168.347C138.37 165.882 140.35 163.903 142.794 163.903C145.258 163.903 147.238 165.882 147.238 168.347Z" stroke="#263238" stroke-width="0.5" stroke-linecap="round" stroke-linejoin="round"/>
    <path d="M144.208 166.872C144.208 167.66 143.582 168.286 142.794 168.286C142.026 168.286 141.4 167.66 141.4 166.872C141.4 166.105 142.026 165.479 142.794 165.479C143.582 165.479 144.208 166.105 144.208 166.872Z" stroke="#263238" stroke-width="0.5" stroke-linecap="round" stroke-linejoin="round"/>
    <path d="M145.581 171.135C145.581 171.397 145.541 171.64 145.48 171.882C144.733 172.448 143.804 172.771 142.794 172.771C141.804 172.771 140.875 172.448 140.127 171.882C140.067 171.64 140.026 171.397 140.026 171.135C140.026 169.599 141.279 168.367 142.794 168.367C144.329 168.367 145.581 169.599 145.581 171.135Z" stroke="#263238" stroke-width="0.5" stroke-linecap="round" stroke-linejoin="round"/>
    <path d="M151.864 165.943H166.893" stroke="#263238" stroke-width="0.5" stroke-linecap="round" stroke-linejoin="round"/>
    <path d="M151.864 169.074H181.376" stroke="#263238" stroke-width="0.5" stroke-linecap="round" stroke-linejoin="round"/>
    <path d="M151.864 172.67H181.376" stroke="#263238" stroke-width="0.5" stroke-linecap="round" stroke-linejoin="round"/>
    <path d="M151.864 176.346H181.376" stroke="#263238" stroke-width="0.5" stroke-linecap="round" stroke-linejoin="round"/>
    <path d="M199.697 66.6401V79.3257L195.213 76.5381L185.294 90.1529V66.6401H199.697Z" stroke="#263238" stroke-width="0.5" stroke-linecap="round" stroke-linejoin="round"/>
    <path fill-rule="evenodd" clip-rule="evenodd" d="M228.179 56.9238L216.786 71.286L213.777 69.4074L212.302 68.4984L209.615 66.8218L200.263 79.669L199.697 80.4366V56.9238H228.179ZM208.585 63.105C208.585 61.489 207.272 60.1962 205.656 60.1962C204.04 60.1962 202.747 61.489 202.747 63.105C202.747 64.721 204.04 66.034 205.656 66.034C207.272 66.034 208.585 64.721 208.585 63.105Z" stroke="#263238" stroke-width="0.5" stroke-linecap="round" stroke-linejoin="round"/>
    <path d="M213.776 80.4367V90.1529H185.294L195.213 76.5381L199.697 79.3257V80.4367H213.776Z" stroke="#263238" stroke-width="0.5" stroke-linecap="round" stroke-linejoin="round"/>
    <path d="M194.162 72.8214C194.162 71.2256 192.849 69.9126 191.253 69.9126C189.637 69.9126 188.324 71.2256 188.324 72.8214C188.324 74.4374 189.637 75.7504 191.253 75.7504C192.849 75.7504 194.162 74.4374 194.162 72.8214Z" stroke="#263238" stroke-width="0.5" stroke-linecap="round" stroke-linejoin="round"/>
    <path d="M208.565 63.1051C208.565 64.7211 207.252 66.0341 205.656 66.0341C204.04 66.0341 202.727 64.7211 202.727 63.1051C202.727 61.4891 204.04 60.1963 205.656 60.1963C207.252 60.1963 208.565 61.4891 208.565 63.1051Z" stroke="#263238" stroke-width="0.5" stroke-linecap="round" stroke-linejoin="round"/>
    <path d="M228.179 73.306V80.4366H199.697L200.263 79.669L209.615 66.8218L212.302 68.4984L213.777 69.4074L216.786 71.286L228.179 56.9238V69.9326" stroke="#263238" stroke-width="0.5" stroke-linecap="round" stroke-linejoin="round"/>
    <path d="M208.565 63.1051C208.565 64.7211 207.252 66.0341 205.656 66.0341C204.04 66.0341 202.727 64.7211 202.727 63.1051C202.727 61.4891 204.04 60.1963 205.656 60.1963C207.252 60.1963 208.565 61.4891 208.565 63.1051Z" stroke="#263238" stroke-width="0.5" stroke-linecap="round" stroke-linejoin="round"/>
    <path d="M154.49 41.0668H140.067C139.037 41.0668 138.208 40.2386 138.208 39.2084V8.80744C138.208 7.79744 139.037 6.96924 140.067 6.96924H154.49C155.52 6.96924 156.348 7.79744 156.348 8.80744V39.2084C156.348 40.2386 155.52 41.0668 154.49 41.0668Z" stroke="#263238" stroke-width="0.5" stroke-linecap="round" stroke-linejoin="round"/>
    <path d="M154.874 18.6248V9.73682H151.662V10.8276H142.895V9.73682H139.683V38.2996H154.874V21.9982" stroke="#263238" stroke-width="0.5" stroke-linecap="round" stroke-linejoin="round"/>
    <path d="M39.8344 129.24C39.8344 132.128 37.4912 134.472 34.6026 134.472C31.714 134.472 29.3506 132.128 29.3506 129.24C29.3506 126.331 31.714 123.988 34.6026 123.988C37.4912 123.988 39.8344 126.331 39.8344 129.24Z" stroke="#263238" stroke-width="0.5" stroke-linecap="round" stroke-linejoin="round"/>
    <path d="M53.6308 141.461C53.6308 144.37 51.2674 146.713 48.3788 146.713C45.4902 146.713 43.147 144.37 43.147 141.461C43.147 138.572 45.4902 136.229 48.3788 136.229C51.2674 136.229 53.6308 138.572 53.6308 141.461Z" stroke="#263238" stroke-width="0.5" stroke-linecap="round" stroke-linejoin="round"/>
    <path d="M39.8344 153.682C39.8344 156.591 37.4912 158.934 34.6026 158.934C31.714 158.934 29.3506 156.591 29.3506 153.682C29.3506 150.793 31.714 148.45 34.6026 148.45C37.4912 148.45 39.8344 150.793 39.8344 153.682Z" stroke="#263238" stroke-width="0.5" stroke-linecap="round" stroke-linejoin="round"/>
    <path d="M38.6226 132.674L43.9756 137.825" stroke="#263238" stroke-width="0.5" stroke-linecap="round" stroke-linejoin="round"/>
    <path d="M44.5004 145.238L38.9858 150.591" stroke="#263238" stroke-width="0.5" stroke-linecap="round" stroke-linejoin="round"/>
    <path d="M108.07 90.8394L108.373 95.3238L97.7883 88.3144L86.0318 93.0614L89.4255 80.8202L81.2646 71.104L93.9503 70.5384L100.677 59.792L105.121 71.6898L117.443 74.7602L107.504 82.6584L107.828 87.4054" stroke="#263238" stroke-width="0.5" stroke-linecap="round" stroke-linejoin="round"/>
    <path d="M285.446 55.0852L278.457 55.166L274.579 60.9634L272.336 54.3378L265.61 52.439L271.225 48.2576L270.963 41.2886L276.659 45.3286L283.204 42.9248L281.123 49.5908L285.446 55.0852Z" stroke="#263238" stroke-width="0.5" stroke-linecap="round" stroke-linejoin="round"/>
    <path d="M82.3354 65.8518L75.3462 65.9326L71.4476 71.73L69.2256 65.1246L62.499 63.2056L68.0944 59.0444L67.8318 52.0552L73.5282 56.0952L80.0932 53.6914L78.0126 60.3574L82.3354 65.8518Z" stroke="#263238" stroke-width="0.5" stroke-linecap="round" stroke-linejoin="round"/>
    <path d="M121.867 184.123L117.241 184.183L114.675 188.001L113.201 183.638L108.757 182.365L112.453 179.618L112.292 175.013L116.049 177.679L120.392 176.083L119.018 180.487L121.867 184.123Z" stroke="#263238" stroke-width="0.5" stroke-linecap="round" stroke-linejoin="round"/>
    <path d="M24.8258 28.1792L25.7752 31.1284H28.886L26.3812 32.9464L27.3306 35.8956L24.8258 34.0776L22.321 35.8956L23.2704 32.9464L20.7656 31.1284H23.8764L24.8258 28.1792Z" fill="#83A4FF" stroke="#263238" stroke-width="0.5" stroke-linecap="round" stroke-linejoin="round"/>
    <path d="M34.8248 28.1792L35.7944 31.1284H38.885L36.3802 32.9464L37.3296 35.8956L34.8248 34.0776L32.32 35.8956L33.2694 32.9464L30.7646 31.1284H33.8754L34.8248 28.1792Z" fill="#83A4FF" stroke="#263238" stroke-width="0.5" stroke-linecap="round" stroke-linejoin="round"/>
    <path d="M44.8239 28.1792L45.7935 31.1284H48.8841L46.3793 32.9464L47.3489 35.8956L44.8239 34.0776L42.3191 35.8956L43.2887 32.9464L40.7637 31.1284H43.8745L44.8239 28.1792Z" fill="#83A4FF" stroke="#263238" stroke-width="0.5" stroke-linecap="round" stroke-linejoin="round"/>
    <path d="M54.8429 28.1792L55.7923 31.1284H58.8829L56.3781 32.9464L57.3477 35.8956L54.8429 34.0776L52.3179 35.8956L53.2875 32.9464L50.7827 31.1284H53.8733L54.8429 28.1792Z" fill="#263238" stroke="#263238" stroke-width="0.5" stroke-linecap="round" stroke-linejoin="round"/>
    <path d="M64.8419 28.1792L65.7913 31.1284H68.9021L66.3771 32.9464L67.3467 35.8956L64.8419 34.0776L62.3169 35.8956L63.2865 32.9464L60.7817 31.1284H63.8723L64.8419 28.1792Z" fill="#263238" stroke="#263238" stroke-width="0.5" stroke-linecap="round" stroke-linejoin="round"/>
    <path d="M23.3917 102.717L24.3613 105.666H27.4519L24.9471 107.484L25.9167 110.434L23.3917 108.616L20.8869 110.434L21.8565 107.484L19.3315 105.666H22.4423L23.3917 102.717Z" fill="#83A4FF" stroke="#263238" stroke-width="0.5" stroke-linecap="round" stroke-linejoin="round"/>
    <path d="M33.4108 102.717L34.3602 105.666H37.4508L34.946 107.484L35.9156 110.434L33.4108 108.616L30.8858 110.434L31.8554 107.484L29.3506 105.666H32.4412L33.4108 102.717Z" fill="#83A4FF" stroke="#263238" stroke-width="0.5" stroke-linecap="round" stroke-linejoin="round"/>
    <path d="M43.4098 102.717L44.3592 105.666H47.47L44.945 107.484L45.9146 110.434L43.4098 108.616L40.905 110.434L41.8544 107.484L39.3496 105.666H42.4402L43.4098 102.717Z" fill="#263238" stroke="#263238" stroke-width="0.5" stroke-linecap="round" stroke-linejoin="round"/>
    <path d="M53.4088 102.717L54.3582 105.666H57.469L54.9642 107.484L55.9136 110.434L53.4088 108.616L50.904 110.434L51.8534 107.484L49.3486 105.666H52.4392L53.4088 102.717Z" fill="#263238" stroke="#263238" stroke-width="0.5" stroke-linecap="round" stroke-linejoin="round"/>
    <path d="M63.4079 102.717L64.3573 105.666H67.4681L64.9633 107.484L65.9127 110.434L63.4079 108.616L60.9031 110.434L61.8525 107.484L59.3477 105.666H62.4585L63.4079 102.717Z" fill="#263238" stroke="#263238" stroke-width="0.5" stroke-linecap="round" stroke-linejoin="round"/>
    <path d="M228.644 28.1792L229.614 31.1284H232.704L230.199 32.9464L231.169 35.8956L228.644 34.0776L226.139 35.8956L227.109 32.9464L224.604 31.1284H227.695L228.644 28.1792Z" fill="#83A4FF" stroke="#263238" stroke-width="0.5" stroke-linecap="round" stroke-linejoin="round"/>
    <path d="M238.663 28.1792L239.613 31.1284H242.723L240.198 32.9464L241.168 35.8956L238.663 34.0776L236.138 35.8956L237.108 32.9464L234.603 31.1284H237.694L238.663 28.1792Z" fill="#83A4FF" stroke="#263238" stroke-width="0.5" stroke-linecap="round" stroke-linejoin="round"/>
    <path d="M248.662 28.1792L249.612 31.1284H252.722L250.218 32.9464L251.167 35.8956L248.662 34.0776L246.157 35.8956L247.107 32.9464L244.602 31.1284H247.693L248.662 28.1792Z" fill="#83A4FF" stroke="#263238" stroke-width="0.5" stroke-linecap="round" stroke-linejoin="round"/>
    <path d="M258.661 28.1792L259.611 31.1284H262.721L260.217 32.9464L261.166 35.8956L258.661 34.0776L256.156 35.8956L257.106 32.9464L254.601 31.1284H257.712L258.661 28.1792Z" fill="#83A4FF" stroke="#263238" stroke-width="0.5" stroke-linecap="round" stroke-linejoin="round"/>
    <path d="M268.66 28.1792L269.63 31.1284H272.72L270.216 32.9464L271.165 35.8956L268.66 34.0776L266.155 35.8956L267.105 32.9464L264.6 31.1284H267.711L268.66 28.1792Z" fill="#83A4FF" stroke="#263238" stroke-width="0.5" stroke-linecap="round" stroke-linejoin="round"/>
    <path d="M238.461 118.109L239.41 121.059H242.521L240.016 122.877L240.966 125.826L238.461 124.008L235.956 125.826L236.906 122.877L234.401 121.059H237.491L238.461 118.109Z" fill="#83A4FF" stroke="#263238" stroke-width="0.5" stroke-linecap="round" stroke-linejoin="round"/>
    <path d="M248.46 118.109L249.409 121.059H252.52L250.015 122.877L250.965 125.826L248.46 124.008L245.955 125.826L246.905 122.877L244.4 121.059H247.511L248.46 118.109Z" fill="#83A4FF" stroke="#263238" stroke-width="0.5" stroke-linecap="round" stroke-linejoin="round"/>
    <path d="M258.459 118.109L259.429 121.059H262.519L260.015 122.877L260.964 125.826L258.459 124.008L255.954 125.826L256.904 122.877L254.399 121.059H257.51L258.459 118.109Z" fill="#263238" stroke="#263238" stroke-width="0.5" stroke-linecap="round" stroke-linejoin="round"/>
    <path d="M268.458 118.109L269.428 121.059H272.518L270.014 122.877L270.963 125.826L268.458 124.008L265.953 125.826L266.923 122.877L264.398 121.059H267.509L268.458 118.109Z" fill="#263238" stroke="#263238" stroke-width="0.5" stroke-linecap="round" stroke-linejoin="round"/>
    <path d="M278.457 118.109L279.427 121.059H282.517L280.013 122.877L280.982 125.826L278.457 124.008L275.952 125.826L276.922 122.877L274.397 121.059H277.508L278.457 118.109Z" fill="#263238" stroke="#263238" stroke-width="0.5" stroke-linecap="round" stroke-linejoin="round"/>
    <path d="M128.189 47.1875L129.159 50.1367H132.249L129.745 51.9547L130.694 54.9039L128.189 53.0859L125.684 54.9039L126.654 51.9547L124.129 50.1367H127.24L128.189 47.1875Z" fill="#83A4FF" stroke="#263238" stroke-width="0.5" stroke-linecap="round" stroke-linejoin="round"/>
    <path d="M138.188 47.1875L139.158 50.1367H142.248L139.744 51.9547L140.713 54.9039L138.188 53.0859L135.683 54.9039L136.653 51.9547L134.128 50.1367H137.239L138.188 47.1875Z" fill="#83A4FF" stroke="#263238" stroke-width="0.5" stroke-linecap="round" stroke-linejoin="round"/>
    <path d="M148.207 47.1875L149.157 50.1367H152.267L149.742 51.9547L150.712 54.9039L148.207 53.0859L145.682 54.9039L146.652 51.9547L144.147 50.1367H147.238L148.207 47.1875Z" fill="#83A4FF" stroke="#263238" stroke-width="0.5" stroke-linecap="round" stroke-linejoin="round"/>
    <path d="M158.206 47.1875L159.156 50.1367H162.266L159.741 51.9547L160.711 54.9039L158.206 53.0859L155.701 54.9039L156.651 51.9547L154.146 50.1367H157.237L158.206 47.1875Z" fill="#83A4FF" stroke="#263238" stroke-width="0.5" stroke-linecap="round" stroke-linejoin="round"/>
    <path d="M168.205 47.1875L169.155 50.1367H172.265L169.761 51.9547L170.71 54.9039L168.205 53.0859L165.7 54.9039L166.65 51.9547L164.145 50.1367H167.236L168.205 47.1875Z" fill="#263238" stroke="#263238" stroke-width="0.5" stroke-linecap="round" stroke-linejoin="round"/>
    <path d="M173.336 95.8087C169.215 109.969 154.368 118.13 140.188 114.009C126.028 109.868 117.867 95.0411 122.008 80.8607C126.129 66.7005 140.955 58.5397 155.136 62.6605C169.296 66.8015 177.457 81.6283 173.336 95.8087Z" fill="#263238" stroke="#263238" stroke-width="0.5" stroke-linejoin="round"/>
    <path d="M170.851 95.0814C167.135 107.888 153.722 115.261 140.915 111.524C128.108 107.807 120.755 94.3946 124.472 81.5878C128.189 68.781 141.602 61.408 154.409 65.145C167.215 68.8618 174.588 82.2746 170.851 95.0814Z" fill="#83A4FF" stroke="#263238" stroke-width="0.5" stroke-linecap="round" stroke-linejoin="round"/>
    <path d="M134.875 89.6274C134.188 95.4046 137.743 100.98 143.5 102.656C149.257 104.333 155.237 101.525 157.762 96.2934L134.875 89.6274Z" fill="white" stroke="#263238" stroke-width="0.5" stroke-linecap="round" stroke-linejoin="round"/>
    <path d="M143.48 83.0021C142.814 85.2645 140.874 86.6987 139.137 86.1937C137.4 85.6887 136.531 83.4465 137.198 81.1639C137.844 78.9015 139.804 77.4673 141.541 77.9723C143.278 78.4773 144.147 80.7397 143.48 83.0021Z" fill="#263238" stroke="#263238" stroke-width="0.5" stroke-linecap="round" stroke-linejoin="round"/>
    <path d="M160.347 87.9108C159.68 90.1732 157.741 91.6074 156.004 91.1024C154.267 90.5974 153.398 88.335 154.045 86.0726C154.711 83.8102 156.65 82.376 158.388 82.881C160.125 83.386 161.014 85.6282 160.347 87.9108Z" fill="#263238" stroke="#263238" stroke-width="0.5" stroke-linecap="round" stroke-linejoin="round"/>
    <path d="M218.746 34.8452C216.544 47.0258 204.889 55.126 192.708 52.9242C180.527 50.7224 172.427 39.0468 174.649 26.8662C176.851 14.6856 188.506 6.60561 200.687 8.80741C212.868 11.0092 220.968 22.6646 218.746 34.8452Z" fill="#263238" stroke="#263238" stroke-width="0.5" stroke-linecap="round" stroke-linejoin="round"/>
    <path d="M216.665 34.4814C214.665 45.5106 204.121 52.823 193.092 50.8434C182.042 48.8436 174.73 38.279 176.73 27.2498C178.709 16.2206 189.274 8.88797 200.303 10.8878C211.332 12.8876 218.665 23.4522 216.665 34.4814Z" fill="#83A4FF" stroke="#263238" stroke-width="0.5" stroke-linecap="round" stroke-linejoin="round"/>
    <path d="M186.365 31.6738C186.304 36.542 189.759 40.9052 194.728 41.794C199.677 42.6828 204.444 39.8144 206.08 35.229L186.365 31.6738Z" fill="white" stroke="#263238" stroke-width="0.5" stroke-linecap="round" stroke-linejoin="round"/>
    <path d="M187.496 21.9575L191.738 26.0379L186.325 27.8559" stroke="#263238" stroke-width="0.5" stroke-linecap="round" stroke-linejoin="round"/>
    <path d="M208.262 25.7148L202.869 28.058L207.292 31.6536" stroke="#263238" stroke-width="0.5" stroke-linecap="round" stroke-linejoin="round"/>
    <path d="M62.4381 67.9128C67.2053 79.3864 61.7715 92.5366 50.2979 97.2836C38.8445 102.051 25.6943 96.5968 20.9271 85.1434C16.1801 73.69 21.6139 60.5398 33.0875 55.7726C44.5409 51.0256 57.6911 56.4594 62.4381 67.9128Z" fill="#263238" stroke="#263238" stroke-width="0.5" stroke-linecap="round" stroke-linejoin="round"/>
    <path d="M60.4384 68.761C64.741 79.1034 59.8324 90.981 49.4698 95.2836C39.1072 99.566 27.2296 94.6574 22.9472 84.315C18.6446 73.9524 23.5532 62.0748 33.9158 57.7924C44.2582 53.4898 56.1358 58.3984 60.4384 68.761Z" fill="#83A4FF" stroke="#263238" stroke-width="0.5" stroke-linecap="round" stroke-linejoin="round"/>
    <path d="M37.2486 91.9508C36.1376 87.2038 38.5818 82.2144 43.248 80.2752C47.894 78.336 53.1662 80.1338 55.7518 84.2748" stroke="#263238" stroke-width="0.5" stroke-linecap="round" stroke-linejoin="round"/>
    <path d="M36.1379 75.2248C36.9055 77.063 36.3803 79.0224 34.9865 79.6082C33.5725 80.194 31.8151 79.184 31.0677 77.3458C30.3001 75.5076 30.8253 73.5482 32.2191 72.9624C33.6331 72.3766 35.3905 73.4068 36.1379 75.2248Z" fill="#263238" stroke="#263238" stroke-width="0.5" stroke-linecap="round" stroke-linejoin="round"/>
    <path d="M49.7729 69.5691C50.5405 71.4073 50.0153 73.3667 48.6215 73.9525C47.2075 74.5383 45.4501 73.5283 44.6825 71.6901C43.9351 69.8519 44.4603 67.8925 45.8541 67.3067C47.2681 66.7209 49.0053 67.7511 49.7729 69.5691Z" fill="#263238" stroke="#263238" stroke-width="0.5" stroke-linecap="round" stroke-linejoin="round"/>
    <path d="M120.069 35.4916C119.099 48.2378 107.969 57.7722 95.2427 56.7824C82.4965 55.7926 72.9621 44.6826 73.9519 31.9364C74.9215 19.1902 86.0517 9.67603 98.7979 10.6456C111.524 11.6354 121.058 22.7454 120.069 35.4916Z" fill="#263238" stroke="#263238" stroke-width="0.5" stroke-linecap="round" stroke-linejoin="round"/>
    <path d="M117.24 35.2692C116.392 46.46 106.635 54.8228 95.4446 53.9542C84.274 53.0856 75.9112 43.329 76.7798 32.1584C77.6282 20.9676 87.3848 12.625 98.5756 13.4734C109.746 14.342 118.109 24.0986 117.24 35.2692Z" fill="white" stroke="#263238" stroke-width="0.5" stroke-linecap="round" stroke-linejoin="round"/>
    <path d="M92.6571 30.0378C92.4955 32.0174 91.1421 33.5324 89.6271 33.4112C88.1121 33.3102 87.0213 31.5932 87.1627 29.6136C87.3243 27.634 88.6777 26.1392 90.1927 26.2402C91.7077 26.3614 92.7985 28.0582 92.6571 30.0378Z" fill="#263238" stroke="#263238" stroke-width="0.5" stroke-linecap="round" stroke-linejoin="round"/>
    <path d="M107.363 31.1892C107.221 33.1688 105.868 34.6636 104.353 34.5626C102.838 34.4414 101.727 32.7446 101.889 30.765C102.03 28.7854 103.383 27.2704 104.898 27.3916C106.413 27.4926 107.524 29.1894 107.363 31.1892Z" fill="#263238" stroke="#263238" stroke-width="0.5" stroke-linecap="round" stroke-linejoin="round"/>
    <path d="M87.2842 39.3901L106.919 40.8849" stroke="#263238" stroke-width="0.5" stroke-linecap="round" stroke-linejoin="round"/>
    <path d="M283.426 88.7186C283.426 103.182 271.71 114.898 257.247 114.898C242.784 114.898 231.068 103.182 231.068 88.7186C231.068 74.2756 242.784 62.5596 257.247 62.5596C271.71 62.5596 283.426 74.2756 283.426 88.7186Z" fill="#263238" stroke="#263238" stroke-width="0.5" stroke-linecap="round" stroke-linejoin="round"/>
    <path d="M280.841 88.7186C280.841 101.768 270.276 112.332 257.247 112.332C244.218 112.332 233.653 101.768 233.653 88.7186C233.653 75.6896 244.218 65.125 257.247 65.125C270.276 65.125 280.841 75.6896 280.841 88.7186Z" fill="#83A4FF" stroke="#263238" stroke-width="0.5" stroke-linecap="round" stroke-linejoin="round"/>
    <path d="M245.592 103.303C246.541 97.7075 251.389 93.4453 257.247 93.4453C263.105 93.4453 267.953 97.7075 268.903 103.303" stroke="#263238" stroke-width="0.5" stroke-linecap="round" stroke-linejoin="round"/>
    <path d="M251.874 84.8606C251.874 87.1634 250.439 89.042 248.662 89.042C246.904 89.042 245.47 87.1634 245.47 84.8606C245.47 82.5578 246.904 80.6792 248.662 80.6792C250.439 80.6792 251.874 82.5578 251.874 84.8606Z" fill="#263238" stroke="#263238" stroke-width="0.5" stroke-linecap="round" stroke-linejoin="round"/>
    <path d="M269.024 84.8606C269.024 87.1634 267.589 89.042 265.832 89.042C264.054 89.042 262.62 87.1634 262.62 84.8606C262.62 82.5578 264.054 80.6792 265.832 80.6792C267.589 80.6792 269.024 82.5578 269.024 84.8606Z" fill="#263238" stroke="#263238" stroke-width="0.5" stroke-linecap="round" stroke-linejoin="round"/>
    <path d="M244.258 79.8711L254.217 85.1433H260.721L271.084 80.0731" fill="#83A4FF"/>
    <path d="M235.148 185.719C235.148 185.719 235.572 191.9 235.087 193.173C234.602 194.425 232.865 196.364 231.815 195.94C230.764 195.536 231.047 193.092 231.047 191.415C231.047 189.759 230.623 187.254 230.623 186.83C230.623 186.406 235.148 185.719 235.148 185.719Z" fill="white" stroke="#263238" stroke-width="0.5" stroke-linejoin="round"/>
    <path d="M203.071 189.9C203.071 189.9 203.212 194.142 202.445 194.425C201.677 194.687 197.294 194.202 196.526 194.344C195.758 194.485 193.314 194.627 192.405 194.344C191.516 194.061 190.325 193.576 190.668 192.889C191.032 192.182 195.475 190.304 196.445 189.678C197.435 189.051 199.172 187.88 199.172 187.88L203.071 189.9Z" fill="white" stroke="#263238" stroke-width="0.5" stroke-linejoin="round"/>
    <path d="M225.977 138.229C225.977 138.229 226.321 140.673 226.462 144.915C226.603 149.177 225.129 158.004 225.129 158.004L226.947 168.306L233.896 184.184C233.896 184.184 235.572 184.608 235.148 185.719C234.744 186.83 233.269 188.022 232.441 188.022C231.613 188.022 230.502 187.658 230.138 187.113C229.795 186.547 229.654 185.153 229.654 185.153C229.654 185.153 217.554 169.013 217.332 168.448C217.13 167.902 215.17 159.338 215.17 159.338L210.161 166.084L203.212 186.89C203.212 186.89 203.697 187.517 203.414 188.426C203.131 189.335 202.646 190.587 202.646 190.587C202.646 190.587 201.959 190.587 200.768 190.163C199.576 189.759 198.404 188.708 198.404 188.708C198.404 188.708 198.121 188.143 198.263 187.456C198.404 186.749 198.828 186.486 198.748 185.921C198.687 185.375 201.192 165.519 201.596 164.206C202.02 162.873 211.635 142.976 211.635 142.976L212.322 137.885C212.322 137.885 218.523 140.39 225.977 138.229Z" fill="#263238" stroke="#263238" stroke-width="0.5" stroke-linejoin="round"/>
    <path d="M216.221 94.8994C216.221 94.8994 218.968 93.8288 221.19 94.3944C223.432 94.96 226.866 98.0102 226.624 99.808C226.361 101.586 222.281 105.504 222.281 105.504L222.442 109.1L215.332 112.17L214.322 107.585C214.322 107.585 211.696 106.918 211.797 106.535C211.898 106.151 212.504 102.596 212.504 102.596C212.504 102.596 211.696 102.07 212.241 101.182C212.766 100.293 213.938 99.0202 213.938 99.0202C213.938 99.0202 213.574 97.5254 216.221 94.8994Z" fill="white" stroke="#263238" stroke-width="0.5" stroke-linecap="round" stroke-linejoin="round"/>
    <path d="M214.322 107.585C214.322 107.585 215.978 107.605 216.261 107.545C216.544 107.484 218.241 106.494 218.241 106.494L215.17 110.958L214.322 107.585Z" fill="#263238" stroke="#263238" stroke-width="0.5" stroke-linecap="round" stroke-linejoin="round"/>
    <path d="M214.342 99.9293C214.18 100.212 214.12 100.475 214.241 100.556C214.342 100.636 214.584 100.475 214.746 100.192C214.928 99.9091 214.988 99.6263 214.867 99.5657C214.746 99.4849 214.524 99.6465 214.342 99.9293Z" fill="#263238"/>
    <path d="M214.564 98.6364C214.564 98.6364 215.21 98.4546 215.554 99.1818" stroke="#263238" stroke-width="0.5" stroke-linecap="round" stroke-linejoin="round"/>
    <path d="M212.908 103.646C212.908 103.646 213.554 103.848 214.281 103.444" stroke="#263238" stroke-width="0.5" stroke-linecap="round" stroke-linejoin="round"/>
    <path d="M215.756 95.5257L218.665 97.0407C218.665 97.0407 217.534 97.7881 217.776 98.4749C218.018 99.1415 218.018 99.1415 218.018 99.1415L217.958 101.808L218.705 102.111C218.705 102.111 220.968 100.515 221.513 102.01C222.079 103.485 220.139 104.535 220.139 104.535C220.139 104.535 220.947 106.292 221.654 106.676C222.382 107.08 221.978 105.828 223.412 105.484C224.846 105.121 227.553 102.616 227.613 101.182C227.674 99.7475 226.947 96.4751 224.543 95.0409C222.119 93.5865 220.442 93.2633 219.089 93.3441C217.736 93.4047 216.382 92.6169 215.938 93.5461C215.514 94.4551 215.756 95.5257 215.756 95.5257Z" fill="#263238" stroke="#263238" stroke-width="0.5" stroke-linecap="round" stroke-linejoin="round"/>
    <path d="M205.091 114.857L202.142 115.1L188.931 109.605L188.527 107.929L186.769 104.737C186.769 104.737 185.901 104.656 186.062 105.141C186.224 105.626 186.466 107.464 186.466 107.464L185.153 110.534C185.153 110.534 185.578 111.201 185.901 111.262C186.224 111.342 187.658 111.504 187.658 111.504L202.061 119.786L205.818 120.19L205.091 114.857Z" fill="white" stroke="#263238" stroke-width="0.5" stroke-linejoin="round"/>
    <path d="M216.807 113.261L205.091 114.857L205.818 120.19L215.837 123.139L216.807 113.261Z" fill="white" stroke="#263238" stroke-width="0.5" stroke-linejoin="round"/>
    <path d="M206.686 114.292L207.393 121.14L205.01 120.675L204.141 114.211L206.686 114.292Z" fill="white" stroke="#263238" stroke-width="0.5" stroke-linejoin="round"/>
    <path d="M222.967 109.08C222.967 109.08 225.614 112.615 226.664 116.998C227.714 121.382 227.916 126.614 227.007 129.26C226.098 131.906 226.24 136.572 226.24 136.572C226.24 136.572 226.947 137.885 226.179 138.734C225.412 139.562 220.543 141.097 216.301 140.471C212.039 139.845 211.898 138.794 211.696 138.107C211.494 137.4 211.554 127.927 212.463 123.685C213.372 119.443 214.403 115.746 215.029 113.867C215.675 111.989 222.967 109.08 222.967 109.08Z" fill="white" stroke="#263238" stroke-width="0.5" stroke-linejoin="round"/>
    <path d="M222.886 106.737L214.059 112.554L214.2 115.685L223.816 109.201L222.886 106.737Z" fill="white" stroke="#263238" stroke-width="0.5" stroke-linejoin="round"/>
    <path d="M203.212 145.662L188.728 136.067L172.609 142.551L177.255 125.826L166.104 112.494L183.456 111.746L192.688 97.0205L198.748 113.302L215.615 117.524L202 128.331L203.212 145.662Z" fill="#83A4FF" stroke="#263238" stroke-width="0.5" stroke-linecap="round" stroke-linejoin="round"/>
    <path d="M214.969 131.906L199.859 139.42C199.859 139.42 198.687 138.451 198.122 137.744C197.556 137.057 197.071 136.855 196.445 136.774C195.819 136.713 195.415 136.976 194.647 136.35C193.88 135.724 193.738 135.865 194.021 136.572C194.304 137.259 194.365 137.542 194.991 137.602C195.617 137.683 196.041 137.966 196.041 137.966C196.041 137.966 194.223 139.077 193.799 139.279C193.395 139.501 193.031 139.844 193.173 140.046C193.314 140.248 193.173 140.612 193.597 140.612C194.021 140.612 194.506 140.612 194.506 140.612C194.506 140.612 195.051 141.097 195.617 141.784C196.183 142.491 196.728 142.834 197.354 142.895C197.98 142.975 199.657 142.895 201.111 142.491C202.586 142.066 214.686 138.309 216.302 137.683C217.898 137.057 219.918 135.602 219.918 135.602L214.969 131.906Z" fill="white" stroke="#263238" stroke-width="0.5" stroke-linejoin="round"/>
    <path d="M224.362 114.857C224.362 114.857 226.382 116.453 226.18 118.534C225.978 120.634 222.14 134.694 222.14 134.694L215.251 130.431C215.251 130.431 217.413 118.675 218.665 116.655C219.918 114.635 221.372 114.292 221.372 114.292" fill="white"/>
    <path d="M224.362 114.857C224.362 114.857 226.382 116.453 226.18 118.534C225.978 120.634 222.14 134.694 222.14 134.694L215.251 130.431C215.251 130.431 217.413 118.675 218.665 116.655C219.918 114.635 221.372 114.292 221.372 114.292" stroke="#263238" stroke-width="0.5" stroke-linejoin="round"/>
    <path d="M215.251 128.492L223.392 133.583C223.392 133.583 222.564 136.491 221.937 136.976C221.311 137.481 221.311 137.481 221.311 137.481C221.311 137.481 214.625 132.876 214.201 132.249C213.777 131.623 215.029 128.836 215.251 128.492Z" fill="white" stroke="#263238" stroke-width="0.5" stroke-linejoin="round"/>
    <path d="M184.688 106.01L184.668 106.07C184.547 106.353 184.668 106.676 184.951 106.797L186.425 107.444C186.708 107.565 187.031 107.424 187.152 107.161L187.193 107.08C187.314 106.797 187.173 106.474 186.89 106.353L185.435 105.707C185.153 105.585 184.829 105.727 184.688 106.01Z" fill="white" stroke="#263238" stroke-width="0.5" stroke-linejoin="round"/>
    <path d="M184.224 107.202L184.203 107.262C184.062 107.545 184.203 107.868 184.486 107.989L185.557 108.474C185.84 108.595 186.183 108.454 186.304 108.171L186.324 108.111C186.446 107.828 186.324 107.505 186.042 107.383L184.951 106.899C184.668 106.777 184.345 106.919 184.224 107.202Z" fill="white" stroke="#263238" stroke-width="0.5" stroke-linejoin="round"/>
    <path d="M183.617 108.373L183.577 108.434C183.456 108.716 183.577 109.04 183.86 109.161L184.951 109.646C185.233 109.767 185.557 109.646 185.678 109.363L185.718 109.302C185.839 109.019 185.718 108.676 185.435 108.555L184.345 108.09C184.062 107.969 183.739 108.09 183.617 108.373Z" fill="white" stroke="#263238" stroke-width="0.5" stroke-linejoin="round"/>
    <path d="M183.355 109.625L183.335 109.686C183.214 109.969 183.335 110.292 183.618 110.413L184.446 110.777C184.729 110.898 185.052 110.777 185.173 110.494L185.213 110.433C185.335 110.151 185.193 109.807 184.91 109.686L184.102 109.343C183.82 109.201 183.476 109.343 183.355 109.625Z" fill="white" stroke="#263238" stroke-width="0.5" stroke-linejoin="round"/>
    <path d="M94.6373 105.525C94.6373 105.525 95.4453 104.696 95.8291 103.222C96.1927 101.767 95.1827 100.353 93.0617 99.7879C90.9407 99.2223 84.4565 98.8587 81.5881 101.06C78.6995 103.262 82.0527 108.514 81.6285 109.746C81.2245 110.999 77.7097 112.069 78.2551 116.635C78.8005 121.22 82.9415 122.876 86.3755 121.685C89.8297 120.513 93.5263 117.382 94.8999 115.604C96.2937 113.827 94.6373 105.525 94.6373 105.525Z" fill="#263238" stroke="#263238" stroke-width="0.5" stroke-linecap="round" stroke-linejoin="round"/>
    <path d="M78.7602 162.529L79.6894 168.488L66.418 180.326L67.529 182.588C67.529 182.588 87.2038 173.882 87.729 173.256C88.2542 172.629 87.8098 163.317 87.8098 163.317L78.7602 162.529Z" fill="#83A4FF" stroke="#263238" stroke-width="0.5" stroke-linecap="round" stroke-linejoin="round"/>
    <path d="M66.4178 180.326C66.4178 180.326 63.509 182.083 63.6908 182.972C63.8524 183.84 65.933 184.992 66.2966 185.578C66.6804 186.143 66.4784 187.759 67.9934 188.769C69.5017 189.766 70.1548 189.759 69.9528 188.749C69.7508 187.759 67.5288 182.588 67.5288 182.588L66.4178 180.326Z" fill="#263238" stroke="#263238" stroke-width="0.5" stroke-linecap="round" stroke-linejoin="round"/>
    <path d="M80.1337 131.684C80.1337 131.684 72.9021 136.168 71.8921 143.339C70.8821 150.49 75.5887 158.125 77.2249 161.297C78.8409 164.488 83.4667 170.932 83.4667 170.932L84.7191 191.354L86.5169 190.203C86.5169 190.203 89.6883 173.255 89.7085 169.175C89.7287 165.094 88.1127 160.226 88.1127 160.226C88.1127 160.226 89.3247 150.268 88.9005 147.48C88.4763 144.692 88.7389 140.774 88.7389 140.774L80.1337 131.684Z" fill="#83A4FF" stroke="#263238" stroke-width="0.5" stroke-linecap="round" stroke-linejoin="round"/>
    <path d="M87.749 159.802C87.749 159.802 83.8908 147.722 82.2344 144.41" stroke="#283469" stroke-width="0.5" stroke-miterlimit="10" stroke-linecap="round"/>
    <path d="M84.7191 191.355C84.7191 191.355 84.4767 194.708 85.0625 194.789C85.6483 194.89 90.9811 190.991 91.5063 190.466C92.0315 189.941 91.6073 189.678 91.0619 189.718C90.5165 189.759 86.5169 190.203 86.5169 190.203L84.7191 191.355Z" fill="#263238" stroke="#263238" stroke-width="0.5" stroke-linecap="round" stroke-linejoin="round"/>
    <path d="M123.341 133.259L120.271 132.674C120.783 132.606 121.294 132.552 121.806 132.512C121.988 132.492 122.513 132.653 122.614 132.431C122.917 131.765 121.362 131.785 121.18 131.765C120.857 131.711 120.54 131.664 120.23 131.623L118.109 131.017C118.109 131.017 119.584 130.573 119.907 130.169C120.23 129.765 119.806 129.179 119.241 129.522C118.655 129.866 117.665 129.846 117.079 129.947C116.493 130.068 115.221 131.502 115.221 131.502L114.595 131.886L104.212 127.906L102.374 125.058L98.9194 126.876L101.545 131.603L113.463 134.33L113.484 134.31C113.948 134.37 114.857 134.512 115.483 134.512C115.867 134.532 117.564 134.896 118.21 134.916C118.877 135.199 120.917 136.047 121.059 136.047C121.24 136.007 121.422 135.906 121.382 135.805C121.341 135.724 119.887 134.896 119.584 134.613L120.291 134.734C120.695 134.896 121.927 135.34 122.21 135.3C122.755 135.239 122.271 134.795 122.271 134.795L119.705 133.623L120.271 133.643C120.695 133.684 123.159 133.845 123.382 133.704C123.624 133.562 123.341 133.259 123.341 133.259Z" fill="white" stroke="#263238" stroke-width="0.5" stroke-miterlimit="10" stroke-linecap="round"/>
    <path d="M118.109 131.017L117.584 131.482C117.584 131.482 117.463 132.694 116.938 133.057C116.413 133.401 115.867 132.916 115.867 132.916" fill="white"/>
    <path d="M118.109 131.017L117.584 131.482C117.584 131.482 117.463 132.694 116.938 133.057C116.413 133.401 115.867 132.916 115.867 132.916" stroke="#263238" stroke-width="0.5" stroke-miterlimit="10" stroke-linecap="round"/>
    <path d="M93.1021 115.019C93.1021 115.019 97.5864 116.554 99.5458 118.998C101.525 121.442 103.808 126.472 103.808 126.472L98.4551 128.189C98.4551 128.189 97.1017 120.978 95.3645 118.594C93.6071 116.19 93.1021 115.019 93.1021 115.019Z" fill="white" stroke="#263238" stroke-width="0.5" stroke-miterlimit="10" stroke-linecap="round"/>
    <path d="M88.3753 115.625C88.3753 115.625 84.4969 117.725 83.3657 121.099C82.2345 124.472 77.4067 134.027 77.4067 134.027C77.4067 134.027 78.8813 137.198 82.7597 139.238C86.6381 141.258 88.8803 141.784 88.8803 141.784C88.8803 141.784 94.6777 134.491 95.0009 133.603C95.3039 132.714 99.4247 128.856 99.7277 125.502C100.051 122.129 96.2533 118.109 95.1423 116.675C94.0313 115.261 89.8701 114.817 88.3753 115.625Z" fill="white" stroke="#263238" stroke-width="0.5" stroke-miterlimit="10" stroke-linecap="round"/>
    <path d="M90.0317 114.797C90.0317 114.797 88.1531 116.615 88.0319 117.705C87.8905 118.776 90.2943 124.755 90.9811 124.331C91.6679 123.907 92.1729 121.139 92.1729 121.139C92.1729 121.139 95.2029 123.281 95.8089 121.402C96.4149 119.503 93.8091 115.322 92.9203 114.736C92.0113 114.15 90.3347 114.554 90.3347 114.554" fill="white"/>
    <path d="M90.0317 114.797C90.0317 114.797 88.1531 116.615 88.0319 117.705C87.8905 118.776 90.2943 124.755 90.9811 124.331C91.6679 123.907 92.1729 121.139 92.1729 121.139C92.1729 121.139 95.2029 123.281 95.8089 121.402C96.4149 119.503 93.8091 115.322 92.9203 114.736C92.0113 114.15 90.3347 114.554 90.3347 114.554" stroke="#263238" stroke-width="0.5" stroke-miterlimit="10" stroke-linecap="round"/>
    <path d="M87.6074 114.029C87.6074 114.029 88.7184 117.503 89.5668 118.453C90.395 119.402 92.3948 121.765 92.7786 121.321C93.1624 120.877 93.1018 115.019 93.1018 115.019L87.6074 114.029Z" fill="white" stroke="#263238" stroke-width="0.5" stroke-miterlimit="10" stroke-linecap="round"/>
    <path d="M92.213 115.907L88.6578 116.554L87.6074 114.029L92.213 115.907Z" fill="#263238" stroke="#263238" stroke-width="0.5" stroke-linecap="round" stroke-linejoin="round"/>
    <path d="M87.8906 104.111L85.6888 111.847C85.6888 111.847 84.8404 110.595 84.3354 111.666C83.8102 112.716 85.002 114.029 85.911 114.393C86.82 114.776 87.6078 114.029 87.6078 114.029C87.6078 114.029 89.7894 115.887 91.4458 116.312C93.1022 116.756 94.1728 116.554 94.9 115.605C95.6474 114.655 96.516 111.807 95.9908 109.585C95.4858 107.343 94.6374 105.525 94.6374 105.525L87.8906 104.111Z" fill="white" stroke="#263238" stroke-width="0.5" stroke-miterlimit="10" stroke-linecap="round"/>
    <path d="M93.0615 106.232C93.0615 106.232 92.4353 106.818 93.1827 108.454C93.9301 110.09 95.1421 111.464 94.8391 111.625C94.5361 111.787 93.4251 111.767 93.4251 111.767" stroke="#283469" stroke-width="0.5" stroke-linecap="round" stroke-linejoin="round"/>
    <path d="M93.1828 113.322C93.1828 113.322 92.2738 113.666 90.9204 112.353" stroke="#283469" stroke-width="0.5" stroke-linecap="round" stroke-linejoin="round"/>
    <path d="M88.7388 108.373C88.7388 108.373 88.8398 107.141 90.2336 106.939" stroke="#283469" stroke-width="0.5" stroke-linecap="round" stroke-linejoin="round"/>
    <path d="M90.86 109.524C91.0216 109.807 91.0014 110.13 90.8196 110.211C90.6378 110.312 90.355 110.171 90.1934 109.888C90.052 109.605 90.0722 109.302 90.254 109.201C90.4358 109.1 90.7186 109.241 90.86 109.524Z" fill="#263238"/>
    <path d="M94.5159 107.646C94.6573 107.929 94.6371 108.232 94.4553 108.333C94.2735 108.434 93.9907 108.292 93.8493 108.009C93.6877 107.727 93.7079 107.403 93.8897 107.323C94.0715 107.222 94.3543 107.363 94.5159 107.646Z" fill="#263238"/>
    <path d="M129.159 159.338L112.959 150.429L96.4553 158.732L99.9095 140.572L86.9209 127.422L105.262 125.119L113.746 108.696L121.604 125.422L139.845 128.432L126.371 141.077L129.159 159.338Z" fill="#83A4FF" stroke="#263238" stroke-width="0.5" stroke-linecap="round" stroke-linejoin="round"/>
    <path d="M118.191 139.178L114.373 138.693C115.006 138.599 115.645 138.518 116.292 138.451C116.514 138.43 117.181 138.572 117.322 138.329C117.726 137.602 115.767 137.683 115.544 137.663C115.14 137.636 114.743 137.602 114.353 137.562L111.727 136.996C111.727 136.996 113.585 136.451 114.009 136.006C114.433 135.582 113.928 134.956 113.181 135.34C112.454 135.744 111.201 135.764 110.474 135.905C109.727 136.027 108.07 137.622 108.07 137.622L107.262 138.067L94.3949 134.209L92.1931 131.239L87.7896 133.32L90.9003 138.269L105.747 140.733L105.768 140.693C106.353 140.753 107.485 140.854 108.293 140.834C108.757 140.834 110.878 141.157 111.686 141.157C112.514 141.44 115.039 142.268 115.221 142.248C115.464 142.228 115.686 142.087 115.645 141.986C115.605 141.905 113.807 141.077 113.423 140.794L114.292 140.875C114.817 141.036 116.352 141.481 116.676 141.42C117.383 141.339 116.797 140.875 116.797 140.875L113.605 139.723H114.312C114.858 139.743 117.948 139.824 118.231 139.663C118.534 139.521 118.191 139.178 118.191 139.178Z" fill="white" stroke="#263238" stroke-width="0.5" stroke-miterlimit="10" stroke-linecap="round"/>
    <path d="M83.9715 121.786C83.9715 121.786 83.0625 122.351 83.7291 125.119C84.3957 127.866 87.7287 134.411 87.7287 134.411L93.3443 131.663C93.3443 131.663 90.7991 124.513 90.8799 122.715C90.9809 120.513 86.9207 118.352 85.6683 119.483" fill="white"/>
    <path d="M83.9715 121.786C83.9715 121.786 83.0625 122.351 83.7291 125.119C84.3957 127.866 87.7287 134.411 87.7287 134.411L93.3443 131.663C93.3443 131.663 90.7991 124.513 90.8799 122.715C90.9809 120.513 86.9207 118.352 85.6683 119.483" stroke="#263238" stroke-width="0.5" stroke-miterlimit="10" stroke-linecap="round"/>
    </svg>
    