<svg width="270" height="270" viewBox="0 0 270 270" fill="none" xmlns="http://www.w3.org/2000/svg">
    <path d="M270 206.496H0V206.631H270V206.496Z" fill="#EBEBEB"/>
    <path d="M242.946 215.185H225.061V215.32H242.946V215.185Z" fill="#EBEBEB"/>
    <path d="M178.859 216.654H174.166V216.789H178.859V216.654Z" fill="#EBEBEB"/>
    <path d="M224.521 210.174H214.159V210.309H224.521V210.174Z" fill="#EBEBEB"/>
    <path d="M51.651 211.081H28.3284V211.216H51.651V211.081Z" fill="#EBEBEB"/>
    <path d="M59.8806 211.081H56.4624V211.216H59.8806V211.081Z" fill="#EBEBEB"/>
    <path d="M121.581 213.359H70.9939V213.494H121.581V213.359Z" fill="#EBEBEB"/>
    <path d="M127.98 182.412H23.7113C22.8945 182.411 22.1116 182.085 21.5345 181.507C20.9574 180.929 20.6333 180.146 20.6333 179.329V32.7566C20.6404 31.9444 20.9677 31.1679 21.544 30.5956C22.1203 30.0234 22.8991 29.7016 23.7113 29.7002H127.98C128.798 29.7002 129.582 30.0251 130.16 30.6033C130.738 31.1816 131.063 31.9658 131.063 32.7836V179.329C131.063 180.147 130.738 180.931 130.16 181.509C129.582 182.087 128.798 182.412 127.98 182.412ZM23.7113 29.8082C22.9303 29.8096 22.1817 30.1209 21.63 30.6737C21.0782 31.2264 20.7683 31.9756 20.7683 32.7566V179.329C20.7683 180.11 21.0782 180.859 21.63 181.412C22.1817 181.964 22.9303 182.276 23.7113 182.277H127.98C128.761 182.276 129.511 181.965 130.063 181.412C130.616 180.859 130.927 180.11 130.928 179.329V32.7566C130.927 31.9751 130.616 31.226 130.063 30.6733C129.511 30.1207 128.761 29.8096 127.98 29.8082H23.7113Z" fill="#EBEBEB"/>
    <path d="M244.787 182.412H140.513C139.696 182.411 138.913 182.085 138.335 181.508C137.757 180.93 137.431 180.146 137.43 179.329V32.7566C137.438 31.944 137.767 31.1674 138.344 30.5953C138.921 30.0232 139.701 29.7016 140.513 29.7002H244.787C245.599 29.703 246.376 30.0254 246.951 30.5975C247.526 31.1696 247.853 31.9454 247.86 32.7566V179.329C247.86 180.145 247.537 180.927 246.961 181.505C246.385 182.083 245.603 182.409 244.787 182.412ZM140.513 29.8082C139.732 29.8096 138.983 30.1207 138.43 30.6733C137.877 31.226 137.566 31.9751 137.565 32.7566V179.329C137.566 180.11 137.877 180.859 138.43 181.412C138.983 181.965 139.732 182.276 140.513 182.277H244.787C245.569 182.276 246.318 181.965 246.871 181.412C247.423 180.859 247.734 180.11 247.736 179.329V32.7566C247.734 31.9751 247.423 31.226 246.871 30.6733C246.318 30.1207 245.569 29.8096 244.787 29.8082H140.513Z" fill="#EBEBEB"/>
    <path d="M151.772 178.179H188.541L188.541 52.8609H151.772V178.179Z" fill="#FAFAFA"/>
    <path d="M150.919 57.3105L189.389 57.3105V51.1599L150.919 51.1599V57.3105Z" fill="#F0F0F0"/>
    <path d="M150.919 61.0635L189.389 61.0635V57.9909L150.919 57.9909V61.0635Z" fill="#F0F0F0"/>
    <path d="M150.919 65.6265H189.389V62.5539L150.919 62.5539V65.6265Z" fill="#F0F0F0"/>
    <path d="M150.919 70.1948H189.389V67.1222H150.919V70.1948Z" fill="#F0F0F0"/>
    <path d="M150.919 74.7578H189.389V71.6852H150.919V74.7578Z" fill="#F0F0F0"/>
    <path d="M150.919 79.3208H189.389V76.2482H150.919V79.3208Z" fill="#F0F0F0"/>
    <path d="M150.919 83.8838H189.389V80.8112H150.919V83.8838Z" fill="#F0F0F0"/>
    <path d="M150.919 88.4468H189.389V85.3742H150.919V88.4468Z" fill="#F0F0F0"/>
    <path d="M150.919 93.0098H189.389V89.9372H150.919V93.0098Z" fill="#F0F0F0"/>
    <path d="M150.919 97.5728H189.389V94.5002H150.919V97.5728Z" fill="#F0F0F0"/>
    <path d="M150.919 102.136H189.389V99.0631H150.919V102.136Z" fill="#F0F0F0"/>
    <path d="M150.919 106.699H189.389V103.626H150.919V106.699Z" fill="#F0F0F0"/>
    <path d="M150.919 111.262H189.389V108.189H150.919V111.262Z" fill="#F0F0F0"/>
    <path d="M150.919 115.825H189.389V112.752H150.919V115.825Z" fill="#F0F0F0"/>
    <path d="M150.919 120.388H189.389V117.315H150.919V120.388Z" fill="#F0F0F0"/>
    <path d="M150.919 124.956H189.389V121.883H150.919V124.956Z" fill="#F0F0F0"/>
    <path d="M150.919 129.519H189.389V126.446H150.919V129.519Z" fill="#F0F0F0"/>
    <path d="M150.919 134.082H189.389V131.009H150.919V134.082Z" fill="#F0F0F0"/>
    <path d="M150.919 138.645H189.389V135.572H150.919V138.645Z" fill="#F0F0F0"/>
    <path d="M150.919 143.208H189.389V140.135H150.919V143.208Z" fill="#F0F0F0"/>
    <path d="M150.919 147.771H189.389V144.698H150.919V147.771Z" fill="#F0F0F0"/>
    <path d="M150.919 152.334H189.389V149.261H150.919V152.334Z" fill="#F0F0F0"/>
    <path d="M150.919 156.897H189.389V153.824H150.919V156.897Z" fill="#F0F0F0"/>
    <path d="M150.919 161.46H189.389V158.387H150.919V161.46Z" fill="#F0F0F0"/>
    <path d="M150.919 166.023H189.389V162.95H150.919V166.023Z" fill="#F0F0F0"/>
    <path d="M150.919 170.586H189.389V167.514H150.919V170.586Z" fill="#F0F0F0"/>
    <path d="M150.919 175.155H189.389V172.082H150.919V175.155Z" fill="#F0F0F0"/>
    <path d="M150.919 179.718H189.389V176.645H150.919V179.718Z" fill="#F0F0F0"/>
    <path d="M197.727 178.179H234.495L234.495 52.8609H197.727V178.179Z" fill="#FAFAFA"/>
    <path d="M196.873 57.3105L235.343 57.3105V51.1599L196.873 51.1599V57.3105Z" fill="#F0F0F0"/>
    <path d="M196.873 61.0635L235.343 61.0635V57.9909L196.873 57.9909V61.0635Z" fill="#F0F0F0"/>
    <path d="M196.873 65.6265H235.343V62.5539L196.873 62.5539V65.6265Z" fill="#F0F0F0"/>
    <path d="M196.873 70.1948H235.343V67.1222H196.873V70.1948Z" fill="#F0F0F0"/>
    <path d="M196.873 74.7578H235.343V71.6852H196.873V74.7578Z" fill="#F0F0F0"/>
    <path d="M196.873 79.3208H235.343V76.2482H196.873V79.3208Z" fill="#F0F0F0"/>
    <path d="M196.873 83.8838H235.343V80.8112H196.873V83.8838Z" fill="#F0F0F0"/>
    <path d="M196.873 88.4468H235.343V85.3742H196.873V88.4468Z" fill="#F0F0F0"/>
    <path d="M196.873 93.0098H235.343V89.9372H196.873V93.0098Z" fill="#F0F0F0"/>
    <path d="M196.873 97.5728H235.343V94.5002H196.873V97.5728Z" fill="#F0F0F0"/>
    <path d="M196.873 102.136H235.343V99.0631H196.873V102.136Z" fill="#F0F0F0"/>
    <path d="M196.873 106.699H235.343V103.626H196.873V106.699Z" fill="#F0F0F0"/>
    <path d="M196.873 111.262H235.343V108.189H196.873V111.262Z" fill="#F0F0F0"/>
    <path d="M196.873 115.825H235.343V112.752H196.873V115.825Z" fill="#F0F0F0"/>
    <path d="M196.873 120.388H235.343V117.315H196.873V120.388Z" fill="#F0F0F0"/>
    <path d="M196.873 124.956H235.343V121.883H196.873V124.956Z" fill="#F0F0F0"/>
    <path d="M196.873 129.519H235.343V126.446H196.873V129.519Z" fill="#F0F0F0"/>
    <path d="M196.873 134.082H235.343V131.009H196.873V134.082Z" fill="#F0F0F0"/>
    <path d="M196.873 138.645H235.343V135.572H196.873V138.645Z" fill="#F0F0F0"/>
    <path d="M196.873 143.208H235.343V140.135H196.873V143.208Z" fill="#F0F0F0"/>
    <path d="M196.873 147.771H235.343V144.698H196.873V147.771Z" fill="#F0F0F0"/>
    <path d="M196.873 152.334H235.343V149.261H196.873V152.334Z" fill="#F0F0F0"/>
    <path d="M196.873 156.897H235.343V153.824H196.873V156.897Z" fill="#F0F0F0"/>
    <path d="M196.873 161.46H235.343V158.387H196.873V161.46Z" fill="#F0F0F0"/>
    <path d="M196.873 166.023H235.343V162.95H196.873V166.023Z" fill="#F0F0F0"/>
    <path d="M196.873 170.586H235.343V167.514H196.873V170.586Z" fill="#F0F0F0"/>
    <path d="M196.873 175.155H235.343V172.082H196.873V175.155Z" fill="#F0F0F0"/>
    <path d="M196.873 179.718H235.343V176.645H196.873V179.718Z" fill="#F0F0F0"/>
    <path d="M83.4516 178.945H120.22L120.22 53.6275H83.4516L83.4516 178.945Z" fill="#FAFAFA"/>
    <path d="M82.5985 58.0771L121.068 58.0771V51.9265L82.5985 51.9265V58.0771Z" fill="#F0F0F0"/>
    <path d="M82.5985 59.3247L121.068 59.3247V58.7577L82.5985 58.7577V59.3247Z" fill="#F0F0F0"/>
    <path d="M82.5985 60.6099L121.068 60.6099V60.0429L82.5985 60.0429V60.6099Z" fill="#F0F0F0"/>
    <path d="M82.5985 61.8896L121.068 61.8896V61.3226L82.5985 61.3226V61.8896Z" fill="#F0F0F0"/>
    <path d="M82.5985 63.1748L121.068 63.1748V62.6078L82.5985 62.6078V63.1748Z" fill="#F0F0F0"/>
    <path d="M82.5985 64.46H121.068V63.893L82.5985 63.893V64.46Z" fill="#F0F0F0"/>
    <path d="M82.5985 65.7451H121.068V65.1781H82.5985V65.7451Z" fill="#F0F0F0"/>
    <path d="M82.5985 67.0249H121.068V66.4579H82.5985V67.0249Z" fill="#F0F0F0"/>
    <path d="M82.5985 68.3101H121.068V67.7431H82.5985V68.3101Z" fill="#F0F0F0"/>
    <path d="M82.5985 69.6006H121.068V69.0336H82.5985V69.6006Z" fill="#F0F0F0"/>
    <path d="M82.5985 70.8804H121.068V70.3134H82.5985V70.8804Z" fill="#F0F0F0"/>
    <path d="M82.5985 72.166H121.068V71.599H82.5985V72.166Z" fill="#F0F0F0"/>
    <path d="M82.5985 73.4458H121.068V72.8788H82.5985V73.4458Z" fill="#F0F0F0"/>
    <path d="M82.5985 74.7363H121.068V74.1693H82.5985V74.7363Z" fill="#F0F0F0"/>
    <path d="M82.5985 76.0161H121.068V75.4491H82.5985V76.0161Z" fill="#F0F0F0"/>
    <path d="M82.5985 77.3013H121.068V76.7343H82.5985V77.3013Z" fill="#F0F0F0"/>
    <path d="M82.5985 78.5811H121.068V78.0141H82.5985V78.5811Z" fill="#F0F0F0"/>
    <path d="M82.5985 79.8662H121.068V79.2992H82.5985V79.8662Z" fill="#F0F0F0"/>
    <path d="M82.5985 81.1514H121.068V80.5844H82.5985V81.1514Z" fill="#F0F0F0"/>
    <path d="M37.4921 178.945H74.2607L74.2607 53.6275H37.4921L37.4921 178.945Z" fill="#FAFAFA"/>
    <path d="M36.639 58.0771L75.1086 58.0771V51.9265L36.639 51.9265V58.0771Z" fill="#F0F0F0"/>
    <path d="M36.639 59.3247L75.1086 59.3247V58.7577L36.639 58.7577V59.3247Z" fill="#F0F0F0"/>
    <path d="M36.639 60.6099L75.1086 60.6099V60.0429L36.639 60.0429V60.6099Z" fill="#F0F0F0"/>
    <path d="M36.639 61.8896L75.1086 61.8896V61.3226L36.639 61.3226V61.8896Z" fill="#F0F0F0"/>
    <path d="M36.639 63.1748L75.1086 63.1748V62.6078L36.639 62.6078V63.1748Z" fill="#F0F0F0"/>
    <path d="M36.639 64.46H75.1086V63.893L36.639 63.893V64.46Z" fill="#F0F0F0"/>
    <path d="M36.639 65.7451H75.1086V65.1781H36.639V65.7451Z" fill="#F0F0F0"/>
    <path d="M36.639 67.0249H75.1086V66.4579H36.639V67.0249Z" fill="#F0F0F0"/>
    <path d="M36.639 68.3101H75.1086V67.7431H36.639V68.3101Z" fill="#F0F0F0"/>
    <path d="M36.639 69.6006H75.1086V69.0336H36.639V69.6006Z" fill="#F0F0F0"/>
    <path d="M36.639 70.8804H75.1086V70.3134H36.639V70.8804Z" fill="#F0F0F0"/>
    <path d="M36.639 72.166H75.1086V71.599H36.639V72.166Z" fill="#F0F0F0"/>
    <path d="M36.639 73.4458H75.1086V72.8788H36.639V73.4458Z" fill="#F0F0F0"/>
    <path d="M36.639 74.7363H75.1086V74.1693H36.639V74.7363Z" fill="#F0F0F0"/>
    <path d="M36.639 76.0161H75.1086V75.4491H36.639V76.0161Z" fill="#F0F0F0"/>
    <path d="M36.639 77.3013H75.1086V76.7343H36.639V77.3013Z" fill="#F0F0F0"/>
    <path d="M36.639 78.5811H75.1086V78.0141H36.639V78.5811Z" fill="#F0F0F0"/>
    <path d="M36.639 79.8662H75.1086V79.2992H36.639V79.8662Z" fill="#F0F0F0"/>
    <path d="M36.639 81.1514H75.1086V80.5844H36.639V81.1514Z" fill="#F0F0F0"/>
    <path d="M135.648 194.562C135.648 194.562 133.088 188.973 136.015 183.46C138.942 177.946 139.795 176.656 137.921 175.527C136.048 174.398 135.221 179.933 135.221 179.933C134.296 177.431 134.201 174.697 134.951 172.136C136.247 168.151 137.063 161.66 135.292 160.963C133.52 160.267 134.951 169.063 133.412 172.06C132.629 169.955 132.122 167.757 131.906 165.521C131.695 162.319 132.025 157.21 130.626 155.898C129.227 154.586 128.331 155.493 129.703 162.556C130.53 166.778 130.987 171.064 131.069 175.365C131.069 175.365 128.034 166.099 125.993 165.829C123.952 165.559 123.952 168.561 125.701 171.164C127.451 173.767 130.815 178.427 131.366 180.83C131.366 180.83 128.029 173.853 125.026 175.97C122.024 178.087 127.64 182.32 130.145 183.843C132.651 185.366 134.363 194.94 134.363 194.94L135.648 194.562Z" fill="#E0E0E0"/>
    <path d="M133.628 196.852C133.628 196.852 136.123 191.225 133.132 185.76C130.14 180.296 129.271 179.01 131.123 177.855C132.975 176.699 133.898 182.218 133.898 182.218C134.795 179.706 134.86 176.972 134.082 174.42C132.732 170.457 131.841 163.977 133.607 163.253C135.373 162.53 134.044 171.353 135.616 174.323C136.374 172.207 136.853 170.002 137.041 167.762C137.219 164.555 136.825 159.452 138.208 158.118C139.59 156.784 140.503 157.68 139.207 164.765C138.431 168.997 138.026 173.288 137.997 177.59C137.997 177.59 140.924 168.281 142.96 167.978C144.995 167.676 145.033 170.678 143.316 173.308C141.599 175.938 138.289 180.652 137.765 183.06C137.765 183.06 141.005 176.04 144.045 178.125C147.085 180.209 141.512 184.518 139.028 186.073C136.544 187.629 134.919 197.203 134.919 197.203L133.628 196.852Z" fill="#EBEBEB"/>
    <path d="M145.13 192.839H124.524L126.193 207.587H143.462L145.13 192.839Z" fill="#EBEBEB"/>
    <path d="M135 230.882C192.824 230.882 239.701 228.146 239.701 224.77C239.701 221.394 192.824 218.657 135 218.657C77.1754 218.657 30.2993 221.394 30.2993 224.77C30.2993 228.146 77.1754 230.882 135 230.882Z" fill="#F5F5F5"/>
    <path d="M209.876 163.517C209.876 163.517 196.511 160.817 183.611 162.124C170.71 163.431 189.68 180.29 189.68 180.29H192.348C192.348 180.29 182.293 169.603 182.855 166.941C183.416 164.279 208.731 167.789 208.731 167.789L209.876 163.517Z" fill="#263238"/>
    <path opacity="0.2" d="M209.876 163.517C209.876 163.517 196.511 160.817 183.611 162.124C170.71 163.431 189.68 180.29 189.68 180.29H192.348C192.348 180.29 182.293 169.603 182.855 166.941C183.416 164.279 208.731 167.789 208.731 167.789L209.876 163.517Z" fill="white"/>
    <path d="M205.054 179.707C209.272 163.191 211.716 146.272 212.344 129.238C212.408 127.618 213.097 126.086 214.266 124.963C215.434 123.84 216.993 123.212 218.614 123.212H229.862C231.52 123.212 233.112 123.869 234.287 125.038C235.463 126.208 236.128 127.796 236.137 129.454C236.18 139.714 235.462 162.686 229.657 179.707H205.054Z" fill="#263238"/>
    <path opacity="0.4" d="M205.054 179.707C209.272 163.191 211.716 146.272 212.344 129.238C212.408 127.618 213.097 126.086 214.266 124.963C215.434 123.84 216.993 123.212 218.614 123.212H229.862C231.52 123.212 233.112 123.869 234.287 125.038C235.463 126.208 236.128 127.796 236.137 129.454C236.18 139.714 235.462 162.686 229.657 179.707H205.054Z" fill="white"/>
    <path d="M201.771 176.85C203.596 169.938 207.711 152.064 208.58 128.45C208.647 126.694 209.392 125.032 210.659 123.813C211.926 122.595 213.616 121.915 215.373 121.916H227.567C229.363 121.917 231.086 122.63 232.359 123.898C233.632 125.166 234.351 126.886 234.36 128.682C234.408 139.785 233.631 162.492 227.367 180.943L204.147 180.09C203.762 180.072 203.386 179.969 203.046 179.787C202.707 179.605 202.412 179.349 202.184 179.038C201.956 178.727 201.801 178.37 201.729 177.991C201.658 177.612 201.672 177.223 201.771 176.85Z" fill="#407BFF"/>
    <path opacity="0.2" d="M201.771 176.85C203.596 169.938 207.711 152.064 208.58 128.45C208.647 126.694 209.392 125.032 210.659 123.813C211.926 122.595 213.616 121.915 215.373 121.916H227.567C229.363 121.917 231.086 122.63 232.359 123.898C233.632 125.166 234.351 126.886 234.36 128.682C234.408 139.785 233.631 162.492 227.367 180.943L204.147 180.09C203.762 180.072 203.386 179.969 203.046 179.787C202.707 179.605 202.412 179.349 202.184 179.038C201.956 178.727 201.801 178.37 201.729 177.991C201.658 177.612 201.672 177.223 201.771 176.85Z" fill="black"/>
    <path d="M225.893 180.247H184.653V173.804C184.653 173.088 184.937 172.402 185.444 171.895C185.95 171.389 186.637 171.104 187.353 171.104H223.193C223.909 171.104 224.595 171.389 225.102 171.895C225.608 172.402 225.893 173.088 225.893 173.804V180.247Z" fill="#407BFF"/>
    <path d="M224.564 212.388L211.35 211.086V192.516H206.112V211.081L192.844 212.388C192.209 212.449 191.618 212.746 191.189 213.219C190.76 213.692 190.522 214.308 190.522 214.947V216.934H226.886V214.947C226.886 214.308 226.649 213.692 226.219 213.219C225.79 212.746 225.2 212.449 224.564 212.388Z" fill="#263238"/>
    <path opacity="0.4" d="M224.564 212.388L211.35 211.086V192.516H206.112V211.081L192.844 212.388C192.209 212.449 191.618 212.746 191.189 213.219C190.76 213.692 190.522 214.308 190.522 214.947V216.934H226.886V214.947C226.886 214.308 226.649 213.692 226.219 213.219C225.79 212.746 225.2 212.449 224.564 212.388Z" fill="white"/>
    <path d="M195.345 219.391C195.345 220.068 195.144 220.73 194.768 221.293C194.392 221.856 193.857 222.295 193.231 222.554C192.606 222.813 191.917 222.881 191.253 222.749C190.589 222.617 189.979 222.291 189.5 221.812C189.022 221.333 188.695 220.723 188.563 220.059C188.431 219.395 188.499 218.707 188.758 218.081C189.017 217.456 189.456 216.921 190.019 216.545C190.582 216.169 191.244 215.968 191.921 215.968C192.829 215.968 193.7 216.328 194.342 216.971C194.984 217.613 195.345 218.483 195.345 219.391Z" fill="#263238"/>
    <path opacity="0.4" d="M191.921 221.195C191.565 221.195 191.216 221.089 190.919 220.891C190.623 220.693 190.391 220.411 190.255 220.082C190.118 219.752 190.083 219.389 190.152 219.04C190.222 218.69 190.394 218.368 190.646 218.116C190.898 217.864 191.22 217.692 191.569 217.623C191.919 217.553 192.282 217.589 192.611 217.725C192.941 217.862 193.223 218.093 193.421 218.389C193.619 218.686 193.725 219.035 193.725 219.391C193.723 219.869 193.533 220.327 193.195 220.665C192.857 221.003 192.399 221.194 191.921 221.195Z" fill="white"/>
    <path d="M222.064 219.391C222.064 220.068 222.265 220.73 222.641 221.293C223.017 221.856 223.552 222.295 224.177 222.554C224.803 222.813 225.491 222.881 226.155 222.749C226.82 222.617 227.43 222.291 227.908 221.812C228.387 221.333 228.713 220.723 228.845 220.059C228.977 219.395 228.91 218.707 228.651 218.081C228.391 217.456 227.953 216.921 227.39 216.545C226.827 216.169 226.165 215.968 225.488 215.968C225.038 215.967 224.592 216.055 224.177 216.227C223.761 216.399 223.383 216.651 223.065 216.969C222.747 217.287 222.495 217.665 222.323 218.08C222.151 218.496 222.063 218.942 222.064 219.391Z" fill="#263238"/>
    <path opacity="0.4" d="M225.488 221.195C225.131 221.195 224.782 221.089 224.486 220.891C224.189 220.693 223.958 220.411 223.821 220.082C223.685 219.752 223.649 219.389 223.719 219.04C223.788 218.69 223.96 218.368 224.212 218.116C224.465 217.864 224.786 217.692 225.136 217.623C225.486 217.553 225.848 217.589 226.178 217.725C226.507 217.862 226.789 218.093 226.987 218.389C227.185 218.686 227.291 219.035 227.291 219.391C227.291 219.87 227.101 220.329 226.763 220.667C226.425 221.005 225.966 221.195 225.488 221.195Z" fill="white"/>
    <path d="M205.2 179.966H212.22V194.276C212.22 194.867 211.985 195.435 211.567 195.853C211.148 196.271 210.581 196.506 209.99 196.506H207.414C206.822 196.506 206.255 196.271 205.837 195.853C205.419 195.435 205.184 194.867 205.184 194.276V179.966H205.2Z" fill="#263238"/>
    <path opacity="0.2" d="M205.2 179.966H212.22V194.276C212.22 194.867 211.985 195.435 211.567 195.853C211.148 196.271 210.581 196.506 209.99 196.506H207.414C206.822 196.506 206.255 196.271 205.837 195.853C205.419 195.435 205.184 194.867 205.184 194.276V179.966H205.2Z" fill="white"/>
    <path d="M184.286 181.867H229.046C229.646 181.867 230.132 181.381 230.132 180.781V180.274C230.132 179.674 229.646 179.188 229.046 179.188H184.286C183.686 179.188 183.2 179.674 183.2 180.274V180.781C183.2 181.381 183.686 181.867 184.286 181.867Z" fill="#263238"/>
    <g opacity="0.4">
    <path d="M184.286 181.867H229.046C229.646 181.867 230.132 181.381 230.132 180.781V180.274C230.132 179.674 229.646 179.188 229.046 179.188H184.286C183.686 179.188 183.2 179.674 183.2 180.274V180.781C183.2 181.381 183.686 181.867 184.286 181.867Z" fill="white"/>
    </g>
    <path d="M233.636 163.517C233.636 163.517 220.271 160.817 207.37 162.124C194.47 163.431 213.44 180.29 213.44 180.29H216.108C216.108 180.29 206.053 169.603 206.614 166.941C207.176 164.279 232.491 167.789 232.491 167.789L233.636 163.517Z" fill="#263238"/>
    <path opacity="0.4" d="M233.636 163.517C233.636 163.517 220.271 160.817 207.37 162.124C194.47 163.431 213.44 180.29 213.44 180.29H216.108C216.108 180.29 206.053 169.603 206.614 166.941C207.176 164.279 232.491 167.789 232.491 167.789L233.636 163.517Z" fill="white"/>
    <path d="M68.7367 166.412V166.952H60.5071V166.536C60.5071 165.537 61.5439 164.716 62.8723 164.662H63.3097L66.0961 164.549C67.5325 164.479 68.7367 165.332 68.7367 166.412Z" fill="#263238"/>
    <path opacity="0.2" d="M64.9459 166.412V166.952H60.5071V166.536C60.5071 165.537 61.5439 164.716 62.8723 164.662H63.3097C64.2601 164.911 64.9459 165.602 64.9459 166.412Z" fill="white"/>
    <path d="M135.843 222.788H136.669C136.718 222.788 136.766 222.769 136.802 222.735C136.839 222.701 136.86 222.654 136.863 222.604L138.17 171.904H134.341L135.654 222.604C135.655 222.654 135.675 222.7 135.711 222.735C135.746 222.769 135.793 222.788 135.843 222.788Z" fill="#263238"/>
    <path d="M165.37 222.788H167.281L161.881 171.904H158.053L165.37 222.788Z" fill="#263238"/>
    <path d="M42.1092 222.788L49.4424 171.904H45.6192L40.2192 222.788H42.1092Z" fill="#263238"/>
    <path d="M70.1406 222.788H72.3384H72.3438L73.1538 171.904H69.3306L70.1406 222.788Z" fill="#263238"/>
    <g opacity="0.4">
    <path d="M165.37 222.788H167.281L161.881 171.904H158.053L165.37 222.788Z" fill="white"/>
    </g>
    <path opacity="0.4" d="M70.1406 222.788H72.3384H72.3438L73.1538 171.904H69.3306L70.1406 222.788Z" fill="white"/>
    <g opacity="0.2">
    <path d="M135.843 222.788H136.669C136.718 222.788 136.766 222.769 136.802 222.735C136.839 222.701 136.86 222.654 136.863 222.604L138.17 171.904H134.341L135.654 222.604C135.655 222.654 135.675 222.7 135.711 222.735C135.746 222.769 135.793 222.788 135.843 222.788Z" fill="white"/>
    </g>
    <path opacity="0.2" d="M42.1092 222.788L49.4424 171.904H45.6192L40.2192 222.788H42.1092Z" fill="white"/>
    <path d="M76.8042 167.238H87.696L89.4294 152.032C89.4129 151.757 89.2918 151.498 89.0911 151.31C88.8903 151.121 88.625 151.016 88.3494 151.017H81.0648C80.7892 151.016 80.5239 151.121 80.3232 151.31C80.1224 151.498 80.0013 151.757 79.9848 152.032L76.8042 167.238Z" fill="#263238"/>
    <path d="M60.1831 128.655H62.8831L65.9395 157.372H63.2395C63.016 157.368 62.8014 157.284 62.6355 157.134C62.4697 156.984 62.3639 156.779 62.3377 156.557L59.4541 129.47C59.44 129.367 59.4485 129.262 59.4789 129.163C59.5093 129.064 59.561 128.972 59.6303 128.894C59.6996 128.817 59.785 128.755 59.8804 128.714C59.9759 128.673 60.0792 128.652 60.1831 128.655Z" fill="#263238"/>
    <path d="M64.3897 157.372H105.138C105.242 157.374 105.345 157.353 105.44 157.311C105.535 157.27 105.62 157.208 105.689 157.131C105.758 157.054 105.81 156.962 105.84 156.863C105.871 156.764 105.88 156.66 105.867 156.557L102.983 129.47C102.956 129.249 102.85 129.044 102.685 128.895C102.519 128.745 102.305 128.66 102.082 128.655H61.3333C61.2293 128.652 61.126 128.673 61.0306 128.714C60.9351 128.755 60.8498 128.817 60.7804 128.894C60.7111 128.972 60.6595 129.064 60.629 129.163C60.5986 129.262 60.5902 129.367 60.6043 129.47L63.4825 156.557C63.5109 156.779 63.6181 156.983 63.7846 157.133C63.9511 157.283 64.1659 157.368 64.3897 157.372Z" fill="#263238"/>
    <path d="M76.3237 167.243H89.8615C90.1478 167.243 90.3799 167.011 90.3799 166.725V166.579C90.3799 166.293 90.1478 166.061 89.8615 166.061H76.3237C76.0374 166.061 75.8053 166.293 75.8053 166.579V166.725C75.8053 167.011 76.0374 167.243 76.3237 167.243Z" fill="#263238"/>
    <path opacity="0.2" d="M64.3897 157.372H105.138C105.242 157.374 105.345 157.353 105.44 157.311C105.535 157.27 105.62 157.208 105.689 157.131C105.758 157.054 105.81 156.962 105.84 156.863C105.871 156.764 105.88 156.66 105.867 156.557L102.983 129.47C102.956 129.249 102.85 129.044 102.685 128.895C102.519 128.745 102.305 128.66 102.082 128.655H61.3333C61.2293 128.652 61.126 128.673 61.0306 128.714C60.9351 128.755 60.8498 128.817 60.7804 128.894C60.7111 128.972 60.6595 129.064 60.629 129.163C60.5986 129.262 60.5902 129.367 60.6043 129.47L63.4825 156.557C63.5109 156.779 63.6181 156.983 63.7846 157.133C63.9511 157.283 64.1659 157.368 64.3897 157.372Z" fill="white"/>
    <path d="M65.1512 154.721H103.572C103.664 154.725 103.756 154.709 103.841 154.673C103.925 154.638 104.001 154.584 104.063 154.516C104.125 154.448 104.171 154.368 104.198 154.28C104.225 154.192 104.233 154.099 104.22 154.008L101.709 130.378C101.686 130.184 101.593 130.005 101.448 129.874C101.303 129.743 101.116 129.669 100.921 129.665H62.4836C62.3926 129.662 62.3022 129.68 62.2186 129.716C62.1351 129.752 62.0604 129.806 61.9997 129.873C61.9391 129.941 61.8939 130.022 61.8675 130.109C61.841 130.196 61.8338 130.287 61.8464 130.378L64.3628 154.008C64.3862 154.202 64.4788 154.381 64.6237 154.512C64.7686 154.643 64.9559 154.717 65.1512 154.721Z" fill="#407BFF"/>
    <path opacity="0.2" d="M76.3237 167.243H89.8615C90.1478 167.243 90.3799 167.011 90.3799 166.725V166.579C90.3799 166.293 90.1478 166.061 89.8615 166.061H76.3237C76.0374 166.061 75.8053 166.293 75.8053 166.579V166.725C75.8053 167.011 76.0374 167.243 76.3237 167.243Z" fill="white"/>
    <path opacity="0.2" d="M65.1512 154.721H103.572C103.664 154.725 103.756 154.709 103.841 154.673C103.925 154.638 104.001 154.584 104.063 154.516C104.125 154.448 104.171 154.368 104.198 154.28C104.225 154.192 104.233 154.099 104.22 154.008L101.709 130.378C101.686 130.184 101.593 130.005 101.448 129.874C101.303 129.743 101.116 129.669 100.921 129.665H62.4836C62.3926 129.662 62.3022 129.68 62.2186 129.716C62.1351 129.752 62.0604 129.806 61.9997 129.873C61.9391 129.941 61.8939 130.022 61.8675 130.109C61.841 130.196 61.8338 130.287 61.8464 130.378L64.3628 154.008C64.3862 154.202 64.4788 154.381 64.6237 154.512C64.7686 154.643 64.9559 154.717 65.1512 154.721Z" fill="black"/>
    <path d="M76.5775 166.898H67.1167H43.4053V171.904H67.1167H76.5775H164.095V166.898H76.5775Z" fill="#407BFF"/>
    <path d="M101.12 165.996H102.136C102.161 165.996 102.186 165.991 102.21 165.981C102.234 165.972 102.255 165.957 102.273 165.939C102.291 165.921 102.305 165.9 102.315 165.876C102.325 165.853 102.33 165.827 102.33 165.802V164.722C102.33 164.696 102.325 164.671 102.315 164.647C102.305 164.624 102.291 164.602 102.273 164.584C102.255 164.566 102.234 164.552 102.21 164.542C102.186 164.532 102.161 164.527 102.136 164.527H101.407C101.364 164.527 101.323 164.542 101.29 164.568C101.256 164.595 101.233 164.632 101.223 164.673L100.937 165.753C100.928 165.782 100.927 165.812 100.932 165.841C100.937 165.87 100.949 165.897 100.967 165.921C100.985 165.945 101.008 165.964 101.035 165.977C101.061 165.99 101.091 165.997 101.12 165.996Z" fill="#407BFF"/>
    <path d="M99.7164 165.996H100.732C100.783 165.996 100.833 165.976 100.869 165.939C100.906 165.903 100.926 165.853 100.926 165.802V164.722C100.926 164.67 100.906 164.621 100.869 164.584C100.833 164.548 100.783 164.527 100.732 164.527H100.003C99.9601 164.527 99.9188 164.542 99.8855 164.568C99.8522 164.595 99.8287 164.632 99.819 164.673L99.5274 165.753C99.52 165.782 99.5192 165.812 99.5253 165.841C99.5313 165.87 99.5439 165.898 99.5622 165.921C99.5804 165.945 99.6038 165.964 99.6306 165.977C99.6573 165.99 99.6867 165.996 99.7164 165.996Z" fill="#407BFF"/>
    <path d="M98.3124 165.996H99.3276C99.3531 165.996 99.3784 165.991 99.402 165.981C99.4255 165.972 99.447 165.957 99.465 165.939C99.4831 165.921 99.4974 165.9 99.5072 165.876C99.5169 165.853 99.522 165.827 99.522 165.802V164.722C99.522 164.696 99.5169 164.671 99.5072 164.647C99.4974 164.624 99.4831 164.602 99.465 164.584C99.447 164.566 99.4255 164.552 99.402 164.542C99.3784 164.532 99.3531 164.527 99.3276 164.527H98.5986C98.5556 164.528 98.5139 164.543 98.4799 164.569C98.4458 164.595 98.4212 164.632 98.4096 164.673L98.1234 165.753C98.1159 165.782 98.1152 165.812 98.1212 165.841C98.1273 165.87 98.1399 165.898 98.1581 165.921C98.1764 165.945 98.1998 165.964 98.2265 165.977C98.2533 165.99 98.2826 165.996 98.3124 165.996Z" fill="#407BFF"/>
    <path d="M96.9085 165.996H97.9237C97.9753 165.996 98.0247 165.976 98.0612 165.939C98.0977 165.903 98.1181 165.853 98.1181 165.802V164.722C98.1181 164.67 98.0977 164.621 98.0612 164.584C98.0247 164.548 97.9753 164.527 97.9237 164.527H97.2001C97.1571 164.528 97.1155 164.543 97.0815 164.569C97.0474 164.595 97.0228 164.632 97.0111 164.673L96.7249 165.753C96.7176 165.782 96.7168 165.811 96.7225 165.84C96.7282 165.869 96.7404 165.896 96.758 165.919C96.7757 165.942 96.7984 165.961 96.8245 165.975C96.8505 165.988 96.8793 165.995 96.9085 165.996Z" fill="#407BFF"/>
    <path d="M95.5045 165.996H96.5197C96.5713 165.996 96.6207 165.976 96.6572 165.939C96.6936 165.903 96.7141 165.853 96.7141 165.802V164.722C96.7141 164.67 96.6936 164.621 96.6572 164.584C96.6207 164.548 96.5713 164.527 96.5197 164.527H95.7907C95.7477 164.528 95.7061 164.543 95.672 164.569C95.638 164.595 95.6133 164.632 95.6017 164.673L95.3155 165.753C95.3081 165.782 95.3073 165.812 95.3134 165.841C95.3194 165.87 95.332 165.898 95.3503 165.921C95.3685 165.945 95.3919 165.964 95.4187 165.977C95.4454 165.99 95.4748 165.996 95.5045 165.996Z" fill="#407BFF"/>
    <path d="M94.1004 165.996H95.1156C95.1672 165.996 95.2167 165.976 95.2531 165.939C95.2896 165.903 95.31 165.853 95.31 165.802V164.722C95.31 164.67 95.2896 164.621 95.2531 164.584C95.2167 164.548 95.1672 164.527 95.1156 164.527H94.3866C94.3436 164.528 94.302 164.543 94.268 164.569C94.2339 164.595 94.2093 164.632 94.1976 164.673L93.9114 165.753C93.904 165.782 93.9033 165.812 93.9093 165.841C93.9153 165.87 93.928 165.898 93.9462 165.921C93.9645 165.945 93.9879 165.964 94.0146 165.977C94.0413 165.99 94.0707 165.996 94.1004 165.996Z" fill="#407BFF"/>
    <path d="M92.6964 165.996H93.7116C93.7631 165.996 93.8126 165.976 93.8491 165.939C93.8855 165.903 93.906 165.853 93.906 165.802V164.722C93.906 164.67 93.8855 164.621 93.8491 164.584C93.8126 164.548 93.7631 164.527 93.7116 164.527H92.9826C92.9394 164.527 92.8973 164.541 92.8631 164.568C92.8288 164.594 92.8044 164.631 92.7936 164.673L92.5074 165.753C92.5 165.782 92.4992 165.812 92.5053 165.841C92.5113 165.87 92.5239 165.898 92.5422 165.921C92.5604 165.945 92.5838 165.964 92.6106 165.977C92.6373 165.99 92.6667 165.996 92.6964 165.996Z" fill="#407BFF"/>
    <path d="M91.2923 165.996H92.3075C92.3331 165.996 92.3583 165.991 92.3819 165.981C92.4055 165.972 92.427 165.957 92.445 165.939C92.4631 165.921 92.4774 165.9 92.4871 165.876C92.4969 165.853 92.5019 165.827 92.5019 165.802V164.722C92.5019 164.696 92.4969 164.671 92.4871 164.647C92.4774 164.624 92.4631 164.602 92.445 164.584C92.427 164.566 92.4055 164.552 92.3819 164.542C92.3583 164.532 92.3331 164.527 92.3075 164.527H91.5785C91.5353 164.527 91.4933 164.541 91.459 164.568C91.4248 164.594 91.4004 164.631 91.3895 164.673L91.1033 165.753C91.0959 165.782 91.0952 165.812 91.1012 165.841C91.1072 165.87 91.1199 165.898 91.1381 165.921C91.1564 165.945 91.1798 165.964 91.2065 165.977C91.2332 165.99 91.2626 165.996 91.2923 165.996Z" fill="#407BFF"/>
    <path d="M89.8885 165.996H90.9037C90.9553 165.996 91.0047 165.976 91.0412 165.939C91.0776 165.903 91.0981 165.853 91.0981 165.802V164.722C91.0981 164.67 91.0776 164.621 91.0412 164.584C91.0047 164.548 90.9553 164.527 90.9037 164.527H90.1801C90.1369 164.527 90.0948 164.541 90.0606 164.568C90.0264 164.594 90.0019 164.631 89.9911 164.673L89.7049 165.753C89.6976 165.782 89.6968 165.811 89.7025 165.84C89.7082 165.869 89.7204 165.896 89.738 165.919C89.7557 165.942 89.7784 165.961 89.8044 165.975C89.8305 165.988 89.8592 165.995 89.8885 165.996Z" fill="#407BFF"/>
    <path d="M88.4845 165.996H89.4997C89.5512 165.996 89.6007 165.976 89.6371 165.939C89.6736 165.903 89.6941 165.853 89.6941 165.802V164.722C89.6941 164.67 89.6736 164.621 89.6371 164.584C89.6007 164.548 89.5512 164.527 89.4997 164.527H88.7707C88.7275 164.527 88.6854 164.541 88.6512 164.568C88.6169 164.594 88.5925 164.631 88.5817 164.673L88.2955 165.753C88.288 165.782 88.2873 165.812 88.2933 165.841C88.2994 165.87 88.312 165.898 88.3303 165.921C88.3485 165.945 88.3719 165.964 88.3986 165.977C88.4254 165.99 88.4547 165.996 88.4845 165.996Z" fill="#407BFF"/>
    <path d="M87.0804 165.996H88.0956C88.1472 165.996 88.1966 165.976 88.2331 165.939C88.2695 165.903 88.29 165.853 88.29 165.802V164.722C88.29 164.67 88.2695 164.621 88.2331 164.584C88.1966 164.548 88.1472 164.527 88.0956 164.527H87.3666C87.3232 164.526 87.2806 164.54 87.2462 164.567C87.2118 164.593 87.1875 164.631 87.1776 164.673L86.8914 165.753C86.884 165.782 86.8833 165.812 86.8893 165.841C86.8953 165.87 86.9079 165.898 86.9262 165.921C86.9445 165.945 86.9679 165.964 86.9946 165.977C87.0213 165.99 87.0507 165.996 87.0804 165.996Z" fill="#407BFF"/>
    <path d="M85.6764 165.996H86.6916C86.7171 165.996 86.7424 165.991 86.766 165.981C86.7896 165.972 86.811 165.957 86.829 165.939C86.8471 165.921 86.8614 165.9 86.8712 165.876C86.8809 165.853 86.886 165.827 86.886 165.802V164.722C86.886 164.696 86.8809 164.671 86.8712 164.647C86.8614 164.624 86.8471 164.602 86.829 164.584C86.811 164.566 86.7896 164.552 86.766 164.542C86.7424 164.532 86.7171 164.527 86.6916 164.527H85.9626C85.9191 164.526 85.8766 164.54 85.8421 164.567C85.8077 164.593 85.7835 164.631 85.7736 164.673L85.4874 165.753C85.4799 165.782 85.4792 165.812 85.4852 165.841C85.4913 165.87 85.5039 165.898 85.5222 165.921C85.5404 165.945 85.5638 165.964 85.5905 165.977C85.6173 165.99 85.6466 165.996 85.6764 165.996Z" fill="#407BFF"/>
    <path d="M84.2723 165.996H85.2875C85.3391 165.996 85.3885 165.976 85.425 165.939C85.4614 165.903 85.4819 165.853 85.4819 165.802V164.722C85.4819 164.67 85.4614 164.621 85.425 164.584C85.3885 164.548 85.3391 164.527 85.2875 164.527H84.5585C84.5151 164.526 84.4725 164.54 84.4381 164.567C84.4037 164.593 84.3794 164.631 84.3695 164.673L84.0833 165.753C84.0759 165.782 84.0752 165.812 84.0812 165.841C84.0872 165.87 84.0998 165.898 84.1181 165.921C84.1364 165.945 84.1598 165.964 84.1865 165.977C84.2132 165.99 84.2426 165.996 84.2723 165.996Z" fill="#407BFF"/>
    <path d="M82.8631 165.996H83.8837C83.9353 165.996 83.9848 165.976 84.0212 165.939C84.0577 165.903 84.0781 165.853 84.0781 165.802V164.722C84.0781 164.67 84.0577 164.621 84.0212 164.584C83.9848 164.548 83.9353 164.527 83.8837 164.527H83.1602C83.1167 164.526 83.0741 164.54 83.0397 164.567C83.0053 164.593 82.9811 164.631 82.9711 164.673L82.6849 165.753C82.6777 165.781 82.6768 165.81 82.6822 165.839C82.6876 165.867 82.6993 165.894 82.7163 165.917C82.7334 165.94 82.7554 165.959 82.7808 165.973C82.8062 165.987 82.8343 165.995 82.8631 165.996Z" fill="#407BFF"/>
    <path d="M81.4591 165.996H82.4797C82.5312 165.996 82.5807 165.976 82.6171 165.939C82.6536 165.903 82.6741 165.853 82.6741 165.802V164.722C82.6741 164.67 82.6536 164.621 82.6171 164.584C82.5807 164.548 82.5312 164.527 82.4797 164.527H81.7453C81.7027 164.527 81.6615 164.542 81.6281 164.568C81.5948 164.595 81.5714 164.632 81.5617 164.673L81.2755 165.753C81.2681 165.782 81.2673 165.811 81.273 165.84C81.2788 165.869 81.2909 165.896 81.3086 165.919C81.3262 165.942 81.3489 165.961 81.375 165.975C81.4011 165.988 81.4298 165.995 81.4591 165.996Z" fill="#407BFF"/>
    <path d="M80.4384 166.957H103.162V165.267H80.4384V166.957Z" fill="#263238"/>
    <path opacity="0.2" d="M80.4384 166.957H103.162V165.267H80.4384V166.957Z" fill="white"/>
    <path opacity="0.2" d="M80.4438 166.957H87.804V165.267H80.4438V166.957Z" fill="white"/>
    <path opacity="0.2" d="M67.1166 171.898H164.095V166.893H67.1166V171.898Z" fill="white"/>
    <path d="M47.6552 214.655C47.7237 214.513 47.7568 214.356 47.7518 214.198C47.7468 214.04 47.7038 213.886 47.6265 213.748C47.5491 213.61 47.4397 213.493 47.3074 213.407C47.1752 213.32 47.024 213.267 46.8668 213.251C47.0027 212.847 47.0119 212.412 46.8932 212.002C46.7745 211.593 46.5335 211.23 46.2026 210.962C46.1244 210.888 46.0236 210.842 45.9164 210.832C45.8002 210.842 45.6903 210.889 45.6032 210.967L43.7672 212.285C43.6211 212.377 43.4975 212.5 43.4054 212.646C43.0274 213.37 44.3828 214.304 43.8266 214.904C43.6646 215.076 43.4108 215.109 43.211 215.233C42.7736 215.508 42.7196 216.108 42.5198 216.583C42.32 217.058 41.6018 217.42 41.3318 216.983C41.5316 216.529 40.9268 216.14 40.4354 216.081C39.944 216.021 39.4256 215.994 39.1556 215.541C38.4536 216.151 36.8876 214.461 36.9254 213.759C36.6521 213.811 36.4017 213.947 36.2084 214.147C36.0151 214.347 35.8883 214.602 35.8454 214.877C35.7661 215.445 35.7462 216.021 35.786 216.594C35.786 217.706 35.408 218.797 35.4296 219.909C35.4296 220.773 35.7806 221.735 36.569 222.069C36.9633 222.21 37.383 222.265 37.8002 222.231L46.829 222.172C47.0466 222.19 47.2653 222.155 47.4662 222.069C47.8712 221.859 47.9576 221.324 48.0062 220.865L48.4922 214.979L47.6552 214.655Z" fill="#407BFF"/>
    <path opacity="0.3" d="M47.6552 214.655C47.7237 214.513 47.7568 214.356 47.7518 214.198C47.7468 214.04 47.7038 213.886 47.6265 213.748C47.5491 213.61 47.4397 213.493 47.3074 213.407C47.1752 213.32 47.024 213.267 46.8668 213.251C47.0027 212.847 47.0119 212.412 46.8932 212.002C46.7745 211.593 46.5335 211.23 46.2026 210.962C46.1244 210.888 46.0236 210.842 45.9164 210.832C45.8002 210.842 45.6903 210.889 45.6032 210.967L43.7672 212.285C43.6211 212.377 43.4975 212.5 43.4054 212.646C43.0274 213.37 44.3828 214.304 43.8266 214.904C43.6646 215.076 43.4108 215.109 43.211 215.233C42.7736 215.508 42.7196 216.108 42.5198 216.583C42.32 217.058 41.6018 217.42 41.3318 216.983C41.5316 216.529 40.9268 216.14 40.4354 216.081C39.944 216.021 39.4256 215.994 39.1556 215.541C38.4536 216.151 36.8876 214.461 36.9254 213.759C36.6521 213.811 36.4017 213.947 36.2084 214.147C36.0151 214.347 35.8883 214.602 35.8454 214.877C35.7661 215.445 35.7462 216.021 35.786 216.594C35.786 217.706 35.408 218.797 35.4296 219.909C35.4296 220.773 35.7806 221.735 36.569 222.069C36.9633 222.21 37.383 222.265 37.8002 222.231L46.829 222.172C47.0466 222.19 47.2653 222.155 47.4662 222.069C47.8712 221.859 47.9576 221.324 48.0062 220.865L48.4922 214.979L47.6552 214.655Z" fill="white"/>
    <path d="M48.179 205.113H34.1714L34.2848 206.528L34.3658 207.538L34.5818 210.168L34.706 211.68L34.868 213.694L34.9328 214.552V214.812L35.0138 215.827L35.1272 217.215L35.192 218.073L35.2676 218.953L35.3486 219.963L35.4134 220.73L35.4782 221.594L35.5106 221.972H48.395V221.594L48.4652 220.735L48.53 219.963L48.611 218.948L48.6812 218.073L48.7514 217.215L48.8648 215.821L48.9458 214.812V214.552L49.0106 213.694L49.178 211.68L49.2968 210.173L49.5074 207.538L49.5938 206.528L49.7072 205.113H48.179ZM49.0214 206.042L48.7514 205.772H49.043L49.0214 206.042ZM48.9512 206.901L48.9242 207.241L47.6714 208.499L46.235 207.057L47.5202 205.772H47.8226L48.9512 206.901ZM48.5894 211.383L47.6714 212.301L46.235 210.864L47.6714 209.428L48.665 210.421L48.5894 211.383ZM35.2622 210.421L36.2558 209.428L37.6922 210.864L36.2558 212.301L35.3378 211.383L35.2622 210.421ZM47.207 208.98L45.7706 210.416L44.3342 208.98L45.7706 207.538L47.207 208.98ZM44.9498 205.788H46.5698L45.749 206.609L44.9498 205.788ZM45.3008 210.88L43.8698 212.317L42.428 210.88L43.8698 209.444L45.3008 210.88ZM40.5272 212.76L41.9636 211.329L43.4 212.76L41.9636 214.201L40.5272 212.76ZM41.4992 214.666L40.0574 216.102L38.6264 214.666L40.0628 213.229L41.4992 214.666ZM43.8698 213.229L45.3008 214.666L43.8698 216.102L42.428 214.666L43.8698 213.229ZM41.9636 210.394L40.5272 208.98L41.9636 207.538L43.4 208.98L41.9636 210.394ZM41.4992 210.859L40.0628 212.295L38.6264 210.859L40.0628 209.422L41.4992 210.859ZM38.1566 210.394L36.7202 208.98L38.1566 207.538L39.593 208.98L38.1566 210.394ZM38.1566 211.329L39.593 212.76L38.1566 214.201L36.7202 212.76L38.1566 211.329ZM39.593 216.572L38.1566 218.003L36.7202 216.577L38.1566 215.136L39.593 216.572ZM40.0574 217.031L41.4992 218.473L40.0628 219.909L38.6264 218.473L40.0574 217.031ZM40.5272 216.572L41.9636 215.13L43.4 216.572L41.9636 218.003L40.5272 216.572ZM43.8698 217.031L45.3008 218.473L43.8698 219.909L42.428 218.473L43.8698 217.031ZM45.7706 218.937L47.207 220.374L46.2782 221.308H45.263L44.3342 220.374L45.7706 218.937ZM44.3342 216.572L45.7706 215.13L47.207 216.572L45.7706 218.003L44.3342 216.572ZM44.3342 212.76L45.7706 211.329L47.207 212.76L45.7706 214.201L44.3342 212.76ZM45.3008 207.052L43.8698 208.494L42.428 207.052L43.7402 205.772H44.0426L45.3008 207.052ZM41.9636 206.587L41.1428 205.767H42.7628L41.9636 206.587ZM41.4992 207.052L40.0628 208.494L38.6264 207.052L39.9116 205.767H40.214L41.4992 207.052ZM38.9774 205.767L38.1566 206.587L37.3358 205.767H38.9774ZM36.407 205.767L37.6922 207.052L36.2558 208.494L35.003 207.235V206.895L36.1316 205.767H36.407ZM35.1758 205.767L34.9058 206.031V205.767H35.1758ZM35.084 208.251L35.7914 208.98L35.192 209.579L35.084 208.251ZM35.4782 213.073L35.4242 212.392L35.7914 212.76L35.4782 213.073ZM35.5484 213.937L36.2558 213.229L37.6922 214.666L36.2558 216.102L35.6726 215.524L35.5484 213.937ZM35.759 216.599V216.54L35.7914 216.577L35.759 216.604V216.599ZM36.0128 219.661L35.8292 217.458L36.2558 217.031L37.6922 218.473L36.2558 219.909L36.0128 219.661ZM36.1424 221.281L36.1154 220.951L36.2558 220.811L36.7202 221.281H36.1424ZM36.7202 220.379L38.1566 218.943L39.593 220.379L38.6642 221.313H37.649L36.7202 220.379ZM39.593 221.313L40.0628 220.843L40.5326 221.313H39.593ZM41.456 221.313L40.5272 220.379L41.9636 218.943L43.4 220.379L42.4712 221.313H41.456ZM43.4 221.313L43.8698 220.843L44.3342 221.313H43.4ZM47.7848 221.313H47.207L47.6714 220.843L47.8118 220.984L47.7848 221.313ZM47.9198 219.693L47.6714 219.942L46.235 218.505L47.6714 217.063L48.098 217.49L47.9198 219.693ZM48.1736 216.567V216.631L48.1412 216.604L48.179 216.567H48.1736ZM48.2546 215.557L47.6714 216.135L46.235 214.698L47.6714 213.262L48.3842 213.969L48.2546 215.557ZM48.4544 213.111L48.1358 212.792L48.5084 212.425L48.4544 213.111ZM48.8432 208.283L48.7406 209.59L48.1358 208.98L48.8432 208.272V208.283Z" fill="#407BFF"/>
    <g opacity="0.6">
    <path d="M48.179 205.113H34.1714L34.2848 206.528L34.3658 207.538L34.5818 210.168L34.706 211.68L34.868 213.694L34.9328 214.552V214.812L35.0138 215.827L35.1272 217.215L35.192 218.073L35.2676 218.953L35.3486 219.963L35.4134 220.73L35.4782 221.594L35.5106 221.972H48.395V221.594L48.4652 220.735L48.53 219.963L48.611 218.948L48.6812 218.073L48.7514 217.215L48.8648 215.821L48.9458 214.812V214.552L49.0106 213.694L49.178 211.68L49.2968 210.173L49.5074 207.538L49.5938 206.528L49.7072 205.113H48.179ZM49.0214 206.042L48.7514 205.772H49.043L49.0214 206.042ZM48.9512 206.901L48.9242 207.241L47.6714 208.499L46.235 207.057L47.5202 205.772H47.8226L48.9512 206.901ZM48.5894 211.383L47.6714 212.301L46.235 210.864L47.6714 209.428L48.665 210.421L48.5894 211.383ZM35.2622 210.421L36.2558 209.428L37.6922 210.864L36.2558 212.301L35.3378 211.383L35.2622 210.421ZM47.207 208.98L45.7706 210.416L44.3342 208.98L45.7706 207.538L47.207 208.98ZM44.9498 205.788H46.5698L45.749 206.609L44.9498 205.788ZM45.3008 210.88L43.8698 212.317L42.428 210.88L43.8698 209.444L45.3008 210.88ZM40.5272 212.76L41.9636 211.329L43.4 212.76L41.9636 214.201L40.5272 212.76ZM41.4992 214.666L40.0574 216.102L38.6264 214.666L40.0628 213.229L41.4992 214.666ZM43.8698 213.229L45.3008 214.666L43.8698 216.102L42.428 214.666L43.8698 213.229ZM41.9636 210.394L40.5272 208.98L41.9636 207.538L43.4 208.98L41.9636 210.394ZM41.4992 210.859L40.0628 212.295L38.6264 210.859L40.0628 209.422L41.4992 210.859ZM38.1566 210.394L36.7202 208.98L38.1566 207.538L39.593 208.98L38.1566 210.394ZM38.1566 211.329L39.593 212.76L38.1566 214.201L36.7202 212.76L38.1566 211.329ZM39.593 216.572L38.1566 218.003L36.7202 216.577L38.1566 215.136L39.593 216.572ZM40.0574 217.031L41.4992 218.473L40.0628 219.909L38.6264 218.473L40.0574 217.031ZM40.5272 216.572L41.9636 215.13L43.4 216.572L41.9636 218.003L40.5272 216.572ZM43.8698 217.031L45.3008 218.473L43.8698 219.909L42.428 218.473L43.8698 217.031ZM45.7706 218.937L47.207 220.374L46.2782 221.308H45.263L44.3342 220.374L45.7706 218.937ZM44.3342 216.572L45.7706 215.13L47.207 216.572L45.7706 218.003L44.3342 216.572ZM44.3342 212.76L45.7706 211.329L47.207 212.76L45.7706 214.201L44.3342 212.76ZM45.3008 207.052L43.8698 208.494L42.428 207.052L43.7402 205.772H44.0426L45.3008 207.052ZM41.9636 206.587L41.1428 205.767H42.7628L41.9636 206.587ZM41.4992 207.052L40.0628 208.494L38.6264 207.052L39.9116 205.767H40.214L41.4992 207.052ZM38.9774 205.767L38.1566 206.587L37.3358 205.767H38.9774ZM36.407 205.767L37.6922 207.052L36.2558 208.494L35.003 207.235V206.895L36.1316 205.767H36.407ZM35.1758 205.767L34.9058 206.031V205.767H35.1758ZM35.084 208.251L35.7914 208.98L35.192 209.579L35.084 208.251ZM35.4782 213.073L35.4242 212.392L35.7914 212.76L35.4782 213.073ZM35.5484 213.937L36.2558 213.229L37.6922 214.666L36.2558 216.102L35.6726 215.524L35.5484 213.937ZM35.759 216.599V216.54L35.7914 216.577L35.759 216.604V216.599ZM36.0128 219.661L35.8292 217.458L36.2558 217.031L37.6922 218.473L36.2558 219.909L36.0128 219.661ZM36.1424 221.281L36.1154 220.951L36.2558 220.811L36.7202 221.281H36.1424ZM36.7202 220.379L38.1566 218.943L39.593 220.379L38.6642 221.313H37.649L36.7202 220.379ZM39.593 221.313L40.0628 220.843L40.5326 221.313H39.593ZM41.456 221.313L40.5272 220.379L41.9636 218.943L43.4 220.379L42.4712 221.313H41.456ZM43.4 221.313L43.8698 220.843L44.3342 221.313H43.4ZM47.7848 221.313H47.207L47.6714 220.843L47.8118 220.984L47.7848 221.313ZM47.9198 219.693L47.6714 219.942L46.235 218.505L47.6714 217.063L48.098 217.49L47.9198 219.693ZM48.1736 216.567V216.631L48.1412 216.604L48.179 216.567H48.1736ZM48.2546 215.557L47.6714 216.135L46.235 214.698L47.6714 213.262L48.3842 213.969L48.2546 215.557ZM48.4544 213.111L48.1358 212.792L48.5084 212.425L48.4544 213.111ZM48.8432 208.283L48.7406 209.59L48.1358 208.98L48.8432 208.272V208.283Z" fill="white"/>
    </g>
    <path d="M34.1605 206.361H49.7665C50.2556 206.361 50.6521 205.964 50.6521 205.475V205.416C50.6521 204.927 50.2556 204.53 49.7665 204.53H34.1605C33.6714 204.53 33.2749 204.927 33.2749 205.416V205.475C33.2749 205.964 33.6714 206.361 34.1605 206.361Z" fill="#407BFF"/>
    <path d="M48.5136 220.984H35.4132C34.9241 220.984 34.5276 221.38 34.5276 221.869V221.929C34.5276 222.418 34.9241 222.814 35.4132 222.814H48.5136C49.0027 222.814 49.3992 222.418 49.3992 221.929V221.869C49.3992 221.38 49.0027 220.984 48.5136 220.984Z" fill="#407BFF"/>
    <path d="M130.427 72.8175L146.357 70.0601C147.442 69.8724 148.169 68.8412 147.981 67.7568L145.224 51.8261C145.036 50.7417 144.005 50.0148 142.92 50.2025L126.99 52.96C125.905 53.1477 125.178 54.1789 125.366 55.2632L128.123 71.1939C128.311 72.2783 129.342 73.0052 130.427 72.8175Z" fill="#407BFF"/>
    <path d="M135.999 70.2755C135.999 70.2755 139.633 75.7781 145.789 76.6313C145.789 76.6313 142.241 75.3299 141.415 69.0713L135.999 70.2755Z" fill="#407BFF"/>
    <path d="M141.259 59.9937L138.688 60.3015C138.688 60.3015 137.846 58.5843 137.311 54.6099C136.865 54.6158 136.421 54.6849 135.994 54.8151C135.578 54.9987 136.037 59.4483 136.037 59.4483C136.037 59.4483 131.382 59.7723 131.177 59.9883C131.036 60.1341 131.09 60.8199 131.177 61.3059C131.188 61.4454 131.248 61.5764 131.347 61.6753C131.446 61.7743 131.577 61.8348 131.717 61.8459H131.884L132.71 66.2199C132.737 66.3853 132.827 66.5339 132.961 66.6346C133.095 66.7352 133.262 66.7802 133.429 66.7599L137.749 66.2199C138.177 66.1593 138.578 65.9711 138.899 65.6799L139.32 65.2965L142.02 65.1237L141.259 59.9937Z" fill="#407BFF"/>
    <path opacity="0.7" d="M141.259 59.9937L138.688 60.3015C138.688 60.3015 137.846 58.5843 137.311 54.6099C136.865 54.6158 136.421 54.6849 135.994 54.8151C135.578 54.9987 136.037 59.4483 136.037 59.4483C136.037 59.4483 131.382 59.7723 131.177 59.9883C131.036 60.1341 131.09 60.8199 131.177 61.3059C131.188 61.4454 131.248 61.5764 131.347 61.6753C131.446 61.7743 131.577 61.8348 131.717 61.8459H131.884L132.71 66.2199C132.737 66.3853 132.827 66.5339 132.961 66.6346C133.095 66.7352 133.262 66.7802 133.429 66.7599L137.749 66.2199C138.177 66.1593 138.578 65.9711 138.899 65.6799L139.32 65.2965L142.02 65.1237L141.259 59.9937Z" fill="white"/>
    <path d="M150.412 91.6435C148.057 91.5517 138.888 106.488 138.888 106.488L132.656 105.3L131.317 108.486C131.317 108.486 136.939 111.229 139.196 111.472C141.453 111.715 150.12 99.6679 150.12 99.6679L150.412 91.6435Z" fill="#407BFF"/>
    <path opacity="0.2" d="M150.411 91.6381L150.12 99.6679C150.12 99.6679 149.909 99.9595 149.547 100.445C148.889 101.347 147.706 102.929 146.361 104.62C143.732 107.914 140.475 111.64 139.217 111.478C136.955 111.235 131.339 108.502 131.339 108.502L132.678 105.316L138.904 106.493C138.904 106.493 148.057 91.5517 150.411 91.6381Z" fill="white"/>
    <path opacity="0.2" d="M149.526 100.44C148.867 101.342 147.684 102.924 146.34 104.614C146.388 101.428 149.175 97.4648 149.175 97.4648C149.175 97.4648 149.375 98.7662 149.526 100.44Z" fill="black"/>
    <path d="M168.296 222.361H173.561C173.648 222.361 173.732 222.391 173.799 222.445C173.867 222.499 173.914 222.574 173.934 222.658L174.787 226.519C174.822 226.685 174.791 226.859 174.699 227.001C174.606 227.144 174.462 227.244 174.296 227.281H174.155C172.449 227.254 171.207 227.151 169.069 227.151C167.751 227.151 163.771 227.286 161.951 227.286C160.132 227.286 159.894 225.488 160.639 225.32C163.982 224.597 166.498 223.587 167.567 222.62C167.768 222.444 168.029 222.351 168.296 222.361Z" fill="#263238"/>
    <path d="M145.951 222.221H151.2C151.286 222.222 151.369 222.251 151.436 222.305C151.502 222.359 151.549 222.434 151.567 222.518L152.426 226.384C152.459 226.551 152.426 226.723 152.333 226.865C152.24 227.006 152.095 227.105 151.929 227.14C151.882 227.146 151.835 227.146 151.789 227.14C150.088 227.108 148.846 227.005 146.702 227.005C145.384 227.005 141.41 227.146 139.59 227.146C137.77 227.146 137.533 225.348 138.278 225.18C141.62 224.451 144.131 223.441 145.206 222.48C145.413 222.303 145.679 222.21 145.951 222.221Z" fill="#263238"/>
    <path d="M171.088 124.708H148.073C145.881 136.658 139.034 185.188 143.948 222.863H151.74C151.74 222.863 151.016 165.623 157.896 147.145C158.69 157.043 166.736 222.82 166.736 222.82H174.668C174.668 222.82 173.48 198.077 172.292 174.701C171.547 159.986 171.121 127.726 171.088 124.708Z" fill="#263238"/>
    <path opacity="0.2" d="M157.896 147.145C156.764 150.387 155.904 153.718 155.326 157.102C154.683 148.295 157.259 138.958 157.259 138.958L157.896 147.145Z" fill="black"/>
    <path d="M147.879 124.983H171.045V127.742L147.582 127.456L147.879 124.983Z" fill="black"/>
    <path d="M163.598 123.741H162.772V128.639H163.598V123.741Z" fill="#263238"/>
    <path d="M151.875 123.741H151.049V128.639H151.875V123.741Z" fill="#263238"/>
    <path d="M158.441 124.497H154.154V127.586H158.441V124.497Z" fill="white"/>
    <path d="M171.12 125.426C171.731 112.244 175.608 93.5658 175.608 93.5658C164.851 90.9738 150.411 91.6218 150.411 91.6218C147.598 101.687 147.647 117.931 147.89 125.404L171.12 125.426Z" fill="#407BFF"/>
    <path opacity="0.2" d="M175.608 93.5823C175.608 93.5823 175.176 95.6721 174.577 98.9391C174.29 100.5 173.961 102.33 173.632 104.339C173.437 105.511 173.237 106.737 173.048 108C172.859 109.264 172.665 110.5 172.508 111.78C171.871 116.359 171.337 121.182 171.137 125.431H147.917C147.674 117.958 147.625 101.715 150.439 91.6437C150.412 91.6383 164.857 90.9903 175.608 93.5823Z" fill="white"/>
    <path opacity="0.2" d="M174.577 98.939C174.29 100.5 173.961 102.33 173.632 104.339C173.437 105.511 173.237 106.737 173.048 108C171.342 103.524 174.247 97.4756 174.247 97.4756L174.577 98.939Z" fill="black"/>
    <path d="M158.058 93.4201L158.636 96.2713C158.636 96.2713 155.315 110.133 154.602 117.331L155.812 118.541L157.718 117.331C157.718 117.331 157.885 102.692 159.57 96.5413L162.583 94.0735L160.207 93.3013L158.058 93.4201Z" fill="#263238"/>
    <path d="M167.076 92.1295C165.089 93.9385 160.207 93.2689 160.207 93.2689C160.207 93.2689 157.167 92.4373 157.804 91.4869C159.597 91.1899 160.466 90.3529 160.823 89.2837C161.021 88.6208 161.084 87.9247 161.006 87.2371C160.978 86.8529 160.927 86.4707 160.855 86.0923L166.887 81.6265C166.093 84.5749 165.126 89.9965 167.076 92.1295Z" fill="#EEC1BB"/>
    <path opacity="0.2" d="M165.494 84.4668C165.251 88.0848 162.254 89.0784 160.823 89.2836C161.021 88.6208 161.084 87.9246 161.006 87.237L165.494 84.4668Z" fill="black"/>
    <path d="M166.19 89.8345L160.423 92.4373L160.088 90.3529L157.966 91.0981C157.597 91.2273 157.283 91.4774 157.074 91.8078C156.866 92.1381 156.774 92.5293 156.816 92.9179L157.054 95.2075L159.975 93.5875L161.433 95.6449L168.356 92.3401L166.19 89.8345Z" fill="#407BFF"/>
    <path opacity="0.3" d="M166.19 89.8345L160.423 92.4373L160.088 90.3529L157.966 91.0981C157.597 91.2273 157.283 91.4774 157.074 91.8078C156.866 92.1381 156.774 92.5293 156.816 92.9179L157.054 95.2075L159.975 93.5875L161.433 95.6449L168.356 92.3401L166.19 89.8345Z" fill="white"/>
    <path d="M154.526 73.2513C154.526 73.2513 153.624 79.0563 156.686 81.3027C159.748 83.5491 159.797 72.7329 159.797 72.7329L154.526 73.2513Z" fill="#263238"/>
    <path d="M165.634 85.9412C164.987 86.8969 164.042 87.6129 162.947 87.9789C161.853 88.3449 160.668 88.3404 159.575 87.9662C158.153 87.5132 156.957 86.5338 156.233 85.2284C156.132 85.0532 156.04 84.8729 155.957 84.6884C154.451 81.1352 153.986 74.9252 157.745 72.6086C159.029 71.8069 160.579 71.5476 162.054 71.8878C163.529 72.228 164.809 73.1398 165.613 74.423C166.092 75.1821 166.383 76.0449 166.46 76.9394C166.909 81.0758 167.368 83.495 165.634 85.9412Z" fill="#EEC1BB"/>
    <path d="M160.407 79.1211C160.482 79.4505 160.331 79.7583 160.11 79.7961C159.888 79.8339 159.667 79.5855 159.608 79.2561C159.548 78.9267 159.689 78.6243 159.905 78.5865C160.121 78.5487 160.347 78.7863 160.407 79.1211Z" fill="#263238"/>
    <path d="M156.6 79.7581C156.676 80.0875 156.519 80.3953 156.303 80.4277C156.087 80.4601 155.86 80.2225 155.806 79.8877C155.752 79.5529 155.882 79.2505 156.098 79.2181C156.314 79.1857 156.562 79.4395 156.6 79.7581Z" fill="#263238"/>
    <path d="M157.847 79.7202C157.62 80.8131 157.242 81.869 156.724 82.8576C156.983 82.9829 157.265 83.0506 157.552 83.0562C157.839 83.0618 158.124 83.0051 158.387 82.89L157.847 79.7202Z" fill="#D4827D"/>
    <path d="M154.937 78.3755C154.971 78.387 155.008 78.3896 155.044 78.383C155.08 78.3764 155.114 78.3608 155.142 78.3377C155.326 78.1673 155.547 78.042 155.788 77.9718C156.029 77.9015 156.283 77.8881 156.53 77.9327C156.555 77.94 156.581 77.9424 156.606 77.9396C156.632 77.9368 156.657 77.9289 156.68 77.9163C156.702 77.9037 156.722 77.8867 156.738 77.8664C156.754 77.846 156.766 77.8226 156.773 77.7977C156.786 77.7461 156.779 77.6914 156.753 77.6451C156.727 77.5987 156.683 77.5644 156.632 77.5493C156.323 77.4845 156.003 77.4949 155.698 77.5794C155.394 77.664 155.114 77.8203 154.883 78.0353C154.842 78.069 154.816 78.1174 154.811 78.1701C154.806 78.2227 154.822 78.2752 154.856 78.3161C154.879 78.3408 154.906 78.361 154.937 78.3755Z" fill="#263238"/>
    <path d="M160.92 77.4791C160.957 77.4735 160.991 77.456 161.018 77.4293C161.044 77.4025 161.061 77.3679 161.066 77.3307C161.071 77.2935 161.063 77.2557 161.045 77.223C161.026 77.1904 160.998 77.1646 160.963 77.1497C160.696 76.9792 160.391 76.8759 160.075 76.8486C159.759 76.8213 159.441 76.8709 159.149 76.9931C159.125 77.0041 159.104 77.0197 159.086 77.0391C159.069 77.0585 159.055 77.0812 159.047 77.1059C159.038 77.1306 159.035 77.1568 159.036 77.1828C159.038 77.2089 159.045 77.2344 159.057 77.2577C159.08 77.3046 159.121 77.3406 159.171 77.3577C159.22 77.3749 159.274 77.3719 159.322 77.3495C159.556 77.2611 159.808 77.2282 160.057 77.2535C160.306 77.2788 160.546 77.3616 160.758 77.4953C160.784 77.5052 160.813 77.5089 160.841 77.5061C160.869 77.5033 160.896 77.4941 160.92 77.4791Z" fill="#263238"/>
    <path d="M162.578 72.2954V74.1476C162.901 74.259 163.171 74.4865 163.335 74.7859C163.5 75.0853 163.548 75.4352 163.469 75.7676C163.058 77.3876 164.214 79.6502 165.51 80.4602C165.51 80.4602 165.467 79.7906 166.05 79.8824C166.633 79.9742 166.892 83.4572 165.99 85.2446C165.99 85.2446 167.47 83.549 167.972 79.8014C168.437 76.3292 168.21 73.5104 167.367 72.29L162.578 72.2954Z" fill="#263238"/>
    <path d="M168.826 79.9957C168.525 81.0037 167.838 81.852 166.914 82.3555C165.683 83.0089 164.754 81.9829 164.857 80.6653C164.943 79.4935 165.677 77.7061 167.017 77.6089C168.356 77.5117 169.177 78.7537 168.826 79.9957Z" fill="#EEC1BB"/>
    <path d="M158.825 83.9055C159.114 84.3495 159.372 84.8132 159.597 85.2933L159.867 85.2123C161.082 84.8559 161.525 84.2889 161.654 83.7705C161.715 83.5167 161.715 83.2521 161.654 82.9983C161.621 82.855 161.568 82.7169 161.498 82.5879C160.845 83.1406 160.081 83.5459 159.257 83.7759C158.987 83.8623 158.825 83.9055 158.825 83.9055Z" fill="#263238"/>
    <path d="M159.235 83.7759L159.473 84.1809C160.618 83.8407 161.379 83.4519 161.633 82.9983C161.599 82.855 161.547 82.7169 161.476 82.5879C160.823 83.1406 160.059 83.5459 159.235 83.7759Z" fill="white"/>
    <path d="M159.867 85.2123C161.082 84.8559 161.525 84.2889 161.654 83.7705C161.194 83.9167 160.763 84.1414 160.38 84.4347C160.132 84.6344 159.953 84.9062 159.867 85.2123Z" fill="#DE5753"/>
    <path d="M167.076 73.1701C167.076 73.1701 169.069 70.7401 164.29 69.2497C159.511 67.7593 152.518 72.1981 153.938 73.9531C155.358 75.7081 160.256 74.9737 160.256 74.9737C159.571 74.8912 158.924 74.618 158.387 74.1853C158.387 74.1853 165.472 74.6605 167.076 73.1701Z" fill="#263238"/>
    <path d="M175.608 93.5874C178.637 94.6134 180.711 113.449 180.673 115.085C180.635 116.721 175.997 117.428 175.608 114.005C175.219 110.581 173.632 103.302 173.632 103.302C173.632 103.302 173.21 100.008 173.632 98.01C174.053 96.012 175.608 93.5874 175.608 93.5874Z" fill="#407BFF"/>
    <path opacity="0.2" d="M175.608 93.5874C178.637 94.6134 180.711 113.449 180.673 115.085C180.635 116.721 175.997 117.428 175.608 114.005C175.219 110.581 173.632 103.302 173.632 103.302C173.632 103.302 173.21 100.008 173.632 98.01C174.053 96.012 175.608 93.5874 175.608 93.5874Z" fill="white"/>
    <path d="M199.423 114.608L93.7146 103.162L85.7522 176.696L191.46 188.142L199.423 114.608Z" fill="#407BFF"/>
    <path opacity="0.6" d="M199.423 114.608L93.7146 103.162L85.7522 176.696L191.46 188.142L199.423 114.608Z" fill="white"/>
    <path d="M189.297 185.636L88.4304 174.722L95.904 105.64L196.771 116.554L189.297 185.636ZM89.0298 174.242L188.816 185.042L196.177 117.034L96.3846 106.234L89.0298 174.242Z" fill="#407BFF"/>
    <path d="M190.425 186.975L184.545 186.338L184.772 184.259L93.1499 174.345L92.9231 176.424L87.0425 175.792L87.6797 169.911L89.8127 170.143L96.2927 110.414L94.1327 110.182L94.7699 104.301L100.65 104.938L100.429 107.017L192.051 116.932L192.272 114.853L198.18 115.485L197.543 121.365L195.41 121.138L188.93 180.862L191.09 181.095L190.425 186.975ZM185.139 185.863L189.945 186.403L190.485 181.597L188.325 181.365L194.902 120.561L197.062 120.793L197.602 115.987L192.796 115.447L192.569 117.526L99.8351 107.498L100.062 105.414L95.2559 104.874L94.7159 109.68L96.8489 109.912L90.2717 170.716L88.1117 170.484L87.5717 175.29L92.3777 175.83L92.6045 173.751L185.301 183.778L185.139 185.863Z" fill="#407BFF"/>
    <path d="M97.3674 107.531L98.5932 107.666L98.4582 108.891L97.2324 108.762L97.3674 107.531ZM96.8868 106.937L96.8274 107.477L96.6978 108.708L96.6384 109.248L97.1784 109.307L98.4096 109.442L98.9496 109.496L99.009 108.956L99.1386 107.73L99.198 107.19L98.658 107.131L97.4268 107.001L96.8868 106.942V106.937Z" fill="#407BFF"/>
    <path d="M90.396 171.963L91.6218 172.093L91.4868 173.319L90.261 173.189L90.396 171.963ZM89.9154 171.364L89.856 171.904L89.7264 173.13L89.667 173.67L90.207 173.724L91.4382 173.859L91.9782 173.918L92.0376 173.378L92.1672 172.152L92.2266 171.612L91.6866 171.558L90.4554 171.423L89.9154 171.364Z" fill="#407BFF"/>
    <path d="M193.714 117.958L194.94 118.087L194.811 119.319L193.579 119.184L193.714 117.958ZM193.234 117.358L193.174 117.898L193.045 119.124L192.985 119.664L193.525 119.718L194.757 119.853L195.297 119.913L195.356 119.373L195.491 118.147L195.545 117.607L195.005 117.547L193.779 117.412L193.239 117.353L193.234 117.358Z" fill="#407BFF"/>
    <path d="M186.743 182.385L187.968 182.52L187.839 183.746L186.608 183.611L186.743 182.385ZM186.262 181.791L186.203 182.331L186.073 183.562L186.014 184.102L186.554 184.162L187.779 184.291L188.319 184.351L188.379 183.811L188.514 182.579L188.568 182.039L188.028 181.98L186.802 181.85L186.262 181.791Z" fill="#407BFF"/>
    <path d="M117.126 118.924C117.207 118.402 117.44 117.915 117.796 117.524C118.152 117.132 118.615 116.854 119.127 116.724C119.64 116.593 120.179 116.616 120.679 116.789C121.178 116.963 121.616 117.279 121.937 117.699L121.279 118.195C121.132 117.991 120.944 117.821 120.726 117.696C120.508 117.571 120.265 117.495 120.015 117.472C119.783 117.44 119.547 117.456 119.321 117.517C119.094 117.579 118.883 117.685 118.698 117.829C118.514 117.974 118.36 118.154 118.247 118.359C118.133 118.563 118.061 118.789 118.036 119.022C118.011 119.255 118.032 119.491 118.1 119.715C118.167 119.939 118.278 120.148 118.428 120.329C118.577 120.509 118.761 120.658 118.968 120.767C119.176 120.875 119.403 120.941 119.637 120.96C119.887 120.991 120.141 120.967 120.382 120.891C120.622 120.814 120.843 120.687 121.03 120.517L121.57 121.149C121.166 121.491 120.671 121.706 120.146 121.769C119.621 121.831 119.089 121.738 118.617 121.501C118.144 121.265 117.751 120.894 117.487 120.436C117.223 119.978 117.099 119.452 117.131 118.924H117.126Z" fill="#407BFF"/>
    <path d="M126.176 121.63L126.09 122.407L122.369 122.002L122.909 117.034L126.533 117.428L126.452 118.201L123.752 117.909L123.611 119.2L126.014 119.459L125.928 120.22L123.53 119.961L123.385 121.327L126.176 121.63Z" fill="#407BFF"/>
    <path d="M130.367 122.866L129.514 121.306H129.319L128.196 121.187L128.039 122.634L127.121 122.531L127.661 117.569L129.703 117.79C131.009 117.931 131.749 118.681 131.63 119.783C131.605 120.124 131.472 120.448 131.251 120.709C131.03 120.97 130.731 121.154 130.399 121.235L131.366 122.99L130.367 122.866ZM129.573 118.546L128.493 118.433L128.282 120.409L129.362 120.528C130.172 120.614 130.631 120.29 130.696 119.664C130.761 119.038 130.383 118.633 129.6 118.546H129.573Z" fill="#407BFF"/>
    <path d="M133.693 118.994L132.046 118.816L132.133 118.033L136.345 118.492L136.264 119.27L134.617 119.092L134.163 123.277L133.24 123.179L133.693 118.994Z" fill="#407BFF"/>
    <path d="M137.041 118.568L137.965 118.665L137.425 123.633L136.501 123.53L137.041 118.568Z" fill="#407BFF"/>
    <path d="M140.141 119.686L139.979 121.192L142.376 121.452L142.29 122.235L139.892 121.975L139.687 123.876L138.764 123.779L139.304 118.811L142.927 119.205L142.846 119.977L140.141 119.686Z" fill="#407BFF"/>
    <path d="M143.823 119.297L144.741 119.399L144.201 124.367L143.278 124.265L143.823 119.297Z" fill="#407BFF"/>
    <path d="M145.46 121.992C145.494 121.646 145.598 121.31 145.766 121.006C145.935 120.702 146.164 120.436 146.439 120.223C146.714 120.011 147.03 119.857 147.366 119.771C147.703 119.685 148.054 119.669 148.397 119.724C148.767 119.749 149.127 119.855 149.451 120.035C149.775 120.215 150.055 120.465 150.271 120.766L149.618 121.263C149.471 121.058 149.283 120.887 149.065 120.761C148.847 120.635 148.605 120.558 148.354 120.534C148.063 120.505 147.77 120.55 147.501 120.664C147.231 120.778 146.995 120.957 146.812 121.185C146.63 121.413 146.508 121.684 146.456 121.972C146.405 122.259 146.426 122.555 146.518 122.833C146.61 123.11 146.77 123.36 146.983 123.56C147.196 123.76 147.456 123.904 147.738 123.978C148.021 124.052 148.318 124.054 148.602 123.985C148.886 123.915 149.148 123.776 149.364 123.579L149.904 124.211C149.501 124.552 149.006 124.767 148.481 124.83C147.957 124.893 147.426 124.801 146.953 124.564C146.481 124.328 146.088 123.958 145.823 123.501C145.559 123.044 145.434 122.519 145.465 121.992H145.46Z" fill="#407BFF"/>
    <path d="M153.943 124.254L151.459 123.989L150.843 125.069L149.893 124.967L152.669 120.242L153.576 120.339L155.277 125.545L154.316 125.442L153.943 124.254ZM153.716 123.498L153.014 121.225L151.848 123.298L153.716 123.498Z" fill="#407BFF"/>
    <path d="M157.14 121.527L155.493 121.349L155.574 120.571L159.791 121.025L159.705 121.808L158.058 121.63L157.61 125.815L156.686 125.712L157.14 121.527Z" fill="#407BFF"/>
    <path d="M160.466 121.101L161.39 121.203L160.85 126.166L159.926 126.069L160.466 121.101Z" fill="#407BFF"/>
    <path d="M162.108 123.79C162.14 123.251 162.334 122.734 162.663 122.306C162.992 121.878 163.441 121.559 163.954 121.389C164.466 121.219 165.018 121.207 165.537 121.354C166.057 121.5 166.52 121.799 166.868 122.212C167.216 122.625 167.432 123.133 167.488 123.67C167.545 124.206 167.439 124.748 167.185 125.224C166.93 125.7 166.539 126.089 166.062 126.341C165.584 126.592 165.042 126.695 164.506 126.636C164.157 126.616 163.817 126.526 163.505 126.371C163.193 126.215 162.916 125.997 162.692 125.731C162.467 125.464 162.299 125.154 162.199 124.821C162.099 124.487 162.068 124.136 162.108 123.79ZM166.525 124.27C166.564 123.925 166.499 123.576 166.339 123.268C166.179 122.959 165.932 122.705 165.627 122.538C165.323 122.37 164.976 122.297 164.63 122.327C164.284 122.357 163.954 122.489 163.683 122.706C163.412 122.923 163.212 123.216 163.107 123.547C163.003 123.879 162.999 124.233 163.096 124.567C163.194 124.9 163.388 125.197 163.654 125.421C163.92 125.644 164.247 125.783 164.592 125.82C164.822 125.852 165.055 125.836 165.279 125.774C165.502 125.713 165.711 125.606 165.892 125.461C166.073 125.316 166.222 125.136 166.331 124.931C166.44 124.726 166.506 124.501 166.525 124.27Z" fill="#407BFF"/>
    <path d="M173.118 122.467L172.578 127.435L171.822 127.354L169.446 123.693L169.079 127.057L168.167 126.96L168.707 121.992L169.468 122.073L171.844 125.734L172.206 122.37L173.118 122.467Z" fill="#407BFF"/>
    <path opacity="0.6" d="M168.032 141.631L118.616 136.285C118.062 136.225 117.507 136.388 117.072 136.737C116.638 137.086 116.36 137.594 116.3 138.148C116.239 138.702 116.402 139.258 116.751 139.692C117.101 140.127 117.608 140.405 118.163 140.465L167.578 145.811C167.852 145.841 168.13 145.816 168.395 145.739C168.66 145.661 168.907 145.532 169.122 145.359C169.337 145.186 169.516 144.972 169.649 144.73C169.781 144.488 169.865 144.222 169.895 143.948C169.924 143.673 169.9 143.396 169.822 143.131C169.745 142.866 169.616 142.619 169.443 142.404C169.27 142.189 169.056 142.01 168.814 141.877C168.572 141.745 168.306 141.661 168.032 141.631Z" fill="white"/>
    <path d="M180.047 152.48H180.014L104.587 144.32C104.516 144.313 104.45 144.277 104.405 144.22C104.36 144.164 104.339 144.092 104.347 144.021C104.355 143.949 104.391 143.884 104.447 143.839C104.503 143.793 104.575 143.773 104.647 143.78L180.074 151.945C180.109 151.949 180.143 151.959 180.175 151.976C180.206 151.993 180.233 152.016 180.256 152.043C180.278 152.071 180.294 152.103 180.304 152.137C180.313 152.171 180.316 152.207 180.311 152.242C180.304 152.307 180.272 152.367 180.224 152.411C180.175 152.454 180.112 152.479 180.047 152.48Z" fill="#407BFF"/>
    <path d="M180.29 150.217H180.257L110.743 142.695C110.672 142.687 110.608 142.651 110.563 142.595C110.519 142.54 110.498 142.469 110.505 142.398C110.509 142.363 110.519 142.328 110.536 142.297C110.553 142.266 110.576 142.238 110.604 142.216C110.631 142.194 110.663 142.178 110.697 142.168C110.732 142.158 110.767 142.156 110.802 142.16L180.317 149.677C180.388 149.681 180.456 149.713 180.504 149.766C180.552 149.819 180.577 149.889 180.573 149.961C180.57 150.032 180.538 150.1 180.485 150.148C180.431 150.196 180.361 150.221 180.29 150.217Z" fill="#407BFF"/>
    <path d="M150.233 151.648L104.333 146.686C104.262 146.678 104.196 146.642 104.151 146.586C104.106 146.529 104.085 146.458 104.093 146.386C104.101 146.314 104.137 146.249 104.193 146.204C104.249 146.159 104.321 146.138 104.393 146.146L150.26 151.108C150.296 151.11 150.33 151.119 150.363 151.134C150.395 151.149 150.423 151.171 150.447 151.197C150.471 151.223 150.489 151.254 150.501 151.287C150.513 151.321 150.519 151.356 150.517 151.392C150.515 151.427 150.506 151.462 150.491 151.494C150.476 151.526 150.454 151.555 150.428 151.579C150.402 151.603 150.371 151.621 150.338 151.633C150.304 151.645 150.269 151.65 150.233 151.648Z" fill="#407BFF"/>
    <path d="M182.018 134.26H181.98L112.471 126.738C112.4 126.73 112.334 126.694 112.289 126.638C112.244 126.582 112.223 126.51 112.231 126.438C112.239 126.367 112.275 126.301 112.331 126.256C112.387 126.211 112.459 126.19 112.531 126.198L182.045 133.72C182.116 133.728 182.18 133.764 182.225 133.82C182.269 133.875 182.29 133.946 182.282 134.017C182.277 134.083 182.247 134.145 182.198 134.19C182.149 134.235 182.084 134.26 182.018 134.26Z" fill="#407BFF"/>
    <path d="M181.769 136.523H181.742L106.315 128.358C106.244 128.35 106.178 128.314 106.133 128.258C106.088 128.202 106.067 128.13 106.075 128.058C106.083 127.987 106.119 127.921 106.175 127.876C106.231 127.831 106.303 127.81 106.375 127.818L181.802 135.977C181.837 135.98 181.872 135.989 181.904 136.004C181.936 136.02 181.964 136.041 181.988 136.068C182.012 136.095 182.03 136.126 182.041 136.159C182.053 136.193 182.058 136.228 182.056 136.264C182.053 136.299 182.044 136.334 182.029 136.366C182.013 136.398 181.992 136.426 181.965 136.45C181.938 136.473 181.908 136.491 181.874 136.503C181.84 136.515 181.805 136.52 181.769 136.517V136.523Z" fill="#407BFF"/>
    <path d="M139.86 136.771L105.808 133.089C105.736 133.081 105.67 133.045 105.625 132.988C105.58 132.932 105.559 132.86 105.567 132.789C105.575 132.717 105.611 132.652 105.667 132.607C105.724 132.562 105.795 132.541 105.867 132.549L139.919 136.237C139.99 136.245 140.055 136.281 140.099 136.336C140.144 136.392 140.165 136.463 140.157 136.534C140.148 136.604 140.111 136.668 140.056 136.712C140.001 136.756 139.931 136.777 139.86 136.771Z" fill="#407BFF"/>
    <path d="M181.515 138.888H181.488L106.061 130.723C106.026 130.719 105.991 130.709 105.96 130.691C105.929 130.674 105.901 130.651 105.879 130.623C105.857 130.595 105.84 130.563 105.83 130.529C105.82 130.495 105.817 130.459 105.821 130.424C105.825 130.388 105.836 130.354 105.853 130.323C105.87 130.291 105.893 130.264 105.921 130.241C105.949 130.219 105.981 130.202 106.015 130.192C106.049 130.182 106.085 130.179 106.121 130.183L181.542 138.348C181.614 138.352 181.681 138.384 181.729 138.437C181.778 138.49 181.803 138.56 181.799 138.632C181.795 138.703 181.764 138.77 181.71 138.819C181.657 138.867 181.587 138.892 181.515 138.888Z" fill="#407BFF"/>
    <path d="M171.995 177.455L168.88 175.322L165.38 176.737L166.59 165.537L173.21 166.255L171.995 177.455Z" fill="#407BFF"/>
    <path opacity="0.2" d="M171.995 177.455L168.88 175.322L165.38 176.737L166.59 165.537L173.21 166.255L171.995 177.455Z" fill="black"/>
    <path d="M170.829 157.313L171.92 156.681L172.611 157.739L173.831 157.399L174.236 158.592L175.5 158.565L175.597 159.829L176.828 160.11L176.607 161.357L177.73 161.94L177.206 163.091L178.146 163.938L177.352 164.921L178.054 165.974L177.044 166.73L177.46 167.924L176.288 168.404L176.402 169.662L175.149 169.841L174.938 171.088L173.68 170.942L173.167 172.098L171.99 171.65L171.207 172.643L170.17 171.914L169.166 172.681L168.345 171.714L167.184 172.206L166.628 171.072L165.38 171.255L165.127 170.019L163.868 169.889L163.933 168.626L162.745 168.188L163.118 166.979L162.081 166.26L162.745 165.18L161.914 164.23L162.826 163.35L162.259 162.216L163.361 161.595L163.096 160.358L164.317 160.029L164.365 158.765L165.634 158.749L165.996 157.539L167.227 157.836L167.875 156.751L168.993 157.35L169.895 156.459L170.829 157.313Z" fill="#407BFF"/>
    <path opacity="0.2" d="M170.667 158.787L171.542 158.28L172.093 159.128L173.065 158.852L173.389 159.808L174.398 159.786L174.474 160.796L175.462 161.023L175.284 162.017L176.18 162.481L175.759 163.404L176.515 164.074L175.878 164.862L176.44 165.705L175.63 166.31L175.964 167.26L175.03 167.643L175.117 168.648L174.118 168.788L173.95 169.787L172.946 169.668L172.535 170.597L171.596 170.235L170.969 171.029L170.143 170.446L169.344 171.056L168.685 170.289L167.756 170.678L167.319 169.771L166.32 169.922L166.115 168.934L165.11 168.826L165.164 167.822L164.214 167.471L164.516 166.504L163.685 165.932L164.214 165.073L163.55 164.306L164.279 163.61L163.831 162.702L164.705 162.206L164.495 161.217L165.472 160.953L165.51 159.948L166.52 159.932L166.811 158.966L167.794 159.203L168.313 158.339L169.204 158.814L169.922 158.107L170.667 158.787Z" fill="white"/>
    <path d="M170.04 165.111L170.796 165.197L170.742 165.699L169.927 165.613L169.706 166.547L169.198 166.493L169.419 165.559L168.48 165.456L168.264 166.391L167.756 166.337L167.978 165.402L167.222 165.321L167.276 164.814L168.091 164.9L168.329 163.923L167.573 163.842L167.627 163.334L168.442 163.421L168.663 162.486L169.171 162.54L168.95 163.48L169.884 163.577L170.105 162.643L170.613 162.697L170.391 163.631L171.142 163.712L171.093 164.22L170.278 164.133L170.04 165.111ZM169.533 165.057L169.765 164.079L168.831 163.977L168.593 164.954L169.533 165.057Z" fill="#407BFF"/>
    <path d="M172.962 162.956L172.541 166.855L171.817 166.779L172.173 163.48L171.347 163.393L171.412 162.789L172.962 162.956Z" fill="#407BFF"/>
    <path d="M110.241 153.463C110.368 153.388 110.52 153.365 110.664 153.399C110.808 153.433 110.933 153.522 111.013 153.646C111.081 153.749 111.18 153.828 111.295 153.871C111.411 153.913 111.537 153.918 111.656 153.884C111.798 153.845 111.95 153.861 112.081 153.93C112.211 154 112.311 154.116 112.358 154.257C112.397 154.369 112.469 154.467 112.566 154.537C112.663 154.606 112.779 154.644 112.898 154.645C113.046 154.644 113.19 154.699 113.299 154.799C113.408 154.899 113.475 155.037 113.486 155.185C113.489 155.312 113.534 155.434 113.615 155.532C113.695 155.63 113.806 155.698 113.929 155.725C114.073 155.759 114.199 155.847 114.28 155.97C114.362 156.094 114.392 156.244 114.366 156.39C114.344 156.51 114.361 156.635 114.416 156.745C114.47 156.855 114.559 156.945 114.669 157C114.799 157.069 114.898 157.185 114.946 157.324C114.994 157.463 114.988 157.616 114.928 157.75C114.876 157.862 114.862 157.988 114.887 158.109C114.913 158.229 114.976 158.338 115.068 158.42C115.178 158.519 115.245 158.657 115.257 158.804C115.27 158.952 115.225 159.098 115.133 159.214C115.055 159.308 115.009 159.426 115.004 159.549C114.998 159.671 115.032 159.793 115.101 159.894C115.181 160.018 115.212 160.167 115.187 160.312C115.162 160.458 115.083 160.588 114.966 160.677C114.866 160.75 114.793 160.853 114.756 160.97C114.72 161.088 114.724 161.215 114.766 161.331C114.816 161.47 114.81 161.623 114.75 161.758C114.689 161.892 114.579 161.999 114.442 162.054C114.328 162.101 114.232 162.183 114.168 162.287C114.104 162.392 114.075 162.515 114.086 162.637C114.098 162.785 114.054 162.931 113.961 163.047C113.869 163.163 113.735 163.238 113.589 163.258C113.467 163.274 113.354 163.329 113.267 163.415C113.179 163.501 113.122 163.613 113.103 163.734C113.078 163.88 112.998 164.011 112.879 164.1C112.761 164.189 112.613 164.23 112.466 164.214C112.343 164.201 112.22 164.227 112.114 164.288C112.007 164.349 111.922 164.442 111.872 164.554C111.813 164.69 111.704 164.797 111.568 164.853C111.432 164.91 111.28 164.911 111.143 164.857C111.028 164.813 110.902 164.808 110.783 164.841C110.665 164.874 110.56 164.944 110.484 165.04C110.392 165.157 110.259 165.234 110.112 165.255C109.966 165.276 109.816 165.24 109.695 165.154C109.597 165.082 109.478 165.043 109.355 165.043C109.233 165.043 109.114 165.082 109.015 165.154C108.897 165.244 108.749 165.286 108.601 165.27C108.453 165.254 108.317 165.181 108.221 165.067C108.141 164.975 108.034 164.91 107.914 164.882C107.795 164.854 107.67 164.864 107.557 164.911C107.422 164.969 107.27 164.972 107.132 164.921C106.994 164.87 106.882 164.768 106.817 164.635C106.763 164.525 106.676 164.434 106.567 164.377C106.458 164.32 106.334 164.299 106.212 164.317C106.066 164.338 105.916 164.302 105.795 164.217C105.674 164.131 105.589 164.003 105.559 163.858C105.535 163.738 105.473 163.629 105.383 163.547C105.292 163.464 105.178 163.412 105.057 163.399C104.906 163.39 104.764 163.323 104.663 163.21C104.562 163.098 104.51 162.95 104.517 162.799C104.523 162.676 104.49 162.554 104.422 162.451C104.354 162.348 104.255 162.27 104.139 162.227C104 162.176 103.887 162.073 103.821 161.941C103.756 161.808 103.744 161.655 103.788 161.514C103.824 161.398 103.823 161.272 103.783 161.157C103.743 161.041 103.667 160.941 103.566 160.872C103.445 160.787 103.361 160.66 103.331 160.515C103.301 160.37 103.327 160.22 103.404 160.094C103.468 159.989 103.497 159.867 103.487 159.745C103.478 159.623 103.43 159.507 103.35 159.414C103.252 159.303 103.2 159.158 103.207 159.01C103.213 158.862 103.276 158.722 103.383 158.62C103.472 158.535 103.532 158.423 103.553 158.302C103.575 158.18 103.556 158.055 103.502 157.945C103.434 157.813 103.42 157.659 103.464 157.517C103.507 157.375 103.604 157.255 103.734 157.183C103.84 157.123 103.924 157.03 103.974 156.918C104.023 156.806 104.036 156.682 104.009 156.562C103.978 156.417 104.004 156.266 104.081 156.139C104.158 156.012 104.282 155.92 104.425 155.882C104.545 155.85 104.651 155.78 104.728 155.682C104.804 155.585 104.848 155.466 104.852 155.342C104.861 155.197 104.925 155.061 105.03 154.961C105.135 154.861 105.274 154.804 105.419 154.802C105.541 154.8 105.659 154.759 105.756 154.685C105.853 154.612 105.924 154.509 105.959 154.392C106 154.249 106.096 154.128 106.225 154.055C106.354 153.981 106.506 153.961 106.65 153.997C106.77 154.026 106.895 154.015 107.009 153.968C107.122 153.92 107.218 153.838 107.282 153.733C107.356 153.606 107.478 153.512 107.62 153.473C107.762 153.434 107.914 153.451 108.043 153.522C108.151 153.581 108.275 153.603 108.397 153.585C108.518 153.568 108.631 153.511 108.718 153.425C108.826 153.323 108.969 153.267 109.118 153.267C109.266 153.267 109.409 153.323 109.517 153.425C109.615 153.514 109.74 153.566 109.872 153.573C110.004 153.58 110.134 153.541 110.241 153.463Z" fill="#407BFF"/>
    <path opacity="0.2" d="M109.269 164.263C112.019 164.263 114.248 162.034 114.248 159.284C114.248 156.534 112.019 154.305 109.269 154.305C106.519 154.305 104.29 156.534 104.29 159.284C104.29 162.034 106.519 164.263 109.269 164.263Z" fill="white"/>
    <path d="M109.534 156.811L110.165 158.528L111.931 158.981L110.495 160.11L110.608 161.93L109.091 160.909L107.395 161.584L107.897 159.824L106.731 158.42L108.556 158.355L109.534 156.811Z" fill="#407BFF"/>
    <path d="M131.328 165.948C133.928 163.856 134.339 160.052 132.246 157.452C130.154 154.853 126.35 154.441 123.75 156.534C121.15 158.626 120.739 162.43 122.832 165.03C124.924 167.63 128.728 168.041 131.328 165.948Z" fill="#407BFF"/>
    <path opacity="0.2" d="M132.062 161.752C131.965 162.648 131.604 163.495 131.026 164.186C130.447 164.878 129.677 165.382 128.811 165.635C127.946 165.888 127.025 165.879 126.165 165.609C125.305 165.339 124.545 164.82 123.98 164.117C123.415 163.415 123.071 162.561 122.991 161.663C122.912 160.765 123.1 159.863 123.533 159.073C123.966 158.282 124.624 157.637 125.423 157.22C126.222 156.803 127.127 156.632 128.023 156.73C129.225 156.86 130.325 157.463 131.083 158.404C131.84 159.346 132.193 160.55 132.062 161.752Z" fill="white"/>
    <g opacity="0.2">
    <path d="M126.97 166.46C125.941 166.349 124.969 165.934 124.175 165.27C123.382 164.606 122.803 163.721 122.513 162.728C122.222 161.734 122.233 160.677 122.543 159.69C122.853 158.703 123.449 157.83 124.256 157.181C125.062 156.533 126.043 156.138 127.073 156.046C128.104 155.955 129.139 156.171 130.047 156.668C130.955 157.165 131.695 157.92 132.174 158.837C132.653 159.754 132.849 160.793 132.737 161.822C132.663 162.505 132.455 163.167 132.125 163.77C131.796 164.373 131.35 164.905 130.815 165.336C130.279 165.767 129.664 166.088 129.004 166.281C128.345 166.474 127.653 166.535 126.97 166.46ZM128.05 156.373C127.083 156.269 126.107 156.453 125.245 156.903C124.383 157.354 123.674 158.05 123.208 158.903C122.742 159.757 122.54 160.73 122.627 161.698C122.714 162.667 123.086 163.588 123.697 164.345C124.308 165.102 125.129 165.66 126.058 165.95C126.986 166.239 127.979 166.247 128.912 165.972C129.845 165.696 130.675 165.15 131.297 164.403C131.919 163.656 132.306 162.74 132.408 161.773C132.543 160.482 132.161 159.189 131.347 158.178C130.533 157.166 129.351 156.517 128.061 156.373H128.05Z" fill="white"/>
    </g>
    <path d="M128.493 161.465L127.732 159.419L126.549 161.26L124.654 159.257L125.113 162.859L126.241 162.977L127.224 163.085L127.445 163.112L128.428 163.215L129.557 163.339L130.772 159.916L128.493 161.465Z" fill="#407BFF"/>
    <path d="M130.496 108.497L131.83 107.276L132.91 107.395L133.115 105.84L131.161 105.392C131.161 105.392 128.461 105.019 127.499 105.014C127.105 105.014 126.646 105.014 125.55 107.427C125.366 107.859 130.496 108.497 130.496 108.497Z" fill="#EEC1BB"/>
    <path d="M174.576 111.899C174.852 111.282 175.198 110.698 175.608 110.16C175.97 109.842 179.264 110.571 179.814 111.019C180.365 111.467 180.101 112.482 180.101 112.482C180.101 112.482 179.183 113.919 178.556 113.843C177.93 113.767 174.749 113.605 174.576 113.373C174.404 113.141 174.576 111.899 174.576 111.899Z" fill="#EEC1BB"/>
    </svg>
    