<svg width="350" height="332" viewBox="0 0 350 332" fill="none" xmlns="http://www.w3.org/2000/svg">
    <g clip-path="url(#clip0_2049_1790)">
    <path d="M341.912 186.595C332.02 216.544 310.703 249.364 279.325 260.055C231.926 276.202 227.694 315.063 141.665 314.755C129.105 314.776 116.58 313.433 104.311 310.75C98.3121 309.418 92.4044 307.706 86.6238 305.624C35.66 287.266 7.75828 243.609 3.76184 196.956C-1.48852 135.6 40.3311 104.64 67.5582 86.385C94.7853 68.1298 125.877 0.380921 210.455 -0.0218225C223.366 -0.130893 236.247 1.24506 248.843 4.07884C277.558 10.6692 307.11 26.5373 324.863 50.7239C326.188 52.5399 327.466 54.3998 328.698 56.3037C352.669 93.5246 355.404 145.764 341.912 186.595Z" fill="#E6EFFD"/>
    <path d="M93.1133 132.32H20.4221V238.403H93.1133V132.32Z" stroke="black" stroke-width="0.516112" stroke-linecap="round" stroke-linejoin="round"/>
    <path d="M89.1023 138.178H24.4333V232.552H89.1023V138.178Z" stroke="black" stroke-width="0.516112" stroke-linecap="round" stroke-linejoin="round"/>
    <path d="M73.3438 161.171H40.1843V209.559H73.3438V161.171Z" stroke="black" stroke-width="0.516112" stroke-linecap="round" stroke-linejoin="round"/>
    <path d="M334.483 132.32H261.792V238.403H334.483V132.32Z" stroke="black" stroke-width="0.516112" stroke-linecap="round" stroke-linejoin="round"/>
    <path d="M330.472 138.178H265.803V232.552H330.472V138.178Z" stroke="black" stroke-width="0.516112" stroke-linecap="round" stroke-linejoin="round"/>
    <path d="M314.714 161.171H281.562V209.559H314.714V161.171Z" stroke="black" stroke-width="0.516112" stroke-linecap="round" stroke-linejoin="round"/>
    <path d="M301.706 23.8057H53.6697C52.8843 23.8057 52.1065 23.9603 51.381 24.2606C50.6554 24.561 49.9962 25.0013 49.4412 25.5562C48.8861 26.1112 48.4461 26.7699 48.1462 27.4948C47.8463 28.2197 47.6924 28.9966 47.6934 29.7809V222.593C47.6934 223.376 47.8479 224.152 48.1483 224.876C48.4486 225.601 48.8888 226.258 49.4438 226.813C49.9987 227.367 50.6576 227.806 51.3826 228.106C52.1077 228.406 52.8849 228.561 53.6697 228.561H204.119L221.718 242.225L219.056 228.561H301.706C303.291 228.561 304.811 227.932 305.931 226.813C307.052 225.693 307.682 224.175 307.682 222.593V29.7809C307.683 28.9966 307.529 28.2197 307.229 27.4948C306.929 26.7699 306.489 26.1112 305.934 25.5562C305.379 25.0013 304.72 24.561 303.994 24.2606C303.269 23.9603 302.491 23.8057 301.706 23.8057Z" fill="black" stroke="black" stroke-width="0.516112" stroke-linecap="round" stroke-linejoin="round"/>
    <path d="M306.061 17.8306H58.0254C56.4404 17.8306 54.9203 18.4593 53.7995 19.5785C52.6787 20.6977 52.0491 22.2157 52.0491 23.7985V216.61C52.0491 218.193 52.6787 219.711 53.7995 220.83C54.9203 221.949 56.4404 222.578 58.0254 222.578H208.467L226.066 236.242L223.412 222.578H306.061C307.646 222.578 309.166 221.949 310.287 220.83C311.408 219.711 312.038 218.193 312.038 216.61V23.7985C312.038 22.2157 311.408 20.6977 310.287 19.5785C309.166 18.4593 307.646 17.8306 306.061 17.8306Z" fill="#B0CFF7"/>
    <path d="M120.12 111.904C120.12 111.904 113.448 100.803 103.255 100.188C93.062 99.5726 91.1848 108.433 87.6943 110.659C84.2039 112.885 81.344 108.755 76.8929 110.337C72.4419 111.919 73.0798 114.46 69.56 116.049C66.0402 117.638 63.525 113.508 60.0272 115.097C56.5294 116.686 55.5835 118.582 55.5835 118.582H134.046C134.046 118.582 131.846 112.556 128.326 111.611C124.806 110.666 123.934 114.76 120.12 111.904Z" fill="white"/>
    <path d="M297.357 70.7805C297.357 70.7805 292.481 62.6597 285.038 62.1911C277.595 61.7224 276.202 68.2322 273.65 69.8578C271.098 71.4835 269.001 68.4592 265.745 69.6235C262.489 70.7878 262.951 72.6404 260.399 73.8047C257.847 74.969 255.999 71.9448 253.425 73.0725C250.852 74.2002 250.17 75.6281 250.17 75.6281H307.623C307.623 75.6281 305.995 71.2345 303.443 70.5022C300.891 69.77 300.18 72.8748 297.357 70.7805Z" fill="white"/>
    <path d="M274.962 39.9669C274.962 39.9669 265.95 24.9629 252.23 24.1062C238.51 23.2494 235.907 35.2512 231.185 38.2681C226.462 41.285 222.598 35.6979 216.592 37.8434C210.587 39.9889 211.459 43.4159 206.722 45.5541C201.985 47.6923 198.568 42.1271 193.846 44.2726C189.123 46.4182 187.84 48.9884 187.84 48.9884H293.844C293.844 48.9884 290.838 40.8457 286.123 39.5569C281.408 38.2681 280.11 43.8186 274.962 39.9669Z" fill="white"/>
    <g opacity="0.15">
    <path d="M79.2688 193.903C79.1028 193.587 78.8716 193.311 78.5906 193.091C78.3095 192.871 77.985 192.714 77.6385 192.629C77.292 192.543 76.9313 192.533 76.5803 192.597C76.2293 192.661 75.896 192.799 75.6024 193.002C74.3264 193.8 73.7838 195.572 73.6591 196.993C73.5125 198.655 74.7957 202.17 74.7957 202.17C74.7957 202.17 76.8636 200.625 76.9956 200.515C78.3595 199.182 80.2221 195.814 79.2688 193.903Z" fill="black"/>
    <path d="M59.0375 212.465C59.3601 212.033 59.6461 211.645 59.6828 211.587C60.6507 209.946 61.5453 206.212 60.1228 204.615C59.8796 204.358 59.5848 204.155 59.2577 204.019C58.9306 203.883 58.5785 203.817 58.2242 203.826C57.87 203.835 57.5217 203.919 57.2019 204.071C56.8822 204.223 56.5981 204.441 56.3683 204.711C55.349 205.816 55.2904 207.64 55.547 209.068C55.8037 210.496 57.4536 212.956 57.9009 213.6L56.9476 214.552C55.481 216.017 54.0144 217.54 52.5479 218.946C52.6715 219.227 52.8161 219.499 52.9805 219.759L53.0465 219.7C54.5131 218.192 56.0237 216.617 57.5049 215.05L58.8762 213.63C59.0301 213.879 60.8487 216.822 62.1833 217.708C63.3639 218.499 65.1165 219.173 66.517 218.69C66.8555 218.584 67.168 218.409 67.4344 218.175C67.7008 217.941 67.9152 217.654 68.0637 217.333C68.2123 217.011 68.2917 216.662 68.2968 216.308C68.302 215.954 68.2328 215.603 68.0936 215.277C67.1917 213.344 63.4006 212.685 61.494 212.919C61.3547 212.919 59.4261 213.395 58.9422 213.542C59.9468 212.495 60.9587 211.462 61.9926 210.488C63.3804 209.165 64.8499 207.93 66.3924 206.79C66.4657 206.907 68.3576 209.99 69.7215 210.898C70.9021 211.689 72.6547 212.363 74.0553 211.879C74.3944 211.775 74.7076 211.6 74.9747 211.367C75.2417 211.133 75.4566 210.846 75.6052 210.524C75.7539 210.202 75.8332 209.853 75.8377 209.499C75.8423 209.144 75.7722 208.793 75.6319 208.467C74.7299 206.534 70.9388 205.875 69.0322 206.109C68.8856 206.109 66.8324 206.629 66.4437 206.746C66.5317 206.68 66.6197 206.6 66.715 206.541C68.3031 205.443 69.9866 204.49 71.7454 203.693C72.7134 203.246 73.6593 202.865 74.5906 202.521C74.8839 203.129 76.2625 205.897 77.3918 206.856C78.521 207.815 80.1269 208.636 81.5935 208.321C81.9425 208.254 82.2735 208.115 82.565 207.912C82.8565 207.709 83.1019 207.447 83.2852 207.143C83.4685 206.839 83.5857 206.5 83.629 206.148C83.6724 205.795 83.6409 205.438 83.5367 205.099C82.8548 203.078 79.137 202.009 77.2524 202.038C77.1498 202.038 76.0938 202.162 75.3312 202.272C75.7565 202.118 76.1892 201.957 76.5925 201.826C78.1251 201.306 79.5256 200.932 80.8309 200.61C81.5642 200.427 82.2168 200.28 82.8328 200.149C83.4341 200.603 85.8759 202.345 87.2985 202.697C88.7211 203.048 90.547 203.019 91.6983 202.045C91.9761 201.826 92.2046 201.551 92.3688 201.237C92.5331 200.924 92.6294 200.58 92.6515 200.227C92.6737 199.874 92.6211 199.52 92.4973 199.189C92.3735 198.857 92.1812 198.556 91.9329 198.303C90.393 196.839 86.6166 197.571 84.9373 198.472C84.7907 198.545 82.6641 200.024 82.6935 200.046H82.7301C82.1288 200.156 81.4909 200.288 80.8016 200.442C79.5183 200.742 78.0737 201.086 76.5265 201.569C74.8519 202.069 73.2089 202.668 71.6061 203.363C69.8176 204.135 68.1 205.061 66.4731 206.131L66.4144 206.175C66.8104 205.685 67.881 204.286 67.925 204.176C68.8929 202.529 69.7949 198.794 68.3723 197.198C68.1284 196.94 67.833 196.737 67.5053 196.601C67.1776 196.465 66.8249 196.399 66.4701 196.408C66.1154 196.417 65.7664 196.5 65.446 196.653C65.1257 196.805 64.841 197.023 64.6105 197.293C63.5986 198.399 63.5326 200.222 63.7892 201.65C64.0825 203.231 66.0697 206.08 66.2311 206.307C64.594 207.44 63.0358 208.683 61.5673 210.027C60.7167 210.84 59.8734 211.645 59.0375 212.465Z" fill="black"/>
    <path d="M52.0491 213.22V216.61C52.0483 216.998 52.0851 217.386 52.1591 217.767C52.5917 216.207 52.7237 214.369 52.0491 213.22Z" fill="black"/>
    <path d="M83.6173 146.642C85.5385 143.904 87.6357 137.489 85.3699 134.502C84.9796 134.016 84.4912 133.617 83.9364 133.333C83.3817 133.048 82.7731 132.884 82.1503 132.85C81.5276 132.816 80.9046 132.914 80.3222 133.136C79.7398 133.359 79.211 133.702 78.7702 134.143C76.8343 135.937 76.4677 139.173 76.7243 141.656C77.025 144.585 80.3908 150.223 80.3908 150.223C80.3908 150.223 83.4486 146.906 83.6173 146.642Z" fill="black"/>
    <path d="M108.725 137.972C105.594 135.922 99.3244 138.456 96.7212 140.55C96.5012 140.733 93.3041 143.977 93.3701 144.006H93.4361C92.4461 144.394 91.3902 144.826 90.2389 145.324C88.127 146.254 85.7512 147.323 83.236 148.663C80.5159 150.077 77.8813 151.649 75.3458 153.372C72.4931 155.281 69.8181 157.443 67.3529 159.83L67.2649 159.918C67.7855 158.952 69.1348 156.198 69.2154 155.979C70.3447 152.83 70.682 146.086 67.6975 143.808C67.1955 143.438 66.6203 143.178 66.0101 143.047C65.3998 142.915 64.7686 142.915 64.1582 143.046C63.5478 143.177 62.9724 143.436 62.47 143.806C61.9677 144.176 61.5499 144.649 61.2446 145.192C59.8513 147.44 60.3573 150.655 61.2446 152.984C62.2565 155.605 66.6269 159.874 66.9789 160.218C64.5287 162.707 62.2479 165.356 60.152 168.149C58.92 169.767 57.7321 171.444 56.5588 173.128C56.9768 172.279 57.3508 171.517 57.3875 171.4C58.5167 168.259 58.854 161.514 55.8695 159.237C55.3335 158.822 54.7033 158.544 54.0345 158.429C53.3656 158.314 52.6788 158.365 52.0344 158.578V172.286C53.2297 173.699 54.469 174.951 54.9676 175.457C54.5276 176.108 54.0803 176.753 53.6403 177.412L52.0271 179.806V182.355C52.929 180.949 53.8383 179.543 54.7403 178.13C55.3636 177.156 55.9942 176.196 56.6248 175.2C56.9695 175.581 61.0832 180.063 63.6718 181.161C65.9743 182.135 69.1788 182.743 71.474 181.425C72.0274 181.137 72.5133 180.736 72.8994 180.246C73.2855 179.757 73.563 179.191 73.7135 178.587C73.8639 177.982 73.884 177.353 73.7722 176.74C73.6604 176.127 73.4195 175.545 73.0652 175.032C70.8654 171.993 64.1264 172.103 60.9366 173.121C60.7019 173.194 57.5268 174.622 56.7422 175.025C58.1281 172.894 59.536 170.785 61.0026 168.764C62.9727 166.019 65.121 163.407 67.4335 160.943C67.5949 161.119 71.8333 165.813 74.5171 166.941C76.8124 167.914 80.0168 168.522 82.312 167.204C82.8661 166.917 83.3526 166.516 83.7395 166.027C84.1263 165.538 84.4046 164.973 84.5558 164.368C84.7069 163.763 84.7276 163.134 84.6164 162.52C84.5052 161.907 84.2646 161.325 83.9106 160.812C81.7107 157.773 74.9645 157.882 71.782 158.9C71.5326 158.974 68.1155 160.519 67.5215 160.841C67.6609 160.694 67.7855 160.533 67.9175 160.394C70.3033 157.989 72.897 155.798 75.6684 153.848C77.1863 152.749 78.7042 151.79 80.1928 150.919C80.9261 151.878 84.1746 156.213 86.4478 157.509C88.721 158.805 91.7422 159.706 94.1694 158.629C94.7514 158.405 95.279 158.059 95.717 157.615C96.155 157.171 96.4934 156.639 96.7098 156.055C96.9262 155.47 97.0156 154.846 96.972 154.225C96.9285 153.603 96.753 152.998 96.4572 152.449C94.624 149.183 87.8924 148.546 84.6146 149.212C84.4312 149.249 82.664 149.82 81.3808 150.252C82.0554 149.857 82.752 149.432 83.412 149.066C85.8832 147.675 88.2297 146.554 90.3122 145.58C91.5075 145.039 92.5928 144.57 93.6194 144.116C94.8 144.687 99.5957 146.957 102.155 147.045C104.714 147.133 107.86 146.54 109.488 144.482C109.893 144.017 110.197 143.472 110.38 142.882C110.562 142.293 110.62 141.672 110.548 141.059C110.476 140.446 110.277 139.855 109.963 139.323C109.649 138.792 109.227 138.332 108.725 137.972Z" fill="black"/>
    <path d="M52.0491 188.703V196.875C52.2556 196.997 52.4686 197.107 52.687 197.205C54.9896 198.179 58.1941 198.787 60.4893 197.469C61.0427 197.181 61.5285 196.779 61.9146 196.29C62.3007 195.801 62.5782 195.235 62.7287 194.631C62.8792 194.026 62.8992 193.396 62.7875 192.784C62.6757 192.171 62.4347 191.589 62.0805 191.076C60.3059 188.601 55.4955 188.205 52.0491 188.703Z" fill="black"/>
    <path d="M53.6917 220.711C54.2479 221.301 54.9194 221.772 55.6648 222.093C56.4102 222.414 57.2136 222.579 58.0254 222.578H59.8953C58.6487 221.048 55.4222 220.513 53.6917 220.711Z" fill="black"/>
    <path d="M265.393 128.966C265.474 128.966 262.086 124.572 261.836 124.308C258.999 121.379 251.79 117.432 247.699 119.461C244.765 120.925 244.091 124.587 245.77 127.245C247.449 129.903 251.27 131.14 254.306 131.397C257.862 131.704 265.393 128.966 265.393 128.966Z" fill="black"/>
    <path d="M312.023 216.434V213.447C310.666 212.78 309.259 212.114 307.814 211.44C308.448 209.231 308.95 206.987 309.317 204.718C310.235 204.619 311.142 204.43 312.023 204.154V194.635C310.074 193.687 307.984 193.061 305.834 192.782C305.525 192.53 305.194 192.307 304.844 192.116C302.08 190.6 298.457 191.494 297.181 194.518C295.407 198.714 299.806 205.655 302.894 208.314C303.07 208.467 305.24 209.947 306.619 210.862C305.724 210.444 304.866 210.034 303.935 209.624C302.116 208.797 300.268 208.021 298.288 207.179L295.355 206.051C294.38 205.655 293.302 205.363 292.261 205.004C289.848 204.235 287.355 203.539 284.84 202.953C285.573 201.357 288.044 195.631 288.066 192.599C288.088 189.568 287.252 185.687 284.701 183.732C282.149 181.776 278.482 182.157 276.759 184.947C274.361 188.828 277.661 196.356 280.308 199.453C280.469 199.644 282.618 201.65 283.821 202.726C282.303 202.368 280.792 201.994 279.245 201.694C274.772 200.793 270.225 200.024 265.686 199.234C264.3 198.992 262.914 198.736 261.536 198.501C261.8 197.937 264.902 191.215 264.916 187.803C264.916 184.764 264.11 180.883 261.551 178.935C260.965 178.454 260.285 178.101 259.554 177.9C258.822 177.7 258.057 177.655 257.308 177.77C256.558 177.885 255.841 178.156 255.204 178.566C254.567 178.976 254.023 179.516 253.609 180.151C251.218 184.032 254.511 191.559 257.158 194.65C257.363 194.884 260.458 197.762 261.279 198.457C258.229 197.901 255.2 197.315 252.23 196.619C248.221 195.7 244.275 194.524 240.417 193.097C240.542 192.834 243.812 185.833 243.834 182.333C243.834 179.294 243.02 175.42 240.461 173.465C239.876 172.985 239.196 172.634 238.466 172.433C237.735 172.233 236.971 172.189 236.222 172.304C235.474 172.419 234.758 172.689 234.121 173.099C233.484 173.509 232.941 174.048 232.527 174.681C230.129 178.562 233.429 186.089 236.076 189.18C236.281 189.421 239.618 192.519 240.263 193.039C240.036 192.958 239.794 192.892 239.574 192.804C235.748 191.263 232.068 189.386 228.574 187.195C226.631 186.009 224.835 184.764 223.119 183.534C223.852 182.289 227.189 176.577 227.555 173.429C227.907 170.412 227.518 166.472 225.187 164.246C222.855 162.02 219.181 161.998 217.164 164.59C214.356 168.178 216.805 176.028 219.093 179.389C219.218 179.572 220.692 181.293 221.784 182.531C221.014 181.952 220.215 181.374 219.489 180.81C216.768 178.694 214.407 176.585 212.332 174.703C211.159 173.626 210.132 172.623 209.157 171.679C209.252 170.082 209.546 163.624 208.424 160.695C207.302 157.766 205.175 154.536 202.081 153.636C198.986 152.735 195.708 154.368 195.114 157.626C194.286 162.108 200.071 167.944 203.657 169.87C203.973 170.038 209.113 172.067 209.12 172.008C209.128 171.949 209.12 171.935 209.12 171.913C210.03 172.843 211.012 173.824 212.105 174.879C214.143 176.812 216.504 178.979 219.152 181.161C222.022 183.545 225.029 185.76 228.156 187.796C231.638 190.095 235.319 192.077 239.156 193.72L239.295 193.771C237.968 193.646 234.235 193.427 233.942 193.441C229.88 193.654 222.143 196.466 220.978 200.866C220.804 201.604 220.788 202.369 220.93 203.113C221.072 203.856 221.369 204.562 221.802 205.183C222.235 205.805 222.794 206.329 223.443 206.72C224.091 207.112 224.816 207.363 225.568 207.457C228.75 207.962 232.131 205.89 234.323 203.796C236.795 201.416 239.537 194.51 239.757 193.961C243.722 195.545 247.788 196.861 251.93 197.901C254.335 198.516 256.769 199.065 259.219 199.585C258.067 199.512 257.019 199.461 256.887 199.468C252.817 199.688 245.088 202.492 243.922 206.893C243.079 210.071 245.389 212.985 248.513 213.483C251.636 213.981 255.076 211.916 257.268 209.822C259.461 207.728 261.947 201.84 262.577 200.303L265.4 200.874C269.925 201.767 274.442 202.639 278.849 203.62C280.403 203.971 281.921 204.352 283.439 204.762C282.413 204.704 281.547 204.66 281.415 204.667C277.353 204.879 269.617 207.691 268.451 212.092C267.608 215.263 269.917 218.184 273.041 218.682C276.165 219.18 279.641 217.115 281.797 215.021C283.953 212.927 286.233 207.611 286.996 205.765C288.536 206.212 290.083 206.666 291.557 207.171C292.554 207.537 293.544 207.823 294.527 208.248L297.46 209.434C299.286 210.261 301.178 211.104 302.938 211.953C304.169 212.531 305.328 213.11 306.501 213.688C304.961 213.322 301.926 212.671 301.662 212.649C297.614 212.246 289.54 213.849 287.729 218.031C287.406 218.768 287.265 219.571 287.317 220.374C287.37 221.177 287.614 221.955 288.03 222.644H300.804C303.495 220.447 306.853 214.816 307.286 214.076C308.929 214.831 310.556 215.636 312.023 216.434Z" fill="black"/>
    <path d="M305.071 174.161C305.071 174.41 305.805 177.266 306.193 178.825C305.123 177.69 304.067 176.555 302.945 175.442C299.718 172.228 296.345 169.079 293.001 165.923C291.975 164.956 290.963 163.982 289.951 162.994C290.479 162.664 296.778 158.769 298.684 155.927C300.378 153.408 301.83 149.718 300.774 146.679C299.718 143.64 296.462 141.934 293.441 143.318C289.305 145.236 287.898 153.328 288.396 157.37C288.433 157.67 289.423 161.764 289.731 162.811C287.531 160.672 285.287 158.512 283.197 156.301C280.384 153.326 277.765 150.173 275.358 146.862C275.608 146.716 282.2 142.673 284.158 139.766C285.844 137.24 287.304 133.557 286.248 130.518C285.192 127.479 281.929 125.773 278.951 127.157C274.808 129.075 273.4 137.167 273.899 141.209C273.943 141.524 275.006 145.947 275.263 146.73C275.124 146.54 274.955 146.349 274.816 146.159C272.478 142.763 270.444 139.169 268.737 135.417C267.769 133.352 266.962 131.331 266.214 129.339C267.519 128.717 273.452 125.788 275.498 123.364C277.544 120.94 279.311 117.506 278.599 114.401C277.888 111.296 274.83 109.209 271.714 110.256C267.387 111.721 265.114 119.6 265.114 123.671C265.114 123.891 265.393 126.139 265.62 127.765C265.298 126.864 264.953 125.941 264.66 125.07C263.56 121.804 262.753 118.75 262.064 116.034C261.682 114.489 261.367 113.105 261.088 111.765C262.049 110.483 265.848 105.27 266.529 102.245C267.211 99.2211 267.263 95.3255 265.144 92.8651C263.024 90.4047 259.409 89.9946 257.129 92.3598C253.961 95.6403 255.567 103.695 257.488 107.283C257.657 107.591 260.81 112.138 260.861 112.072L260.92 111.999C261.169 113.273 261.44 114.635 261.77 116.114C262.408 118.853 263.149 121.972 264.183 125.238C265.257 128.803 266.54 132.302 268.025 135.717C269.668 139.546 271.648 143.222 273.943 146.701C273.975 146.738 274.004 146.777 274.031 146.818C272.99 145.983 270.005 143.743 269.756 143.596C266.243 141.538 258.243 139.613 254.833 142.644C254.277 143.164 253.838 143.796 253.543 144.498C253.249 145.199 253.106 145.955 253.125 146.716C253.143 147.477 253.323 148.225 253.652 148.911C253.98 149.598 254.45 150.207 255.031 150.699C257.407 152.896 261.367 152.998 264.359 152.449C267.739 151.834 273.84 147.58 274.324 147.243C276.751 150.734 279.407 154.061 282.273 157.202C283.938 159.04 285.668 160.863 287.406 162.62C286.49 161.925 285.654 161.31 285.529 161.236C282.017 159.179 274.016 157.26 270.614 160.292C268.157 162.488 268.48 166.15 270.805 168.347C273.129 170.543 277.148 170.646 280.139 170.097C283.131 169.547 288.448 166.025 289.833 165.073L291.872 167.109C295.157 170.346 298.472 173.56 301.573 176.804C302.673 177.954 303.722 179.118 304.771 180.282C303.949 179.667 303.253 179.155 303.135 179.089C299.623 177.031 291.623 175.113 288.22 178.144C285.764 180.341 286.086 184.002 288.411 186.162C290.735 188.323 294.754 188.469 297.746 187.92C300.738 187.371 305.541 184.185 307.19 183.065C308.232 184.288 309.273 185.511 310.226 186.726C310.828 187.546 311.458 188.301 312.023 189.143V185.481C312.001 185.456 311.981 185.429 311.964 185.401C310.373 183.424 308.664 181.498 306.897 179.601C308.67 178.488 310.383 177.283 312.03 175.991V159.662C311.368 159.691 310.717 159.851 310.116 160.131C305.981 162.02 304.573 170.119 305.071 174.161Z" fill="black"/>
    <path d="M141.034 221.545C139.949 220.879 138.944 220.183 137.984 219.488C138.402 218.755 140.264 215.599 140.47 213.835C140.675 212.07 140.47 209.939 139.142 208.709C138.845 208.407 138.488 208.17 138.093 208.014C137.699 207.859 137.276 207.788 136.852 207.805C136.429 207.823 136.013 207.93 135.634 208.118C135.254 208.307 134.918 208.573 134.647 208.899C133.078 210.913 134.449 215.299 135.733 217.181C135.799 217.284 136.627 218.25 137.199 218.939C136.767 218.616 136.319 218.294 135.916 217.979C134.391 216.793 133.071 215.614 131.912 214.56C131.252 213.959 130.673 213.395 130.138 212.868C130.189 211.975 130.35 208.372 129.734 206.739C129.118 205.106 127.916 203.297 126.185 202.792C125.785 202.659 125.361 202.611 124.941 202.652C124.521 202.692 124.114 202.82 123.747 203.027C123.379 203.234 123.059 203.515 122.807 203.853C122.555 204.191 122.377 204.578 122.284 204.989C121.822 207.493 125.063 210.759 127.065 211.843C127.241 211.938 130.116 213.08 130.123 213.037V212.985C130.636 213.505 131.186 214.054 131.795 214.647C132.939 215.724 134.237 216.932 135.74 218.155C137.343 219.494 139.025 220.737 140.778 221.875L141.878 222.556H142.78C142.208 222.241 141.606 221.897 141.034 221.545Z" fill="black"/>
    <path d="M137.5 219.554C137.5 219.517 134.567 218.514 134.398 218.477C132.198 217.994 127.586 218.367 126.332 220.571C125.982 221.178 125.872 221.894 126.024 222.578H134.955C135.863 221.622 136.713 220.612 137.5 219.554Z" fill="black"/>
    <path d="M177.097 209.617C176.518 209.075 175.953 208.526 175.389 207.984C175.682 207.801 179.209 205.619 180.273 204.03C181.218 202.616 182.032 200.559 181.446 198.853C181.32 198.448 181.111 198.075 180.831 197.757C180.551 197.438 180.207 197.183 179.822 197.006C179.437 196.829 179.019 196.735 178.595 196.73C178.171 196.726 177.751 196.81 177.361 196.978C175.044 198.047 174.26 202.58 174.538 204.835C174.538 205.004 175.11 207.303 175.271 207.881C174.018 206.688 172.786 205.48 171.605 204.22C170.028 202.549 168.559 200.781 167.205 198.926C167.345 198.845 171.033 196.583 172.126 194.957C173.072 193.544 173.886 191.479 173.292 189.78C173.167 189.376 172.958 189.002 172.679 188.684C172.4 188.366 172.057 188.11 171.673 187.932C171.288 187.755 170.871 187.66 170.447 187.654C170.024 187.648 169.604 187.731 169.214 187.898C166.897 188.974 166.105 193.507 166.384 195.762C166.384 195.938 167.007 198.413 167.117 198.853L166.868 198.53C165.559 196.63 164.42 194.619 163.465 192.518C162.923 191.369 162.476 190.234 162.058 189.121C162.791 188.769 166.105 187.136 167.249 185.782C168.393 184.427 169.383 182.516 168.987 180.766C168.907 180.349 168.74 179.954 168.497 179.607C168.254 179.259 167.94 178.966 167.576 178.747C167.213 178.528 166.807 178.388 166.385 178.336C165.964 178.284 165.536 178.321 165.13 178.444C162.71 179.257 161.464 183.673 161.464 185.95C161.464 186.075 161.618 187.327 161.742 188.242C161.566 187.737 161.368 187.224 161.207 186.734C160.591 184.91 160.136 183.197 159.74 181.681C159.528 180.81 159.352 180.026 159.19 179.287C159.726 178.554 161.86 175.625 162.241 173.956C162.622 172.286 162.63 170.082 161.464 168.705C161.201 168.373 160.871 168.099 160.495 167.902C160.12 167.705 159.707 167.59 159.284 167.563C158.86 167.536 158.436 167.598 158.038 167.746C157.641 167.894 157.279 168.123 156.976 168.42C155.201 170.258 156.103 174.768 157.181 176.775C157.269 176.943 159.036 179.492 159.066 179.455V179.411C159.198 180.143 159.352 180.876 159.542 181.718C159.894 183.248 160.312 184.969 160.892 186.843C161.493 188.835 162.208 190.791 163.033 192.702C163.956 194.847 165.065 196.907 166.347 198.86L166.399 198.926C165.819 198.457 164.147 197.205 164.008 197.124C162.043 195.967 157.562 194.928 155.656 196.59C155.348 196.881 155.105 197.233 154.943 197.624C154.78 198.015 154.701 198.436 154.712 198.859C154.722 199.282 154.821 199.698 155.003 200.08C155.185 200.463 155.444 200.803 155.766 201.079C157.093 202.294 159.315 202.367 160.987 202.06C162.879 201.716 166.289 199.336 166.56 199.131C167.917 201.085 169.404 202.947 171.011 204.703C171.942 205.736 172.91 206.739 173.893 207.735C173.38 207.347 172.91 207.003 172.844 206.966C170.872 205.809 166.399 204.769 164.492 206.431C164.185 206.723 163.942 207.075 163.779 207.466C163.616 207.857 163.538 208.277 163.548 208.7C163.558 209.123 163.658 209.54 163.839 209.922C164.021 210.304 164.281 210.644 164.602 210.92C165.929 212.136 168.151 212.209 169.823 211.901C171.495 211.594 174.472 209.624 175.249 209.09L176.393 210.232C178.227 212.041 180.06 213.835 181.82 215.658C182.436 216.295 183.022 216.947 183.609 217.606C183.147 217.254 182.758 216.969 182.692 216.932C180.727 215.782 176.254 214.735 174.348 216.405C174.039 216.695 173.795 217.048 173.632 217.439C173.468 217.829 173.389 218.25 173.4 218.674C173.41 219.097 173.51 219.514 173.692 219.896C173.874 220.279 174.135 220.618 174.458 220.894C175.785 222.109 177.999 222.182 179.679 221.875C181.358 221.567 184.042 219.781 184.966 219.158C185.545 219.839 186.124 220.527 186.659 221.216C186.982 221.662 187.327 222.073 187.635 222.527H189.189L188.749 221.911C188.419 221.428 188.016 220.96 187.627 220.447C186.74 219.341 185.787 218.25 184.797 217.196C185.633 216.676 188.551 214.779 189.505 213.359C190.458 211.938 191.265 209.88 190.678 208.182C190.552 207.777 190.342 207.404 190.063 207.085C189.783 206.767 189.44 206.511 189.055 206.334C188.67 206.156 188.252 206.061 187.828 206.056C187.404 206.05 186.983 206.133 186.594 206.3C184.276 207.376 183.484 211.909 183.77 214.164C183.77 214.303 184.166 215.907 184.394 216.778C183.8 216.141 183.206 215.504 182.575 214.882C180.844 213.168 178.96 211.403 177.097 209.617Z" fill="black"/>
    <path d="M161.376 221.883C161.376 220.184 160.921 218.016 159.491 216.918C159.163 216.65 158.782 216.455 158.373 216.344C157.964 216.232 157.536 216.208 157.118 216.272C156.699 216.336 156.298 216.488 155.941 216.716C155.585 216.945 155.28 217.245 155.047 217.599C154.27 218.866 154.571 220.821 155.253 222.578H161.31C161.348 222.348 161.37 222.116 161.376 221.883Z" fill="black"/>
    <path d="M204.963 193.024C207.896 194.349 211.709 193.236 214.378 191.779C217.517 190.073 222.283 183.651 222.283 183.644C222.283 183.636 217.062 181.791 216.695 181.718C212.714 180.854 204.515 181.52 202.22 185.46C201.861 186.128 201.647 186.865 201.592 187.622C201.537 188.379 201.642 189.139 201.901 189.853C202.16 190.566 202.566 191.218 203.094 191.764C203.621 192.31 204.258 192.74 204.963 193.024Z" fill="black"/>
    <path d="M197.564 218.404C197.379 218.023 197.116 217.685 196.792 217.412C196.468 217.139 196.09 216.937 195.682 216.82C195.275 216.703 194.847 216.672 194.427 216.731C194.007 216.789 193.604 216.935 193.245 217.159C191.822 218.104 191.316 220.476 191.316 222.593H197.63C198.16 221.242 198.136 219.737 197.564 218.404Z" fill="black"/>
    <path d="M155.436 190.322C157.423 190.49 161.64 188.96 161.64 188.96C161.64 188.96 159.784 186.492 159.652 186.353C158.061 184.72 154.028 182.501 151.74 183.636C151.36 183.834 151.027 184.111 150.762 184.448C150.497 184.784 150.307 185.173 150.205 185.589C150.102 186.004 150.089 186.437 150.167 186.858C150.244 187.279 150.411 187.678 150.655 188.03C151.616 189.517 153.735 190.176 155.436 190.322Z" fill="black"/>
    <path d="M172.441 219.62C172.113 219.351 171.732 219.155 171.323 219.043C170.914 218.931 170.486 218.906 170.067 218.97C169.648 219.035 169.247 219.186 168.89 219.416C168.534 219.645 168.229 219.946 167.997 220.301C167.62 220.997 167.466 221.792 167.557 222.578H174.12C173.922 221.427 173.328 220.38 172.441 219.62Z" fill="black"/>
    <path d="M149.577 218.821C149.577 217.122 149.122 214.955 147.692 213.864C147.365 213.594 146.984 213.397 146.575 213.284C146.166 213.172 145.737 213.147 145.318 213.211C144.898 213.275 144.497 213.427 144.14 213.657C143.784 213.887 143.48 214.19 143.248 214.545C141.929 216.683 143.703 220.806 145.177 222.6H148.616C149.127 221.396 149.451 220.122 149.577 218.821Z" fill="black"/>
    <path d="M52.8997 64.7171C53.4497 63.8237 54.0217 63.0036 54.5936 62.2127C55.1656 62.5569 57.7908 64.0873 59.2427 64.2558C60.6946 64.4242 62.4472 64.2558 63.4664 63.1647C63.7123 62.9222 63.9046 62.631 64.0311 62.3099C64.1576 61.9888 64.2155 61.6448 64.201 61.3C64.1865 60.9552 64.1 60.6173 63.9469 60.3079C63.7939 59.9985 63.5778 59.7244 63.3125 59.5034C61.6625 58.2146 58.0474 59.3423 56.5002 60.3894C56.4195 60.448 55.6276 61.1217 55.0336 61.6269C55.2976 61.2755 55.5616 60.8947 55.8255 60.5725C56.8008 59.3203 57.7688 58.2366 58.6341 57.2846C59.1327 56.7501 59.5947 56.2741 60.0273 55.8201C60.7606 55.864 63.7304 55.9958 65.0724 55.4906C66.4143 54.9853 67.9029 54.0261 68.3208 52.5615C68.4293 52.2313 68.4669 51.882 68.4313 51.5363C68.3956 51.1907 68.2874 50.8563 68.1138 50.5552C67.9402 50.254 67.705 49.9927 67.4235 49.7883C67.1421 49.5839 66.8207 49.441 66.4803 49.3689C64.4197 48.9881 61.7285 51.6462 60.8413 53.2865C60.7679 53.4329 59.822 55.7908 59.8587 55.7981H59.9026C59.4773 56.2155 59.0227 56.6695 58.5387 57.1675C57.6441 58.1048 56.6542 59.1739 55.6496 60.4041C54.548 61.7206 53.5269 63.1022 52.5917 64.5413C52.4011 64.8342 52.2104 65.1345 52.0271 65.442V66.1743C52.3277 65.6837 52.6137 65.193 52.8997 64.7171Z" fill="black"/>
    <path d="M54.5349 61.8173C54.5349 61.8173 55.3929 59.4374 55.4222 59.2763C55.8255 57.4457 55.5175 53.6818 53.699 52.6347C53.201 52.3448 52.6117 52.2532 52.0491 52.3784V59.701C52.8351 60.4548 53.6652 61.1615 54.5349 61.8173Z" fill="black"/>
    <path d="M62.7038 94.2929L64.0457 92.8943C64.1997 93.1432 65.9889 96.0284 67.2942 96.9071C68.4601 97.6833 70.154 98.3716 71.5546 97.8663C71.8875 97.7641 72.1951 97.593 72.4573 97.3642C72.7195 97.1353 72.9305 96.8538 73.0765 96.5381C73.2224 96.2224 73.3001 95.8794 73.3045 95.5317C73.3089 95.184 73.2398 94.8392 73.1019 94.5199C72.2219 92.616 68.4968 91.9716 66.6342 92.1986C66.4949 92.1986 64.603 92.6746 64.1264 92.8137C65.1163 91.7812 66.1063 90.7707 67.1255 89.8115C68.4965 88.501 69.9489 87.2782 71.474 86.1501C71.5473 86.2673 73.4025 89.2916 74.7444 90.1922C75.9104 90.9684 77.6043 91.6568 79.0049 91.1515C79.3373 91.0475 79.6443 90.875 79.9059 90.6452C80.1675 90.4155 80.378 90.1335 80.5238 89.8175C80.6695 89.5015 80.7474 89.1585 80.7523 88.8106C80.7571 88.4627 80.689 88.1177 80.5521 87.7977C79.6648 85.9012 75.9397 85.2495 74.0845 85.4838C73.9378 85.4838 71.8846 85.9891 71.5399 86.1062L71.8039 85.9012C73.3644 84.8252 75.0185 83.8915 76.7463 83.1113C77.6996 82.6646 78.6309 82.2985 79.5475 81.9543C79.8335 82.5547 81.1827 85.2788 82.2973 86.2161C83.4119 87.1533 84.9812 87.9662 86.4258 87.6366C86.7673 87.5706 87.0912 87.4336 87.3764 87.2347C87.6616 87.0358 87.9019 86.7793 88.0816 86.4818C88.2613 86.1843 88.3764 85.8525 88.4196 85.5078C88.4628 85.1631 88.4331 84.8131 88.3323 84.4806C87.6577 82.4962 84.0279 81.4417 82.158 81.4637C82.0553 81.4637 81.0214 81.5955 80.2661 81.698C80.6841 81.5515 81.1094 81.3905 81.5127 81.2586C82.9793 80.7534 84.4459 80.3799 85.6705 80.0651C86.4038 79.8893 87.0271 79.7429 87.6357 79.6184C88.2223 80.0577 90.6275 81.8152 92.0354 82.1154C93.4434 82.4156 95.2253 82.4376 96.3545 81.4783C96.6244 81.2625 96.8462 80.9928 97.0058 80.6865C97.1653 80.3801 97.2592 80.044 97.2812 79.6994C97.3033 79.3548 97.2532 79.0094 97.134 78.6853C97.0149 78.3612 96.8293 78.0655 96.5892 77.817C95.0786 76.3525 91.3681 77.0848 89.7182 77.9854C89.5789 78.066 87.4817 79.5159 87.5184 79.5378C86.9317 79.655 86.3084 79.7795 85.6265 79.9332C84.3652 80.2262 82.9426 80.563 81.4247 81.039C79.7806 81.5319 78.167 82.1212 76.5923 82.8037C74.8242 83.5537 73.1281 84.463 71.5253 85.5204L71.4666 85.557C71.8553 85.081 72.8892 83.7117 72.9332 83.5946C73.8791 81.9836 74.7664 78.3076 73.3658 76.7479C73.1275 76.4984 72.8395 76.3015 72.5205 76.1696C72.2015 76.0377 71.8584 75.9739 71.5132 75.9822C71.168 75.9904 70.8283 76.0706 70.516 76.2176C70.2036 76.3646 69.9255 76.5752 69.6994 76.8358C68.6948 77.9269 68.6361 79.7648 68.8928 81.1195C69.1788 82.6719 71.0926 85.4691 71.2906 85.6962C69.6817 86.8116 68.1505 88.0348 66.7076 89.3575C65.8569 90.0897 65.0283 90.9172 64.207 91.7227C64.5297 91.2979 64.8157 90.9172 64.845 90.8586C65.7983 89.2476 66.6782 85.5717 65.285 84.0119C65.046 83.7635 64.7579 83.5674 64.439 83.4362C64.12 83.305 63.7772 83.2415 63.4324 83.2497C63.0875 83.258 62.7481 83.3378 62.4359 83.4842C62.1236 83.6305 61.8452 83.8402 61.6185 84.0998C60.6212 85.1909 60.5626 87.0289 60.8119 88.3835C61.0612 89.7382 62.6891 92.1986 63.1218 92.8357L62.1905 93.773C60.7239 95.2741 59.2573 96.7899 57.7247 98.2251C57.1968 98.7304 56.6615 99.2064 56.1262 99.6897L56.6761 98.9574C57.6221 97.3464 58.502 93.6705 57.1088 92.1108C56.8704 91.8613 56.5825 91.6643 56.2634 91.5324C55.9444 91.4006 55.6013 91.3367 55.2561 91.345C54.9109 91.3533 54.5712 91.4335 54.2589 91.5805C53.9466 91.7275 53.6684 91.938 53.4423 92.1986C52.4377 93.2897 52.379 95.1277 52.6284 96.4824C52.8777 97.837 54.3516 100.063 54.8282 100.817C54.2636 101.293 53.699 101.777 53.1343 102.209C52.7677 102.48 52.401 102.758 52.0564 103.007V104.288L52.5624 103.922C52.9583 103.651 53.347 103.314 53.743 103.007C54.6596 102.275 55.5395 101.491 56.4195 100.686C56.8448 101.367 58.4067 103.761 59.5726 104.545C60.7386 105.328 62.4325 106.009 63.8331 105.504C64.1659 105.402 64.4735 105.231 64.7357 105.002C64.9979 104.773 65.2089 104.491 65.3549 104.176C65.5009 103.86 65.5786 103.517 65.583 103.169C65.5873 102.821 65.5183 102.477 65.3803 102.157C64.5004 100.254 60.7679 99.6091 58.9127 99.8361C58.7953 99.8361 57.4828 100.166 56.7641 100.356C57.2848 99.8654 57.8054 99.3748 58.3187 98.8915C59.7706 97.3757 61.2372 95.8306 62.7038 94.2929Z" fill="black"/>
    <path d="M52.621 81.4053C54.0216 81.4053 55.8035 81.0392 56.7055 79.8603C56.9294 79.5909 57.0935 79.2771 57.1871 78.9397C57.2806 78.6022 57.3013 78.2488 57.248 77.9028C57.1946 77.5567 57.0683 77.2259 56.8775 76.9322C56.6866 76.6385 56.4356 76.3886 56.1408 76.199C55.0996 75.5619 53.4937 75.8109 52.0491 76.3674V81.3394C52.238 81.3747 52.4291 81.3967 52.621 81.4053Z" fill="black"/>
    <path d="M55.4955 111.099C55.8092 110.947 56.0873 110.731 56.3117 110.465C56.5362 110.199 56.7019 109.888 56.7981 109.554C56.8943 109.219 56.9188 108.869 56.8699 108.524C56.8211 108.179 56.7001 107.849 56.5148 107.554C55.7815 106.39 53.7943 105.965 52.0491 105.973V111.143C53.1593 111.579 54.3969 111.564 55.4955 111.099Z" fill="black"/>
    <path d="M78.5872 76.5356C78.4478 78.1685 79.7091 81.6614 79.7091 81.6614C79.7091 81.6614 81.7403 80.1383 81.8576 80.0285C83.1922 78.725 85.0181 75.4152 84.0575 73.5406C83.8941 73.2333 83.6677 72.9637 83.3931 72.7494C83.1186 72.535 82.802 72.3807 82.4639 72.2965C82.1257 72.2122 81.7736 72.1999 81.4304 72.2604C81.0872 72.3208 80.7606 72.4526 80.4717 72.6473C79.2471 73.4161 78.7118 75.1369 78.5872 76.5356Z" fill="black"/>
    <path d="M54.4836 90.4855C54.7079 90.2165 54.8725 89.9032 54.9666 89.566C55.0607 89.2289 55.0821 88.8757 55.0294 88.5297C54.9767 88.1837 54.8512 87.8528 54.661 87.5588C54.4709 87.2648 54.2205 87.0144 53.9263 86.8242C53.3548 86.5077 52.6978 86.3796 52.0491 86.458V91.8402C52.9933 91.684 53.8539 91.2052 54.4836 90.4855Z" fill="black"/>
    <path d="M55.1362 71.7247C56.5368 71.7247 58.3187 71.3586 59.2206 70.1796C59.4449 69.9107 59.6095 69.5973 59.7036 69.2602C59.7977 68.9231 59.8191 68.5698 59.7664 68.2238C59.7138 67.8778 59.5882 67.5469 59.3981 67.2529C59.2079 66.9589 58.9575 66.7086 58.6633 66.5183C56.8961 65.4346 53.5303 66.8918 52.0637 68.0927V70.9192C53.0407 71.3427 54.0769 71.6144 55.1362 71.7247Z" fill="black"/>
    </g>
    <path d="M306.061 17.8306H58.0254C56.4404 17.8306 54.9203 18.4593 53.7995 19.5785C52.6787 20.6977 52.0491 22.2157 52.0491 23.7985V216.61C52.0491 218.193 52.6787 219.711 53.7995 220.83C54.9203 221.949 56.4404 222.578 58.0254 222.578H208.467L226.066 236.242L223.412 222.578H306.061C307.646 222.578 309.166 221.949 310.287 220.83C311.408 219.711 312.038 218.193 312.038 216.61V23.7985C312.038 22.2157 311.408 20.6977 310.287 19.5785C309.166 18.4593 307.646 17.8306 306.061 17.8306Z" stroke="black" stroke-width="0.516112" stroke-linecap="round" stroke-linejoin="round"/>
    <path d="M253.183 60.2725H199.133C196.784 57.3026 193.793 54.9025 190.383 53.2524C186.973 51.6023 183.233 50.7451 179.444 50.7451C175.654 50.7451 171.914 51.6023 168.504 53.2524C165.094 54.9025 162.103 57.3026 159.755 60.2725H105.704C103.957 60.284 102.285 60.9821 101.05 62.2155C99.8148 63.4489 99.1158 65.1185 99.1042 66.8629V180.363C99.1061 182.114 99.8009 183.793 101.037 185.034C102.273 186.276 103.951 186.979 105.704 186.99H253.183C254.937 186.979 256.614 186.276 257.85 185.034C259.086 183.793 259.781 182.114 259.783 180.363V66.8629C259.772 65.1185 259.073 63.4489 257.837 62.2155C256.602 60.9821 254.93 60.284 253.183 60.2725Z" fill="black"/>
    <path d="M255.779 57.1968H108.307C104.845 57.1968 102.038 59.9999 102.038 63.4576V176.951C102.038 180.409 104.845 183.212 108.307 183.212H255.779C259.242 183.212 262.049 180.409 262.049 176.951V63.4576C262.049 59.9999 259.242 57.1968 255.779 57.1968Z" fill="white" stroke="black" stroke-width="0.516112" stroke-linecap="round" stroke-linejoin="round"/>
    <path d="M206.81 72.4059C206.81 77.2985 205.357 82.0812 202.635 86.1491C199.913 90.2171 196.044 93.3875 191.517 95.2595C186.99 97.1315 182.009 97.6209 177.204 96.6659C172.399 95.7108 167.985 93.3543 164.521 89.8942C161.057 86.4341 158.699 82.0259 157.744 77.2271C156.789 72.4284 157.281 67.4546 159.156 62.9348C161.032 58.4151 164.208 54.5524 168.283 51.8353C172.357 49.1182 177.147 47.6687 182.047 47.6701C185.303 47.6575 188.529 48.2888 191.54 49.5275C194.55 50.7662 197.286 52.5879 199.588 54.8874C201.89 57.187 203.713 59.9189 204.953 62.9256C206.192 65.9323 206.824 69.1544 206.81 72.4059Z" fill="white" stroke="black" stroke-width="0.516112" stroke-linecap="round" stroke-linejoin="round"/>
    <path d="M192.386 68.5324C192.388 66.4883 191.782 64.4896 190.646 62.7894C189.509 61.0891 187.893 59.7637 186.003 58.9808C184.112 58.1978 182.031 57.9926 180.023 58.391C178.015 58.7895 176.171 59.7737 174.723 61.2191C173.276 62.6645 172.29 64.5062 171.891 66.5112C171.492 68.5161 171.698 70.5942 172.482 72.4824C173.266 74.3707 174.593 75.9843 176.296 77.119C177.998 78.2538 180 78.8587 182.047 78.8573C184.789 78.8573 187.419 77.7695 189.358 75.8332C191.297 73.8969 192.386 71.2707 192.386 68.5324Z" fill="black" stroke="black" stroke-width="0.516112" stroke-linecap="round" stroke-linejoin="round"/>
    <path d="M197.343 91.8475C192.983 95.273 187.595 97.1353 182.047 97.1353C176.499 97.1353 171.111 95.273 166.75 91.8475C167.518 88.3671 169.453 85.2529 172.235 83.0204C175.016 80.7878 178.478 79.5708 182.047 79.5708C185.616 79.5708 189.078 80.7878 191.859 83.0204C194.641 85.2529 196.576 88.3671 197.343 91.8475Z" fill="black" stroke="black" stroke-width="0.516112" stroke-linecap="round" stroke-linejoin="round"/>
    <path d="M224.431 124.682H139.663V137.995H224.431V124.682Z" stroke="black" stroke-width="0.516112" stroke-linecap="round" stroke-linejoin="round"/>
    <path d="M224.431 150.707H139.663V164.019H224.431V150.707Z" stroke="black" stroke-width="0.516112" stroke-linecap="round" stroke-linejoin="round"/>
    <path d="M168.364 134.641C167.992 134.661 167.623 134.566 167.308 134.37C167.058 134.178 166.882 133.906 166.809 133.601C166.715 133.22 166.671 132.829 166.677 132.437V128.248H167.52V132.481C167.518 132.726 167.535 132.97 167.572 133.213C167.596 133.409 167.68 133.593 167.814 133.74C167.97 133.868 168.165 133.938 168.367 133.938C168.569 133.938 168.765 133.868 168.921 133.74C169.049 133.591 169.131 133.408 169.156 133.213C169.192 132.97 169.209 132.726 169.207 132.481V128.248H170.043V132.437C170.049 132.829 170.004 133.22 169.911 133.601C169.837 133.906 169.661 134.178 169.412 134.37C169.1 134.568 168.733 134.663 168.364 134.641Z" fill="#CCCCCC"/>
    <path d="M172.47 134.641C172.151 134.652 171.835 134.571 171.561 134.407C171.314 134.25 171.12 134.023 171.004 133.755C170.871 133.452 170.799 133.126 170.791 132.796L171.568 132.591C171.582 132.809 171.619 133.025 171.678 133.235C171.721 133.426 171.812 133.602 171.942 133.748C172.088 133.872 172.274 133.941 172.467 133.941C172.659 133.941 172.845 133.872 172.991 133.748C173.117 133.593 173.18 133.397 173.167 133.198C173.187 132.939 173.117 132.68 172.969 132.466C172.819 132.278 172.655 132.101 172.478 131.939L171.414 131.002C171.217 130.842 171.059 130.639 170.952 130.408C170.846 130.156 170.796 129.884 170.806 129.61C170.793 129.413 170.821 129.216 170.889 129.03C170.958 128.845 171.064 128.676 171.202 128.534C171.347 128.399 171.518 128.296 171.705 128.229C171.891 128.162 172.089 128.134 172.287 128.146C172.511 128.143 172.734 128.178 172.947 128.248C173.129 128.306 173.293 128.409 173.424 128.548C173.564 128.693 173.67 128.869 173.732 129.061C173.812 129.298 173.863 129.544 173.886 129.793L173.152 129.998C173.14 129.803 173.111 129.61 173.064 129.42C173.02 129.261 172.934 129.117 172.815 129.002C172.71 128.915 172.582 128.858 172.446 128.839C172.31 128.821 172.172 128.84 172.047 128.896C171.922 128.951 171.815 129.041 171.738 129.154C171.661 129.268 171.617 129.4 171.612 129.537C171.607 129.702 171.643 129.865 171.715 130.013C171.797 130.157 171.904 130.286 172.03 130.394L173.101 131.331C173.344 131.545 173.556 131.791 173.732 132.063C173.922 132.371 174.019 132.727 174.01 133.088C174.019 133.37 173.95 133.648 173.812 133.894C173.688 134.116 173.502 134.296 173.277 134.414C173.033 134.559 172.754 134.637 172.47 134.641Z" fill="#CCCCCC"/>
    <path d="M174.67 134.567V128.248H177.097V128.9H175.557V130.994H176.833V131.616H175.557V133.938H177.141V134.567H174.67Z" fill="#CCCCCC"/>
    <path d="M177.831 134.568V128.248H179.106C179.464 128.236 179.82 128.293 180.155 128.417C180.415 128.518 180.63 128.707 180.764 128.951C180.914 129.253 180.985 129.588 180.969 129.925C180.97 130.15 180.943 130.374 180.888 130.592C180.843 130.776 180.758 130.948 180.639 131.097C180.521 131.24 180.362 131.344 180.184 131.397L181.086 134.568H180.25L179.422 131.639H178.74V134.568H177.831ZM178.718 130.972H179.048C179.257 130.981 179.467 130.948 179.664 130.877C179.747 130.851 179.823 130.806 179.886 130.746C179.949 130.687 179.999 130.614 180.03 130.533C180.113 130.334 180.151 130.119 180.14 129.903C180.165 129.623 180.095 129.342 179.942 129.105C179.834 129.008 179.706 128.936 179.566 128.893C179.427 128.85 179.28 128.837 179.136 128.856H178.747L178.718 130.972Z" fill="#CCCCCC"/>
    <path d="M181.908 134.567V128.248H182.516L184.313 132.444V128.248H185.046V134.567H184.482L182.663 130.254V134.567H181.908Z" fill="#CCCCCC"/>
    <path d="M185.691 134.567L187.041 128.248H187.891L189.241 134.567H188.405L188.119 132.978H186.828L186.52 134.567H185.691ZM186.945 132.371H188.001L187.466 129.522L186.945 132.371Z" fill="#CCCCCC"/>
    <path d="M189.871 134.567L189.988 128.248H190.854L191.968 133.374L193.098 128.248H193.963L194.08 134.567H193.347L193.274 129.976L192.203 134.567H191.704L190.641 129.976L190.575 134.567H189.871Z" fill="#CCCCCC"/>
    <path d="M195.041 134.567V128.248H197.497V128.9H195.928V130.994H197.197V131.616H195.928V133.938H197.512V134.567H195.041Z" fill="#CCCCCC"/>
    <path d="M166.098 160.731V154.405H167.667C167.983 154.388 168.298 154.459 168.576 154.61C168.806 154.748 168.981 154.96 169.075 155.21C169.186 155.512 169.238 155.833 169.229 156.155C169.236 156.452 169.176 156.748 169.053 157.019C168.943 157.257 168.761 157.454 168.532 157.583C168.271 157.729 167.974 157.8 167.674 157.788H166.941V160.717L166.098 160.731ZM166.978 157.151H167.381C167.587 157.157 167.793 157.13 167.99 157.07C168.128 157.015 168.239 156.907 168.298 156.77C168.37 156.576 168.403 156.369 168.393 156.162C168.4 155.928 168.378 155.695 168.327 155.466C168.309 155.393 168.275 155.324 168.227 155.266C168.178 155.207 168.117 155.161 168.048 155.13C167.839 155.057 167.617 155.025 167.396 155.034H166.978V157.151Z" fill="#CCCCCC"/>
    <path d="M169.229 160.732L170.571 154.405H171.422L172.778 160.732H171.964L171.671 159.135H170.38L170.08 160.732H169.229ZM170.476 158.535H171.532L171.004 155.686L170.476 158.535Z" fill="#CCCCCC"/>
    <path d="M174.897 160.797C174.578 160.808 174.262 160.727 173.988 160.563C173.745 160.407 173.554 160.183 173.438 159.918C173.303 159.613 173.229 159.285 173.218 158.952L173.995 158.747C174.009 158.965 174.046 159.181 174.105 159.391C174.146 159.582 174.237 159.759 174.369 159.904C174.515 160.029 174.701 160.097 174.894 160.097C175.086 160.097 175.272 160.029 175.418 159.904C175.545 159.75 175.608 159.553 175.594 159.355C175.607 159.109 175.537 158.867 175.396 158.666C175.25 158.474 175.086 158.298 174.905 158.139L173.841 157.202C173.648 157.035 173.49 156.831 173.379 156.601C173.276 156.348 173.226 156.076 173.233 155.803C173.223 155.606 173.253 155.41 173.321 155.225C173.389 155.04 173.494 154.87 173.629 154.727C173.775 154.593 173.946 154.491 174.132 154.426C174.319 154.36 174.517 154.333 174.714 154.346C174.938 154.341 175.161 154.373 175.374 154.441C175.556 154.498 175.72 154.602 175.851 154.741C175.99 154.887 176.095 155.062 176.159 155.254C176.239 155.491 176.29 155.737 176.313 155.986L175.579 156.191C175.567 155.999 175.537 155.807 175.491 155.62C175.449 155.458 175.363 155.311 175.242 155.195C175.099 155.08 174.919 155.023 174.736 155.034C174.636 155.016 174.532 155.022 174.435 155.053C174.338 155.083 174.249 155.136 174.177 155.208C174.105 155.28 174.052 155.369 174.021 155.466C173.991 155.563 173.984 155.666 174.003 155.766C173.998 155.931 174.033 156.094 174.105 156.242C174.185 156.388 174.292 156.517 174.421 156.623L175.491 157.561C175.735 157.774 175.947 158.021 176.122 158.293C176.311 158.601 176.408 158.957 176.401 159.318C176.408 159.602 176.34 159.882 176.203 160.131C176.076 160.351 175.891 160.531 175.667 160.651C175.426 160.759 175.162 160.809 174.897 160.797Z" fill="#CCCCCC"/>
    <path d="M178.608 160.797C178.288 160.808 177.973 160.727 177.698 160.563C177.456 160.407 177.264 160.183 177.148 159.919C177.017 159.612 176.943 159.285 176.928 158.952L177.706 158.747C177.723 158.965 177.76 159.18 177.816 159.391C177.859 159.583 177.953 159.76 178.087 159.904C178.231 160.03 178.416 160.099 178.608 160.099C178.799 160.099 178.984 160.03 179.128 159.904C179.255 159.75 179.318 159.554 179.304 159.355C179.317 159.11 179.247 158.867 179.106 158.666C178.961 158.475 178.796 158.298 178.615 158.139L177.552 157.202C177.358 157.035 177.201 156.831 177.09 156.601C176.986 156.348 176.936 156.077 176.943 155.803C176.933 155.606 176.963 155.41 177.031 155.225C177.099 155.04 177.204 154.87 177.339 154.727C177.639 154.461 178.031 154.324 178.432 154.346C178.655 154.341 178.878 154.373 179.092 154.441C179.273 154.5 179.437 154.604 179.568 154.741C179.703 154.89 179.805 155.064 179.869 155.254C179.953 155.49 180.005 155.736 180.023 155.986L179.29 156.191C179.275 155.999 179.243 155.807 179.194 155.62C179.152 155.458 179.066 155.311 178.945 155.195C178.804 155.082 178.627 155.025 178.446 155.034C178.259 155.025 178.075 155.088 177.933 155.21C177.868 155.279 177.818 155.361 177.786 155.451C177.755 155.54 177.742 155.635 177.75 155.73C177.743 155.894 177.775 156.057 177.845 156.206C177.925 156.352 178.032 156.481 178.16 156.587L179.231 157.524C179.477 157.737 179.691 157.984 179.869 158.256C180.053 158.566 180.147 158.921 180.14 159.282C180.148 159.565 180.08 159.846 179.942 160.094C179.816 160.314 179.631 160.494 179.407 160.614C179.16 160.741 178.885 160.803 178.608 160.797Z" fill="#CCCCCC"/>
    <path d="M181.636 160.732L180.602 154.405H181.336L182.018 158.945L182.868 154.427H183.491L184.357 158.974L185.017 154.405H185.75L184.738 160.732H184.093L183.213 156.045L182.318 160.732H181.636Z" fill="#CCCCCC"/>
    <path d="M188.097 160.797C187.737 160.816 187.381 160.729 187.07 160.548C186.81 160.374 186.618 160.116 186.527 159.816C186.409 159.467 186.352 159.101 186.359 158.732V156.331C186.352 155.967 186.409 155.605 186.527 155.262C186.627 154.976 186.821 154.733 187.077 154.573C187.388 154.4 187.741 154.319 188.097 154.339C188.45 154.321 188.801 154.405 189.109 154.581C189.361 154.741 189.555 154.981 189.658 155.262C189.774 155.606 189.829 155.968 189.82 156.331V158.74C189.828 159.105 189.773 159.469 189.658 159.816C189.562 160.114 189.368 160.372 189.109 160.548C188.805 160.734 188.452 160.821 188.097 160.797ZM188.097 160.065C188.284 160.081 188.472 160.029 188.625 159.919C188.753 159.819 188.839 159.676 188.867 159.516C188.913 159.314 188.936 159.108 188.933 158.901V156.162C188.936 155.958 188.914 155.753 188.867 155.554C188.839 155.399 188.752 155.26 188.625 155.166C188.468 155.065 188.283 155.016 188.097 155.027C187.908 155.017 187.721 155.066 187.561 155.166C187.434 155.262 187.346 155.399 187.312 155.554C187.271 155.754 187.252 155.958 187.253 156.162V158.93C187.252 159.137 187.271 159.343 187.312 159.545C187.348 159.703 187.436 159.845 187.561 159.948C187.716 160.061 187.906 160.115 188.097 160.102V160.065Z" fill="#CCCCCC"/>
    <path d="M190.663 160.731V154.404H191.939C192.293 154.394 192.647 154.452 192.98 154.573C193.245 154.672 193.464 154.865 193.596 155.115C193.74 155.416 193.808 155.748 193.794 156.081C193.798 156.306 193.773 156.53 193.721 156.748C193.675 156.934 193.59 157.109 193.471 157.26C193.349 157.399 193.192 157.503 193.017 157.56L193.911 160.731H193.061L192.232 157.758H191.543V160.731H190.663ZM191.543 157.128H191.88C192.087 157.137 192.294 157.104 192.489 157.033C192.564 157.006 192.633 156.964 192.693 156.91C192.752 156.856 192.8 156.791 192.833 156.718C192.916 156.516 192.953 156.299 192.943 156.081C192.969 155.8 192.896 155.518 192.738 155.283C192.63 155.188 192.503 155.116 192.365 155.073C192.227 155.03 192.082 155.017 191.939 155.034H191.543V157.128Z" fill="#CCCCCC"/>
    <path d="M194.696 160.731V154.404H196.075C196.458 154.389 196.839 154.461 197.189 154.617C197.454 154.757 197.661 154.985 197.776 155.261C197.9 155.604 197.957 155.966 197.945 156.33V158.659C197.957 159.044 197.9 159.429 197.776 159.794C197.668 160.083 197.467 160.328 197.204 160.49C196.878 160.666 196.511 160.749 196.141 160.731H194.696ZM195.576 160.094H196.082C196.326 160.118 196.571 160.053 196.771 159.911C196.914 159.762 197 159.568 197.013 159.362C197.045 159.075 197.06 158.786 197.057 158.498V156.44C197.063 156.175 197.041 155.91 196.991 155.649C196.979 155.56 196.949 155.474 196.902 155.398C196.856 155.321 196.794 155.254 196.72 155.203C196.518 155.094 196.289 155.046 196.06 155.063H195.576V160.094Z" fill="#CCCCCC"/>
    <path d="M168.657 114.723V104.472H170.087V113.691H172.697V114.709L168.657 114.723Z" fill="black"/>
    <path d="M176.232 114.841C175.652 114.873 175.075 114.733 174.575 114.438C174.156 114.164 173.843 113.756 173.687 113.281C173.501 112.704 173.414 112.1 173.431 111.494V107.613C173.418 107.02 173.512 106.43 173.709 105.87C173.871 105.412 174.181 105.021 174.589 104.757C175.095 104.479 175.669 104.347 176.246 104.377C176.82 104.345 177.391 104.48 177.889 104.765C178.3 105.026 178.61 105.418 178.769 105.878C178.963 106.435 179.055 107.023 179.04 107.613V111.494C179.053 112.089 178.961 112.681 178.769 113.244C178.611 113.716 178.302 114.123 177.889 114.401C177.393 114.709 176.816 114.862 176.232 114.841ZM176.232 113.713C176.536 113.738 176.84 113.655 177.09 113.479C177.295 113.312 177.436 113.079 177.486 112.82C177.558 112.495 177.592 112.163 177.588 111.831V107.342C177.592 107.012 177.558 106.683 177.486 106.361C177.433 106.111 177.293 105.887 177.09 105.731C176.835 105.567 176.534 105.49 176.232 105.512C175.928 105.493 175.625 105.57 175.367 105.731C175.159 105.884 175.016 106.109 174.963 106.361C174.891 106.683 174.857 107.012 174.861 107.342V111.831C174.857 112.163 174.891 112.495 174.963 112.82C175.013 113.081 175.156 113.315 175.367 113.479C175.622 113.646 175.928 113.721 176.232 113.691V113.713Z" fill="black"/>
    <path d="M182.883 114.855C182.339 114.882 181.801 114.739 181.343 114.445C180.939 114.148 180.645 113.726 180.507 113.244C180.318 112.635 180.229 112 180.243 111.362V107.935C180.231 107.288 180.31 106.642 180.478 106.017C180.611 105.533 180.906 105.109 181.314 104.816C181.819 104.511 182.404 104.366 182.993 104.399C183.53 104.373 184.065 104.484 184.548 104.721C184.939 104.936 185.241 105.284 185.398 105.702C185.589 106.24 185.679 106.808 185.662 107.379V107.76H184.32V107.445C184.327 107.077 184.297 106.709 184.232 106.346C184.194 106.1 184.066 105.875 183.873 105.717C183.619 105.559 183.32 105.487 183.022 105.512C182.689 105.481 182.356 105.584 182.098 105.797C181.898 106.016 181.774 106.293 181.746 106.588C181.697 106.964 181.673 107.343 181.673 107.723V111.494C181.666 111.905 181.703 112.315 181.783 112.717C181.83 113.001 181.976 113.26 182.194 113.449C182.447 113.625 182.751 113.71 183.059 113.691C183.368 113.711 183.673 113.617 183.917 113.427C184.139 113.219 184.286 112.944 184.335 112.644C184.422 112.22 184.461 111.788 184.452 111.355V110.623H183.147V109.612H185.743V114.68H184.841L184.702 113.508C184.579 113.871 184.361 114.194 184.071 114.445C183.738 114.721 183.316 114.867 182.883 114.855Z" fill="black"/>
    <path d="M187.283 114.723V104.472H188.691V114.723H187.283Z" fill="black"/>
    <path d="M190.348 114.723V104.472H191.323L194.256 111.274V104.472H195.43V114.723H194.513L191.58 107.73V114.723H190.348Z" fill="black"/>
    <path d="M258.793 255.171C259.855 255.449 260.952 255.57 262.049 255.53C262.049 255.53 261.558 254.021 261.514 253.926C261 252.864 259.402 251.114 258.097 251.29C257.88 251.325 257.674 251.406 257.49 251.526C257.307 251.646 257.151 251.804 257.033 251.988C256.914 252.173 256.836 252.38 256.804 252.597C256.771 252.813 256.784 253.034 256.843 253.245C257.008 253.689 257.268 254.091 257.605 254.423C257.942 254.756 258.347 255.011 258.793 255.171Z" fill="black"/>
    <path d="M259.593 261.857C260.68 261.851 261.76 261.684 262.797 261.359C263.14 262.537 263.559 263.691 264.051 264.815C264.337 265.474 264.645 266.126 264.96 266.777L264.572 266.221C263.802 265.335 261.792 264.068 260.575 264.581C260.379 264.673 260.205 264.805 260.063 264.968C259.921 265.131 259.814 265.322 259.749 265.528C259.684 265.735 259.663 265.952 259.687 266.167C259.71 266.382 259.778 266.59 259.886 266.777C260.162 267.161 260.52 267.48 260.933 267.712C261.346 267.943 261.804 268.082 262.276 268.117C263.333 268.117 264.384 267.957 265.393 267.642L265.767 268.374C266.361 269.567 266.962 270.746 267.519 271.925C267.717 272.343 267.893 272.76 268.069 273.177C267.901 272.928 267.761 272.723 267.732 272.694C266.962 271.808 264.953 270.541 263.743 271.061C263.546 271.152 263.37 271.283 263.226 271.446C263.083 271.609 262.975 271.8 262.91 272.007C262.845 272.214 262.825 272.432 262.849 272.648C262.874 272.863 262.944 273.071 263.054 273.258C263.33 273.642 263.687 273.961 264.1 274.192C264.513 274.424 264.972 274.562 265.444 274.598C266.474 274.604 267.498 274.451 268.48 274.144C268.649 274.576 268.817 275.008 268.964 275.433C269.059 275.726 269.169 276.004 269.243 276.297C269.316 276.59 269.404 276.89 269.485 277.176C269.624 277.739 269.763 278.318 269.881 278.867C269.969 279.255 270.042 279.599 270.115 279.987C269.932 279.57 269.536 278.765 269.499 278.706C268.876 277.71 267.079 276.15 265.833 276.509C265.622 276.568 265.426 276.671 265.258 276.811C265.09 276.951 264.953 277.125 264.857 277.321C264.761 277.518 264.707 277.732 264.7 277.95C264.692 278.169 264.731 278.386 264.814 278.589C265.029 279.01 265.333 279.38 265.705 279.672C266.077 279.964 266.509 280.171 266.969 280.28C268.042 280.439 269.131 280.439 270.203 280.28C270.321 280.888 270.438 281.481 270.533 282.045C270.753 283.29 270.922 284.41 271.047 285.355H271.912C271.758 284.374 271.56 283.209 271.303 281.906C271.179 281.284 271.039 280.625 270.885 279.944C271.503 279.7 272.105 279.418 272.689 279.101C273.483 279.781 274.366 280.351 275.314 280.793C275.08 281.364 274.845 281.928 274.581 282.448C274.104 283.546 273.65 284.52 273.254 285.377H274.185C274.53 284.608 274.918 283.737 275.3 282.777C275.542 282.192 275.791 281.562 276.033 280.91C277.087 281.155 278.173 281.239 279.252 281.159C279.72 281.087 280.167 280.913 280.561 280.65C280.955 280.387 281.287 280.041 281.533 279.636C281.629 279.44 281.683 279.225 281.692 279.007C281.7 278.788 281.662 278.57 281.58 278.367C281.499 278.164 281.375 277.98 281.218 277.828C281.061 277.676 280.873 277.558 280.667 277.483C279.421 277.066 277.514 278.479 276.818 279.431C276.774 279.482 276.392 280.163 276.165 280.559C276.26 280.288 276.363 280.031 276.458 279.76C276.656 279.219 276.84 278.669 277.038 278.076C277.126 277.791 277.214 277.505 277.302 277.205C277.389 276.905 277.455 276.604 277.536 276.297C277.705 275.565 277.844 274.832 277.969 274.1C278.943 274.504 279.975 274.751 281.027 274.832C281.5 274.832 281.967 274.727 282.396 274.526C282.824 274.325 283.203 274.032 283.505 273.668C283.631 273.49 283.718 273.287 283.761 273.072C283.803 272.858 283.799 272.637 283.75 272.424C283.701 272.211 283.607 272.011 283.475 271.837C283.343 271.662 283.176 271.518 282.985 271.413C281.811 270.812 279.714 271.925 278.878 272.753C278.827 272.804 278.291 273.485 278.013 273.836C278.079 273.39 278.152 272.943 278.211 272.496C278.372 271.193 278.497 269.868 278.621 268.542C278.665 268.139 278.709 267.737 278.746 267.334C279.758 267.731 280.823 267.977 281.907 268.066C282.381 268.063 282.848 267.958 283.277 267.757C283.707 267.556 284.087 267.264 284.392 266.902C284.519 266.723 284.606 266.52 284.648 266.306C284.69 266.092 284.686 265.871 284.637 265.658C284.588 265.445 284.495 265.245 284.363 265.071C284.231 264.896 284.063 264.752 283.872 264.647C282.699 264.039 280.601 265.152 279.765 265.979C279.699 266.045 278.937 266.997 278.753 267.246C278.849 266.36 278.951 265.474 279.091 264.61C279.259 263.436 279.504 262.274 279.824 261.132C280.842 261.533 281.915 261.779 283.007 261.864C283.48 261.863 283.947 261.759 284.376 261.558C284.804 261.356 285.183 261.063 285.485 260.7C285.611 260.521 285.698 260.318 285.74 260.104C285.783 259.889 285.779 259.669 285.73 259.456C285.681 259.243 285.587 259.043 285.455 258.868C285.323 258.694 285.156 258.55 284.964 258.444C283.791 257.844 281.694 258.957 280.858 259.784C280.792 259.85 279.971 260.875 279.839 261.073C279.839 261.007 279.839 260.934 279.89 260.868C280.249 259.733 280.71 258.632 281.269 257.58C281.569 256.994 281.885 256.453 282.207 255.933C283.153 256.434 284.169 256.789 285.221 256.987C285.692 257.038 286.168 256.986 286.616 256.835C287.065 256.683 287.474 256.435 287.817 256.108C287.962 255.944 288.071 255.751 288.136 255.542C288.202 255.333 288.222 255.112 288.197 254.895C288.171 254.677 288.1 254.467 287.988 254.279C287.876 254.091 287.725 253.928 287.546 253.802C286.446 253.07 284.238 253.948 283.314 254.68L282.471 255.523C282.618 255.288 282.772 255.047 282.919 254.827C283.468 253.999 284.026 253.275 284.524 252.63C284.81 252.264 285.074 251.949 285.324 251.649C286.389 251.66 287.45 251.51 288.47 251.202C288.91 251.03 289.307 250.763 289.634 250.422C289.96 250.081 290.209 249.672 290.361 249.225C290.415 249.013 290.423 248.792 290.385 248.577C290.348 248.362 290.265 248.157 290.142 247.976C290.02 247.795 289.86 247.642 289.674 247.526C289.489 247.411 289.28 247.336 289.063 247.307C287.751 247.167 286.196 248.962 285.712 250.031C285.676 250.126 285.192 251.649 285.221 251.649C284.979 251.934 284.715 252.235 284.436 252.572C283.923 253.201 283.344 253.919 282.779 254.768C282.152 255.644 281.576 256.556 281.056 257.5C280.47 258.555 279.979 259.66 279.589 260.802C279.589 260.802 279.589 260.802 279.589 260.839C279.589 260.458 279.589 259.374 279.589 259.294C279.435 258.129 278.46 255.969 277.162 255.728C276.946 255.695 276.725 255.707 276.515 255.765C276.304 255.822 276.107 255.923 275.938 256.061C275.769 256.199 275.63 256.371 275.532 256.566C275.433 256.761 275.376 256.974 275.366 257.192C275.383 257.665 275.503 258.128 275.719 258.549C275.934 258.97 276.239 259.339 276.612 259.631C277.518 260.222 278.506 260.676 279.545 260.978C279.178 262.149 278.889 263.342 278.68 264.551C278.555 265.284 278.453 265.972 278.35 266.69C278.35 266.353 278.35 266.052 278.35 266.016C278.196 264.844 277.221 262.684 275.923 262.442C275.707 262.409 275.486 262.422 275.275 262.479C275.064 262.537 274.868 262.638 274.699 262.776C274.529 262.914 274.391 263.086 274.292 263.281C274.194 263.476 274.137 263.689 274.126 263.907C274.145 264.38 274.267 264.843 274.483 265.265C274.7 265.686 275.006 266.055 275.38 266.345C276.264 266.928 277.231 267.374 278.247 267.671L278.137 268.491C277.983 269.816 277.829 271.134 277.639 272.423C277.573 272.877 277.492 273.317 277.411 273.763C277.411 273.47 277.411 273.221 277.411 273.177C277.257 272.013 276.282 269.853 274.984 269.611C274.768 269.578 274.548 269.591 274.337 269.648C274.126 269.706 273.929 269.807 273.76 269.945C273.591 270.083 273.452 270.255 273.354 270.45C273.255 270.644 273.199 270.858 273.188 271.076C273.206 271.549 273.328 272.012 273.545 272.433C273.761 272.855 274.067 273.223 274.442 273.514C275.297 274.084 276.234 274.521 277.221 274.81C277.126 275.264 277.03 275.718 276.92 276.15C276.832 276.451 276.774 276.736 276.671 277.029C276.568 277.322 276.488 277.608 276.392 277.893C276.194 278.435 275.996 278.999 275.784 279.526C275.644 279.892 275.505 280.258 275.366 280.588C275.432 280.134 275.556 279.248 275.556 279.175C275.543 278.144 275.263 277.135 274.742 276.246C274.753 276.131 274.753 276.016 274.742 275.901C274.714 275.684 274.641 275.475 274.527 275.288C274.413 275.101 274.26 274.94 274.08 274.816C273.899 274.692 273.695 274.607 273.479 274.567C273.263 274.527 273.042 274.532 272.828 274.583C271.56 274.92 270.753 277.154 270.687 278.325C270.687 278.398 270.731 279.153 270.768 279.629C270.702 279.35 270.643 279.079 270.577 278.794C270.445 278.237 270.291 277.673 270.137 277.08L269.873 276.209C269.785 275.916 269.668 275.616 269.565 275.316C269.309 274.627 269.023 273.946 268.715 273.265C269.743 273.047 270.732 272.674 271.648 272.16C272.043 271.898 272.375 271.554 272.622 271.15C272.869 270.746 273.025 270.294 273.078 269.824C273.084 269.605 273.043 269.388 272.959 269.186C272.875 268.984 272.75 268.802 272.591 268.652C272.431 268.502 272.242 268.387 272.036 268.316C271.829 268.244 271.609 268.216 271.391 268.235C270.079 268.374 268.942 270.431 268.707 271.61C268.707 271.684 268.612 272.526 268.583 272.987C268.392 272.584 268.209 272.174 268.003 271.764C267.424 270.585 266.793 269.414 266.17 268.242L265.606 267.158C266.671 266.941 267.697 266.563 268.649 266.038C269.043 265.774 269.375 265.428 269.622 265.023C269.869 264.619 270.025 264.165 270.079 263.695C270.085 263.476 270.044 263.259 269.96 263.057C269.876 262.855 269.751 262.673 269.591 262.523C269.432 262.373 269.243 262.258 269.036 262.187C268.83 262.115 268.61 262.087 268.392 262.106C267.087 262.245 265.95 264.302 265.708 265.481C265.708 265.569 265.584 266.785 265.569 267.092C265.158 266.301 264.755 265.503 264.388 264.705C263.887 263.628 263.456 262.52 263.098 261.388C264.171 261.17 265.204 260.789 266.163 260.26C266.557 259.998 266.889 259.653 267.136 259.25C267.383 258.847 267.539 258.394 267.593 257.924C267.598 257.706 267.558 257.489 267.475 257.288C267.391 257.086 267.267 256.904 267.108 256.754C266.95 256.603 266.762 256.488 266.556 256.414C266.35 256.341 266.131 256.312 265.913 256.328C264.601 256.475 263.464 258.525 263.23 259.704C263.23 259.799 263.09 261.102 263.083 261.344C263.083 261.278 263.039 261.212 263.017 261.146C262.691 260.002 262.468 258.83 262.35 257.646C262.276 256.987 262.247 256.365 262.225 255.75C263.29 255.651 264.334 255.389 265.32 254.973C265.743 254.752 266.113 254.44 266.403 254.061C266.693 253.681 266.896 253.243 266.999 252.777C267.028 252.56 267.011 252.339 266.949 252.129C266.887 251.919 266.782 251.725 266.64 251.558C266.499 251.391 266.324 251.255 266.127 251.16C265.929 251.065 265.714 251.012 265.496 251.005C264.183 251.005 262.819 252.952 262.46 254.073C262.46 254.131 262.306 254.768 262.218 255.237C262.218 254.959 262.218 254.673 262.218 254.41C262.218 253.414 262.284 252.506 262.35 251.7C262.386 251.239 262.43 250.829 262.474 250.441C263.367 249.863 264.168 249.154 264.85 248.339C265.122 247.952 265.306 247.511 265.391 247.045C265.476 246.58 265.459 246.102 265.342 245.644C265.268 245.438 265.151 245.249 264.999 245.09C264.848 244.931 264.664 244.806 264.46 244.724C264.257 244.641 264.038 244.602 263.819 244.609C263.599 244.616 263.383 244.669 263.186 244.766C262.012 245.373 261.719 247.695 261.902 248.881C261.902 248.983 262.357 250.521 262.379 250.507C262.328 250.88 262.276 251.239 262.232 251.715C262.152 252.52 262.071 253.428 262.049 254.432C262.009 255.506 262.034 256.582 262.122 257.653C262.214 258.858 262.415 260.052 262.724 261.22C262.724 261.22 262.724 261.22 262.724 261.256C262.518 260.934 261.91 260.041 261.858 259.982C261.088 259.089 259.072 257.829 257.862 258.342C257.665 258.433 257.49 258.565 257.347 258.728C257.205 258.891 257.097 259.082 257.033 259.289C256.968 259.495 256.947 259.713 256.971 259.928C256.995 260.143 257.064 260.351 257.173 260.539C257.455 260.922 257.817 261.239 258.236 261.467C258.654 261.694 259.117 261.828 259.593 261.857Z" fill="black"/>
    <path d="M282.185 255.676C282.185 255.676 282.611 254.146 282.618 254.044C282.787 252.879 282.413 250.536 281.225 249.965C281.025 249.875 280.809 249.828 280.59 249.827C280.372 249.826 280.155 249.872 279.955 249.96C279.755 250.049 279.576 250.178 279.43 250.341C279.283 250.503 279.173 250.694 279.105 250.902C278.997 251.363 278.991 251.842 279.088 252.305C279.186 252.768 279.385 253.204 279.67 253.582C280.4 254.401 281.248 255.106 282.185 255.676Z" fill="black"/>
    <path d="M277.426 283.715H267.615L268.597 306.393H276.451L277.426 283.715Z" fill="black"/>
    <path d="M289.936 307.059H162.915V331.634H289.936V307.059Z" fill="white" stroke="black" stroke-width="0.516112" stroke-linecap="round" stroke-linejoin="round"/>
    <path d="M289.936 307.059H162.915V315.26H289.936V307.059Z" fill="black" stroke="black" stroke-width="0.516112" stroke-linecap="round" stroke-linejoin="round"/>
    <path d="M293.676 307.059H159.176V311.431H293.676V307.059Z" fill="white" stroke="black" stroke-width="0.516112" stroke-linecap="round" stroke-linejoin="round"/>
    <path d="M247.024 298.748L231.163 259.323C231.129 259.166 231.062 259.017 230.965 258.889C230.868 258.76 230.744 258.655 230.601 258.579C230.458 258.504 230.301 258.461 230.14 258.453C229.979 258.445 229.818 258.473 229.669 258.534C229.52 258.595 229.386 258.688 229.277 258.807C229.168 258.925 229.086 259.066 229.037 259.22C228.989 259.373 228.975 259.536 228.996 259.695C229.018 259.855 229.074 260.008 229.161 260.143L245.015 299.568C245.211 300.072 245.306 300.61 245.293 301.15C245.291 302.269 244.846 303.341 244.054 304.133C243.263 304.925 242.19 305.371 241.069 305.375H228.384V307.572H241.069C242.774 307.57 244.408 306.893 245.612 305.688C246.817 304.484 247.493 302.852 247.493 301.15C247.494 300.327 247.335 299.511 247.024 298.748Z" fill="black"/>
    <path d="M235.839 220.319L231.645 219.9L224.138 294.862L228.332 295.281L235.839 220.319Z" fill="white" stroke="black" stroke-width="0.518686" stroke-linecap="round" stroke-linejoin="round"/>
    <path d="M214.319 303.017L173.35 304.818V306.876H214.319V303.017Z" fill="white" stroke="black" stroke-width="0.516112" stroke-linecap="round" stroke-linejoin="round"/>
    <path d="M98.9284 299.846L95.0859 331.546H159.982L140.506 322.195C140.506 322.195 142.457 319.471 142.647 317.714C142.838 315.956 137.514 306.378 137.03 305.514L136.598 302.629C136.598 302.629 135.666 288.987 136.202 286.336C136.737 283.685 138.057 277.461 135.402 270.439C132.748 263.416 125.87 251.363 125.87 251.363L105.337 245.403C105.337 245.403 95.9219 258.386 97.6451 272.16C98.6889 281.35 99.1176 290.599 98.9284 299.846Z" fill="#B2B2B2" stroke="black" stroke-width="0.516112" stroke-linecap="round" stroke-linejoin="round"/>
    <path d="M159.982 331.546L140.506 322.195L124.344 331.546H159.982Z" fill="black" stroke="black" stroke-width="0.516112" stroke-linecap="round" stroke-linejoin="round"/>
    <path d="M140.506 322.195L114.364 329.796" stroke="black" stroke-width="0.516112" stroke-linecap="round" stroke-linejoin="round"/>
    <path d="M118.463 326.486L113 330.967" stroke="black" stroke-width="0.516112" stroke-linecap="round" stroke-linejoin="round"/>
    <path d="M140.609 204.345C141.473 206.806 142.015 209.368 142.222 211.968C142.662 216.676 141.731 219.246 142.911 220.696C144.092 222.146 145.258 222.534 144.568 224.065C143.879 225.595 140.968 226.62 140.968 226.62C140.968 226.62 138.189 232.859 136.517 234.822C134.845 236.784 128.517 234.822 128.517 234.822L126.361 241.522L111.629 234.404L113.535 227.55L110.602 218.587C110.602 218.587 117.334 198.633 140.609 204.345Z" fill="white" stroke="black" stroke-width="0.516112" stroke-linecap="round" stroke-linejoin="round"/>
    <path d="M128.524 234.792L125.342 233.086L126.999 238.483L128.524 234.792Z" fill="black" stroke="black" stroke-width="0.516112" stroke-linecap="round" stroke-linejoin="round"/>
    <path d="M133.95 226.166C133.95 226.166 135.593 228.363 137.727 228.282" stroke="black" stroke-width="0.516112" stroke-linecap="round" stroke-linejoin="round"/>
    <path d="M140.433 217.511C140.323 218.529 139.853 219.32 139.384 219.269C138.915 219.217 138.607 218.353 138.717 217.335C138.827 216.318 139.289 215.534 139.765 215.578C140.242 215.622 140.55 216.493 140.433 217.511Z" fill="black"/>
    <path d="M138.013 213.93C138.013 213.93 139.721 211.58 141.364 213.747" stroke="black" stroke-width="0.516112" stroke-linecap="round" stroke-linejoin="round"/>
    <path d="M119.974 191.164C119.974 191.164 108.329 190.227 105.191 197.359C102.052 204.491 101.964 214.34 103.211 217.797C104.457 221.253 108.344 226.445 109.891 227.938C111.438 229.432 114.027 230.501 116.263 229.528C118.5 228.554 121.206 224.314 121.888 221.59C122.57 218.866 122.166 216.288 122.841 216.23C124.458 216.348 126.084 216.247 127.673 215.929C130.937 215.329 137.507 212.415 141.085 207.457C144.664 202.5 144.018 196.978 142.662 194.84C141.305 192.702 126.779 187.203 119.974 191.164Z" fill="black" stroke="black" stroke-width="0.516112" stroke-linecap="round" stroke-linejoin="round"/>
    <path d="M119.791 189.011C119.791 189.011 119.93 191.56 118.324 193.119C116.718 194.679 108.615 197.974 108.615 197.974C108.615 197.974 105.953 204.359 104.949 206.256C103.944 208.153 102.837 208.57 101.576 207.904C100.314 207.237 94.4993 204.11 94.888 202.953C95.2766 201.797 96.5526 200.991 96.5892 199.402C96.6259 197.813 95.4746 195.953 96.3912 194.855C97.3009 193.865 98.2812 192.942 99.3244 192.094C99.3244 192.094 97.4912 186.58 99.0531 185.672C100.615 184.764 104.296 185.284 105.249 185.116C106.203 184.947 107.611 180.297 111.981 180.62C113.211 180.68 114.406 181.046 115.457 181.686C116.509 182.325 117.384 183.217 118.001 184.281C118.473 184.179 118.965 184.255 119.384 184.494C119.802 184.734 120.117 185.119 120.267 185.577C120.522 186.742 120.353 187.959 119.791 189.011Z" fill="white" stroke="black" stroke-width="0.516112" stroke-linecap="round" stroke-linejoin="round"/>
    <path d="M105.264 185.116L108.52 185.855" stroke="black" stroke-width="0.516112" stroke-linecap="round" stroke-linejoin="round"/>
    <path d="M108.74 183.746C108.74 183.746 108.945 185.628 107.325 188.389C105.704 191.149 100.204 197.908 98.1511 199.695" stroke="black" stroke-width="0.516112" stroke-linecap="round" stroke-linejoin="round"/>
    <path d="M99.3684 192.094C100.178 191.272 101.183 190.669 102.29 190.341C103.397 190.013 104.569 189.971 105.697 190.219" stroke="black" stroke-width="0.516112" stroke-linecap="round" stroke-linejoin="round"/>
    <path d="M117.393 185.167C117.393 185.167 112.524 190.93 109.07 194.686C105.616 198.443 101.092 200.925 100.659 203.81" stroke="black" stroke-width="0.516112" stroke-linecap="round" stroke-linejoin="round"/>
    <path d="M113.572 189.846C113.572 189.846 117.503 186.653 119.791 189.019" stroke="black" stroke-width="0.516112" stroke-linecap="round" stroke-linejoin="round"/>
    <path d="M126.779 219.43C126.779 219.43 124.212 213.308 121.514 214.89C118.815 216.471 119.585 223.215 120.861 225.075C122.137 226.935 124.564 225.324 124.564 225.324" fill="white"/>
    <path d="M126.779 219.43C126.779 219.43 124.212 213.308 121.514 214.89C118.815 216.471 119.585 223.215 120.861 225.075C122.137 226.935 124.564 225.324 124.564 225.324" stroke="black" stroke-width="0.516112" stroke-linecap="round" stroke-linejoin="round"/>
    <path d="M109.216 232.91C109.216 232.91 128.7 238.073 129.91 239.64C131.12 241.207 130.841 242.569 130.174 243.484C129.481 244.798 128.904 246.17 128.451 247.585C128.451 247.585 129.382 250.514 128.854 251.693C128.432 252.377 127.815 252.92 127.082 253.251C126.349 253.583 125.534 253.688 124.74 253.553C123.274 253.157 105.902 247.197 105.242 246.801C104.582 246.406 104.311 243.36 105.638 242.408C106.965 241.456 106.298 242.539 106.965 241.478C107.633 240.416 105.506 233.306 109.216 232.91Z" fill="#B2B2B2" stroke="black" stroke-width="0.516112" stroke-linecap="round" stroke-linejoin="round"/>
    <path d="M169.031 290.115C169.031 290.115 178.681 291.36 179.297 291.257C179.913 291.155 183.242 293.637 185.941 295.299C188.639 296.961 189.673 298.301 191.132 299.759C192.592 301.216 194.557 301.955 193.721 302.556C192.885 303.156 192.482 303.178 191.235 302.761C189.989 302.344 188.537 301.831 188.537 301.831C187.633 302.376 186.569 302.596 185.523 302.453C183.794 301.971 182.097 301.382 180.441 300.689C178.843 300.856 177.229 300.75 175.667 300.374C173.695 299.759 169.647 296.024 169.647 296.024L167.256 296.229L166.523 290.737L169.031 290.115Z" fill="white" stroke="black" stroke-width="0.516112" stroke-linecap="round" stroke-linejoin="round"/>
    <path d="M180.844 296.544C181.432 296.872 181.989 297.252 182.509 297.679C184.063 298.821 189.666 299.759 188.529 301.831" stroke="black" stroke-width="0.516112" stroke-linecap="round" stroke-linejoin="round"/>
    <path d="M197.263 297.43C197.263 297.43 197.439 299.099 197.175 299.539C196.911 299.978 195.95 299.978 195.422 298.924C195.063 298.027 194.855 297.077 194.806 296.112L197.263 297.43Z" fill="white" stroke="black" stroke-width="0.516112" stroke-miterlimit="10"/>
    <path d="M195.532 297.225C195.309 297.897 194.969 298.524 194.527 299.078C194.095 299.356 193.23 298.931 193.215 297.752C193.289 296.791 193.522 295.848 193.904 294.962L195.532 297.225Z" fill="white" stroke="black" stroke-width="0.516112" stroke-miterlimit="10"/>
    <path d="M197.175 295.76C197.175 295.76 198.935 297.342 198.759 298.924C198.583 300.505 197.351 300.154 197.006 299.099C196.661 298.045 196.273 296.815 196.273 296.815L197.175 295.76Z" fill="white" stroke="black" stroke-width="0.516112" stroke-miterlimit="10"/>
    <path d="M166.787 283.905C166.787 283.905 176.87 282.053 179.656 282.316C182.443 282.58 190.267 285.89 191.191 286.417C192.115 286.944 197.563 290.81 197.695 291.85C197.72 292.96 197.629 294.069 197.424 295.16C197.424 295.16 200.079 295.695 199.155 296.881C198.231 298.067 196.221 297.811 195.041 297.415C193.86 297.02 189.996 294.486 189.072 294.106C188.148 293.725 184.826 294.501 182.304 293.703C179.781 292.905 175.807 289.199 175.807 289.199L167.564 291.587L166.787 283.905Z" fill="white" stroke="black" stroke-width="0.516112" stroke-miterlimit="10"/>
    <path d="M189.71 287.164C190.81 287.436 191.793 288.052 192.518 288.921C193.985 290.495 197.424 295.16 197.424 295.16C193.633 294.559 190.238 290.935 190.238 290.935" fill="white"/>
    <path d="M189.71 287.164C190.81 287.436 191.793 288.052 192.518 288.921C193.985 290.495 197.424 295.16 197.424 295.16C193.633 294.559 190.238 290.935 190.238 290.935" stroke="black" stroke-width="0.516112" stroke-miterlimit="10"/>
    <path d="M108.952 258.071C108.952 258.071 105.11 265.489 107.229 284.037C109.348 302.585 116.762 313.444 121.022 313.576C125.283 313.708 157.1 304.569 160.29 302.709C163.48 300.849 169.823 299.004 170.234 298.872C170.644 298.741 171.7 294.896 170.769 289.734C170.411 287.454 169.921 285.198 169.302 282.975L156.836 285.23L137.873 288.408C137.937 288.041 137.881 287.662 137.714 287.329C137.546 286.995 137.276 286.724 136.942 286.556C135.704 285.994 134.415 285.55 133.092 285.23C133.092 285.23 129.646 261.798 122.482 255.691" fill="#B2B2B2"/>
    <path d="M108.952 258.071C108.952 258.071 105.11 265.489 107.229 284.037C109.348 302.585 116.762 313.444 121.022 313.576C125.283 313.708 157.1 304.569 160.29 302.709C163.48 300.849 169.823 299.004 170.234 298.872C170.644 298.741 171.7 294.896 170.769 289.734C170.411 287.454 169.921 285.198 169.302 282.975L156.836 285.23L137.873 288.408C137.937 288.041 137.881 287.662 137.714 287.329C137.546 286.995 137.276 286.724 136.942 286.556C135.704 285.994 134.415 285.55 133.092 285.23C133.092 285.23 129.646 261.798 122.482 255.691" stroke="black" stroke-width="0.516112" stroke-linecap="round" stroke-linejoin="round"/>
    <path d="M133.1 285.23C133.1 285.23 122.357 292.377 118.111 293.175" stroke="black" stroke-width="0.516112" stroke-linecap="round" stroke-linejoin="round"/>
    <path d="M119.593 299.437C118.657 300.108 117.677 300.714 116.659 301.253" stroke="black" stroke-width="0.516112" stroke-linecap="round" stroke-linejoin="round"/>
    <path d="M131.765 288.277C128.519 291.862 124.996 295.187 121.228 298.221" stroke="black" stroke-width="0.516112" stroke-linecap="round" stroke-linejoin="round"/>
    <path d="M132.982 298.492C132.549 299.032 132.057 299.523 131.516 299.956" stroke="black" stroke-width="0.516112" stroke-linecap="round" stroke-linejoin="round"/>
    <path d="M137.074 289.602C136.43 292.188 135.42 294.668 134.075 296.969" stroke="black" stroke-width="0.516112" stroke-linecap="round" stroke-linejoin="round"/>
    <path d="M161.273 295.694C161.273 296.427 161.273 297.159 161.214 297.942" stroke="black" stroke-width="0.516112" stroke-linecap="round" stroke-linejoin="round"/>
    <path d="M158.296 285.494C158.296 285.494 160.496 287.288 161.126 293" stroke="black" stroke-width="0.516112" stroke-linecap="round" stroke-linejoin="round"/>
    <path d="M96.6477 331.634H84.7024C84.7024 331.634 76.9588 300.805 80.0753 277.029C80.223 275.924 80.768 274.911 81.6085 274.178C82.4491 273.445 83.5278 273.043 84.6437 273.045C85.2493 273.044 85.8491 273.163 86.4084 273.395C86.9677 273.627 87.4754 273.967 87.9022 274.396C88.3291 274.825 88.6665 275.334 88.8952 275.894C89.1238 276.454 89.239 277.054 89.2341 277.659C89.1755 286.131 89.9528 305.704 96.6477 331.634Z" fill="black" stroke="black" stroke-width="0.516112" stroke-linecap="round" stroke-linejoin="round"/>
    <path d="M0.366699 331.634H346.106" stroke="black" stroke-width="0.516112" stroke-linecap="round" stroke-linejoin="round"/>
    </g>
    <defs>
    <clipPath id="clip0_2049_1790">
    <rect width="350" height="332" fill="white"/>
    </clipPath>
    </defs>
    </svg>
    