<svg width="304" height="202" viewBox="0 0 304 202" fill="none" xmlns="http://www.w3.org/2000/svg">
    <path d="M283.338 66.6869C276.363 51.4379 265.824 38.1419 250.255 30.7103C229.451 20.78 204.793 20.5344 183.211 28.1461C170.9 32.4879 159.983 39.7846 149.373 47.221C139.943 53.8304 129.184 63.926 117.523 66.0607C101.739 68.9501 64.4479 45.5181 36.4799 51.9821C8.51188 58.4461 0.405212 94.8061 7.29588 117.43C14.1865 140.054 40.9385 140.054 50.6665 158.638C60.3945 177.222 95.2532 192.978 138.219 182.474C181.184 171.97 203.477 165.91 226.176 174.394C248.875 182.878 280.085 185.302 290.624 149.749C294.843 135.516 296.072 120.418 294.079 105.704C292.333 92.8116 289.017 79.1018 283.338 66.6869Z" fill="#83A4FF"/>
    <path opacity="0.7" d="M283.338 66.6869C276.363 51.4379 265.824 38.1419 250.255 30.7103C229.451 20.78 204.793 20.5344 183.211 28.1461C170.9 32.4879 159.983 39.7846 149.373 47.221C139.943 53.8304 129.184 63.926 117.523 66.0607C101.739 68.9501 64.4479 45.5181 36.4799 51.9821C8.51188 58.4461 0.405212 94.8061 7.29588 117.43C14.1865 140.054 40.9385 140.054 50.6665 158.638C60.3945 177.222 95.2532 192.978 138.219 182.474C181.184 171.97 203.477 165.91 226.176 174.394C248.875 182.878 280.085 185.302 290.624 149.749C294.843 135.516 296.072 120.418 294.079 105.704C292.333 92.8116 289.017 79.1018 283.338 66.6869Z" fill="white"/>
    <path d="M10.6121 174.071H299.271" stroke="#263238" stroke-miterlimit="10"/>
    <path d="M104.29 35.083L109.255 35.6506L110.286 31.1456L105.659 29.5421C105.599 28.6028 105.403 27.7003 105.088 26.8551L108.505 23.4623L105.615 19.8498L101.597 22.3776C100.808 21.8314 99.9334 21.4003 98.9955 21.1114L98.4779 16.4473H93.8417L93.3216 21.1312C92.3882 21.4258 91.5183 21.8613 90.7348 22.4111L86.7228 19.8873L83.8324 23.4999L87.2692 26.9117C86.9612 27.7548 86.771 28.6541 86.7159 29.5898L82.0923 31.1921L83.1239 35.6971L88.1172 35.1262C88.5711 35.8562 89.1216 36.5196 89.7511 37.0993L88.073 41.8492L92.2499 43.8542L94.964 39.5294C95.3653 39.5811 95.7735 39.6106 96.189 39.6106C96.619 39.6106 97.0418 39.5795 97.4569 39.5241L100.161 43.8332L104.338 41.8282L102.657 37.0707C103.288 36.4869 103.838 35.8187 104.29 35.083ZM91.0412 30.1514C91.0412 27.3173 93.3464 25.0197 96.1898 25.0197C99.0332 25.0197 101.338 27.3173 101.338 30.1514C101.338 32.9854 99.0332 35.283 96.1898 35.283C93.3464 35.283 91.0412 32.9854 91.0412 30.1514Z" stroke="#263238" stroke-miterlimit="10"/>
    <path d="M256.418 104.166L259.616 104.531L260.281 101.629L257.3 100.596C257.261 99.9907 257.135 99.4094 256.931 98.8648L259.133 96.6787L257.271 94.3513L254.682 95.9798C254.174 95.6279 253.611 95.3504 253.007 95.1641L252.673 92.1592H249.686L249.351 95.1771C248.75 95.3669 248.19 95.6473 247.685 96.0016L245.1 94.3755L243.238 96.703L245.452 98.9011C245.253 99.4445 245.131 100.024 245.096 100.627L242.117 101.659L242.782 104.561L245.999 104.194C246.291 104.664 246.646 105.091 247.051 105.465L245.97 108.525L248.661 109.816L250.41 107.03C250.669 107.064 250.932 107.083 251.199 107.083C251.476 107.083 251.748 107.062 252.016 107.027L253.759 109.803L256.45 108.511L255.366 105.446C255.771 105.07 256.126 104.64 256.418 104.166ZM247.882 100.988C247.882 99.1621 249.367 97.6823 251.198 97.6823C253.031 97.6823 254.515 99.1625 254.515 100.988C254.515 102.814 253.03 104.294 251.198 104.294C249.367 104.294 247.882 102.814 247.882 100.988Z" stroke="#263238" stroke-miterlimit="10"/>
    <path d="M285.353 36.9255L287.361 37.1549L287.778 35.3333L285.907 34.6849C285.882 34.3051 285.803 33.9403 285.676 33.5985L287.058 32.2265L285.889 30.7657L284.264 31.7878C283.945 31.5668 283.591 31.3927 283.212 31.2759L283.002 29.3896H281.128L280.917 31.284C280.54 31.4032 280.188 31.5793 279.871 31.8015L278.249 30.781L277.08 32.2419L278.47 33.6215C278.345 33.9625 278.268 34.3261 278.246 34.7047L276.376 35.3527L276.793 37.1743L278.812 36.9436C278.996 37.2386 279.219 37.5072 279.473 37.7415L278.795 39.6622L280.484 40.473L281.581 38.7241C281.743 38.7451 281.909 38.7568 282.077 38.7568C282.25 38.7568 282.422 38.7443 282.589 38.7216L283.683 40.4641L285.372 39.6533L284.692 37.7294C284.948 37.4931 285.17 37.2228 285.353 36.9255ZM279.995 34.9309C279.995 33.7848 280.927 32.8556 282.077 32.8556C283.227 32.8556 284.16 33.7848 284.16 34.9309C284.16 36.0771 283.227 37.0063 282.077 37.0063C280.927 37.0063 279.995 36.0771 279.995 34.9309Z" stroke="#263238" stroke-miterlimit="10"/>
    <path d="M37.4476 121.332L39.4556 121.562L39.8727 119.74L38.0013 119.092C37.977 118.712 37.8975 118.347 37.7703 118.005L39.1525 116.633L37.9835 115.172L36.3585 116.195C36.0395 115.974 35.686 115.799 35.3067 115.683L35.0971 113.796H33.2224L33.0121 115.691C32.6347 115.81 32.2829 115.986 31.9659 116.208L30.3433 115.188L29.1744 116.649L30.5643 118.028C30.4394 118.369 30.3628 118.733 30.3405 119.111L28.4707 119.759L28.8878 121.581L30.9072 121.35C31.0908 121.645 31.3133 121.914 31.5679 122.148L30.8893 124.069L32.5784 124.88L33.676 123.131C33.8381 123.152 34.0035 123.164 34.1713 123.164C34.3452 123.164 34.5163 123.151 34.6841 123.128L35.7776 124.871L37.4667 124.06L36.7869 122.136C37.0423 121.9 37.2648 121.63 37.4476 121.332ZM32.0899 119.338C32.0899 118.192 33.0222 117.262 34.1721 117.262C35.3221 117.262 36.2543 118.192 36.2543 119.338C36.2543 120.484 35.3221 121.413 34.1721 121.413C33.0222 121.413 32.0899 120.484 32.0899 119.338Z" stroke="#263238" stroke-miterlimit="10"/>
    <path d="M263.853 38.4541H233.566V69.5298H263.853V38.4541Z" stroke="#263238" stroke-miterlimit="10"/>
    <path d="M263.853 38.4541H233.566V41.3811H263.853V38.4541Z" fill="#83A4FF" stroke="#263238" stroke-miterlimit="10"/>
    <path d="M238.201 52.5098H235.109V55.5911H238.201V52.5098Z" stroke="#263238" stroke-miterlimit="10"/>
    <path d="M242.967 52.5098H239.876V55.5911H242.967V52.5098Z" stroke="#263238" stroke-miterlimit="10"/>
    <path d="M247.733 52.5098H244.642V55.5911H247.733V52.5098Z" stroke="#263238" stroke-miterlimit="10"/>
    <path d="M252.499 52.5098H249.407V55.5911H252.499V52.5098Z" stroke="#263238" stroke-miterlimit="10"/>
    <path d="M257.265 52.5098H254.174V55.5911H257.265V52.5098Z" stroke="#263238" stroke-miterlimit="10"/>
    <path d="M262.031 52.5098H258.94V55.5911H262.031V52.5098Z" stroke="#263238" stroke-miterlimit="10"/>
    <path d="M238.201 57.2783H235.109V60.3596H238.201V57.2783Z" stroke="#263238" stroke-miterlimit="10"/>
    <path d="M242.967 57.2783H239.876V60.3596H242.967V57.2783Z" fill="#83A4FF" stroke="#263238" stroke-miterlimit="10"/>
    <path d="M247.733 57.2783H244.642V60.3596H247.733V57.2783Z" stroke="#263238" stroke-miterlimit="10"/>
    <path d="M252.499 57.2783H249.407V60.3596H252.499V57.2783Z" stroke="#263238" stroke-miterlimit="10"/>
    <path d="M257.265 57.2783H254.174V60.3596H257.265V57.2783Z" stroke="#263238" stroke-miterlimit="10"/>
    <path d="M262.031 57.2783H258.94V60.3596H262.031V57.2783Z" stroke="#263238" stroke-miterlimit="10"/>
    <path d="M238.201 62.0469H235.109V65.1282H238.201V62.0469Z" stroke="#263238" stroke-miterlimit="10"/>
    <path d="M242.967 62.0469H239.876V65.1282H242.967V62.0469Z" stroke="#263238" stroke-miterlimit="10"/>
    <path d="M247.733 62.0469H244.642V65.1282H247.733V62.0469Z" stroke="#263238" stroke-miterlimit="10"/>
    <path d="M252.499 62.0469H249.407V65.1282H252.499V62.0469Z" fill="#83A4FF" stroke="#263238" stroke-miterlimit="10"/>
    <path d="M257.265 62.0469H254.174V65.1282H257.265V62.0469Z" stroke="#263238" stroke-miterlimit="10"/>
    <path d="M262.031 62.0469H258.94V65.1282H262.031V62.0469Z" stroke="#263238" stroke-miterlimit="10"/>
    <path d="M262.344 43.7061H235.109V49.722H262.344V43.7061Z" stroke="#263238" stroke-miterlimit="10"/>
    <path d="M250.516 63.1405L251.246 64.0014L253.438 60.7573" stroke="#263238" stroke-miterlimit="10"/>
    <path d="M240.818 58.2411L241.482 59.3004L244.006 56.3213" stroke="#263238" stroke-miterlimit="10"/>
    <path d="M233.416 174.47L236.133 146.813L238.252 147.277L234.415 174.47H233.416Z" fill="white" stroke="#263238" stroke-miterlimit="10"/>
    <path d="M264.789 174.47L260.952 147.277L263.072 146.813L265.788 174.47H264.789Z" fill="white" stroke="#263238" stroke-miterlimit="10"/>
    <path d="M262.445 150.152L263.808 117.812C263.89 115.886 262.345 114.281 260.411 114.281H237.677C235.695 114.281 234.133 115.963 234.287 117.933L236.803 150.152H262.445Z" fill="#B5B5B5" stroke="#263238" stroke-miterlimit="10"/>
    <path d="M234.648 150.152H264.819V143.064H234.648V150.152Z" fill="#B5B5B5" stroke="#263238" stroke-miterlimit="10"/>
    <path d="M262.445 150.152H264.729L266.328 136.836C266.328 135.768 265.459 134.901 264.386 134.901C263.314 134.901 262.445 135.768 262.445 136.836V150.152Z" fill="#B5B5B5" stroke="#263238" stroke-miterlimit="10"/>
    <path d="M236.803 150.152H234.52L232.921 136.836C232.921 135.768 233.79 134.901 234.862 134.901C235.934 134.901 236.803 135.768 236.803 136.836V150.152Z" fill="#B5B5B5" stroke="#263238" stroke-miterlimit="10"/>
    <path d="M265.895 127.335H287.023V115.839C287.023 115.281 286.569 114.829 286.01 114.829H266.908C266.349 114.829 265.895 115.281 265.895 115.839V127.335Z" fill="white" stroke="#263238" stroke-miterlimit="10"/>
    <path d="M219.32 174.47L221.83 130.844H223.974L220.296 174.47H219.32Z" fill="white" stroke="#263238" stroke-miterlimit="10"/>
    <path d="M211.432 174.47L213.943 130.844H216.09L212.412 174.47H211.432Z" fill="white" stroke="#263238" stroke-miterlimit="10"/>
    <path d="M281.007 174.47L277.878 130.844H280.018L281.976 174.47H281.007Z" fill="white" stroke="#263238" stroke-miterlimit="10"/>
    <path d="M289.83 174.47L286.702 130.844H288.837L290.796 174.47H289.83Z" fill="white" stroke="#263238" stroke-miterlimit="10"/>
    <path d="M211.194 132.199H290.236V128.383H211.194V132.199Z" fill="white" stroke="#263238" stroke-miterlimit="10"/>
    <path d="M211.194 129.691H290.236V128.382H211.194V129.691Z" fill="#263238" stroke="#263238" stroke-miterlimit="10"/>
    <path d="M210.006 128.567H291.425V127.113L210.006 127.113V128.567Z" fill="white" stroke="#263238" stroke-miterlimit="10"/>
    <g opacity="0.2">
    <path d="M51.1344 90.0545C52.5645 89.038 54.5113 85.625 54.5129 85.6222C54.5332 85.5866 51.8665 85.0263 51.6942 85.0097C49.6996 84.8239 45.7358 85.6323 44.8514 87.6874C44.2146 89.1681 45.1323 90.7502 46.6117 91.2127C48.1232 91.6862 49.916 90.9207 51.1344 90.0545Z" fill="black"/>
    <path d="M72.3354 56.4365C72.3719 56.4183 70.4579 54.4843 70.3233 54.3761C68.7628 53.1241 65.009 51.6192 63.1339 52.8473C61.7834 53.7317 61.6731 55.5561 62.6512 56.7556C63.6499 57.981 65.5696 58.3284 67.0649 58.2759C68.8204 58.2141 72.333 56.4377 72.3354 56.4365Z" fill="black"/>
    <path d="M66.1289 39.0798C64.7771 40.8647 66.0385 44.6958 67.1901 46.33C67.2898 46.471 69.1008 48.5011 69.1215 48.4655C69.1215 48.4655 69.1409 48.4328 69.1454 48.4247C69.3396 49.0311 69.5552 49.6791 69.8049 50.3821C70.2763 51.6769 70.821 53.1358 71.5215 54.6835C72.217 56.232 73.0167 57.8953 74.0175 59.5711C75.0183 61.2521 76.1573 62.9695 77.5605 64.5879C77.5763 64.6065 77.5954 64.6235 77.6112 64.6417C77.0535 64.2954 75.4609 63.3792 75.3308 63.3226C73.4938 62.5259 69.4749 62.0621 67.9918 63.7399C66.9238 64.9491 67.3003 66.7372 68.5613 67.6369C69.8495 68.5556 71.7926 68.3855 73.221 67.9415C74.8318 67.441 77.5601 65.0109 77.777 64.8166C79.1275 66.3457 80.6382 67.805 82.2482 69.1988C83.1679 69.9963 84.1192 70.7712 85.0827 71.5359C84.5906 71.2519 84.1484 71.0018 84.0831 70.9736C82.2462 70.1769 78.2273 69.7131 76.7442 71.3909C75.6757 72.5997 76.0527 74.3882 77.3137 75.2879C78.6014 76.2066 80.545 76.0365 81.9734 75.5925C83.4229 75.142 85.7904 73.1168 86.4098 72.5726C86.7827 72.8619 87.1515 73.1552 87.5256 73.4432C89.3188 74.8261 91.1153 76.1981 92.8351 77.5975C93.4415 78.0904 94.0203 78.5983 94.6015 79.1041C94.1642 78.8524 93.7937 78.6439 93.7341 78.6181C91.8972 77.8214 87.8783 77.3576 86.3952 79.0354C85.3267 80.2441 85.7037 82.0327 86.9651 82.9324C88.2524 83.8511 90.1964 83.681 91.6248 83.237C93.0078 82.8071 95.2104 80.9572 95.9493 80.314C96.5285 80.8502 97.1098 81.3855 97.6472 81.9309C98.0055 82.3118 98.3772 82.6532 98.7157 83.0552C99.0594 83.4467 99.3999 83.8337 99.7367 84.2175C100.358 84.9798 101.005 85.7628 101.592 86.5219C102.005 87.0463 102.389 87.5541 102.777 88.0644C102.179 87.5667 100.988 86.6168 100.879 86.549C99.7533 85.8412 97.6545 85.1378 95.8666 85.1637C95.7008 85.0582 95.5269 84.9673 95.3437 84.8946C93.904 84.3213 92.1894 84.9693 91.7439 86.5179C91.1258 88.6671 93.6843 91.7913 95.3482 92.9035C95.4463 92.9689 96.5909 93.562 97.3193 93.9248C96.8584 93.7765 96.413 93.6275 95.9371 93.4812C94.9976 93.1847 94.0515 92.9164 93.0341 92.6239C92.5384 92.4999 92.037 92.3747 91.5311 92.2486C91.0322 92.1125 90.4874 92.0321 89.9609 91.9197C88.7347 91.6866 87.4811 91.5093 86.2136 91.3586C86.4718 90.5381 87.3481 87.6111 87.175 86.1228C87.0032 84.6417 86.3713 82.8019 85.0065 82.0007C83.6705 81.2166 81.8773 81.5976 81.2016 83.0612C80.2637 85.0926 82.3183 88.5669 83.7937 89.9171C83.8857 90.0016 85.0535 90.852 85.7045 91.3065C84.9416 91.222 84.1812 91.1336 83.4075 91.073C81.1729 90.8976 78.9058 90.7894 76.6441 90.6718C75.9514 90.6362 75.2619 90.5922 74.5708 90.551C74.666 90.2601 75.7823 86.8031 75.589 85.1366C75.4171 83.6551 74.7852 81.8153 73.4208 81.0142C72.0845 80.23 70.2913 80.6114 69.616 82.0751C68.6785 84.1064 70.7327 87.5808 72.2081 88.9314C72.3196 89.0332 74.0017 90.2545 74.4451 90.5441C72.9239 90.4524 71.4092 90.3474 69.92 90.183C67.8645 89.9591 65.8606 89.6262 63.9433 89.1608C63.9879 89.0255 65.1695 85.423 64.9717 83.7157C64.8002 82.2343 64.1679 80.3944 62.8035 79.5937C61.4676 78.8091 59.674 79.1909 58.9987 80.6542C58.0607 82.6859 60.1154 86.1595 61.5908 87.5101C61.6877 87.599 62.9693 88.5314 63.5887 88.96C63.5591 89.0239 63.5644 89.0122 63.5352 89.0756C61.4866 88.552 59.5686 87.788 57.8086 86.9845C56.7884 86.5211 55.8391 86.0214 54.9267 85.5143C55.2161 84.8659 56.5043 81.8876 56.4962 80.3314C56.4889 78.8403 56.0633 76.9423 54.7954 75.9969C53.5538 75.0713 51.729 75.2539 50.8965 76.6348C49.7409 78.5514 51.3999 82.229 52.7176 83.7331C52.7894 83.8147 53.6102 84.5657 54.2158 85.1047C53.8076 84.8695 53.382 84.6344 52.9949 84.4013C51.541 83.5303 50.2633 82.6431 49.1381 81.8484C48.5018 81.3915 47.9359 80.9653 47.4102 80.5617C47.3608 79.7775 47.122 76.6211 46.4086 75.2685C45.7127 73.9486 44.4574 72.4595 42.8952 72.2029C41.3651 71.9516 39.8305 72.952 39.7295 74.5595C39.5901 76.7912 42.7627 79.2935 44.6276 80.0232C44.7889 80.0862 47.4228 80.7835 47.4207 80.7423C47.4207 80.7423 47.4187 80.7043 47.4179 80.695C47.9157 81.0938 48.4543 81.5155 49.0514 81.9648C50.1612 82.7857 51.423 83.7028 52.864 84.609C54.3013 85.518 55.8886 86.4653 57.651 87.3129C59.4162 88.1646 61.3168 88.9714 63.3828 89.5495C63.4063 89.556 63.4314 89.5596 63.4545 89.5665C62.7975 89.5842 60.9621 89.6957 60.8223 89.7204C58.8491 90.0658 55.2404 91.889 54.932 94.1038C54.7099 95.6996 56.0142 96.9839 57.5642 97.0413C59.1466 97.099 60.6735 95.8886 61.6192 94.7332C62.6856 93.4299 63.6162 89.9026 63.6892 89.6218C65.662 90.1547 67.73 90.5413 69.8438 90.818C71.0525 90.9776 72.2746 91.1012 73.5015 91.2091C72.934 91.2426 72.427 91.2774 72.3564 91.2895C70.3833 91.6349 66.7746 93.4586 66.4661 95.6729C66.244 97.2687 67.5484 98.553 69.098 98.61C70.6808 98.6686 72.2077 97.4578 73.1533 96.3019C74.1128 95.1291 74.9668 92.1379 75.182 91.3436C75.653 91.38 76.1232 91.422 76.5946 91.4568C78.856 91.6236 81.1133 91.7808 83.3223 92.0022C84.1014 92.0797 84.8646 92.1848 85.6299 92.2874C85.1257 92.3181 84.7013 92.348 84.6372 92.3589C82.6641 92.7043 79.0554 94.5272 78.7469 96.7423C78.5248 98.3381 79.8292 99.6224 81.3792 99.6794C82.9616 99.7375 84.4885 98.5272 85.4341 97.3713C86.3498 96.2522 87.1629 93.4986 87.4235 92.5556C88.2034 92.6841 88.9848 92.811 89.7347 92.9706C90.2442 93.0909 90.7436 93.1713 91.2486 93.3208C91.7521 93.4582 92.2498 93.5939 92.7435 93.7289C93.6839 94.023 94.6563 94.3203 95.5666 94.6306C96.2014 94.8411 96.8025 95.054 97.4085 95.2661C96.6343 95.1796 95.1151 95.0427 94.987 95.0455C92.9843 95.0887 89.1401 96.346 88.4984 98.4888C88.0368 100.032 89.1304 101.499 90.6536 101.789C92.2093 102.086 93.9023 101.12 95.013 100.12C96.235 99.0192 97.6492 95.8111 97.8231 95.4091C98.8247 95.7638 99.7955 96.1185 100.706 96.468C103.836 97.6598 106.4 98.7708 108.194 99.578L108.975 98.2775C108.934 98.2597 108.897 98.244 108.855 98.2258C107.02 97.4469 104.385 96.371 101.168 95.2253C100.152 94.8609 99.0598 94.492 97.9342 94.1232C97.9796 93.8456 98.2273 92.2656 98.2722 90.7615C99.9288 90.4161 102.689 88.6449 103.043 88.4138C103.682 89.2606 104.296 90.09 104.862 90.8819C106.813 93.5967 108.337 95.9335 109.386 97.5931L110.244 96.1658C109.173 94.5692 107.724 92.4789 105.935 90.0993C105.29 89.2368 104.583 88.3282 103.848 87.4022C104.141 87.0867 106.516 84.4926 107.031 82.9303C107.497 81.5135 107.697 79.5792 106.794 78.2819C105.911 77.0117 104.122 76.6094 102.893 77.6565C101.188 79.1093 101.593 83.1218 102.365 84.9641C102.411 85.0728 103.037 86.1967 103.444 86.9001C103.142 86.5231 102.853 86.1539 102.537 85.7701C101.918 85.0061 101.277 84.2619 100.591 83.4588C100.246 83.0827 99.8968 82.7025 99.5446 82.3191C99.2037 81.9313 98.7939 81.5644 98.4165 81.1814C97.5232 80.3128 96.5755 79.4753 95.6019 78.6528C96.2719 78.1106 98.6225 76.1508 99.3022 74.8144C99.9787 73.4844 100.47 71.6026 99.7752 70.1841C99.0947 68.7952 97.3882 68.1274 96.0145 68.9766C94.1083 70.1555 93.8987 74.1825 94.3819 76.1205C94.4119 76.2413 94.9153 77.5931 95.2063 78.33C94.6174 77.8399 94.0321 77.3483 93.4196 76.8724C91.6532 75.4976 89.8219 74.1607 88.0007 72.819C87.4425 72.4086 86.8917 71.9925 86.3384 71.5779C86.5788 71.3877 89.4234 69.1184 90.1846 67.622C90.8615 66.292 91.3524 64.4102 90.6577 62.9913C89.9771 61.6028 88.2706 60.935 86.897 61.7842C84.9907 62.9627 84.7807 66.9901 85.2643 68.9277C85.3008 69.0736 86.0279 71.0176 86.2371 71.5028C85.0191 70.5902 83.8136 69.669 82.6629 68.7136C81.0723 67.3965 79.5852 66.0173 78.2435 64.5746C78.3558 64.4861 81.3354 62.1312 82.1153 60.5984C82.7922 59.2681 83.283 57.3862 82.5883 55.9678C81.9081 54.5788 80.2013 53.911 78.8276 54.7602C76.9209 55.9391 76.7118 59.9662 77.1949 61.9038C77.2265 62.031 77.779 63.5121 78.0583 64.2106C77.9983 64.2474 78.0092 64.2409 77.9492 64.2777C76.5306 62.715 75.3539 61.023 74.3308 59.3856C73.7362 58.4378 73.2214 57.4994 72.7407 56.5746C73.3406 56.1928 76.0636 54.4172 76.9185 53.1151C77.7377 51.8668 78.4332 50.0504 77.899 48.5645C77.3757 47.1093 75.7527 46.2589 74.2939 46.9525C72.2693 47.9153 71.6175 51.8955 71.8838 53.8743C71.8984 53.9821 72.1672 55.0596 72.3743 55.8417C72.1639 55.4212 71.939 54.9909 71.7452 54.5841C71.0144 53.0582 70.4396 51.6159 69.9411 50.334C69.6634 49.6028 69.4271 48.9366 69.2123 48.3108C69.605 47.6296 71.1526 44.8659 71.3066 43.3452C71.4566 41.8613 71.2341 39.9298 70.0728 38.8564C68.9362 37.8035 67.1025 37.7943 66.1289 39.0798Z" fill="black"/>
    </g>
    <g opacity="0.2">
    <path d="M150.384 30.0881C151.513 31.4298 155.079 33.0979 155.081 33.0991C155.118 33.1165 155.471 30.423 155.474 30.2505C155.504 28.2539 154.386 24.3784 152.261 23.6601C150.731 23.1429 149.219 24.1784 148.872 25.6845C148.517 27.2229 149.423 28.9452 150.384 30.0881Z" fill="black"/>
    <path d="M185.666 48.5306C185.687 48.5653 187.472 46.5126 187.57 46.3704C188.7 44.722 189.912 40.8743 188.538 39.1073C187.547 37.8342 185.714 37.867 184.591 38.9323C183.443 40.0203 183.246 41.955 183.415 43.4365C183.613 45.1765 185.664 48.5281 185.666 48.5306Z" fill="black"/>
    <path d="M202.542 41.0079C200.651 39.8043 196.918 41.3565 195.373 42.6283C195.239 42.7386 193.35 44.6964 193.387 44.7142C193.387 44.7142 193.422 44.7307 193.43 44.7348C192.839 44.9751 192.208 45.2402 191.524 45.5432C190.266 46.1128 188.849 46.7681 187.355 47.5846C185.861 48.3966 184.26 49.321 182.662 50.4465C181.058 51.5725 179.429 52.8382 177.92 54.3589C177.903 54.3758 177.887 54.396 177.87 54.4134C178.173 53.832 178.965 52.1781 179.012 52.0443C179.665 50.1568 179.815 46.1269 178.021 44.7845C176.729 43.8173 174.969 44.3316 174.168 45.6547C173.349 47.0061 173.671 48.9238 174.227 50.3088C174.854 51.8702 177.497 54.3916 177.708 54.5916C176.284 56.0528 174.942 57.6676 173.675 59.3765C172.949 60.3526 172.248 61.3586 171.558 62.3758C171.803 61.8648 172.019 61.4058 172.042 61.3384C172.696 59.4509 172.846 55.421 171.052 54.0785C169.759 53.1113 168 53.6256 167.198 54.9487C166.38 56.3001 166.702 58.2179 167.258 59.6028C167.821 61.0079 170.032 63.2024 170.625 63.7753C170.364 64.1684 170.1 64.5578 169.841 64.9517C168.598 66.8416 167.365 68.7336 166.1 70.5516C165.655 71.1927 165.192 71.8076 164.731 72.4245C164.949 71.9704 165.128 71.5858 165.15 71.5248C165.803 69.6373 165.953 65.6074 164.159 64.2649C162.867 63.2974 161.107 63.8116 160.305 65.1356C159.487 66.4865 159.809 68.4047 160.365 69.7892C160.902 71.1301 162.925 73.1739 163.626 73.8583C163.135 74.4756 162.645 75.0954 162.141 75.6719C161.788 76.0577 161.476 76.4536 161.1 76.8217C160.735 77.1937 160.374 77.5622 160.017 77.927C159.303 78.6041 158.571 79.3075 157.857 79.9506C157.365 80.4019 156.887 80.8225 156.407 81.2479C156.858 80.6152 157.715 79.3576 157.774 79.2444C158.394 78.0704 158.934 75.9296 158.769 74.1553C158.861 73.9823 158.939 73.8022 158.997 73.6147C159.458 72.1393 158.676 70.4861 157.092 70.1645C154.894 69.7181 151.969 72.5045 150.987 74.2445C150.929 74.3472 150.425 75.5309 150.119 76.2831C150.232 75.8137 150.346 75.3596 150.455 74.8748C150.679 73.9181 150.873 72.957 151.086 71.9236C151.172 71.421 151.258 70.9132 151.345 70.4005C151.442 69.8939 151.48 69.3464 151.551 68.8148C151.688 67.5781 151.768 66.3185 151.82 65.0475C152.661 65.2402 155.657 65.8821 157.132 65.5941C158.6 65.3077 160.391 64.536 161.086 63.1176C161.766 61.7286 161.245 59.9769 159.728 59.4198C157.623 58.6465 154.308 60.959 153.073 62.531C152.996 62.6287 152.236 63.8561 151.832 64.538C151.857 63.7737 151.886 63.0109 151.886 62.2373C151.887 60.0031 151.818 57.7419 151.76 55.4856C151.741 54.7944 151.732 54.1059 151.719 53.4159C152.017 53.4878 155.562 54.3273 157.214 54.0049C158.683 53.7185 160.474 52.9469 161.168 51.5284C161.848 50.1395 161.327 48.3873 159.81 47.8302C157.705 47.057 154.391 49.3699 153.155 50.941C153.062 51.0594 151.972 52.8265 151.717 53.2895C151.69 51.7708 151.677 50.2574 151.725 48.7647C151.789 46.7051 151.965 44.6875 152.281 42.7459C152.42 42.7794 156.115 43.6722 157.808 43.3426C159.276 43.0561 161.067 42.2849 161.761 40.8661C162.442 39.4771 161.92 37.725 160.403 37.1678C158.298 36.3946 154.984 38.7075 153.748 40.2786C153.667 40.3821 152.834 41.7282 152.454 42.3774C152.388 42.3532 152.4 42.3576 152.334 42.3334C152.698 40.2568 153.313 38.2914 153.979 36.4794C154.363 35.4294 154.788 34.4473 155.225 33.5007C155.896 33.7375 158.975 34.785 160.531 34.6558C162.022 34.5317 163.887 33.9609 164.734 32.6273C165.563 31.3212 165.238 29.5225 163.792 28.803C161.784 27.8043 158.235 29.7399 156.834 31.1668C156.758 31.2444 156.07 32.1187 155.579 32.7622C155.782 32.3384 155.984 31.8969 156.187 31.4945C156.944 29.9819 157.732 28.643 158.439 27.463C158.847 26.7951 159.228 26.1992 159.592 25.6454C160.372 25.5351 163.51 25.0515 164.808 24.237C166.074 23.4423 167.465 22.0788 167.6 20.5065C167.732 18.9664 166.612 17.5197 164.996 17.5448C162.752 17.5803 160.497 20.9283 159.913 22.8384C159.863 23.0036 159.371 25.6753 159.412 25.67C159.412 25.67 159.45 25.6647 159.459 25.6635C159.099 26.1891 158.719 26.7572 158.316 27.3862C157.582 28.5529 156.763 29.8785 155.969 31.3809C155.172 32.8802 154.348 34.5313 153.638 36.3485C152.924 38.1694 152.266 40.1207 151.849 42.2191C151.844 42.2429 151.842 42.2679 151.837 42.2918C151.768 41.6405 151.513 39.8254 151.478 39.688C150.979 37.7544 148.873 34.3108 146.634 34.1774C145.02 34.0813 143.838 35.4775 143.902 37.0224C143.967 38.5996 145.297 40.0221 146.527 40.8717C147.914 41.8296 151.515 42.4792 151.801 42.5297C151.422 44.5316 151.197 46.6166 151.085 48.7388C151.02 49.952 150.992 51.1765 150.979 52.4039C150.901 51.8427 150.827 51.3414 150.809 51.2723C150.309 49.3383 148.204 45.8951 145.965 45.7617C144.351 45.6656 143.168 47.0618 143.232 48.6063C143.298 50.1835 144.628 51.606 145.858 52.4556C147.106 53.3173 150.164 53.9326 150.976 54.0845C150.976 54.5556 150.971 55.0259 150.973 55.4969C150.983 57.7569 151.002 60.012 150.953 62.2247C150.936 63.0049 150.89 63.7716 150.848 64.5396C150.778 64.0411 150.715 63.6218 150.699 63.5587C150.199 61.6252 148.094 58.1815 145.854 58.0482C144.241 57.952 143.058 59.3487 143.122 60.8931C143.188 62.4704 144.517 63.8928 145.747 64.7421C146.938 65.5646 149.756 66.1577 150.72 66.3427C150.652 67.1277 150.586 67.9139 150.485 68.6718C150.404 69.1877 150.363 69.6898 150.253 70.2033C150.155 70.714 150.058 71.2198 149.961 71.7204C149.74 72.6778 149.519 73.6672 149.28 74.596C149.119 75.2432 148.953 75.8569 148.788 76.4758C148.814 75.6997 148.833 74.1799 148.82 74.0526C148.62 72.0662 147.063 68.3441 144.869 67.8743C143.289 67.5361 141.907 68.7372 141.736 70.2736C141.561 71.8424 142.66 73.4495 143.746 74.4748C144.942 75.6036 148.262 76.7578 148.678 76.8996C148.401 77.9226 148.122 78.9148 147.844 79.8468C146.896 83.0501 145.985 85.685 145.318 87.5305L146.679 88.2052C146.694 88.1628 146.707 88.1248 146.721 88.0815C147.357 86.1973 148.228 83.4949 149.122 80.2088C149.408 79.1713 149.691 78.0567 149.972 76.9097C150.253 76.9332 151.853 77.056 153.361 76.9833C153.836 78.6025 155.823 81.2067 156.082 81.5408C155.285 82.2417 154.503 82.916 153.755 83.5406C151.192 85.6911 148.973 87.3879 147.396 88.5603L148.89 89.3008C150.403 88.1123 152.381 86.5096 154.621 84.5457C155.434 83.8371 156.287 83.0639 157.156 82.2611C157.495 82.5274 160.275 84.6851 161.878 85.0746C163.332 85.4277 165.282 85.4749 166.509 84.4771C167.71 83.4998 167.973 81.6915 166.83 80.5522C165.244 78.9713 161.262 79.6868 159.479 80.5978C159.374 80.6516 158.298 81.3618 157.627 81.8212C157.98 81.4915 158.327 81.1756 158.686 80.8314C159.402 80.1563 160.097 79.4614 160.846 78.7168C161.196 78.3447 161.549 77.9686 161.904 77.5884C162.266 77.2196 162.601 76.7837 162.954 76.3789C163.753 75.4234 164.517 74.4162 165.263 73.3844C165.858 74.0078 168.002 76.1906 169.391 76.7615C170.774 77.3299 172.695 77.6713 174.06 76.8701C175.396 76.0856 175.931 74.3375 174.974 73.039C173.646 71.2368 169.601 71.343 167.701 71.9745C167.582 72.0137 166.269 72.6197 165.555 72.9663C165.999 72.3425 166.445 71.7228 166.873 71.0772C168.111 69.2143 169.305 67.2905 170.505 65.3763C170.872 64.7897 171.245 64.21 171.616 63.6278C171.825 63.8516 174.317 66.5011 175.873 67.1406C177.256 67.7094 179.177 68.0504 180.542 67.2493C181.878 66.4647 182.413 64.7166 181.456 63.4181C180.128 61.6159 176.083 61.7217 174.183 62.3532C174.04 62.4009 172.152 63.2751 171.684 63.5212C172.501 62.2397 173.328 60.9699 174.195 59.7518C175.388 58.0688 176.651 56.4831 177.99 55.0372C178.087 55.1418 180.675 57.9185 182.269 58.5738C183.653 59.1422 185.573 59.4836 186.938 58.6821C188.274 57.8979 188.808 56.1498 187.852 54.8509C186.524 53.0483 182.48 53.1549 180.579 53.7864C180.454 53.8276 179.016 54.4926 178.339 54.8247C178.297 54.7677 178.305 54.7782 178.263 54.7216C179.716 53.1901 181.316 51.8888 182.874 50.7443C183.775 50.0797 184.674 49.4947 185.561 48.9448C185.99 49.5113 187.979 52.0783 189.348 52.8261C190.66 53.5424 192.531 54.0918 193.976 53.4454C195.391 52.8119 196.115 51.1325 195.307 49.7375C194.186 47.8007 190.154 47.4638 188.196 47.8831C188.089 47.9062 187.032 48.2572 186.266 48.5239C186.67 48.2819 187.083 48.0249 187.474 47.8007C188.944 46.9556 190.341 46.272 191.585 45.6765C192.294 45.3436 192.942 45.0567 193.552 44.7946C194.263 45.1315 197.149 46.4538 198.682 46.4881C200.178 46.5212 202.093 46.1492 203.076 44.9117C204.038 43.6981 203.904 41.8752 202.542 41.0079Z" fill="black"/>
    </g>
    <g opacity="0.2">
    <path d="M114.222 163.211C113.124 161.845 109.596 160.098 109.593 160.097C109.556 160.079 109.144 162.764 109.138 162.937C109.063 164.932 110.095 168.831 112.203 169.597C113.721 170.148 115.255 169.146 115.636 167.647C116.025 166.117 115.158 164.375 114.222 163.211Z" fill="black"/>
    <path d="M79.3594 143.994C79.3391 143.958 77.509 145.971 77.4081 146.111C76.2411 147.734 74.9437 151.554 76.2788 153.351C77.2403 154.646 79.074 154.654 80.2207 153.613C81.3921 152.551 81.6329 150.621 81.4971 149.136C81.337 147.392 79.361 143.996 79.3594 143.994Z" fill="black"/>
    <path d="M62.32 151.141C64.1833 152.386 67.9509 150.917 69.5232 149.679C69.659 149.572 71.5912 147.656 71.5543 147.638C71.5543 147.638 71.5203 147.62 71.5117 147.616C72.1084 147.389 72.7456 147.138 73.4359 146.85C74.7066 146.309 76.1374 145.685 77.6489 144.901C79.1612 144.123 80.7825 143.234 82.4051 142.144C84.0333 141.054 85.6899 139.824 87.2326 138.338C87.25 138.321 87.2662 138.301 87.2837 138.284C86.9683 138.859 86.1394 140.495 86.09 140.628C85.3944 142.5 85.1549 146.526 86.9185 147.908C88.1892 148.903 89.9597 148.428 90.7902 147.123C91.6382 145.789 91.3593 143.865 90.8348 142.469C90.243 140.894 87.6562 138.314 87.4494 138.11C88.9054 136.68 90.2831 135.096 91.5891 133.415C92.3366 132.455 93.0597 131.465 93.7718 130.464C93.5149 130.969 93.2891 131.423 93.2644 131.49C92.5688 133.363 92.3293 137.388 94.0929 138.77C95.3636 139.766 97.1341 139.291 97.9646 137.986C98.813 136.653 98.5341 134.728 98.0092 133.331C97.477 131.914 95.3158 129.671 94.7357 129.085C95.0049 128.698 95.2781 128.314 95.5456 127.926C96.8305 126.064 98.1044 124.2 99.41 122.41C99.8697 121.779 100.346 121.175 100.82 120.568C100.593 121.017 100.404 121.398 100.382 121.459C99.6865 123.331 99.4469 127.357 101.211 128.739C102.481 129.735 104.252 129.259 105.082 127.954C105.93 126.621 105.651 124.696 105.127 123.3C104.619 121.947 102.643 119.859 101.957 119.159C102.461 118.553 102.965 117.945 103.482 117.379C103.843 117.002 104.165 116.613 104.548 116.253C104.921 115.889 105.29 115.529 105.655 115.172C106.385 114.511 107.132 113.824 107.86 113.196C108.363 112.756 108.849 112.346 109.339 111.931C108.874 112.554 107.989 113.793 107.927 113.904C107.281 115.064 106.694 117.192 106.82 118.97C106.723 119.141 106.642 119.319 106.58 119.506C106.086 120.971 106.831 122.641 108.407 122.997C110.594 123.492 113.581 120.771 114.602 119.053C114.662 118.952 115.192 117.779 115.515 117.034C115.392 117.501 115.267 117.953 115.147 118.435C114.903 119.386 114.687 120.343 114.451 121.371C114.355 121.872 114.257 122.378 114.159 122.888C114.051 123.393 114.001 123.939 113.918 124.469C113.753 125.702 113.645 126.96 113.565 128.23C112.728 128.018 109.748 127.311 108.266 127.565C106.792 127.819 104.985 128.551 104.258 129.954C103.547 131.327 104.03 133.091 105.533 133.681C107.621 134.5 110.986 132.262 112.256 130.717C112.336 130.621 113.122 129.411 113.541 128.738C113.499 129.502 113.453 130.264 113.436 131.037C113.385 133.271 113.404 135.533 113.412 137.79C113.415 138.482 113.409 139.17 113.407 139.86C113.11 139.782 109.585 138.864 107.926 139.15C106.451 139.403 104.644 140.135 103.918 141.538C103.207 142.912 103.689 144.675 105.193 145.265C107.281 146.085 110.646 143.846 111.916 142.303C112.012 142.186 113.141 140.443 113.407 139.986C113.4 141.505 113.379 143.019 113.298 144.51C113.189 146.568 112.968 148.581 112.608 150.515C112.47 150.478 108.795 149.504 107.096 149.796C105.622 150.05 103.814 150.782 103.088 152.185C102.377 153.558 102.859 155.321 104.363 155.912C106.451 156.732 109.816 154.493 111.086 152.949C111.17 152.848 112.032 151.52 112.427 150.88C112.492 150.906 112.48 150.901 112.546 150.927C112.136 152.995 111.478 154.946 110.771 156.743C110.364 157.784 109.917 158.757 109.459 159.693C108.794 159.441 105.738 158.326 104.18 158.421C102.686 158.512 100.809 159.041 99.9329 160.356C99.0752 161.644 99.3602 163.449 100.79 164.2C102.775 165.243 106.366 163.386 107.799 161.991C107.877 161.915 108.583 161.056 109.089 160.424C108.876 160.843 108.665 161.28 108.453 161.678C107.662 163.173 106.845 164.494 106.111 165.659C105.689 166.318 105.294 166.905 104.919 167.45C104.136 167.543 100.988 167.957 99.6727 168.743C98.3894 169.509 96.9679 170.841 96.7981 172.411C96.6319 173.947 97.7198 175.418 99.3358 175.429C101.579 175.443 103.908 172.146 104.535 170.249C104.589 170.085 105.14 167.424 105.099 167.429C105.099 167.429 105.061 167.433 105.052 167.435C105.424 166.917 105.816 166.358 106.233 165.738C106.993 164.587 107.841 163.28 108.669 161.796C109.499 160.315 110.359 158.682 111.11 156.881C111.864 155.077 112.566 153.14 113.029 151.052C113.035 151.028 113.037 151.003 113.042 150.98C113.097 151.633 113.311 153.453 113.343 153.591C113.8 155.535 115.828 159.024 118.064 159.207C119.675 159.339 120.889 157.969 120.859 156.424C120.829 154.846 119.531 153.394 118.32 152.517C116.955 151.529 113.369 150.8 113.084 150.743C113.507 148.75 113.779 146.671 113.938 144.552C114.03 143.34 114.086 142.117 114.125 140.89C114.191 141.453 114.254 141.956 114.27 142.025C114.726 143.969 116.755 147.458 118.99 147.641C120.601 147.773 121.814 146.403 121.785 144.858C121.755 143.279 120.457 141.828 119.246 140.951C118.017 140.062 114.973 139.379 114.165 139.21C114.176 138.739 114.191 138.269 114.2 137.798C114.24 135.538 114.272 133.283 114.37 131.072C114.405 130.293 114.467 129.527 114.527 128.76C114.585 129.26 114.639 129.681 114.654 129.744C115.11 131.688 117.138 135.177 119.374 135.36C120.985 135.492 122.199 134.122 122.169 132.577C122.139 130.999 120.841 129.547 119.63 128.67C118.458 127.822 115.654 127.167 114.695 126.96C114.78 126.177 114.863 125.392 114.981 124.637C115.073 124.123 115.126 123.622 115.248 123.111C115.357 122.603 115.465 122.1 115.573 121.601C115.815 120.649 116.058 119.664 116.318 118.741C116.494 118.098 116.673 117.488 116.852 116.873C116.808 117.648 116.756 119.167 116.766 119.295C116.921 121.286 118.396 125.041 120.578 125.56C122.15 125.933 123.558 124.762 123.764 123.23C123.974 121.665 122.911 120.034 121.848 118.985C120.677 117.831 117.384 116.603 116.972 116.452C117.271 115.436 117.572 114.45 117.871 113.524C118.89 110.343 119.859 107.728 120.568 105.898L119.221 105.194C119.206 105.236 119.192 105.273 119.176 105.316C118.498 107.186 117.568 109.869 116.601 113.134C116.293 114.165 115.984 115.273 115.677 116.414C115.397 116.384 113.8 116.226 112.291 116.266C111.852 114.636 109.924 111.989 109.672 111.649C110.484 110.966 111.281 110.309 112.043 109.701C114.653 107.607 116.909 105.96 118.512 104.823L117.035 104.05C115.495 105.205 113.482 106.763 111.199 108.677C110.371 109.367 109.501 110.122 108.614 110.905C108.282 110.631 105.55 108.413 103.956 107.988C102.511 107.603 100.562 107.512 99.3132 108.482C98.0903 109.433 97.7875 111.235 98.9046 112.399C100.455 114.015 104.452 113.387 106.254 112.516C106.361 112.464 107.452 111.778 108.133 111.334C107.772 111.656 107.419 111.964 107.052 112.3C106.321 112.959 105.612 113.638 104.846 114.366C104.488 114.731 104.127 115.099 103.762 115.471C103.393 115.832 103.048 116.26 102.686 116.657C101.866 117.595 101.08 118.585 100.311 119.6C99.7302 118.963 97.6355 116.734 96.259 116.132C94.8889 115.533 92.9762 115.15 91.5944 115.921C90.241 116.675 89.6674 118.411 90.5952 119.731C91.8826 121.562 95.9286 121.545 97.8426 120.956C97.9618 120.919 99.2876 120.343 100.01 120.012C99.5523 120.626 99.0922 121.236 98.6496 121.871C97.3712 123.706 96.1345 125.604 94.8922 127.491C94.512 128.069 94.1261 128.64 93.7422 129.214C93.5384 128.986 91.106 126.282 89.5641 125.608C88.194 125.009 86.2813 124.626 84.8991 125.396C83.5461 126.151 82.9725 127.887 83.8999 129.206C85.1873 131.037 89.2333 131.021 91.1473 130.431C91.2916 130.387 93.1979 129.554 93.6725 129.319C92.8262 130.582 91.9713 131.833 91.0784 133.032C89.8482 134.689 88.5495 136.246 87.1795 137.662C87.0846 137.555 84.559 134.721 82.9798 134.031C81.6094 133.432 79.697 133.049 78.3149 133.82C76.9614 134.574 76.3883 136.31 77.3157 137.629C78.6031 139.461 82.6491 139.444 84.5631 138.855C84.6887 138.816 86.1414 138.183 86.8256 137.867C86.8658 137.924 86.8585 137.914 86.899 137.971C85.4131 139.47 83.784 140.736 82.2008 141.846C81.2847 142.49 80.3735 143.055 79.4737 143.585C79.0574 143.01 77.1264 140.399 75.7746 139.621C74.4784 138.876 72.6199 138.285 71.1615 138.9C69.7331 139.502 68.9719 141.165 69.7485 142.578C70.8263 144.539 74.8497 144.965 76.8172 144.589C76.9242 144.568 77.9886 144.241 78.7607 143.991C78.3509 144.224 77.933 144.472 77.5362 144.687C76.0482 145.5 74.6356 146.152 73.3799 146.72C72.6629 147.037 72.0087 147.31 71.3938 147.559C70.6897 147.206 67.8346 145.82 66.3028 145.752C64.8079 145.686 62.8854 146.016 61.8749 147.231C60.8847 148.418 60.9779 150.244 62.32 151.141Z" fill="black"/>
    </g>
    <path d="M18.0487 137.413C18.7402 137.714 20.4316 137.676 20.4333 137.676C20.4507 137.675 20.0697 136.572 20.0377 136.505C19.6668 135.732 18.4929 134.454 17.538 134.582C16.8501 134.675 16.4675 135.361 16.6227 136.007C16.7808 136.666 17.4597 137.156 18.0487 137.413Z" fill="#263238"/>
    <path d="M18.6325 142.296C19.3499 142.4 20.8594 141.964 20.9793 141.929C21.2177 142.771 21.531 143.617 21.895 144.454C22.1025 144.933 22.3267 145.409 22.5573 145.884C22.4195 145.683 22.295 145.504 22.2748 145.481C21.7118 144.833 20.2412 143.909 19.3544 144.285C18.7151 144.555 18.5283 145.318 18.8489 145.9C19.1764 146.494 19.9611 146.788 20.5971 146.88C21.2424 146.974 22.537 146.628 22.8783 146.531C22.9687 146.713 23.0571 146.895 23.1483 147.075C23.5852 147.943 24.0254 148.807 24.4308 149.667C24.5738 149.97 24.7035 150.274 24.8345 150.578C24.7121 150.399 24.6075 150.25 24.5888 150.229C24.0258 149.58 22.5553 148.657 21.6684 149.032C21.0296 149.302 20.8423 150.065 21.163 150.647C21.4909 151.241 22.2752 151.535 22.9112 151.627C23.5269 151.717 24.7246 151.408 25.1308 151.296C25.2552 151.61 25.3809 151.926 25.4875 152.236C25.5556 152.45 25.6358 152.651 25.6917 152.87C25.7521 153.085 25.8117 153.298 25.8705 153.509C25.9694 153.919 26.074 154.342 26.1599 154.745C26.2219 155.024 26.2758 155.292 26.3314 155.562C26.1927 155.258 25.9082 154.67 25.8786 154.624C25.421 153.897 24.1077 152.763 23.1738 153C22.501 153.171 22.2002 153.896 22.4288 154.52C22.6623 155.156 23.3931 155.565 24.0076 155.753C24.6845 155.959 26.1826 155.77 26.3699 155.746C26.4594 156.192 26.5425 156.627 26.6147 157.039C26.7752 157.947 26.8968 158.761 26.9888 159.45H27.6207C27.5105 158.737 27.3666 157.888 27.1761 156.934C27.0869 156.481 26.9823 155.998 26.87 155.503C26.9827 155.459 27.6215 155.201 28.1878 154.885C28.6811 155.418 29.9449 156.041 30.1087 156.12C29.9368 156.542 29.7653 156.95 29.5975 157.333C29.2481 158.134 28.9162 158.845 28.6231 159.45H29.3061C29.5578 158.893 29.8351 158.258 30.1237 157.554C30.3 157.127 30.4804 156.667 30.6607 156.192C30.8419 156.23 32.325 156.53 33.0165 156.375C33.6432 156.233 34.4028 155.88 34.6833 155.262C34.9581 154.657 34.712 153.912 34.0538 153.691C33.1406 153.386 31.7458 154.419 31.2351 155.11C31.2047 155.151 30.9274 155.629 30.7572 155.933C30.8297 155.739 30.9023 155.551 30.9749 155.351C31.1208 154.955 31.2545 154.555 31.4001 154.126C31.4633 153.916 31.5265 153.704 31.591 153.49C31.6591 153.279 31.7045 153.048 31.7628 152.825C31.8873 152.305 31.9874 151.772 32.077 151.233C32.4251 151.36 33.6687 151.791 34.3128 151.745C34.954 151.701 35.7582 151.466 36.1295 150.897C36.4931 150.341 36.3634 149.567 35.7464 149.249C34.89 148.809 33.3542 149.621 32.7445 150.226C32.7064 150.264 32.3177 150.747 32.1094 151.016C32.1605 150.692 32.2132 150.368 32.2541 150.038C32.3729 149.086 32.4628 148.118 32.5573 147.153C32.5861 146.857 32.6181 146.563 32.6493 146.269C32.7729 146.315 34.2394 146.859 34.9609 146.809C35.6021 146.764 36.4063 146.529 36.7776 145.961C37.1412 145.405 37.0115 144.63 36.3942 144.313C35.5377 143.873 34.0023 144.684 33.3923 145.289C33.3465 145.335 32.7879 146.031 32.6546 146.215C32.7235 145.566 32.798 144.92 32.8974 144.286C33.0331 143.412 33.2155 142.561 33.4527 141.75C33.5102 141.771 35.0383 142.346 35.7772 142.295C36.4185 142.25 37.2227 142.015 37.594 141.447C37.9575 140.89 37.8278 140.116 37.2109 139.799C36.3544 139.358 34.819 140.17 34.209 140.775C34.1612 140.823 33.5609 141.572 33.462 141.715C33.4762 141.667 33.4855 141.616 33.5005 141.568C33.7652 140.705 34.13 139.902 34.5086 139.168C34.7278 138.74 34.9613 138.344 35.1972 137.963C35.4708 138.1 36.7282 138.708 37.3982 138.735C38.0402 138.76 38.8659 138.615 39.2972 138.091C39.7199 137.578 39.6761 136.793 39.0981 136.411C38.2952 135.88 36.6799 136.518 36.0067 137.053C35.9702 137.082 35.6309 137.418 35.3873 137.667C35.4964 137.497 35.6058 137.319 35.7132 137.159C36.1161 136.553 36.5231 136.024 36.8866 135.558C37.0958 135.295 37.29 135.061 37.474 134.844C37.8124 134.838 39.176 134.796 39.7722 134.518C40.3539 134.245 41.0194 133.738 41.1601 133.074C41.2979 132.425 40.8966 131.749 40.2063 131.675C39.2481 131.572 38.1095 132.881 37.7593 133.664C37.7293 133.732 37.3783 134.845 37.3957 134.845C37.3957 134.845 37.4124 134.845 37.416 134.844C37.2344 135.05 37.0427 135.272 36.8376 135.519C36.4627 135.978 36.0436 136.5 35.6257 137.098C35.2065 137.695 34.768 138.356 34.3687 139.094C33.9678 139.832 33.584 140.63 33.2954 141.502C33.2921 141.512 33.2901 141.523 33.2865 141.533C33.2913 141.251 33.2792 140.464 33.2711 140.404C33.1604 139.553 32.4454 137.974 31.4973 137.8C30.8148 137.674 30.2363 138.207 30.182 138.869C30.1265 139.545 30.6182 140.221 31.0977 140.648C31.6384 141.129 33.1389 141.595 33.2585 141.632C32.991 142.466 32.7847 143.342 32.6246 144.241C32.5326 144.755 32.4559 145.275 32.3858 145.798C32.3822 145.555 32.3773 145.337 32.3733 145.307C32.2626 144.456 31.5476 142.878 30.5995 142.703C29.9169 142.577 29.3385 143.11 29.2842 143.772C29.2287 144.448 29.7204 145.124 30.1995 145.55C30.6859 145.984 31.9574 146.407 32.295 146.514C32.2703 146.715 32.2431 146.915 32.2192 147.116C32.1037 148.08 31.9926 149.042 31.8544 149.983C31.8062 150.314 31.7462 150.639 31.687 150.964C31.6838 150.748 31.6789 150.566 31.6753 150.538C31.5646 149.687 30.8496 148.109 29.9019 147.934C29.219 147.808 28.6409 148.341 28.5862 149.003C28.5307 149.679 29.0224 150.356 29.5019 150.782C29.966 151.196 31.1362 151.597 31.5371 151.726C31.4669 152.057 31.3968 152.389 31.3137 152.707C31.2521 152.922 31.2075 153.134 31.1337 153.347C31.0648 153.56 30.9967 153.77 30.9295 153.979C30.7848 154.375 30.6376 154.786 30.4868 155.169C30.3839 155.436 30.2805 155.689 30.1776 155.944C30.2294 155.615 30.3182 154.968 30.3194 154.913C30.3328 154.343 30.1297 153.417 29.7256 152.766C29.7281 152.681 29.7232 152.597 29.7098 152.514C29.604 151.859 28.9863 151.372 28.3155 151.55C27.384 151.797 26.7934 153.426 26.7497 154.283C26.7468 154.333 26.7801 154.884 26.8068 155.232C26.7598 155.03 26.7168 154.834 26.6658 154.626C26.5681 154.216 26.4586 153.809 26.3423 153.371C26.2787 153.161 26.2142 152.95 26.1494 152.736C26.0898 152.522 25.999 152.305 25.9244 152.086C25.7404 151.585 25.5292 151.085 25.3051 150.586C25.6658 150.5 26.941 150.176 27.4533 149.784C27.9632 149.394 28.5039 148.756 28.4991 148.078C28.4942 147.414 27.9576 146.839 27.2673 146.914C26.3091 147.018 25.4777 148.539 25.3038 149.379C25.2929 149.431 25.2361 150.048 25.2114 150.387C25.0744 150.089 24.9394 149.79 24.7911 149.492C24.3631 148.632 23.903 147.776 23.4474 146.919C23.3076 146.657 23.1718 146.393 23.0348 146.131C23.1633 146.101 24.6881 145.749 25.2617 145.31C25.7716 144.92 26.3123 144.282 26.3074 143.604C26.3026 142.94 25.7659 142.365 25.0756 142.44C24.1174 142.544 23.2861 144.065 23.1122 144.905C23.0992 144.969 23.0186 145.856 23.0092 146.083C22.7077 145.504 22.4122 144.924 22.1443 144.341C21.7738 143.536 21.4544 142.727 21.2035 141.919C21.2635 141.906 22.856 141.545 23.4438 141.096C23.9537 140.706 24.4944 140.067 24.4895 139.389C24.4851 138.726 23.948 138.151 23.2577 138.226C22.2995 138.33 21.4682 139.851 21.2943 140.691C21.2805 140.757 21.1946 141.712 21.1913 141.886C21.1763 141.838 21.1557 141.79 21.1415 141.742C20.8849 140.876 20.7447 140.006 20.6539 139.185C20.5999 138.708 20.5756 138.249 20.5618 137.802C20.8654 137.765 22.2509 137.582 22.8244 137.235C23.3745 136.904 23.982 136.328 24.0522 135.654C24.1207 134.994 23.6505 134.364 22.9561 134.362C21.9923 134.361 20.9984 135.782 20.7329 136.598C20.7183 136.642 20.6218 137.109 20.5562 137.451C20.5529 137.249 20.546 137.041 20.5468 136.847C20.5481 136.121 20.5943 135.456 20.6397 134.867C20.6684 134.533 20.7009 134.23 20.7345 133.948C21.0134 133.757 22.1281 132.973 22.471 132.412C22.8054 131.865 23.079 131.076 22.8293 130.445C22.5849 129.828 21.8763 129.485 21.2594 129.802C20.4034 130.243 20.178 131.961 20.3195 132.807C20.332 132.88 20.6551 134.002 20.6697 133.992C20.6697 133.992 20.6834 133.983 20.6863 133.98C20.6486 134.251 20.6117 134.542 20.5772 134.861C20.5185 135.45 20.4577 136.115 20.4407 136.845C20.4216 137.573 20.4216 138.366 20.497 139.2C20.5716 140.036 20.6928 140.913 20.9348 141.799C20.9376 141.809 20.9416 141.819 20.9445 141.829C20.7929 141.591 20.3466 140.942 20.3065 140.896C19.7435 140.247 18.2729 139.324 17.3861 139.699C16.7473 139.97 16.5596 140.732 16.8806 141.314C17.2122 141.91 17.9965 142.204 18.6325 142.296Z" fill="#263238"/>
    <path d="M35.1577 137.784C35.1727 137.793 35.4654 136.663 35.4759 136.59C35.5943 135.741 35.3227 134.029 34.4549 133.612C33.8299 133.311 33.1311 133.673 32.9033 134.297C32.6706 134.934 32.9657 135.716 33.3147 136.253C33.7249 136.885 35.1565 137.783 35.1577 137.784Z" fill="#263238"/>
    <path d="M32.9669 174.071H23.7213L22.5657 158.33H34.1229L32.9669 174.071Z" fill="white" stroke="#263238" stroke-miterlimit="10" stroke-linecap="round" stroke-linejoin="round"/>
    <path d="M22.7773 160.205L22.8892 161.196H33.7992L33.911 160.205H22.7773Z" fill="#263238"/>
    <path d="M33.5526 163.378L33.6645 162.386H23.0237L23.1356 163.378H33.5526Z" fill="#263238"/>
    <path d="M135.913 32.2334H130.276V43.4707H135.913V32.2334Z" fill="white" stroke="#263238" stroke-miterlimit="10"/>
    <path d="M135.913 32.2334H130.276V37.2111H135.913V32.2334Z" fill="#263238" stroke="#263238" stroke-miterlimit="10"/>
    <path d="M140.477 27.9526H125.713V35.9793H140.477V27.9526Z" fill="#83A4FF" stroke="#263238" stroke-miterlimit="10"/>
    <path d="M127.742 28.3389V33.8292" stroke="#263238" stroke-miterlimit="10"/>
    <path d="M130.372 30.8345V33.3304" stroke="#263238" stroke-miterlimit="10"/>
    <path d="M132.625 35.5763V29.7114" stroke="#263238" stroke-miterlimit="10"/>
    <path d="M178.136 49.873L175.157 47.0239L169.44 52.9612L172.419 55.8103L178.136 49.873Z" fill="white" stroke="#263238" stroke-miterlimit="10"/>
    <path d="M178.136 49.873L175.157 47.0239L172.625 49.654L175.603 52.503L178.136 49.873Z" fill="#263238" stroke="#263238" stroke-miterlimit="10"/>
    <path d="M182.725 49.9171L174.924 42.4556L170.841 46.6964L178.642 54.1579L182.725 49.9171Z" fill="#83A4FF" stroke="#263238" stroke-miterlimit="10"/>
    <path d="M175.804 43.6851L173.011 46.5862" stroke="#263238" stroke-miterlimit="10"/>
    <path d="M175.924 46.3325L174.654 47.6512" stroke="#263238" stroke-miterlimit="10"/>
    <path d="M174.702 49.977L177.686 46.8779" stroke="#263238" stroke-miterlimit="10"/>
    <path d="M176.493 143.976C200.463 120.085 200.463 81.3512 176.493 57.4606C152.524 33.5701 113.662 33.5701 89.6926 57.4606C65.7232 81.3512 65.7232 120.085 89.6926 143.976C113.662 167.866 152.524 167.866 176.493 143.976Z" fill="#263238" stroke="#263238" stroke-miterlimit="10"/>
    <path d="M172.935 140.429C194.938 118.497 194.938 82.9393 172.935 61.0078C150.931 39.0763 115.255 39.0763 93.2514 61.0078C71.2476 82.9393 71.2476 118.497 93.2514 140.429C115.255 162.36 150.931 162.36 172.935 140.429Z" fill="white"/>
    <path opacity="0.2" d="M186.442 118.639C190.253 107.565 190.39 96.1216 187.503 85.6228C173.212 84.1963 154.453 86.8199 134.025 100.718C112.189 115.574 89.8508 110.26 76.9587 104.772C78.6587 126.42 92.9447 146.045 114.863 153.538C144.299 163.602 176.345 147.977 186.442 118.639Z" fill="black"/>
    <path d="M126.405 113.079C120.544 120.051 114.129 124.315 114.129 124.315C114.129 124.315 117.218 117.274 123.08 110.302C128.941 103.329 135.356 99.0659 135.356 99.0659C135.356 99.0659 132.267 106.107 126.405 113.079Z" fill="#83A4FF" stroke="#263238" stroke-miterlimit="10"/>
    <path d="M117.783 88.9098C109.022 80.4873 103.643 71.8784 103.643 71.8784C103.643 71.8784 112.468 76.926 121.229 85.3486C129.99 93.7716 135.369 102.38 135.369 102.38C135.369 102.38 126.544 97.3328 117.783 88.9098Z" fill="#83A4FF" stroke="#263238" stroke-miterlimit="10"/>
    <path d="M136.304 102.991C137.564 101.736 137.564 99.7007 136.304 98.4455C135.045 97.1903 133.003 97.1903 131.744 98.4455C130.485 99.7007 130.485 101.736 131.744 102.991C133.003 104.246 135.045 104.246 136.304 102.991Z" fill="#263238" stroke="#263238" stroke-miterlimit="10"/>
    <path d="M132.914 47.9102V56.9626" stroke="#263238" stroke-miterlimit="10"/>
    <path d="M132.914 146.194V155.246" stroke="#263238" stroke-miterlimit="10"/>
    <path d="M186.759 101.578H177.677" stroke="#263238" stroke-miterlimit="10"/>
    <path d="M88.1516 101.578H79.0693" stroke="#263238" stroke-miterlimit="10"/>
    <path d="M179.273 74.2788L171.453 78.8836" stroke="#263238" stroke-miterlimit="10"/>
    <path d="M94.3751 124.272L86.5554 128.877" stroke="#263238" stroke-miterlimit="10"/>
    <path d="M158.031 54.1069L153.795 62.1138" stroke="#263238" stroke-miterlimit="10"/>
    <path d="M112.033 141.042L107.797 149.049" stroke="#263238" stroke-miterlimit="10"/>
    <path d="M86.5554 74.2788L94.3751 78.8836" stroke="#263238" stroke-miterlimit="10"/>
    <path d="M171.453 124.272L179.273 128.877" stroke="#263238" stroke-miterlimit="10"/>
    <path d="M107.797 54.1069L112.033 62.1138" stroke="#263238" stroke-miterlimit="10"/>
    <path d="M153.795 141.042L158.031 149.049" stroke="#263238" stroke-miterlimit="10"/>
    <path d="M97.0207 165.345C97.056 165.647 89.1402 165.715 89.0235 166.035C88.9068 166.355 89.263 166.774 89.263 166.774C89.263 166.774 93.164 169.239 93.9848 169.681C94.8052 170.124 96.5777 170.15 97.407 170.667C98.2363 171.185 99.3692 171.669 99.6902 171.785C100.011 171.901 100.029 172.053 100.911 171.031C101.792 170.009 101.748 167.638 101.704 167.259C101.66 166.881 97.0207 165.345 97.0207 165.345Z" fill="white" stroke="#263238" stroke-miterlimit="10"/>
    <path d="M116.563 121.627L114.491 124.319C114.491 124.319 101.342 137.707 101.129 139.188C100.916 140.67 97.0203 165.345 97.0203 165.345L101.614 167.806L108.925 144.731L121.153 134.374L121.862 134.523L129.384 151.882C129.384 151.882 130.161 151.945 130.38 151.844C130.598 151.742 155.732 144.697 155.732 144.697L154.958 141.336L134.457 142.557L131.784 126.852C131.784 126.852 131.74 122.487 130.759 119.993L116.563 121.627Z" fill="#263238" stroke="#263238" stroke-miterlimit="10"/>
    <path d="M122.079 93.5435L119.948 94.4024L119.294 97.3912L120.488 96.4103C120.488 96.4103 118.129 101.282 117.397 103.59C116.664 105.897 115.532 115.382 115.419 118.385C115.305 121.388 115.428 122.448 117.673 122.572C119.918 122.697 126.92 122.045 128.43 121.794C129.939 121.544 131.011 121.497 131.492 119.678C131.974 117.859 131.895 117.178 131.968 116.48C132.041 115.781 133.783 102.93 133.464 99.5162C133.145 96.1028 132.43 94.5749 131.063 92.7387C129.696 90.9025 129.044 90.4634 129.044 90.4634L122.079 93.5435Z" fill="#83A4FF" stroke="#263238" stroke-miterlimit="10"/>
    <path d="M120.888 74.3431C120.888 74.3431 118.725 77.3776 118.683 78.2179C118.64 79.0582 118.593 80.4565 117.914 81.2309C117.236 82.0054 115.721 82.8065 116.276 83.3693C116.83 83.9321 117.575 84.3337 117.575 84.3337C117.575 84.3337 117.446 89.8495 118.159 89.9763C118.873 90.1032 122.815 89.1619 122.815 89.1619L123.108 92.8884L129.044 90.464L128.827 87.9822C128.827 87.9822 133.379 82.6534 133.339 80.4993C133.299 78.3452 132.93 76.3684 130.417 74.569C127.903 72.7696 128.55 73.5307 125.208 71.8262C121.867 70.1217 120.202 71.4275 120.107 72.4136C120.01 73.3994 120.888 74.3431 120.888 74.3431Z" fill="white" stroke="#263238" stroke-miterlimit="10"/>
    <path d="M130.416 74.5695C127.902 72.7701 128.549 73.5308 125.208 71.8267C121.866 70.1222 120.201 71.428 120.106 72.4141C120.01 73.3999 120.888 74.3432 120.888 74.3432C120.888 74.3432 122.656 73.9307 123.163 74.0814C123.67 74.2321 124.969 75.1965 124.802 75.5641C124.635 75.9314 123.296 76.4339 123.959 77.3324C124.622 78.2309 125.865 78.7145 125.701 79.7084C125.537 80.7022 124.559 81.3021 125.174 81.7885C125.789 82.2746 126.033 81.9683 126.431 81.7833C126.828 81.5983 128.467 81.2702 127.953 82.8616C127.438 84.4525 126.282 84.7252 126.282 84.7252C126.282 84.7252 127.076 87.3496 128.486 87.4656C128.718 87.4845 129.001 87.4555 129.31 87.3977C130.481 85.9558 133.37 82.2192 133.338 80.5006C133.298 78.3457 132.93 76.3689 130.416 74.5695Z" fill="#263238" stroke="#263238" stroke-miterlimit="10"/>
    <path d="M120.332 80.9503C120.276 81.3519 120.1 81.6593 119.94 81.6371C119.781 81.6145 119.697 81.2707 119.754 80.8691C119.811 80.4675 119.986 80.1601 120.146 80.1823C120.306 80.2045 120.389 80.5483 120.332 80.9503Z" fill="#263238"/>
    <path d="M119.436 78.6881C119.436 78.6881 120.764 77.4907 121.467 78.733" stroke="#263238" stroke-miterlimit="10"/>
    <path d="M122.815 89.1617L125.472 88.5771L122.913 90.6129L122.815 89.1617Z" fill="#263238" stroke="#263238" stroke-miterlimit="10"/>
    <path d="M128.861 89.0059C128.642 89.1077 121.436 93.3109 121.436 93.3109L121.577 96.515L130.414 91.1273L128.861 89.0059Z" fill="#83A4FF" stroke="#263238" stroke-miterlimit="10"/>
    <path d="M96.0527 97.3061L112.406 95.04L114.054 107.271L116.104 107.035L117.673 122.572L100.362 125.868C100.362 125.868 98.4077 112.982 98.445 109.988L97.0612 109.994L96.0527 97.3061Z" fill="white" stroke="#263238" stroke-miterlimit="10"/>
    <path d="M100.05 96.6162L118.234 94.216L118.176 90.1279L99.7661 91.5116L100.05 96.6162Z" fill="#263238" stroke="#263238" stroke-miterlimit="10"/>
    <path d="M111.528 91.4676L101.279 92.647L101.604 95.4467L111.852 94.2673L111.528 91.4676Z" fill="white" stroke="#263238" stroke-miterlimit="10"/>
    <path d="M116.162 92.2696C116.217 92.75 115.872 93.1847 115.39 93.24C114.907 93.2953 114.472 92.9511 114.416 92.4704C114.36 91.99 114.706 91.5553 115.188 91.5C115.67 91.4446 116.106 91.7892 116.162 92.2696Z" stroke="#263238" stroke-miterlimit="10"/>
    <path d="M96.8062 99.8263L105.635 98.3501" stroke="#263238" stroke-miterlimit="10"/>
    <path d="M101.198 100.548L109.031 99.1094" stroke="#263238" stroke-miterlimit="10"/>
    <path d="M111.385 100.832L108.375 101.408" stroke="#263238" stroke-miterlimit="10"/>
    <path d="M97.1865 105.763L106.935 104.257" stroke="#263238" stroke-miterlimit="10"/>
    <path d="M101.271 103.836L105.656 103.178" stroke="#263238" stroke-miterlimit="10"/>
    <path d="M107.677 104.019L109.034 103.786" stroke="#263238" stroke-miterlimit="10"/>
    <path d="M99.344 107.124L108.124 105.884" stroke="#263238" stroke-miterlimit="10"/>
    <path d="M112.185 106.413L106.5 107.144" stroke="#263238" stroke-miterlimit="10"/>
    <path d="M99.0264 109.692L113.187 107.755" stroke="#263238" stroke-miterlimit="10"/>
    <path d="M103.309 110.809L109.441 109.949" stroke="#263238" stroke-miterlimit="10"/>
    <path d="M99.4558 113.399L109.383 112.103" stroke="#263238" stroke-miterlimit="10"/>
    <path d="M110.454 112.056L112.192 111.779" stroke="#263238" stroke-miterlimit="10"/>
    <path d="M100.344 115.75L105.193 115.115" stroke="#263238" stroke-miterlimit="10"/>
    <path d="M104.046 117.165L108.811 116.462" stroke="#263238" stroke-miterlimit="10"/>
    <path d="M115.244 120.859L112.377 121.342" stroke="#263238" stroke-miterlimit="10"/>
    <path d="M100.747 121.224L103.48 120.91" stroke="#263238" stroke-miterlimit="10"/>
    <path d="M102.683 120.004L104.656 119.777" stroke="#263238" stroke-miterlimit="10"/>
    <path d="M113.64 112.993L104.23 122.74C104.23 122.74 102.058 123.91 101.892 124.466C101.726 125.022 100.792 127.583 100.827 127.885C100.862 128.188 101.496 128.345 102.018 128.208C102.541 128.071 103.13 127.85 103.13 127.85C103.13 127.85 103.942 128.217 104.862 128.188C105.782 128.159 106.917 127.338 107.168 126.849C107.419 126.36 108.575 124.387 108.575 124.387L109.296 123.307L116.928 116.141L113.64 112.993Z" fill="white" stroke="#263238" stroke-miterlimit="10"/>
    <path d="M121.853 111.511C121.853 111.511 128.063 111.332 129.681 110.686" stroke="#263238" stroke-miterlimit="10"/>
    <path d="M121.088 112.212C121.088 112.212 126.242 115.529 129.845 115.421" stroke="#263238" stroke-miterlimit="10"/>
    <path d="M127.457 96.1445C127.457 96.1445 126.319 96.2754 124.663 97.9229C123.008 99.5701 114.244 112.233 114.244 112.233L116.928 116.141C116.928 116.141 131.362 105.279 131.619 104.176C131.876 103.073 131.806 102.468 131.3 100.763" fill="#83A4FF"/>
    <path d="M127.457 96.1445C127.457 96.1445 126.319 96.2754 124.663 97.9229C123.008 99.5701 114.244 112.233 114.244 112.233L116.928 116.141C116.928 116.141 131.362 105.279 131.619 104.176C131.876 103.073 131.806 102.468 131.3 100.763" stroke="#263238" stroke-miterlimit="10"/>
    <path d="M131.619 104.176C131.619 104.176 121.716 108.996 118.772 109.488" stroke="#263238" stroke-miterlimit="10"/>
    <path d="M122.863 106.947L117.082 108.84" stroke="#263238" stroke-miterlimit="10"/>
    <path d="M113.091 112.902C113.091 112.902 116.292 117.288 116.51 117.186C116.729 117.084 118.671 115.25 118.671 115.25L115.4 110.26L113.091 112.902Z" fill="#83A4FF" stroke="#263238" stroke-miterlimit="10"/>
    <path d="M154.959 141.336L159.175 140.544C159.175 140.544 159.607 140.955 159.788 141.854C159.969 142.753 161.269 148.66 161.313 149.039C161.357 149.417 161.511 150.089 161.284 150.116C161.056 150.142 160.574 149.967 160.151 149.633C159.727 149.298 156.527 144.913 156.527 144.913L155.733 144.698L154.959 141.336Z" fill="white" stroke="#263238" stroke-miterlimit="10"/>
    </svg>
    