<svg width="272" height="272" viewBox="0 0 272 272" fill="none" xmlns="http://www.w3.org/2000/svg">
    <path d="M225.76 200.786C227.943 200.765 232.728 185.573 233.278 183.98C238.104 169.982 240.257 155.007 239.179 140.222C237.845 121.927 235.354 102.023 222.509 87.8806C196.453 59.1938 147.996 62.8071 123.346 91.1054C116.071 99.4564 108.424 108.037 98.6762 113.558C87.552 119.859 74.4563 119.004 62.5144 122.908C44.3742 128.838 30.2818 149.498 30.7617 168.711C31.1501 184.272 42.9995 200.012 59.2966 201.149C74.8871 202.237 225.692 200.787 225.76 200.786Z" fill="#83A4FF"/>
    <path opacity="0.8" d="M225.76 200.786C227.943 200.765 232.728 185.573 233.278 183.98C238.104 169.982 240.257 155.007 239.179 140.222C237.845 121.927 235.354 102.023 222.509 87.8806C196.453 59.1938 147.996 62.8071 123.346 91.1054C116.071 99.4564 108.424 108.037 98.6762 113.558C87.552 119.859 74.4563 119.004 62.5144 122.908C44.3742 128.838 30.2818 149.498 30.7617 168.711C31.1501 184.272 42.9995 200.012 59.2966 201.149C74.8871 202.237 225.692 200.787 225.76 200.786Z" fill="white"/>
    <path d="M170.389 68.2476C168.14 68.4151 165.897 68.686 163.67 69.063V201.282C165.935 201.267 168.177 201.252 170.389 201.237V68.2476Z" fill="#83A4FF"/>
    <path d="M200.186 72.5777C197.988 71.7155 195.745 70.9778 193.467 70.3647V201.065C195.799 201.046 198.042 201.028 200.186 201.01V72.5777Z" fill="#83A4FF"/>
    <path d="M229.983 98.7531C228.155 95.2046 225.946 91.8443 223.264 88.7446V200.81C224.878 200.794 225.755 200.786 225.76 200.786C226.816 200.776 228.483 197.21 229.983 193.353V98.7531Z" fill="#83A4FF"/>
    <path d="M178.569 201.178C180.857 201.161 183.1 201.145 185.288 201.128V68.7083C183.062 68.3998 180.819 68.2007 178.569 68.1099V201.178Z" fill="#83A4FF"/>
    <path d="M133.873 201.451C136.107 201.441 138.349 201.43 140.592 201.418V77.1709C138.271 78.4732 136.026 79.9105 133.873 81.4805V201.451Z" fill="#83A4FF"/>
    <path d="M155.49 70.937C153.215 71.5985 150.971 72.3704 148.771 73.2534V201.373C151.02 201.36 153.262 201.347 155.49 201.333V70.937Z" fill="#83A4FF"/>
    <path d="M118.975 96.0567V201.512C121.193 201.504 123.436 201.496 125.694 201.487V88.5576C124.889 89.3834 124.106 90.2326 123.345 91.1057C121.908 92.7557 120.455 94.4138 118.975 96.0567Z" fill="#83A4FF"/>
    <path d="M80.9982 119.115C78.7662 119.501 76.52 119.848 74.2793 120.224V201.479C76.3612 201.497 78.6095 201.511 80.9982 201.522V119.115Z" fill="#83A4FF"/>
    <path d="M59.3809 124.099V201.155C60.7283 201.246 63.0219 201.318 66.0998 201.376V121.876C64.8954 122.182 63.6991 122.521 62.5143 122.908C61.4546 123.254 60.4107 123.655 59.3809 124.099Z" fill="#83A4FF"/>
    <path d="M215.084 81.0162C212.935 79.3477 210.69 77.8452 208.365 76.5059V200.942C210.83 200.921 213.079 200.901 215.084 200.884V81.0162Z" fill="#83A4FF"/>
    <path d="M95.8969 114.967C93.7122 115.962 91.466 116.734 89.178 117.361V201.547C91.3426 201.551 93.5866 201.553 95.8969 201.553V114.967Z" fill="#83A4FF"/>
    <path d="M238.163 164.26C239.39 156.315 239.763 148.241 239.178 140.221C238.911 136.559 238.596 132.833 238.163 129.101V164.26Z" fill="#83A4FF"/>
    <path d="M104.076 201.548C106.275 201.545 108.517 201.54 110.795 201.535V104.467C108.655 106.456 106.427 108.339 104.076 110.055V201.548Z" fill="#83A4FF"/>
    <g opacity="0.8">
    <path opacity="0.8" d="M170.389 68.2476C168.14 68.4151 165.897 68.686 163.67 69.063V201.282C165.935 201.267 168.177 201.252 170.389 201.237V68.2476Z" fill="white"/>
    <path opacity="0.8" d="M200.186 72.5777C197.988 71.7155 195.745 70.9778 193.467 70.3647V201.065C195.799 201.046 198.042 201.028 200.186 201.01V72.5777Z" fill="white"/>
    <path opacity="0.8" d="M229.983 98.7531C228.155 95.2046 225.946 91.8443 223.264 88.7446V200.81C224.878 200.794 225.755 200.786 225.76 200.786C226.816 200.776 228.483 197.21 229.983 193.353V98.7531Z" fill="white"/>
    <path opacity="0.8" d="M178.569 201.178C180.857 201.161 183.1 201.145 185.288 201.128V68.7083C183.062 68.3998 180.819 68.2007 178.569 68.1099V201.178Z" fill="white"/>
    <path opacity="0.8" d="M133.873 201.451C136.107 201.441 138.349 201.43 140.592 201.418V77.1709C138.271 78.4732 136.026 79.9105 133.873 81.4805V201.451Z" fill="white"/>
    <path opacity="0.8" d="M155.49 70.937C153.215 71.5985 150.971 72.3704 148.771 73.2534V201.373C151.02 201.36 153.262 201.347 155.49 201.333V70.937Z" fill="white"/>
    <path opacity="0.8" d="M118.975 96.0567V201.512C121.193 201.504 123.436 201.496 125.694 201.487V88.5576C124.889 89.3834 124.106 90.2326 123.345 91.1057C121.908 92.7557 120.455 94.4138 118.975 96.0567Z" fill="white"/>
    <path opacity="0.8" d="M80.9982 119.115C78.7662 119.501 76.52 119.848 74.2793 120.224V201.479C76.3612 201.497 78.6095 201.511 80.9982 201.522V119.115Z" fill="white"/>
    <path opacity="0.8" d="M59.3809 124.099V201.155C60.7283 201.246 63.0219 201.318 66.0998 201.376V121.876C64.8954 122.182 63.6991 122.521 62.5143 122.908C61.4546 123.254 60.4107 123.655 59.3809 124.099Z" fill="white"/>
    <path opacity="0.8" d="M215.084 81.0162C212.935 79.3477 210.69 77.8452 208.365 76.5059V200.942C210.83 200.921 213.079 200.901 215.084 200.884V81.0162Z" fill="white"/>
    <path opacity="0.8" d="M95.8969 114.967C93.7122 115.962 91.466 116.734 89.178 117.361V201.547C91.3426 201.551 93.5866 201.553 95.8969 201.553V114.967Z" fill="white"/>
    <path opacity="0.8" d="M238.163 164.26C239.39 156.315 239.763 148.241 239.178 140.221C238.911 136.559 238.596 132.833 238.163 129.101V164.26Z" fill="white"/>
    <path opacity="0.8" d="M104.076 201.548C106.275 201.545 108.517 201.54 110.795 201.535V104.467C108.655 106.456 106.427 108.339 104.076 110.055V201.548Z" fill="white"/>
    </g>
    <path d="M132.13 159.771C132.13 159.771 140.77 147.937 136.556 145.158C132.169 142.267 130.109 151.024 129.182 155.326C127.203 164.506 127.763 166.454 129.091 164.435L132.13 159.771Z" fill="#83A4FF"/>
    <path d="M135.386 167.047C135.386 167.047 147.402 158.661 144.318 154.664C141.108 150.505 136.315 158.118 134.041 161.886C129.188 169.925 129.085 171.95 130.997 170.471L135.386 167.047Z" fill="#83A4FF"/>
    <path d="M135.63 176.77C135.63 176.77 146.032 172.1 144.254 168.597C142.402 164.952 137.635 170.079 135.349 172.629C130.474 178.073 130.103 179.606 131.778 178.752L135.63 176.77Z" fill="#83A4FF"/>
    <path d="M136.248 186.539C136.248 186.539 146.649 181.869 144.871 178.366C143.02 174.721 138.252 179.848 135.967 182.398C131.092 187.842 130.72 189.375 132.395 188.522L136.248 186.539Z" fill="#83A4FF"/>
    <path d="M124.055 164.716C124.055 164.716 112.63 155.542 109.661 159.625C106.571 163.874 115.225 166.334 119.48 167.458C128.559 169.856 130.531 169.386 128.575 167.966L124.055 164.716Z" fill="#83A4FF"/>
    <path d="M124.395 172.377C124.395 172.377 111.374 165.657 109.276 170.248C107.092 175.027 116.063 175.718 120.456 175.973C129.831 176.519 131.67 175.665 129.471 174.663L124.395 172.377Z" fill="#83A4FF"/>
    <path d="M125.97 180.971C125.97 180.971 114.803 175.589 113.135 179.52C111.399 183.612 119.001 183.989 122.723 184.103C130.663 184.347 132.199 183.583 130.316 182.787L125.97 180.971Z" fill="#83A4FF"/>
    <path d="M126.503 187.912C126.503 187.912 115.971 181.375 113.895 185.107C111.734 188.991 119.253 190.173 122.941 190.681C130.811 191.767 132.419 191.171 130.631 190.179L126.503 187.912Z" fill="#83A4FF"/>
    <path d="M125.517 153.091C125.517 153.091 123.537 135.906 117.054 137.664C110.306 139.494 115.949 148.19 118.803 152.383C124.892 161.331 127.13 162.32 126.651 159.523L125.517 153.091Z" fill="#83A4FF"/>
    <path opacity="0.5" d="M132.13 159.771C132.13 159.771 140.77 147.937 136.556 145.158C132.169 142.267 130.109 151.024 129.182 155.326C127.203 164.506 127.763 166.454 129.091 164.435L132.13 159.771Z" fill="white"/>
    <path opacity="0.5" d="M135.386 167.047C135.386 167.047 147.402 158.661 144.318 154.664C141.108 150.505 136.315 158.118 134.041 161.886C129.188 169.925 129.085 171.95 130.997 170.471L135.386 167.047Z" fill="white"/>
    <path opacity="0.5" d="M135.63 176.77C135.63 176.77 146.032 172.1 144.254 168.597C142.402 164.952 137.635 170.079 135.349 172.629C130.474 178.073 130.103 179.606 131.778 178.752L135.63 176.77Z" fill="white"/>
    <path opacity="0.5" d="M136.248 186.539C136.248 186.539 146.649 181.869 144.871 178.366C143.02 174.721 138.252 179.848 135.967 182.398C131.092 187.842 130.72 189.375 132.395 188.522L136.248 186.539Z" fill="white"/>
    <path opacity="0.5" d="M124.055 164.716C124.055 164.716 112.63 155.542 109.661 159.625C106.571 163.874 115.225 166.334 119.48 167.458C128.559 169.856 130.531 169.386 128.575 167.966L124.055 164.716Z" fill="white"/>
    <path opacity="0.5" d="M124.395 172.377C124.395 172.377 111.374 165.657 109.276 170.248C107.092 175.027 116.063 175.718 120.456 175.973C129.831 176.519 131.67 175.665 129.471 174.663L124.395 172.377Z" fill="white"/>
    <path opacity="0.5" d="M125.97 180.971C125.97 180.971 114.803 175.589 113.135 179.52C111.399 183.612 119.001 183.989 122.723 184.103C130.663 184.347 132.199 183.583 130.316 182.787L125.97 180.971Z" fill="white"/>
    <path opacity="0.5" d="M126.503 187.912C126.503 187.912 115.971 181.375 113.895 185.107C111.734 188.991 119.253 190.173 122.941 190.681C130.811 191.767 132.419 191.171 130.631 190.179L126.503 187.912Z" fill="white"/>
    <path opacity="0.5" d="M125.517 153.091C125.517 153.091 123.537 135.906 117.054 137.664C110.306 139.494 115.949 148.19 118.803 152.383C124.892 161.331 127.13 162.32 126.651 159.523L125.517 153.091Z" fill="white"/>
    <path d="M118.375 143.91C118.375 143.91 128.255 162.433 129.789 171.026C131.552 180.899 131.838 191.924 130.619 200.565" stroke="#263238" stroke-width="0.75" stroke-miterlimit="10" stroke-linecap="round" stroke-linejoin="round"/>
    <path d="M128.226 165.309L133.067 150.485" stroke="#263238" stroke-width="0.75" stroke-miterlimit="10" stroke-linecap="round" stroke-linejoin="round"/>
    <path d="M129.789 171.026L138.897 159.571" stroke="#263238" stroke-width="0.75" stroke-miterlimit="10" stroke-linecap="round" stroke-linejoin="round"/>
    <path d="M129.207 168.944L116.015 163.403" stroke="#263238" stroke-width="0.75" stroke-miterlimit="10" stroke-linecap="round" stroke-linejoin="round"/>
    <path d="M130.929 178.783L140.849 171.183" stroke="#263238" stroke-width="0.75" stroke-miterlimit="10" stroke-linecap="round" stroke-linejoin="round"/>
    <path d="M130.404 175.524L120.042 173.366" stroke="#263238" stroke-width="0.75" stroke-miterlimit="10" stroke-linecap="round" stroke-linejoin="round"/>
    <path d="M130.901 183.458L122.878 182.187" stroke="#263238" stroke-width="0.75" stroke-miterlimit="10" stroke-linecap="round" stroke-linejoin="round"/>
    <path d="M131.578 188.594L136.974 183.76" stroke="#263238" stroke-width="0.75" stroke-miterlimit="10" stroke-linecap="round" stroke-linejoin="round"/>
    <path d="M131.469 190.769L122.25 188.451" stroke="#263238" stroke-width="0.75" stroke-miterlimit="10" stroke-linecap="round" stroke-linejoin="round"/>
    <path d="M149.523 180.293C149.523 180.293 149.015 170.647 152.342 170.631C155.806 170.615 153.789 176.192 152.752 178.902C150.537 184.683 149.526 185.557 149.52 183.963L149.523 180.293Z" fill="#83A4FF"/>
    <path d="M145.104 183.137C145.104 183.137 141.491 174.179 144.633 173.083C147.904 171.943 147.808 177.873 147.706 180.772C147.489 186.958 146.816 188.113 146.294 186.609L145.104 183.137Z" fill="#83A4FF"/>
    <path d="M141.467 188.417C141.467 188.417 137.406 182.092 139.65 180.799C141.985 179.453 142.771 184.001 143.113 186.232C143.844 190.994 143.497 191.974 142.879 190.899L141.467 188.417Z" fill="#83A4FF"/>
    <path d="M137.607 193.589C137.607 193.589 133.547 187.263 135.79 185.97C138.125 184.624 138.911 189.172 139.254 191.404C139.985 196.165 139.638 197.145 139.02 196.071L137.607 193.589Z" fill="#83A4FF"/>
    <path d="M152.2 185.932C152.2 185.932 161.812 184.982 161.981 188.306C162.156 191.765 156.493 190.006 153.738 189.093C147.862 187.147 146.943 186.177 148.534 186.098L152.2 185.932Z" fill="#83A4FF"/>
    <path d="M149.252 190.04C149.252 190.04 158.862 191.02 158.367 194.31C157.851 197.735 152.65 194.885 150.132 193.443C144.76 190.368 144.051 189.234 145.627 189.473L149.252 190.04Z" fill="#83A4FF"/>
    <path d="M145.287 194.216C145.287 194.216 153.391 195.267 152.896 198.039C152.381 200.923 148.048 198.393 145.952 197.115C141.48 194.39 140.908 193.415 142.234 193.654L145.287 194.216Z" fill="#83A4FF"/>
    <path d="M142.493 197.857C142.493 197.857 150.663 198.042 150.464 200.85C150.258 203.773 145.681 201.716 143.462 200.669C138.726 198.433 138.053 197.524 139.397 197.621L142.493 197.857Z" fill="#83A4FF"/>
    <path d="M155.581 178.987C155.581 178.987 162.864 170.213 165.81 173.518C168.876 176.959 162.628 179.728 159.542 181.015C152.958 183.762 151.366 183.502 152.637 182.131L155.581 178.987Z" fill="#83A4FF"/>
    <path opacity="0.5" d="M149.523 180.293C149.523 180.293 149.015 170.647 152.342 170.631C155.806 170.615 153.789 176.192 152.752 178.902C150.537 184.683 149.526 185.557 149.52 183.963L149.523 180.293Z" fill="white"/>
    <path opacity="0.5" d="M145.104 183.137C145.104 183.137 141.491 174.179 144.633 173.083C147.904 171.943 147.808 177.873 147.706 180.772C147.489 186.958 146.816 188.113 146.294 186.609L145.104 183.137Z" fill="white"/>
    <path opacity="0.5" d="M141.467 188.417C141.467 188.417 137.406 182.092 139.65 180.799C141.985 179.453 142.771 184.001 143.113 186.232C143.844 190.994 143.497 191.974 142.879 190.899L141.467 188.417Z" fill="white"/>
    <path opacity="0.5" d="M137.607 193.589C137.607 193.589 133.547 187.263 135.79 185.97C138.125 184.624 138.911 189.172 139.254 191.404C139.985 196.165 139.638 197.145 139.02 196.071L137.607 193.589Z" fill="white"/>
    <path opacity="0.5" d="M152.2 185.932C152.2 185.932 161.812 184.982 161.981 188.306C162.156 191.765 156.493 190.006 153.738 189.093C147.862 187.147 146.943 186.177 148.534 186.098L152.2 185.932Z" fill="white"/>
    <path opacity="0.5" d="M149.252 190.04C149.252 190.04 158.862 191.02 158.367 194.31C157.851 197.735 152.65 194.885 150.132 193.443C144.76 190.368 144.051 189.234 145.627 189.473L149.252 190.04Z" fill="white"/>
    <path opacity="0.5" d="M145.287 194.216C145.287 194.216 153.391 195.267 152.896 198.039C152.381 200.923 148.048 198.393 145.952 197.115C141.48 194.39 140.908 193.415 142.234 193.654L145.287 194.216Z" fill="white"/>
    <path opacity="0.5" d="M142.493 197.857C142.493 197.857 150.663 198.042 150.464 200.85C150.258 203.773 145.681 201.716 143.462 200.669C138.726 198.433 138.053 197.524 139.397 197.621L142.493 197.857Z" fill="white"/>
    <path opacity="0.5" d="M155.581 178.987C155.581 178.987 162.864 170.213 165.81 173.518C168.876 176.959 162.628 179.728 159.542 181.015C152.958 183.762 151.366 183.502 152.637 182.131L155.581 178.987Z" fill="white"/>
    <path d="M162.83 176.491C162.83 176.491 150.704 183.159 146.761 187.351C142.231 192.166 138.102 198.151 135.662 203.36" stroke="#263238" stroke-width="0.75" stroke-miterlimit="10" stroke-linecap="round" stroke-linejoin="round"/>
    <path d="M149.683 184.757L152.351 174.829" stroke="#263238" stroke-width="0.75" stroke-miterlimit="10" stroke-linecap="round" stroke-linejoin="round"/>
    <path d="M146.761 187.351L145.858 177.745" stroke="#263238" stroke-width="0.75" stroke-miterlimit="10" stroke-linecap="round" stroke-linejoin="round"/>
    <path d="M147.833 186.41L157.112 188.104" stroke="#263238" stroke-width="0.75" stroke-miterlimit="10" stroke-linecap="round" stroke-linejoin="round"/>
    <path d="M143.337 191.223L140.599 183.453" stroke="#263238" stroke-width="0.75" stroke-miterlimit="10" stroke-linecap="round" stroke-linejoin="round"/>
    <path d="M144.802 189.612L151.3 192.153" stroke="#263238" stroke-width="0.75" stroke-miterlimit="10" stroke-linecap="round" stroke-linejoin="round"/>
    <path d="M141.669 193.813L146.556 196.002" stroke="#263238" stroke-width="0.75" stroke-miterlimit="10" stroke-linecap="round" stroke-linejoin="round"/>
    <path d="M139.445 196.405L138.207 191.793" stroke="#263238" stroke-width="0.75" stroke-miterlimit="10" stroke-linecap="round" stroke-linejoin="round"/>
    <path d="M138.722 197.646L144.646 199.686" stroke="#263238" stroke-width="0.75" stroke-miterlimit="10" stroke-linecap="round" stroke-linejoin="round"/>
    <path d="M240.043 103.966C241.936 92.9107 234.509 82.4141 223.454 80.5208C212.399 78.6274 201.903 86.0544 200.009 97.1093C198.116 108.164 205.543 118.661 216.598 120.554C227.653 122.447 238.149 115.021 240.043 103.966Z" fill="#263238"/>
    <path d="M220.037 116.85C229.051 116.85 236.357 109.544 236.357 100.53C236.357 91.5172 229.051 84.2104 220.037 84.2104C211.024 84.2104 203.717 91.5172 203.717 100.53C203.717 109.544 211.024 116.85 220.037 116.85Z" fill="white" stroke="#263238" stroke-miterlimit="10" stroke-linecap="round" stroke-linejoin="round"/>
    <path d="M221.488 100.53C221.488 101.332 220.839 101.981 220.037 101.981C219.236 101.981 218.586 101.332 218.586 100.53C218.586 99.7291 219.236 99.0796 220.037 99.0796C220.839 99.0801 221.488 99.7297 221.488 100.53Z" fill="#263238"/>
    <path d="M215.171 107.897L220.037 100.531L228.251 107.327" stroke="#263238" stroke-miterlimit="10" stroke-linecap="round" stroke-linejoin="round"/>
    <path d="M59.2506 87.3583L57.4331 82.3916L58.4025 83.4818V81.7861L60.4621 84.9359L58.6446 73.6696L61.0676 79.8478L61.3097 74.3964L61.6736 76.2134L62.1577 70.0352L63.0058 79.4844L64.2173 76.2134L63.9753 80.4533L67.2458 70.7619L65.6709 82.8763L67.9726 81.1801L66.6403 83.361L68.336 82.1495L66.3977 87.7217L59.3714 87.843" fill="#83A4FF"/>
    <path d="M67.0233 99.5934H59.4465L57.4065 86.4678H69.0628L67.0233 99.5934Z" fill="#263238" stroke="#263238" stroke-miterlimit="10" stroke-linecap="round" stroke-linejoin="round"/>
    <path d="M96.3842 99.5024H37.3667V201.205H96.3842V99.5024Z" fill="#263238" stroke="#263238" stroke-miterlimit="10" stroke-linecap="round" stroke-linejoin="round"/>
    <path d="M96.3836 99.5024H58.1523V201.205H96.3836V99.5024Z" fill="white" stroke="#263238" stroke-miterlimit="10" stroke-linecap="round" stroke-linejoin="round"/>
    <path d="M93.7856 102.843H60.3796V127.341H93.7856V102.843Z" fill="white" stroke="#263238" stroke-miterlimit="10" stroke-linecap="round" stroke-linejoin="round"/>
    <path d="M83.7641 112.865H70.4019V117.319H83.7641V112.865Z" fill="#263238"/>
    <path d="M93.7856 131.424H60.3796V155.922H93.7856V131.424Z" fill="white" stroke="#263238" stroke-miterlimit="10" stroke-linecap="round" stroke-linejoin="round"/>
    <path d="M83.7641 141.446H70.4019V145.9H83.7641V141.446Z" fill="#263238"/>
    <path d="M93.7856 160.005H60.3796V184.503H93.7856V160.005Z" fill="white" stroke="#263238" stroke-miterlimit="10" stroke-linecap="round" stroke-linejoin="round"/>
    <path d="M83.7641 170.026H70.4019V174.481H83.7641V170.026Z" fill="#263238"/>
    <path d="M162.562 128.828C162.562 128.828 162.175 125.729 158.818 120.435C155.461 115.141 158.689 113.462 162.175 109.201C165.661 104.94 171.084 105.844 174.054 106.489C177.024 107.135 182.059 108.426 183.222 112.429C184.384 116.432 184.771 125.213 184.901 125.987C185.03 126.762 183.609 127.021 182.964 126.892C182.318 126.763 180.898 119.531 179.09 117.982C177.283 116.433 169.277 117.466 167.082 120.177C164.887 122.889 165.533 126.762 165.662 128.441C165.791 130.12 165.016 130.636 164.241 130.765C163.466 130.894 162.562 128.828 162.562 128.828Z" fill="#263238" stroke="#263238" stroke-miterlimit="10" stroke-linecap="round" stroke-linejoin="round"/>
    <path d="M173.853 137.773C173.853 137.773 161.885 140.493 158.213 141.581C154.541 142.669 151.141 143.485 151.821 145.117C152.501 146.749 148.149 160.349 148.149 160.349L142.029 175.173L150.733 181.973L157.669 168.509L163.925 199.109H205.949C205.949 199.109 204.725 148.109 202.685 145.525C200.645 142.941 184.461 137.365 180.517 136.957C176.573 136.549 173.853 137.773 173.853 137.773Z" fill="#83A4FF" stroke="#263238" stroke-miterlimit="10" stroke-linecap="round" stroke-linejoin="round"/>
    <path d="M193.639 167.095C193.639 167.095 190.878 161.342 189.037 155.128" stroke="#263238" stroke-miterlimit="10" stroke-linecap="round" stroke-linejoin="round"/>
    <path d="M189.737 165.984C190.839 167.32 192.591 168.723 195.25 169.166" stroke="#263238" stroke-miterlimit="10" stroke-linecap="round" stroke-linejoin="round"/>
    <path d="M188.116 163.183C188.116 163.183 188.341 163.89 188.911 164.823" stroke="#263238" stroke-miterlimit="10" stroke-linecap="round" stroke-linejoin="round"/>
    <path d="M155.338 155.844L157.669 168.509L153.419 155.842" stroke="#263238" stroke-miterlimit="10" stroke-linecap="round" stroke-linejoin="round"/>
    <path d="M154.524 151.419L155.014 154.08" stroke="#263238" stroke-miterlimit="10" stroke-linecap="round" stroke-linejoin="round"/>
    <path d="M164.37 130.249C164.37 130.249 163.078 127.149 161.916 127.149C160.754 127.149 161.012 128.828 161.529 130.765C162.045 132.701 163.595 134.897 164.757 134.897C165.919 134.897 165.919 134.897 165.919 134.897L164.37 130.249Z" fill="white" stroke="#263238" stroke-miterlimit="10" stroke-linecap="round" stroke-linejoin="round"/>
    <path d="M183.093 125.084C183.093 125.084 184.384 121.34 185.03 123.276C185.675 125.213 185.675 127.796 185.159 129.861C184.642 131.927 184.513 132.702 183.997 132.573C183.48 132.444 183.093 125.084 183.093 125.084Z" fill="white" stroke="#263238" stroke-miterlimit="10" stroke-linecap="round" stroke-linejoin="round"/>
    <path d="M170.635 156.484L171.061 156.949L172.048 158.025L174.231 162.778L172.946 192.445L177.185 198.996L180.909 190.776L175.387 162.649L176.543 157.512L177.698 154.044L176.928 153.402L175.644 155.971L171.791 155.842L169.992 154.429L169.222 156.099L170.635 156.484Z" fill="#263238" stroke="#263238" stroke-miterlimit="10" stroke-linecap="round" stroke-linejoin="round"/>
    <path d="M168.323 136.963C168.323 136.963 165.241 140.687 164.984 144.283C164.727 147.88 167.681 158.796 167.681 158.796C167.681 158.796 171.663 155.842 174.231 155.842C176.8 155.842 182.707 160.851 182.707 160.851C182.707 160.851 186.689 148.007 184.634 140.43C182.578 132.853 173.717 130.926 168.323 136.963Z" fill="white" stroke="#263238" stroke-miterlimit="10" stroke-linecap="round" stroke-linejoin="round"/>
    <path d="M168.58 138.247C168.58 138.247 169.607 142.999 170.378 146.081C171.148 149.164 173.203 156.356 174.231 155.842C175.258 155.329 179.753 144.669 179.882 141.972C180.01 139.274 171.277 132.211 168.58 138.247Z" fill="#83A4FF"/>
    <mask id="mask0_2020_1052" style="mask-type:luminance" maskUnits="userSpaceOnUse" x="168" y="135" width="12" height="21">
    <path d="M168.58 138.247C168.58 138.247 169.607 142.999 170.378 146.081C171.148 149.164 173.203 156.356 174.231 155.842C175.258 155.329 179.753 144.669 179.882 141.972C180.01 139.274 171.277 132.211 168.58 138.247Z" fill="white"/>
    </mask>
    <g mask="url(#mask0_2020_1052)">
    <path opacity="0.5" d="M168.58 138.247C168.58 138.247 169.607 142.999 170.378 146.081C171.148 149.164 173.203 156.356 174.231 155.842C175.258 155.329 179.753 144.669 179.882 141.972C180.01 139.274 171.277 132.211 168.58 138.247Z" fill="white" stroke="#263238" stroke-miterlimit="10" stroke-linecap="round" stroke-linejoin="round"/>
    </g>
    <path d="M168.58 138.247C168.58 138.247 169.607 142.999 170.378 146.081C171.148 149.164 173.203 156.356 174.231 155.842C175.258 155.329 179.753 144.669 179.882 141.972C180.01 139.274 171.277 132.211 168.58 138.247Z" stroke="#263238" stroke-miterlimit="10" stroke-linecap="round" stroke-linejoin="round"/>
    <path d="M165.115 118.718C165.115 118.718 163.365 121.769 163.632 124.119C163.898 126.469 164.213 131.153 165.49 134.637C166.766 138.119 170.866 141.807 173.926 144.784C176.986 147.761 179.746 145.842 180.722 144.429C181.698 143.017 183.166 137.826 183.891 133.852C184.616 129.879 183.132 120.236 181.779 117.807C180.426 115.378 171.748 111.57 165.115 118.718Z" fill="white"/>
    <mask id="mask1_2020_1052" style="mask-type:luminance" maskUnits="userSpaceOnUse" x="163" y="114" width="22" height="33">
    <path d="M165.115 118.718C165.115 118.718 163.365 121.769 163.632 124.119C163.898 126.469 164.213 131.153 165.49 134.637C166.766 138.119 170.866 141.807 173.926 144.784C176.986 147.761 179.746 145.842 180.722 144.429C181.698 143.017 183.166 137.826 183.891 133.852C184.616 129.879 183.132 120.236 181.779 117.807C180.426 115.378 171.748 111.57 165.115 118.718Z" fill="white"/>
    </mask>
    <g mask="url(#mask1_2020_1052)">
    <path d="M165.115 118.718C165.115 118.718 164.423 119.926 163.976 121.408C164.303 121.577 167.692 123.314 169.189 123.314C170.763 123.314 164.992 124.189 166.741 126.287C168.49 128.385 176.883 126.462 179.506 124.538C182.129 122.615 182.304 123.139 182.304 123.139C182.304 123.139 183.528 131.882 182.654 136.604C181.78 141.325 180.38 144.123 178.108 144.823C175.834 145.522 172.596 142.655 170.588 140.451C169.568 139.331 168.188 138.268 167.075 137.491C168.914 140.063 171.694 142.613 173.926 144.783C176.986 147.76 179.746 145.841 180.722 144.429C181.698 143.016 183.166 137.825 183.891 133.852C184.617 129.878 183.132 120.235 181.78 117.806C180.426 115.378 171.748 111.571 165.115 118.718Z" fill="#83A4FF"/>
    </g>
    <mask id="mask2_2020_1052" style="mask-type:luminance" maskUnits="userSpaceOnUse" x="163" y="114" width="22" height="33">
    <path d="M165.115 118.718C165.115 118.718 163.365 121.769 163.632 124.119C163.898 126.469 164.213 131.153 165.49 134.637C166.766 138.119 170.866 141.807 173.926 144.784C176.986 147.761 179.746 145.842 180.722 144.429C181.698 143.017 183.166 137.826 183.891 133.852C184.616 129.879 183.132 120.236 181.779 117.807C180.426 115.378 171.748 111.57 165.115 118.718Z" fill="white"/>
    </mask>
    <g mask="url(#mask2_2020_1052)">
    <path opacity="0.5" d="M165.115 118.718C165.115 118.718 164.423 119.926 163.976 121.408C164.303 121.577 167.692 123.314 169.189 123.314C170.763 123.314 164.992 124.189 166.741 126.287C168.49 128.385 176.883 126.462 179.506 124.538C182.129 122.615 182.304 123.139 182.304 123.139C182.304 123.139 183.528 131.882 182.654 136.604C181.78 141.325 180.38 144.123 178.108 144.823C175.834 145.522 172.596 142.655 170.588 140.451C169.568 139.331 168.188 138.268 167.075 137.491C168.914 140.063 171.694 142.613 173.926 144.783C176.986 147.76 179.746 145.841 180.722 144.429C181.698 143.016 183.166 137.825 183.891 133.852C184.617 129.878 183.132 120.235 181.78 117.806C180.426 115.378 171.748 111.571 165.115 118.718Z" fill="white"/>
    </g>
    <mask id="mask3_2020_1052" style="mask-type:luminance" maskUnits="userSpaceOnUse" x="163" y="114" width="22" height="33">
    <path d="M165.115 118.718C165.115 118.718 163.365 121.769 163.632 124.119C163.898 126.469 164.213 131.153 165.49 134.637C166.766 138.119 170.866 141.807 173.926 144.784C176.986 147.761 179.746 145.842 180.722 144.429C181.698 143.017 183.166 137.826 183.891 133.852C184.616 129.879 183.132 120.236 181.779 117.807C180.426 115.378 171.748 111.57 165.115 118.718Z" fill="white"/>
    </mask>
    <g mask="url(#mask3_2020_1052)">
    <path d="M171.843 131.716C171.976 132.448 171.787 133.095 171.421 133.161C171.055 133.228 170.651 132.688 170.518 131.956C170.386 131.225 170.575 130.578 170.941 130.511C171.307 130.445 171.711 130.985 171.843 131.716Z" fill="#263238"/>
    </g>
    <mask id="mask4_2020_1052" style="mask-type:luminance" maskUnits="userSpaceOnUse" x="163" y="114" width="22" height="33">
    <path d="M165.115 118.718C165.115 118.718 163.365 121.769 163.632 124.119C163.898 126.469 164.213 131.153 165.49 134.637C166.766 138.119 170.866 141.807 173.926 144.784C176.986 147.761 179.746 145.842 180.722 144.429C181.698 143.017 183.166 137.826 183.891 133.852C184.616 129.879 183.132 120.236 181.779 117.807C180.426 115.378 171.748 111.57 165.115 118.718Z" fill="white"/>
    </mask>
    <g mask="url(#mask4_2020_1052)">
    <path d="M178.486 130.242C178.619 130.974 178.429 131.621 178.063 131.687C177.697 131.753 177.293 131.214 177.161 130.482C177.028 129.75 177.217 129.104 177.583 129.037C177.949 128.971 178.354 129.51 178.486 130.242Z" fill="#263238"/>
    </g>
    <mask id="mask5_2020_1052" style="mask-type:luminance" maskUnits="userSpaceOnUse" x="163" y="114" width="22" height="33">
    <path d="M165.115 118.718C165.115 118.718 163.365 121.769 163.632 124.119C163.898 126.469 164.213 131.153 165.49 134.637C166.766 138.119 170.866 141.807 173.926 144.784C176.986 147.761 179.746 145.842 180.722 144.429C181.698 143.017 183.166 137.826 183.891 133.852C184.616 129.879 183.132 120.236 181.779 117.807C180.426 115.378 171.748 111.57 165.115 118.718Z" fill="white"/>
    </mask>
    <g mask="url(#mask5_2020_1052)">
    <path d="M167.35 129.763C167.35 129.763 167.649 128.118 171.988 128.118" stroke="#263238" stroke-miterlimit="10" stroke-linecap="round" stroke-linejoin="round"/>
    </g>
    <mask id="mask6_2020_1052" style="mask-type:luminance" maskUnits="userSpaceOnUse" x="163" y="114" width="22" height="33">
    <path d="M165.115 118.718C165.115 118.718 163.365 121.769 163.632 124.119C163.898 126.469 164.213 131.153 165.49 134.637C166.766 138.119 170.866 141.807 173.926 144.784C176.986 147.761 179.746 145.842 180.722 144.429C181.698 143.017 183.166 137.826 183.891 133.852C184.616 129.879 183.132 120.236 181.779 117.807C180.426 115.378 171.748 111.57 165.115 118.718Z" fill="white"/>
    </mask>
    <g mask="url(#mask6_2020_1052)">
    <path d="M175.729 127.519C175.729 127.519 177.075 124.377 179.769 126.173" stroke="#263238" stroke-miterlimit="10" stroke-linecap="round" stroke-linejoin="round"/>
    </g>
    <mask id="mask7_2020_1052" style="mask-type:luminance" maskUnits="userSpaceOnUse" x="163" y="114" width="22" height="33">
    <path d="M165.115 118.718C165.115 118.718 163.365 121.769 163.632 124.119C163.898 126.469 164.213 131.153 165.49 134.637C166.766 138.119 170.866 141.807 173.926 144.784C176.986 147.761 179.746 145.842 180.722 144.429C181.698 143.017 183.166 137.826 183.891 133.852C184.616 129.879 183.132 120.236 181.779 117.807C180.426 115.378 171.748 111.57 165.115 118.718Z" fill="white"/>
    </mask>
    <g mask="url(#mask7_2020_1052)">
    <path d="M176.028 129.913C176.028 129.913 176.178 132.606 177.374 133.803C178.571 135 178.422 135.449 177.374 136.347C176.327 137.245 174.98 136.796 174.98 136.796" stroke="#263238" stroke-miterlimit="10" stroke-linecap="round" stroke-linejoin="round"/>
    </g>
    <mask id="mask8_2020_1052" style="mask-type:luminance" maskUnits="userSpaceOnUse" x="163" y="114" width="22" height="33">
    <path d="M165.115 118.718C165.115 118.718 163.365 121.769 163.632 124.119C163.898 126.469 164.213 131.153 165.49 134.637C166.766 138.119 170.866 141.807 173.926 144.784C176.986 147.761 179.746 145.842 180.722 144.429C181.698 143.017 183.166 137.826 183.891 133.852C184.616 129.879 183.132 120.236 181.779 117.807C180.426 115.378 171.748 111.57 165.115 118.718Z" fill="white"/>
    </mask>
    <g mask="url(#mask8_2020_1052)">
    <path d="M175.729 140.087C175.729 140.087 178.122 139.788 179.17 138.89" stroke="#263238" stroke-miterlimit="10" stroke-linecap="round" stroke-linejoin="round"/>
    </g>
    <path d="M165.115 118.718C165.115 118.718 163.365 121.769 163.632 124.119C163.898 126.469 164.213 131.153 165.49 134.637C166.766 138.119 170.866 141.807 173.926 144.784C176.986 147.761 179.746 145.842 180.722 144.429C181.698 143.017 183.166 137.826 183.891 133.852C184.616 129.879 183.132 120.236 181.779 117.807C180.426 115.378 171.748 111.57 165.115 118.718Z" stroke="#263238" stroke-miterlimit="10" stroke-linecap="round" stroke-linejoin="round"/>
    <path d="M160.562 118.915C160.562 118.915 165.638 120.902 168.066 120.902C170.493 120.902 169.169 121.343 167.624 122.667C166.08 123.991 165.859 125.757 171.597 125.757C177.335 125.757 182.41 119.577 184.176 114.281C185.942 108.985 186.824 109.868 183.735 108.323C180.645 106.778 172.701 110.75 172.701 110.75" fill="#263238"/>
    <path d="M160.562 118.915C160.562 118.915 165.638 120.902 168.066 120.902C170.493 120.902 169.169 121.343 167.624 122.667C166.08 123.991 165.859 125.757 171.597 125.757C177.335 125.757 182.41 119.577 184.176 114.281C185.942 108.985 186.824 109.868 183.735 108.323C180.645 106.778 172.701 110.75 172.701 110.75" stroke="#263238" stroke-miterlimit="10" stroke-linecap="round" stroke-linejoin="round"/>
    <path d="M181.443 112.327C181.443 112.327 182.824 120.611 175 122.912" stroke="white" stroke-miterlimit="10" stroke-linecap="round" stroke-linejoin="round"/>
    <path d="M179.832 112.327C179.832 112.327 176.6 117.442 170.858 118.079C165.116 118.717 161.884 115.318 161.884 115.318" stroke="white" stroke-miterlimit="10" stroke-linecap="round" stroke-linejoin="round"/>
    <path d="M164.184 120.611C164.184 120.611 160.963 120.841 159.352 119" stroke="white" stroke-miterlimit="10" stroke-linecap="round" stroke-linejoin="round"/>
    <path d="M152.501 178.572C152.501 178.572 151.685 175.308 147.061 173.54C142.437 171.772 141.893 172.588 141.213 173.948C140.533 175.308 138.493 177.348 138.901 178.708C139.309 180.068 140.941 183.332 146.925 184.556C152.909 185.78 151.685 182.788 152.365 181.972C153.045 181.156 153.725 181.564 152.501 178.572Z" fill="white" stroke="#263238" stroke-miterlimit="10" stroke-linecap="round" stroke-linejoin="round"/>
    <path d="M108.573 189.996C108.573 189.996 102.453 192.036 102.725 193.396C102.997 194.756 108.709 191.764 108.709 191.764C108.709 191.764 109.661 193.532 111.429 192.852C113.197 192.172 111.701 189.452 110.749 189.588C109.797 189.724 108.573 189.996 108.573 189.996Z" fill="white" stroke="#263238" stroke-miterlimit="10" stroke-linecap="round" stroke-linejoin="round"/>
    <path d="M141.349 188.908C141.349 188.908 149.645 184.42 149.645 182.244C149.645 180.068 143.389 177.212 141.757 177.348C140.125 177.484 139.445 178.028 138.221 180.068C136.997 182.108 127.069 191.356 127.069 191.356C127.069 191.356 120.541 186.732 118.637 186.732C116.733 186.732 112.381 191.764 112.109 193.804C111.837 195.844 121.085 196.796 124.757 196.796C129.278 196.796 141.349 188.908 141.349 188.908Z" fill="white"/>
    <mask id="mask9_2020_1052" style="mask-type:luminance" maskUnits="userSpaceOnUse" x="112" y="177" width="38" height="20">
    <path d="M141.349 188.908C141.349 188.908 149.645 184.42 149.645 182.244C149.645 180.068 143.389 177.212 141.757 177.348C140.125 177.484 139.445 178.028 138.221 180.068C136.997 182.108 127.069 191.356 127.069 191.356C127.069 191.356 120.541 186.732 118.637 186.732C116.733 186.732 112.381 191.764 112.109 193.804C111.837 195.844 121.085 196.796 124.757 196.796C129.278 196.796 141.349 188.908 141.349 188.908Z" fill="white"/>
    </mask>
    <g mask="url(#mask9_2020_1052)">
    <path d="M149.645 182.244C149.645 180.068 143.389 177.212 141.757 177.348C140.76 177.432 140.118 177.669 139.49 178.306C140.87 178.145 142.878 178.205 144.779 179.346C148.124 181.353 145.281 184.196 143.107 185.701C140.933 187.206 128.725 195.066 126.049 195.401C123.373 195.735 120.843 193.857 119.181 192.037C117.52 190.216 116.349 188.879 114.342 190.049C114.3 190.074 114.26 190.109 114.218 190.137C113.429 191.094 112.758 192.095 112.393 192.91C112.274 193.297 112.188 193.696 112.142 194.094C112.729 195.935 121.264 196.798 124.757 196.798C129.278 196.798 141.349 188.91 141.349 188.91C141.349 188.91 149.645 184.42 149.645 182.244Z" fill="#83A4FF"/>
    </g>
    <mask id="mask10_2020_1052" style="mask-type:luminance" maskUnits="userSpaceOnUse" x="112" y="177" width="38" height="20">
    <path d="M141.349 188.908C141.349 188.908 149.645 184.42 149.645 182.244C149.645 180.068 143.389 177.212 141.757 177.348C140.125 177.484 139.445 178.028 138.221 180.068C136.997 182.108 127.069 191.356 127.069 191.356C127.069 191.356 120.541 186.732 118.637 186.732C116.733 186.732 112.381 191.764 112.109 193.804C111.837 195.844 121.085 196.796 124.757 196.796C129.278 196.796 141.349 188.908 141.349 188.908Z" fill="white"/>
    </mask>
    <g mask="url(#mask10_2020_1052)">
    <path opacity="0.5" d="M149.645 182.244C149.645 180.068 143.389 177.212 141.757 177.348C140.76 177.432 140.118 177.669 139.49 178.306C140.87 178.145 142.878 178.205 144.779 179.346C148.124 181.353 145.281 184.196 143.107 185.701C140.933 187.206 128.725 195.066 126.049 195.401C123.373 195.735 120.843 193.857 119.181 192.037C117.52 190.216 116.349 188.879 114.342 190.049C114.3 190.074 114.26 190.109 114.218 190.137C113.429 191.094 112.758 192.095 112.393 192.91C112.274 193.297 112.188 193.696 112.142 194.094C112.729 195.935 121.264 196.798 124.757 196.798C129.278 196.798 141.349 188.91 141.349 188.91C141.349 188.91 149.645 184.42 149.645 182.244Z" fill="white"/>
    </g>
    <path d="M141.349 188.908C141.349 188.908 149.645 184.42 149.645 182.244C149.645 180.068 143.389 177.212 141.757 177.348C140.125 177.484 139.445 178.028 138.221 180.068C136.997 182.108 127.069 191.356 127.069 191.356C127.069 191.356 120.541 186.732 118.637 186.732C116.733 186.732 112.381 191.764 112.109 193.804C111.837 195.844 121.085 196.796 124.757 196.796C129.278 196.796 141.349 188.908 141.349 188.908Z" stroke="#263238" stroke-miterlimit="10" stroke-linecap="round" stroke-linejoin="round"/>
    <path d="M111.021 187.004C111.021 187.004 108.437 188.228 108.165 189.044C107.893 189.86 106.125 194.62 107.349 195.164C108.573 195.708 110.205 190.132 110.749 189.588C111.293 189.044 112.109 187.82 111.021 187.004Z" fill="white" stroke="#263238" stroke-miterlimit="10" stroke-linecap="round" stroke-linejoin="round"/>
    <path d="M113.741 186.868C113.741 186.868 112.109 185.508 111.021 187.004C109.933 188.5 109.117 193.804 109.661 194.892C110.205 195.98 111.565 194.892 112.109 193.804C112.653 192.716 113.741 186.868 113.741 186.868Z" fill="white" stroke="#263238" stroke-miterlimit="10" stroke-linecap="round" stroke-linejoin="round"/>
    <path d="M119.453 187.549C119.453 187.549 116.869 185.373 115.373 185.237C113.877 185.101 113.333 186.189 113.197 187.413C113.061 188.637 111.157 194.213 111.701 194.485C112.245 194.757 113.333 194.621 114.013 193.397C114.693 192.173 116.053 188.229 116.053 188.229L117.141 189.045" fill="white"/>
    <path d="M119.453 187.549C119.453 187.549 116.869 185.373 115.373 185.237C113.877 185.101 113.333 186.189 113.197 187.413C113.061 188.637 111.157 194.213 111.701 194.485C112.245 194.757 113.333 194.621 114.013 193.397C114.693 192.173 116.053 188.229 116.053 188.229L117.141 189.045" stroke="#263238" stroke-miterlimit="10" stroke-linecap="round" stroke-linejoin="round"/>
    <path d="M126.525 194.212C126.525 194.212 127.069 190.948 126.117 189.588C125.165 188.228 122.853 188.364 121.085 186.324C119.317 184.284 117.957 185.508 118.365 187.276C118.773 189.044 122.717 190.132 122.717 190.132C122.717 190.132 119.453 190.404 119.181 192.036C118.909 193.668 122.537 194.397 122.537 194.397" fill="white"/>
    <path d="M126.525 194.212C126.525 194.212 127.069 190.948 126.117 189.588C125.165 188.228 122.853 188.364 121.085 186.324C119.317 184.284 117.957 185.508 118.365 187.276C118.773 189.044 122.717 190.132 122.717 190.132C122.717 190.132 119.453 190.404 119.181 192.036C118.909 193.668 122.537 194.397 122.537 194.397" stroke="#263238" stroke-miterlimit="10" stroke-linecap="round" stroke-linejoin="round"/>
    <path d="M117.26 182.605C117.26 182.605 120.345 182.826 122.77 184.369" stroke="#263238" stroke-miterlimit="10" stroke-linecap="round" stroke-linejoin="round"/>
    <path d="M119.464 181.724C119.464 181.724 122.329 182.605 123.652 183.707" stroke="#263238" stroke-miterlimit="10" stroke-linecap="round" stroke-linejoin="round"/>
    <path d="M195.341 151.373C195.341 151.373 193.709 154.229 193.165 155.861C192.621 157.493 194.117 177.621 194.117 177.621C194.117 177.621 196.837 176.669 199.693 177.349C202.549 178.029 208.261 181.157 208.261 181.157C208.261 181.157 208.805 175.309 207.853 170.957C206.901 166.605 205.133 149.061 203.909 147.293C202.685 145.525 203.093 144.573 200.509 145.525" fill="#83A4FF"/>
    <path d="M195.341 151.373C195.341 151.373 193.709 154.229 193.165 155.861C192.621 157.493 194.117 177.621 194.117 177.621C194.117 177.621 196.837 176.669 199.693 177.349C202.549 178.029 208.261 181.157 208.261 181.157C208.261 181.157 208.805 175.309 207.853 170.957C206.901 166.605 205.133 149.061 203.909 147.293C202.685 145.525 203.093 144.573 200.509 145.525" stroke="#263238" stroke-miterlimit="10" stroke-linecap="round" stroke-linejoin="round"/>
    <path d="M210.165 177.757C210.165 177.757 206.493 174.629 203.637 173.949C200.781 173.269 195.341 173.949 194.525 174.221C193.709 174.493 193.165 175.445 193.029 176.805C192.893 178.165 191.941 179.117 192.621 179.933C193.301 180.749 197.109 183.333 200.237 184.149C203.365 184.965 208.125 184.693 208.805 182.653C209.485 180.613 210.845 179.253 210.165 177.757Z" fill="white" stroke="#263238" stroke-miterlimit="10" stroke-linecap="round" stroke-linejoin="round"/>
    <path d="M137.33 188.754C137.33 188.754 132.951 190.631 131.544 191.101C130.136 191.57 129.663 192.864 130.918 193.29C132.173 193.716 137.886 191.572 138.425 191.726C138.964 191.881 144.837 193.759 146.715 193.916C148.591 194.073 150.155 192.821 150.155 192.821C150.155 192.821 141.24 187.19 137.33 188.754Z" fill="white" stroke="#263238" stroke-miterlimit="10" stroke-linecap="round" stroke-linejoin="round"/>
    <path d="M204.319 186.474C207.528 185.472 207.982 181.042 205.06 179.381C204.19 178.887 203.171 178.448 202.005 178.165C197.517 177.077 193.573 178.165 192.213 178.709C190.853 179.253 160.321 188.599 158.131 188.911C155.942 189.224 141.555 184.377 139.364 184.219C136.461 184.011 133.111 191.673 132.173 193.717C132.019 194.052 131.867 194.405 131.882 194.773C131.897 195.142 132.131 195.529 132.494 195.594C132.908 195.668 133.269 195.322 133.531 194.994C135.465 192.582 136.526 189.435 138.965 187.536C137.837 189.714 136.709 191.891 135.581 194.069C135.397 194.423 135.209 194.79 135.188 195.189C135.167 195.587 135.359 196.026 135.733 196.163C136.265 196.359 136.796 195.882 137.12 195.418C137.881 194.326 138.348 193.061 138.964 191.881C139.58 190.701 140.403 189.554 141.602 188.977C140.272 191.261 139.189 193.689 138.381 196.205C138.254 196.601 138.411 197.067 138.791 197.236C139.319 197.472 139.717 196.958 139.969 196.517C141.18 194.402 142.392 192.287 143.603 190.172C142.644 192.36 141.777 194.588 141.005 196.848C140.952 197.003 140.899 197.169 140.943 197.327C140.987 197.485 141.123 197.605 141.275 197.671C141.676 197.847 142.162 197.686 142.486 197.39C142.81 197.094 143.004 196.686 143.186 196.286C143.837 194.856 144.303 193.327 144.978 191.919C146.854 192.319 148.419 194.07 150.468 194.385C152.501 194.698 156.255 193.76 156.255 193.76C156.255 193.76 193.573 188.637 198.469 187.685C200.672 187.256 202.656 186.993 204.319 186.474Z" fill="white"/>
    <mask id="mask11_2020_1052" style="mask-type:luminance" maskUnits="userSpaceOnUse" x="131" y="177" width="77" height="21">
    <path d="M204.319 186.474C207.528 185.472 207.982 181.042 205.06 179.381C204.19 178.887 203.171 178.448 202.005 178.165C197.517 177.077 193.573 178.165 192.213 178.709C190.853 179.253 160.321 188.599 158.131 188.911C155.942 189.224 141.555 184.377 139.364 184.219C136.461 184.011 133.111 191.673 132.173 193.717C132.019 194.052 131.867 194.405 131.882 194.773C131.897 195.142 132.131 195.529 132.494 195.594C132.908 195.668 133.269 195.322 133.531 194.994C135.465 192.582 136.526 189.435 138.965 187.536C137.837 189.714 136.709 191.891 135.581 194.069C135.397 194.423 135.209 194.79 135.188 195.189C135.167 195.587 135.359 196.026 135.733 196.163C136.265 196.359 136.796 195.882 137.12 195.418C137.881 194.326 138.348 193.061 138.964 191.881C139.58 190.701 140.403 189.554 141.602 188.977C140.272 191.261 139.189 193.689 138.381 196.205C138.254 196.601 138.411 197.067 138.791 197.236C139.319 197.472 139.717 196.958 139.969 196.517C141.18 194.402 142.392 192.287 143.603 190.172C142.644 192.36 141.777 194.588 141.005 196.848C140.952 197.003 140.899 197.169 140.943 197.327C140.987 197.485 141.123 197.605 141.275 197.671C141.676 197.847 142.162 197.686 142.486 197.39C142.81 197.094 143.004 196.686 143.186 196.286C143.837 194.856 144.303 193.327 144.978 191.919C146.854 192.319 148.419 194.07 150.468 194.385C152.501 194.698 156.255 193.76 156.255 193.76C156.255 193.76 193.573 188.637 198.469 187.685C200.672 187.256 202.656 186.993 204.319 186.474Z" fill="white"/>
    </mask>
    <g mask="url(#mask11_2020_1052)">
    <path d="M203.646 181.185C202.81 183.359 180.735 188.711 171.202 190.383C161.67 192.056 156.318 193.895 152.639 192.558C148.96 191.22 145.616 189.38 144.779 190.551C144.101 191.501 142.871 195.314 142.432 197.433C142.45 197.418 142.469 197.405 142.485 197.39C142.809 197.094 143.004 196.686 143.186 196.286C143.836 194.856 144.302 193.327 144.977 191.919C146.854 192.319 148.419 194.07 150.468 194.385C152.501 194.698 156.254 193.759 156.254 193.759C156.254 193.759 193.572 188.637 198.468 187.685C200.672 187.256 202.655 186.993 204.319 186.474C207.527 185.472 207.981 181.042 205.06 179.38C204.19 178.886 203.171 178.447 202.004 178.165C202.004 178.165 204.482 179.011 203.646 181.185Z" fill="#83A4FF"/>
    </g>
    <mask id="mask12_2020_1052" style="mask-type:luminance" maskUnits="userSpaceOnUse" x="131" y="177" width="77" height="21">
    <path d="M204.319 186.474C207.528 185.472 207.982 181.042 205.06 179.381C204.19 178.887 203.171 178.448 202.005 178.165C197.517 177.077 193.573 178.165 192.213 178.709C190.853 179.253 160.321 188.599 158.131 188.911C155.942 189.224 141.555 184.377 139.364 184.219C136.461 184.011 133.111 191.673 132.173 193.717C132.019 194.052 131.867 194.405 131.882 194.773C131.897 195.142 132.131 195.529 132.494 195.594C132.908 195.668 133.269 195.322 133.531 194.994C135.465 192.582 136.526 189.435 138.965 187.536C137.837 189.714 136.709 191.891 135.581 194.069C135.397 194.423 135.209 194.79 135.188 195.189C135.167 195.587 135.359 196.026 135.733 196.163C136.265 196.359 136.796 195.882 137.12 195.418C137.881 194.326 138.348 193.061 138.964 191.881C139.58 190.701 140.403 189.554 141.602 188.977C140.272 191.261 139.189 193.689 138.381 196.205C138.254 196.601 138.411 197.067 138.791 197.236C139.319 197.472 139.717 196.958 139.969 196.517C141.18 194.402 142.392 192.287 143.603 190.172C142.644 192.36 141.777 194.588 141.005 196.848C140.952 197.003 140.899 197.169 140.943 197.327C140.987 197.485 141.123 197.605 141.275 197.671C141.676 197.847 142.162 197.686 142.486 197.39C142.81 197.094 143.004 196.686 143.186 196.286C143.837 194.856 144.303 193.327 144.978 191.919C146.854 192.319 148.419 194.07 150.468 194.385C152.501 194.698 156.255 193.76 156.255 193.76C156.255 193.76 193.573 188.637 198.469 187.685C200.672 187.256 202.656 186.993 204.319 186.474Z" fill="white"/>
    </mask>
    <g mask="url(#mask12_2020_1052)">
    <path opacity="0.5" d="M203.646 181.185C202.81 183.359 180.735 188.711 171.202 190.383C161.67 192.056 156.318 193.895 152.639 192.558C148.96 191.22 145.616 189.38 144.779 190.551C144.101 191.501 142.871 195.314 142.432 197.433C142.45 197.418 142.469 197.405 142.485 197.39C142.809 197.094 143.004 196.686 143.186 196.286C143.836 194.856 144.302 193.327 144.977 191.919C146.854 192.319 148.419 194.07 150.468 194.385C152.501 194.698 156.254 193.759 156.254 193.759C156.254 193.759 193.572 188.637 198.468 187.685C200.672 187.256 202.655 186.993 204.319 186.474C207.527 185.472 207.981 181.042 205.06 179.38C204.19 178.886 203.171 178.447 202.004 178.165C202.004 178.165 204.482 179.011 203.646 181.185Z" fill="white"/>
    </g>
    <path d="M204.319 186.474C207.528 185.472 207.982 181.042 205.06 179.381C204.19 178.887 203.171 178.448 202.005 178.165C197.517 177.077 193.573 178.165 192.213 178.709C190.853 179.253 160.321 188.599 158.131 188.911C155.942 189.224 141.555 184.377 139.364 184.219C136.461 184.011 133.111 191.673 132.173 193.717C132.019 194.052 131.867 194.405 131.882 194.773C131.897 195.142 132.131 195.529 132.494 195.594C132.908 195.668 133.269 195.322 133.531 194.994C135.465 192.582 136.526 189.435 138.965 187.536C137.837 189.714 136.709 191.891 135.581 194.069C135.397 194.423 135.209 194.79 135.188 195.189C135.167 195.587 135.359 196.026 135.733 196.163C136.265 196.359 136.796 195.882 137.12 195.418C137.881 194.326 138.348 193.061 138.964 191.881C139.58 190.701 140.403 189.554 141.602 188.977C140.272 191.261 139.189 193.689 138.381 196.205C138.254 196.601 138.411 197.067 138.791 197.236C139.319 197.472 139.717 196.958 139.969 196.517C141.18 194.402 142.392 192.287 143.603 190.172C142.644 192.36 141.777 194.588 141.005 196.848C140.952 197.003 140.899 197.169 140.943 197.327C140.987 197.485 141.123 197.605 141.275 197.671C141.676 197.847 142.162 197.686 142.486 197.39C142.81 197.094 143.004 196.686 143.186 196.286C143.837 194.856 144.303 193.327 144.978 191.919C146.854 192.319 148.419 194.07 150.468 194.385C152.501 194.698 156.255 193.76 156.255 193.76C156.255 193.76 193.573 188.637 198.469 187.685C200.672 187.256 202.656 186.993 204.319 186.474Z" stroke="#263238" stroke-miterlimit="10" stroke-linecap="round" stroke-linejoin="round"/>
    <path d="M80.8916 198.802H105.031V197.677H80.8916V198.802Z" fill="white" stroke="#263238" stroke-miterlimit="10" stroke-linecap="round" stroke-linejoin="round"/>
    <path d="M62.3288 191.372H114.357V157.818H62.3288L62.3288 191.372Z" fill="white" stroke="#263238" stroke-miterlimit="10" stroke-linecap="round" stroke-linejoin="round"/>
    <path d="M62.3289 191.372H111.517V157.818H62.3289L62.3289 191.372Z" fill="#263238" stroke="#263238" stroke-miterlimit="10" stroke-linecap="round" stroke-linejoin="round"/>
    <path d="M80.3334 199.313H91.7166V173.41H80.3334V199.313Z" fill="white" stroke="#263238" stroke-miterlimit="10" stroke-linecap="round" stroke-linejoin="round"/>
    <path d="M79.2831 199.313H90.6663V173.41H79.2831V199.313Z" fill="#263238" stroke="#263238" stroke-miterlimit="10" stroke-linecap="round" stroke-linejoin="round"/>
    <path d="M91.4232 173.715H79.0178V191.452" stroke="white" stroke-miterlimit="10" stroke-linecap="round" stroke-linejoin="round"/>
    <path d="M114.721 198.895H149.573V197.071H114.721V198.895Z" fill="white" stroke="#263238" stroke-miterlimit="10" stroke-linecap="round" stroke-linejoin="round"/>
    <path d="M96.9508 198.895H140.565V197.071H96.9508V198.895Z" fill="white" stroke="#263238" stroke-miterlimit="10" stroke-linecap="round" stroke-linejoin="round"/>
    <path d="M180.914 198.915H198.675L198.395 196.401L180.914 197.37V198.915Z" fill="white" stroke="#263238" stroke-miterlimit="10" stroke-linecap="round" stroke-linejoin="round"/>
    <path d="M168.462 199.046H186.223L185.943 196.532L168.462 197.501V199.046Z" fill="white" stroke="#263238" stroke-miterlimit="10" stroke-linecap="round" stroke-linejoin="round"/>
    <path d="M214.373 197.37C214.373 197.37 210.19 197.579 208.726 197.579C207.262 197.579 200.778 196.115 198.059 196.534C195.694 196.898 193.805 198.368 193.353 198.745C192.901 198.369 191.012 196.898 188.647 196.534C185.928 196.115 179.444 197.579 177.981 197.579C176.517 197.579 172.333 197.37 172.333 197.37V199.044L193.353 198.835L214.372 199.044V197.37H214.373Z" fill="white" stroke="#263238" stroke-miterlimit="10" stroke-linecap="round" stroke-linejoin="round"/>
    <path d="M172.334 197.37H154.573V198.915H172.334V197.37Z" fill="white" stroke="#263238" stroke-miterlimit="10" stroke-linecap="round" stroke-linejoin="round"/>
    <path d="M50.003 202.994L232.845 202.994V198.883L50.003 198.883V202.994Z" fill="white" stroke="#263238" stroke-miterlimit="10" stroke-linecap="round" stroke-linejoin="round"/>
    <path d="M34.7841 202.994L167.217 202.994V198.883L34.7841 198.883V202.994Z" fill="#263238" stroke="#263238" stroke-miterlimit="10" stroke-linecap="round" stroke-linejoin="round"/>
    </svg>
    