<svg width="270" height="270" viewBox="0 0 270 270" fill="none" xmlns="http://www.w3.org/2000/svg">
    <path d="M270 206.496H0V206.631H270V206.496Z" fill="#EBEBEB"/>
    <path d="M242.946 215.185H225.061V215.32H242.946V215.185Z" fill="#EBEBEB"/>
    <path d="M178.859 216.654H174.166V216.789H178.859V216.654Z" fill="#EBEBEB"/>
    <path d="M224.521 210.174H214.159V210.309H224.521V210.174Z" fill="#EBEBEB"/>
    <path d="M51.651 211.081H28.3284V211.216H51.651V211.081Z" fill="#EBEBEB"/>
    <path d="M59.8806 211.081H56.4624V211.216H59.8806V211.081Z" fill="#EBEBEB"/>
    <path d="M121.581 213.359H70.9939V213.494H121.581V213.359Z" fill="#EBEBEB"/>
    <path d="M127.98 182.412H23.7113C22.8945 182.411 22.1116 182.085 21.5345 181.507C20.9574 180.929 20.6333 180.146 20.6333 179.329V32.7566C20.6404 31.9444 20.9677 31.1679 21.544 30.5956C22.1203 30.0234 22.8991 29.7016 23.7113 29.7002H127.98C128.798 29.7002 129.582 30.0251 130.16 30.6033C130.738 31.1816 131.063 31.9658 131.063 32.7836V179.329C131.063 180.147 130.738 180.931 130.16 181.509C129.582 182.087 128.798 182.412 127.98 182.412ZM23.7113 29.8082C22.9303 29.8096 22.1817 30.1209 21.63 30.6737C21.0782 31.2264 20.7683 31.9756 20.7683 32.7566V179.329C20.7683 180.11 21.0782 180.859 21.63 181.412C22.1817 181.964 22.9303 182.276 23.7113 182.277H127.98C128.761 182.276 129.511 181.965 130.063 181.412C130.616 180.859 130.927 180.11 130.928 179.329V32.7566C130.927 31.9751 130.616 31.226 130.063 30.6733C129.511 30.1207 128.761 29.8096 127.98 29.8082H23.7113Z" fill="#EBEBEB"/>
    <path d="M244.787 182.412H140.513C139.696 182.411 138.913 182.085 138.335 181.508C137.757 180.93 137.431 180.146 137.43 179.329V32.7566C137.438 31.944 137.767 31.1674 138.344 30.5953C138.921 30.0232 139.701 29.7016 140.513 29.7002H244.787C245.599 29.703 246.376 30.0254 246.951 30.5975C247.526 31.1696 247.853 31.9454 247.86 32.7566V179.329C247.86 180.145 247.537 180.927 246.961 181.505C246.385 182.083 245.603 182.409 244.787 182.412ZM140.513 29.8082C139.732 29.8096 138.983 30.1207 138.43 30.6733C137.877 31.226 137.566 31.9751 137.565 32.7566V179.329C137.566 180.11 137.877 180.859 138.43 181.412C138.983 181.965 139.732 182.276 140.513 182.277H244.787C245.569 182.276 246.318 181.965 246.871 181.412C247.423 180.859 247.734 180.11 247.736 179.329V32.7566C247.734 31.9751 247.423 31.226 246.871 30.6733C246.318 30.1207 245.569 29.8096 244.787 29.8082H140.513Z" fill="#EBEBEB"/>
    <path d="M146.21 205.913H219.272V98.7879L146.21 98.7879V205.913Z" fill="#F0F0F0"/>
    <path d="M148.792 121.948L216.691 121.948V102.163H148.792V121.948Z" fill="#E0E0E0"/>
    <path d="M212.836 121.948H216.691V105.365H212.836V121.948Z" fill="#EBEBEB"/>
    <path d="M194.184 121.948H198.04V105.365H194.184V121.948Z" fill="#EBEBEB"/>
    <path d="M170.198 121.287L173.997 121.942L176.814 105.6L173.015 104.945L170.198 121.287Z" fill="#EBEBEB"/>
    <path d="M208.057 121.948H211.912V107.552H208.057V121.948Z" fill="#EBEBEB"/>
    <path d="M199.19 121.948H203.045V107.552H199.19V121.948Z" fill="#EBEBEB"/>
    <path d="M176.812 121.948H180.668V107.552H176.812V121.948Z" fill="#EBEBEB"/>
    <path d="M186.003 121.106L189.767 121.942L192.89 107.889L189.127 107.052L186.003 121.106Z" fill="#EBEBEB"/>
    <path d="M204.719 121.948H206.647V104.544H204.719V121.948Z" fill="#EBEBEB"/>
    <path d="M181.78 121.948H183.708V104.544H181.78V121.948Z" fill="#EBEBEB"/>
    <path d="M216.691 125.081H148.792V144.866H216.691V125.081Z" fill="#E0E0E0"/>
    <path d="M152.647 128.283H148.792V144.866H152.647V128.283Z" fill="#EBEBEB"/>
    <path d="M171.299 128.283H167.443V144.866H171.299V128.283Z" fill="#EBEBEB"/>
    <path d="M192.478 127.859L188.678 128.514L191.495 144.857L195.295 144.202L192.478 127.859Z" fill="#EBEBEB"/>
    <path d="M157.426 130.47H153.571V144.866H157.426V130.47Z" fill="#EBEBEB"/>
    <path d="M166.293 130.47H162.438V144.866H166.293V130.47Z" fill="#EBEBEB"/>
    <path d="M188.671 130.47H184.815V144.866H188.671V130.47Z" fill="#EBEBEB"/>
    <path d="M176.374 129.964L172.61 130.8L175.733 144.854L179.497 144.017L176.374 129.964Z" fill="#EBEBEB"/>
    <path d="M160.763 127.462H158.836V144.866H160.763V127.462Z" fill="#EBEBEB"/>
    <path d="M183.703 127.462H181.775V144.866H183.703V127.462Z" fill="#EBEBEB"/>
    <path d="M212.836 144.866H216.691V128.283H212.836V144.866Z" fill="#EBEBEB"/>
    <path d="M208.057 144.866H211.912V130.47H208.057V144.866Z" fill="#EBEBEB"/>
    <path d="M199.19 144.866H203.045V130.47H199.19V144.866Z" fill="#EBEBEB"/>
    <path d="M204.719 144.866H206.647V127.462H204.719V144.866Z" fill="#EBEBEB"/>
    <path d="M148.792 167.784H216.691V147.998H148.792V167.784Z" fill="#E0E0E0"/>
    <path d="M173.864 167.784H177.719V151.2H173.864V167.784Z" fill="#EBEBEB"/>
    <path d="M149.878 167.12L153.678 167.775L156.495 151.433L152.695 150.778L149.878 167.12Z" fill="#EBEBEB"/>
    <path d="M187.736 167.784H191.592V153.387H187.736V167.784Z" fill="#EBEBEB"/>
    <path d="M178.869 167.784H182.725V153.387H178.869V167.784Z" fill="#EBEBEB"/>
    <path d="M156.492 167.784H160.348V153.387H156.492V167.784Z" fill="#EBEBEB"/>
    <path d="M165.683 166.938L169.446 167.775L172.57 153.721L168.806 152.885L165.683 166.938Z" fill="#EBEBEB"/>
    <path d="M184.399 167.784H186.327V150.38H184.399V167.784Z" fill="#EBEBEB"/>
    <path d="M161.46 167.784H163.388V150.38H161.46V167.784Z" fill="#EBEBEB"/>
    <path d="M194.258 167.121L198.057 167.776L200.874 151.434L197.075 150.779L194.258 167.121Z" fill="#EBEBEB"/>
    <path d="M200.869 167.784H204.725V153.387H200.869V167.784Z" fill="#EBEBEB"/>
    <path d="M210.063 166.94L213.827 167.777L216.95 153.723L213.187 152.887L210.063 166.94Z" fill="#EBEBEB"/>
    <path d="M205.832 167.784H207.76V150.38H205.832V167.784Z" fill="#EBEBEB"/>
    <path d="M231.876 98.793H219.272V206.194H231.876V98.793Z" fill="#E0E0E0"/>
    <path d="M56.3868 75.7299C56.3868 75.7299 55.755 71.5611 58.7952 68.8827C61.8354 66.2043 61.5708 64.6167 60.7014 64.4115C59.832 64.2063 59.0328 66.8793 57.6936 67.6137C57.6936 67.6137 57.6504 63.8013 59.0112 62.3973C60.372 60.9933 61.0794 57.3753 59.7888 57.3105C58.4982 57.2457 58.3632 59.4705 58.0932 61.0257C57.8232 62.5809 56.3868 64.8057 56.3868 64.8057C56.3868 64.8057 56.106 61.3929 55.2258 59.9889C54.3456 58.5849 56.6892 55.3719 55.7658 53.9679C54.8424 52.5639 53.2602 55.2423 53.3898 58.2501C53.5194 61.2579 55.5498 64.4709 55.0638 67.6137C55.0638 67.6137 54.1782 65.4051 53.3844 65.2053C52.5906 65.0055 51.7644 63.5421 51.2244 63.0021C50.6844 62.4621 50.0202 64.3359 51.2244 66.0747C52.4286 67.8135 55.5066 72.4629 55.0368 76.2267L56.3868 75.7299Z" fill="#E6E6E6"/>
    <path d="M58.2066 73.8345L59.2002 80.0877C59.2729 80.5415 59.2462 81.0057 59.122 81.4483C58.9977 81.8908 58.7788 82.301 58.4805 82.6507C58.1822 83.0004 57.8115 83.2811 57.3941 83.4735C56.9767 83.6659 56.5224 83.7654 56.0628 83.7651H54.9828C54.5227 83.7662 54.0679 83.6673 53.6498 83.4752C53.2317 83.2832 52.8604 83.0025 52.5615 82.6528C52.2625 82.303 52.0432 81.8925 51.9186 81.4496C51.7941 81.0067 51.7672 80.542 51.84 80.0877L52.8336 73.8345H58.2066Z" fill="#E6E6E6"/>
    <path d="M43.1298 85.0771L113.567 85.0771V81.4591L43.1298 81.4591V85.0771Z" fill="#E0E0E0"/>
    <path d="M107.222 81.459H110.327V68.121H107.222V81.459Z" fill="#EBEBEB"/>
    <path d="M92.2212 81.459H95.3262V68.121H92.2212V81.459Z" fill="#EBEBEB"/>
    <path d="M72.9162 80.932L75.9761 81.4595L78.2417 68.3153L75.1819 67.7879L72.9162 80.932Z" fill="#EBEBEB"/>
    <path d="M103.378 81.459H106.483V69.876H103.378V81.459Z" fill="#EBEBEB"/>
    <path d="M96.2441 81.459H99.3491V69.876H96.2441V81.459Z" fill="#EBEBEB"/>
    <path d="M78.2407 81.459H81.3457V69.876H78.2407V81.459Z" fill="#EBEBEB"/>
    <path d="M85.6337 80.7795L88.6648 81.4531L91.1777 70.146L88.1467 69.4724L85.6337 80.7795Z" fill="#EBEBEB"/>
    <path d="M100.699 81.4536H102.249V67.4514H100.699V81.4536Z" fill="#EBEBEB"/>
    <path d="M82.242 81.4536H83.7917V67.4514H82.242V81.4536Z" fill="#EBEBEB"/>
    <path d="M113.573 108.476H43.1353V112.094H113.573V108.476Z" fill="#E0E0E0"/>
    <path d="M49.4802 95.1372H46.3752V108.475H49.4802V95.1372Z" fill="#EBEBEB"/>
    <path d="M64.4868 95.1372H61.3818V108.475H64.4868V95.1372Z" fill="#EBEBEB"/>
    <path d="M81.5235 94.8012L78.4636 95.3286L80.7293 108.473L83.7892 107.945L81.5235 94.8012Z" fill="#EBEBEB"/>
    <path d="M53.325 96.8926H50.22V108.476H53.325V96.8926Z" fill="#EBEBEB"/>
    <path d="M60.4585 96.8926H57.3535V108.476H60.4585V96.8926Z" fill="#EBEBEB"/>
    <path d="M78.4619 96.8926H75.3569V108.476H78.4619V96.8926Z" fill="#EBEBEB"/>
    <path d="M68.5672 96.4875L65.5361 97.1611L68.0491 108.468L71.0801 107.795L68.5672 96.4875Z" fill="#EBEBEB"/>
    <path d="M56.0034 94.4731H54.4536V108.475H56.0034V94.4731Z" fill="#EBEBEB"/>
    <path d="M74.4607 94.4731H72.9109V108.475H74.4607V94.4731Z" fill="#EBEBEB"/>
    <path d="M106.812 97.9185H91.6919V108.357H106.812V97.9185Z" fill="#EBEBEB"/>
    <path d="M186.662 75.6324C192.486 75.6324 197.208 70.9107 197.208 65.0862C197.208 59.2617 192.486 54.54 186.662 54.54C180.837 54.54 176.116 59.2617 176.116 65.0862C176.116 70.9107 180.837 75.6324 186.662 75.6324Z" fill="#E0E0E0"/>
    <path d="M186.662 74.056C191.615 74.056 195.631 70.0403 195.631 65.0866C195.631 60.1329 191.615 56.1172 186.662 56.1172C181.708 56.1172 177.692 60.1329 177.692 65.0866C177.692 70.0403 181.708 74.056 186.662 74.056Z" fill="#F0F0F0"/>
    <path d="M186.241 58.936V65.2054L182.083 62.851" fill="#F0F0F0"/>
    <path d="M186.241 65.7454C186.148 65.744 186.057 65.7199 185.976 65.6752L181.818 63.3208C181.694 63.2505 181.602 63.1337 181.564 62.996C181.525 62.8583 181.543 62.711 181.613 62.5864C181.648 62.5241 181.694 62.4693 181.751 62.4252C181.807 62.381 181.871 62.3485 181.94 62.3294C182.009 62.3103 182.081 62.3051 182.151 62.314C182.222 62.3229 182.291 62.3457 182.353 62.3812L185.701 64.2766V58.936C185.701 58.7928 185.757 58.6554 185.859 58.5542C185.96 58.4529 186.097 58.396 186.241 58.396C186.384 58.396 186.521 58.4529 186.622 58.5542C186.724 58.6554 186.781 58.7928 186.781 58.936V65.2054C186.781 65.3486 186.724 65.486 186.622 65.5872C186.521 65.6885 186.384 65.7454 186.241 65.7454Z" fill="#E0E0E0"/>
    <path d="M135 230.882C192.824 230.882 239.701 228.146 239.701 224.77C239.701 221.394 192.824 218.657 135 218.657C77.1754 218.657 30.2993 221.394 30.2993 224.77C30.2993 228.146 77.1754 230.882 135 230.882Z" fill="#F5F5F5"/>
    <path d="M228.155 68.9473H120.685V170.705H228.155V68.9473Z" fill="#407BFF"/>
    <path opacity="0.7" d="M228.155 68.9473H120.685V170.705H228.155V68.9473Z" fill="white"/>
    <path d="M228.155 68.9473H120.685V74.1259H228.155V68.9473Z" fill="#407BFF"/>
    <path opacity="0.2" d="M228.155 74.1313H224.602V170.802H228.155V74.1313Z" fill="black"/>
    <path opacity="0.6" d="M226.579 76.4209H226.255C225.754 76.4209 225.347 76.8271 225.347 77.3281V88.9813C225.347 89.4823 225.754 89.8885 226.255 89.8885H226.579C227.08 89.8885 227.486 89.4823 227.486 88.9813V77.3281C227.486 76.8271 227.08 76.4209 226.579 76.4209Z" fill="white"/>
    <path opacity="0.2" d="M222.253 140.94H122.893C122.822 140.939 122.754 140.91 122.704 140.859C122.654 140.809 122.625 140.741 122.623 140.67C122.623 140.598 122.652 140.53 122.702 140.479C122.753 140.428 122.822 140.4 122.893 140.4H222.253C222.325 140.4 222.394 140.428 222.444 140.479C222.495 140.53 222.523 140.598 222.523 140.67C222.523 140.742 222.495 140.81 222.444 140.861C222.394 140.911 222.325 140.94 222.253 140.94Z" fill="black"/>
    <path opacity="0.2" d="M222.253 117.72H122.893C122.822 117.719 122.754 117.69 122.704 117.64C122.654 117.589 122.625 117.521 122.623 117.45C122.623 117.379 122.652 117.31 122.702 117.259C122.753 117.209 122.822 117.18 122.893 117.18H222.253C222.325 117.18 222.394 117.209 222.444 117.259C222.495 117.31 222.523 117.379 222.523 117.45C222.523 117.522 222.495 117.59 222.444 117.641C222.394 117.692 222.325 117.72 222.253 117.72Z" fill="black"/>
    <path d="M222.259 76.4155H122.92V91.6057H222.259V76.4155Z" fill="#407BFF"/>
    <path opacity="0.6" d="M226.919 71.5392C226.919 71.7966 226.842 72.0482 226.699 72.2622C226.556 72.4762 226.353 72.643 226.115 72.7415C225.878 72.84 225.616 72.8658 225.363 72.8156C225.111 72.7654 224.879 72.6414 224.697 72.4594C224.515 72.2774 224.391 72.0455 224.341 71.7931C224.291 71.5406 224.316 71.279 224.415 71.0412C224.513 70.8034 224.68 70.6001 224.894 70.4571C225.108 70.3141 225.36 70.2378 225.617 70.2378C225.962 70.2378 226.293 70.3749 226.538 70.619C226.782 70.863 226.919 71.194 226.919 71.5392Z" fill="white"/>
    <path opacity="0.6" d="M222.329 71.5392C222.329 71.7966 222.253 72.0482 222.11 72.2622C221.967 72.4762 221.763 72.643 221.525 72.7415C221.288 72.84 221.026 72.8658 220.774 72.8156C220.521 72.7654 220.289 72.6414 220.107 72.4594C219.925 72.2774 219.801 72.0455 219.751 71.7931C219.701 71.5406 219.727 71.279 219.825 71.0412C219.924 70.8034 220.09 70.6001 220.304 70.4571C220.518 70.3141 220.77 70.2378 221.027 70.2378C221.373 70.2378 221.704 70.3749 221.948 70.619C222.192 70.863 222.329 71.194 222.329 71.5392Z" fill="white"/>
    <path opacity="0.6" d="M217.739 71.5392C217.739 71.7966 217.662 72.0482 217.519 72.2622C217.376 72.4762 217.173 72.643 216.935 72.7415C216.698 72.84 216.436 72.8658 216.183 72.8156C215.931 72.7654 215.699 72.6414 215.517 72.4594C215.335 72.2774 215.211 72.0455 215.161 71.7931C215.111 71.5406 215.137 71.279 215.235 71.0412C215.334 70.8034 215.5 70.6001 215.714 70.4571C215.928 70.3141 216.18 70.2378 216.437 70.2378C216.783 70.2378 217.114 70.3749 217.358 70.619C217.602 70.863 217.739 71.194 217.739 71.5392Z" fill="white"/>
    <path opacity="0.4" d="M127.175 101.779C126.546 101.779 125.931 101.593 125.408 101.243C124.885 100.894 124.478 100.397 124.237 99.8157C123.996 99.2346 123.933 98.595 124.056 97.9781C124.179 97.3611 124.482 96.7944 124.926 96.3495C125.371 95.9047 125.938 95.6018 126.555 95.4791C127.172 95.3564 127.811 95.4193 128.393 95.6601C128.974 95.9008 129.471 96.3085 129.82 96.8315C130.17 97.3546 130.356 97.9695 130.356 98.5986C130.355 99.4417 130.019 100.25 129.423 100.846C128.827 101.442 128.019 101.778 127.175 101.779Z" fill="black"/>
    <path d="M127.564 97.3892V99.803H127.024V97.8374H126.543V97.3892H127.564Z" fill="white"/>
    <path opacity="0.4" d="M217.96 95.5151H133.348C133.008 95.5151 132.732 95.7907 132.732 96.1307V96.5141C132.732 96.8541 133.008 97.1297 133.348 97.1297H217.96C218.3 97.1297 218.576 96.8541 218.576 96.5141V96.1307C218.576 95.7907 218.3 95.5151 217.96 95.5151Z" fill="black"/>
    <path opacity="0.4" d="M217.96 99.7109H133.348C133.008 99.7109 132.732 99.9866 132.732 100.327V100.71C132.732 101.05 133.008 101.326 133.348 101.326H217.96C218.3 101.326 218.576 101.05 218.576 100.71V100.327C218.576 99.9866 218.3 99.7109 217.96 99.7109Z" fill="black"/>
    <path opacity="0.4" d="M188.692 103.901H133.348C133.008 103.901 132.732 104.177 132.732 104.517V104.9C132.732 105.24 133.008 105.516 133.348 105.516H188.692C189.032 105.516 189.308 105.24 189.308 104.9V104.517C189.308 104.177 189.032 103.901 188.692 103.901Z" fill="black"/>
    <path opacity="0.2" d="M134.212 113.422C135.026 113.422 135.686 112.762 135.686 111.947C135.686 111.133 135.026 110.473 134.212 110.473C133.397 110.473 132.737 111.133 132.737 111.947C132.737 112.762 133.397 113.422 134.212 113.422Z" fill="black"/>
    <path d="M135.227 111.947C135.228 112.15 135.169 112.348 135.057 112.516C134.945 112.685 134.786 112.817 134.599 112.895C134.412 112.973 134.207 112.993 134.008 112.954C133.81 112.915 133.628 112.817 133.484 112.674C133.341 112.531 133.244 112.349 133.205 112.151C133.166 111.952 133.186 111.746 133.264 111.56C133.342 111.373 133.474 111.214 133.642 111.102C133.811 110.99 134.009 110.931 134.212 110.932C134.481 110.932 134.739 111.039 134.929 111.229C135.12 111.42 135.227 111.678 135.227 111.947Z" fill="white"/>
    <path opacity="0.4" d="M153.317 111.143H139.028C138.688 111.143 138.413 111.419 138.413 111.759V112.142C138.413 112.482 138.688 112.758 139.028 112.758H153.317C153.657 112.758 153.932 112.482 153.932 112.142V111.759C153.932 111.419 153.657 111.143 153.317 111.143Z" fill="black"/>
    <path opacity="0.2" d="M165.64 111.915C165.64 112.207 165.553 112.492 165.391 112.734C165.229 112.977 164.999 113.166 164.73 113.277C164.46 113.389 164.164 113.418 163.878 113.361C163.592 113.304 163.329 113.164 163.123 112.958C162.917 112.751 162.776 112.489 162.719 112.203C162.663 111.917 162.692 111.62 162.803 111.351C162.915 111.082 163.104 110.851 163.346 110.689C163.589 110.527 163.874 110.441 164.165 110.441C164.556 110.441 164.931 110.596 165.208 110.873C165.484 111.149 165.64 111.524 165.64 111.915Z" fill="black"/>
    <path d="M165.186 111.915C165.187 112.117 165.128 112.315 165.017 112.484C164.905 112.652 164.746 112.784 164.56 112.862C164.373 112.94 164.168 112.961 163.97 112.922C163.771 112.883 163.589 112.787 163.446 112.644C163.302 112.502 163.205 112.32 163.165 112.122C163.125 111.923 163.145 111.718 163.222 111.531C163.299 111.344 163.43 111.185 163.598 111.072C163.766 110.96 163.963 110.9 164.165 110.9C164.435 110.9 164.694 111.007 164.885 111.197C165.076 111.387 165.185 111.645 165.186 111.915Z" fill="#407BFF"/>
    <path opacity="0.4" d="M183.281 111.11H168.988C168.648 111.11 168.372 111.386 168.372 111.726V112.109C168.372 112.449 168.648 112.725 168.988 112.725H183.281C183.621 112.725 183.897 112.449 183.897 112.109V111.726C183.897 111.386 183.621 111.11 183.281 111.11Z" fill="black"/>
    <path opacity="0.2" d="M195.599 111.883C195.599 112.174 195.512 112.459 195.35 112.702C195.188 112.944 194.958 113.133 194.689 113.245C194.419 113.356 194.123 113.386 193.837 113.329C193.551 113.272 193.288 113.131 193.082 112.925C192.876 112.719 192.736 112.456 192.679 112.17C192.622 111.885 192.651 111.588 192.763 111.319C192.874 111.049 193.063 110.819 193.306 110.657C193.548 110.495 193.833 110.409 194.125 110.409C194.516 110.409 194.891 110.564 195.167 110.84C195.443 111.117 195.599 111.492 195.599 111.883Z" fill="black"/>
    <path d="M195.145 111.883C195.145 112.085 195.085 112.282 194.973 112.45C194.861 112.618 194.702 112.749 194.515 112.826C194.329 112.903 194.123 112.923 193.925 112.884C193.728 112.845 193.546 112.747 193.403 112.605C193.26 112.462 193.163 112.28 193.124 112.082C193.084 111.884 193.104 111.679 193.182 111.492C193.259 111.306 193.39 111.146 193.558 111.034C193.725 110.922 193.923 110.862 194.125 110.862C194.395 110.862 194.655 110.97 194.846 111.161C195.038 111.353 195.145 111.612 195.145 111.883Z" fill="white"/>
    <path opacity="0.4" d="M213.235 111.073H198.947C198.607 111.073 198.331 111.348 198.331 111.688V112.072C198.331 112.412 198.607 112.687 198.947 112.687H213.235C213.575 112.687 213.851 112.412 213.851 112.072V111.688C213.851 111.348 213.575 111.073 213.235 111.073Z" fill="black"/>
    <path opacity="0.4" d="M127.175 128.682C128.932 128.682 130.356 127.258 130.356 125.501C130.356 123.745 128.932 122.321 127.175 122.321C125.419 122.321 123.995 123.745 123.995 125.501C123.995 127.258 125.419 128.682 127.175 128.682Z" fill="black"/>
    <path d="M128.093 126.273V126.727H126.274V126.36L127.202 125.48C127.418 125.274 127.456 125.15 127.456 125.037C127.456 124.923 127.327 124.734 127.067 124.734C126.971 124.731 126.875 124.752 126.789 124.794C126.702 124.836 126.627 124.899 126.571 124.977L126.166 124.713C126.276 124.566 126.421 124.448 126.587 124.369C126.754 124.291 126.937 124.255 127.121 124.265C127.661 124.265 128.018 124.54 128.018 124.977C128.015 125.127 127.976 125.274 127.906 125.406C127.836 125.539 127.735 125.653 127.613 125.739L127.073 126.279L128.093 126.273Z" fill="white"/>
    <path opacity="0.4" d="M217.96 122.434H133.348C133.008 122.434 132.732 122.71 132.732 123.05V123.433C132.732 123.773 133.008 124.049 133.348 124.049H217.96C218.3 124.049 218.576 123.773 218.576 123.433V123.05C218.576 122.71 218.3 122.434 217.96 122.434Z" fill="black"/>
    <path opacity="0.4" d="M149.429 126.625H133.348C133.008 126.625 132.732 126.9 132.732 127.24V127.624C132.732 127.963 133.008 128.239 133.348 128.239H149.429C149.769 128.239 150.044 127.963 150.044 127.624V127.24C150.044 126.9 149.769 126.625 149.429 126.625Z" fill="black"/>
    <path opacity="0.2" d="M134.212 136.08C135.026 136.08 135.686 135.42 135.686 134.606C135.686 133.792 135.026 133.132 134.212 133.132C133.397 133.132 132.737 133.792 132.737 134.606C132.737 135.42 133.397 136.08 134.212 136.08Z" fill="black"/>
    <path d="M134.212 135.627C134.775 135.627 135.232 135.17 135.232 134.606C135.232 134.042 134.775 133.585 134.212 133.585C133.648 133.585 133.191 134.042 133.191 134.606C133.191 135.17 133.648 135.627 134.212 135.627Z" fill="white"/>
    <path opacity="0.4" d="M153.317 133.801H139.028C138.688 133.801 138.413 134.077 138.413 134.417V134.8C138.413 135.14 138.688 135.416 139.028 135.416H153.317C153.657 135.416 153.932 135.14 153.932 134.8V134.417C153.932 134.077 153.657 133.801 153.317 133.801Z" fill="black"/>
    <path opacity="0.2" d="M164.165 136.048C164.98 136.048 165.64 135.388 165.64 134.573C165.64 133.759 164.98 133.099 164.165 133.099C163.351 133.099 162.691 133.759 162.691 134.573C162.691 135.388 163.351 136.048 164.165 136.048Z" fill="black"/>
    <path d="M164.165 135.594C164.729 135.594 165.186 135.137 165.186 134.573C165.186 134.01 164.729 133.553 164.165 133.553C163.602 133.553 163.145 134.01 163.145 134.573C163.145 135.137 163.602 135.594 164.165 135.594Z" fill="white"/>
    <path opacity="0.4" d="M183.281 133.764H168.988C168.648 133.764 168.372 134.039 168.372 134.379V134.763C168.372 135.103 168.648 135.378 168.988 135.378H183.281C183.621 135.378 183.897 135.103 183.897 134.763V134.379C183.897 134.039 183.621 133.764 183.281 133.764Z" fill="black"/>
    <path opacity="0.2" d="M195.599 134.541C195.599 134.833 195.512 135.118 195.35 135.36C195.188 135.603 194.958 135.792 194.689 135.903C194.419 136.015 194.123 136.044 193.837 135.987C193.551 135.93 193.288 135.79 193.082 135.584C192.876 135.377 192.736 135.115 192.679 134.829C192.622 134.543 192.651 134.246 192.763 133.977C192.874 133.708 193.063 133.477 193.306 133.315C193.548 133.153 193.833 133.067 194.125 133.067C194.516 133.067 194.891 133.222 195.167 133.499C195.443 133.775 195.599 134.15 195.599 134.541Z" fill="black"/>
    <path d="M195.145 134.541C195.145 134.743 195.085 134.94 194.973 135.108C194.861 135.276 194.702 135.407 194.515 135.484C194.329 135.561 194.123 135.581 193.925 135.542C193.728 135.503 193.546 135.406 193.403 135.263C193.26 135.12 193.163 134.938 193.124 134.74C193.084 134.542 193.104 134.337 193.182 134.151C193.259 133.964 193.39 133.805 193.558 133.693C193.725 133.58 193.923 133.521 194.125 133.521C194.395 133.521 194.655 133.628 194.846 133.819C195.038 134.011 195.145 134.27 195.145 134.541Z" fill="#407BFF"/>
    <path opacity="0.4" d="M213.235 133.731H198.947C198.607 133.731 198.331 134.007 198.331 134.347V134.73C198.331 135.07 198.607 135.346 198.947 135.346H213.235C213.575 135.346 213.851 135.07 213.851 134.73V134.347C213.851 134.007 213.575 133.731 213.235 133.731Z" fill="black"/>
    <path opacity="0.4" d="M127.175 152.042C126.546 152.042 125.931 151.856 125.408 151.506C124.885 151.157 124.478 150.66 124.237 150.079C123.996 149.498 123.933 148.858 124.056 148.241C124.179 147.624 124.482 147.058 124.926 146.613C125.371 146.168 125.938 145.865 126.555 145.742C127.172 145.62 127.811 145.683 128.393 145.923C128.974 146.164 129.471 146.572 129.82 147.095C130.17 147.618 130.356 148.233 130.356 148.862C130.356 149.705 130.021 150.514 129.425 151.111C128.828 151.707 128.019 152.042 127.175 152.042Z" fill="black"/>
    <path d="M128.072 149.31C128.072 149.715 127.759 150.088 127.073 150.088C126.748 150.095 126.428 150.005 126.155 149.829L126.371 149.402C126.572 149.543 126.811 149.618 127.057 149.618C127.337 149.618 127.51 149.505 127.51 149.31C127.51 149.116 127.375 149.013 127.057 149.013H126.803V148.646L127.3 148.106H126.274V147.658H127.98V148.02L127.44 148.641C127.61 148.653 127.769 148.728 127.886 148.852C128.003 148.976 128.07 149.14 128.072 149.31Z" fill="white"/>
    <path opacity="0.4" d="M217.96 145.773H133.348C133.008 145.773 132.732 146.049 132.732 146.389V146.772C132.732 147.112 133.008 147.388 133.348 147.388H217.96C218.3 147.388 218.576 147.112 218.576 146.772V146.389C218.576 146.049 218.3 145.773 217.96 145.773Z" fill="black"/>
    <path opacity="0.4" d="M217.96 149.963H133.348C133.008 149.963 132.732 150.239 132.732 150.579V150.962C132.732 151.302 133.008 151.578 133.348 151.578H217.96C218.3 151.578 218.576 151.302 218.576 150.962V150.579C218.576 150.239 218.3 149.963 217.96 149.963Z" fill="black"/>
    <path opacity="0.4" d="M175.732 154.159H133.348C133.008 154.159 132.732 154.435 132.732 154.775V155.158C132.732 155.498 133.008 155.774 133.348 155.774H175.732C176.072 155.774 176.348 155.498 176.348 155.158V154.775C176.348 154.435 176.072 154.159 175.732 154.159Z" fill="black"/>
    <path opacity="0.4" d="M165.424 160.833H162.907C162.788 160.833 162.691 160.93 162.691 161.049V163.566C162.691 163.685 162.788 163.782 162.907 163.782H165.424C165.543 163.782 165.64 163.685 165.64 163.566V161.049C165.64 160.93 165.543 160.833 165.424 160.833Z" fill="black"/>
    <path d="M165.289 163.431V161.19H163.048V163.431H165.289Z" fill="white"/>
    <path opacity="0.4" d="M183.281 161.503H168.988C168.648 161.503 168.372 161.779 168.372 162.119V162.502C168.372 162.842 168.648 163.118 168.988 163.118H183.281C183.621 163.118 183.897 162.842 183.897 162.502V162.119C183.897 161.779 183.621 161.503 183.281 161.503Z" fill="black"/>
    <path d="M164.047 162.956C164.03 162.956 164.013 162.953 163.997 162.947C163.981 162.94 163.967 162.93 163.955 162.918L163.415 162.411C163.39 162.384 163.376 162.35 163.376 162.313C163.376 162.277 163.39 162.242 163.415 162.216C163.427 162.203 163.443 162.193 163.459 162.186C163.476 162.178 163.494 162.175 163.512 162.175C163.53 162.175 163.548 162.178 163.565 162.186C163.582 162.193 163.597 162.203 163.609 162.216L164.068 162.632L164.851 161.703C164.874 161.675 164.907 161.658 164.943 161.654C164.979 161.65 165.015 161.661 165.043 161.684C165.071 161.707 165.089 161.74 165.092 161.776C165.096 161.812 165.085 161.848 165.062 161.876L164.16 162.907C164.136 162.934 164.104 162.951 164.068 162.956H164.047Z" fill="#407BFF"/>
    <path opacity="0.4" d="M195.383 160.801H192.866C192.747 160.801 192.65 160.898 192.65 161.017V163.534C192.65 163.653 192.747 163.75 192.866 163.75H195.383C195.502 163.75 195.599 163.653 195.599 163.534V161.017C195.599 160.898 195.502 160.801 195.383 160.801Z" fill="black"/>
    <path d="M195.242 163.399V161.158H193.001V163.399H195.242Z" fill="white"/>
    <path opacity="0.4" d="M213.235 161.465H198.947C198.607 161.465 198.331 161.741 198.331 162.081V162.464C198.331 162.804 198.607 163.08 198.947 163.08H213.235C213.575 163.08 213.851 162.804 213.851 162.464V162.081C213.851 161.741 213.575 161.465 213.235 161.465Z" fill="black"/>
    <path d="M194.006 162.923C193.972 162.922 193.939 162.908 193.914 162.886L193.374 162.373C193.358 162.361 193.345 162.347 193.335 162.33C193.326 162.314 193.32 162.295 193.318 162.276C193.316 162.257 193.318 162.237 193.324 162.219C193.331 162.201 193.341 162.184 193.354 162.17C193.367 162.156 193.383 162.145 193.401 162.138C193.419 162.13 193.438 162.127 193.458 162.128C193.477 162.129 193.496 162.133 193.513 162.142C193.53 162.151 193.545 162.163 193.558 162.178L194.011 162.594L194.8 161.665C194.81 161.649 194.824 161.636 194.84 161.626C194.856 161.616 194.874 161.609 194.893 161.606C194.912 161.604 194.931 161.605 194.949 161.61C194.967 161.615 194.984 161.624 194.999 161.637C195.013 161.649 195.025 161.664 195.034 161.681C195.042 161.698 195.046 161.717 195.047 161.736C195.047 161.755 195.044 161.774 195.037 161.792C195.029 161.809 195.019 161.825 195.005 161.838L194.13 162.875C194.104 162.901 194.07 162.919 194.033 162.923H194.006Z" fill="#407BFF"/>
    <path opacity="0.4" d="M135.464 160.866H132.948C132.829 160.866 132.732 160.963 132.732 161.082V163.599C132.732 163.718 132.829 163.815 132.948 163.815H135.464C135.584 163.815 135.68 163.718 135.68 163.599V161.082C135.68 160.963 135.584 160.866 135.464 160.866Z" fill="black"/>
    <path d="M135.329 163.464V161.223H133.088V163.464H135.329Z" fill="white"/>
    <path opacity="0.4" d="M153.317 161.536H139.028C138.688 161.536 138.413 161.811 138.413 162.151V162.535C138.413 162.875 138.688 163.15 139.028 163.15H153.317C153.657 163.15 153.932 162.875 153.932 162.535V162.151C153.932 161.811 153.657 161.536 153.317 161.536Z" fill="black"/>
    <path d="M127.683 83.5273C127.659 83.1138 127.76 82.7027 127.973 82.3472C128.185 81.9917 128.5 81.7082 128.875 81.5334C129.251 81.3587 129.67 81.3007 130.079 81.367C130.488 81.4333 130.867 81.6209 131.168 81.9054C131.469 82.1899 131.678 82.5582 131.767 82.9626C131.857 83.3671 131.822 83.7891 131.669 84.1739C131.516 84.5587 131.25 84.8886 130.908 85.1209C130.565 85.3532 130.16 85.4771 129.746 85.4767C129.48 85.4922 129.215 85.4532 128.965 85.3622C128.715 85.2712 128.487 85.1301 128.293 84.9475C128.1 84.7649 127.946 84.5447 127.841 84.3005C127.736 84.0563 127.682 83.7932 127.683 83.5273ZM130.923 83.5273C130.919 83.2944 130.846 83.0679 130.713 82.8763C130.581 82.6847 130.394 82.5365 130.178 82.4503C129.962 82.3641 129.725 82.3437 129.497 82.3918C129.269 82.4398 129.06 82.5541 128.897 82.7203C128.733 82.8865 128.623 83.0973 128.579 83.3261C128.535 83.5548 128.56 83.7915 128.65 84.0063C128.74 84.2212 128.892 84.4046 129.086 84.5336C129.28 84.6627 129.507 84.7315 129.74 84.7315C129.899 84.7361 130.057 84.708 130.204 84.6489C130.351 84.5898 130.485 84.501 130.596 84.388C130.708 84.275 130.795 84.1403 130.852 83.9922C130.909 83.8441 130.935 83.6859 130.928 83.5273H130.923Z" fill="white"/>
    <path d="M135.367 83.754V85.4118H134.53V83.8836C134.53 83.4138 134.314 83.1978 133.942 83.1978C133.569 83.1978 133.245 83.4462 133.245 83.9808V85.4118H132.408V82.512H133.207V82.8522C133.332 82.7246 133.482 82.6246 133.647 82.5586C133.813 82.4925 133.99 82.4619 134.168 82.4688C134.336 82.4576 134.505 82.484 134.661 82.5459C134.817 82.6078 134.958 82.7038 135.073 82.8268C135.188 82.9498 135.274 83.0969 135.324 83.2572C135.375 83.4176 135.39 83.5873 135.367 83.754Z" fill="white"/>
    <path d="M136.129 81.416H136.966V85.412H136.129V81.416Z" fill="white"/>
    <path d="M137.646 81.6426C137.647 81.575 137.662 81.5085 137.691 81.4472C137.719 81.386 137.76 81.3314 137.811 81.2871C137.862 81.2428 137.922 81.2097 137.986 81.19C138.051 81.1703 138.119 81.1644 138.186 81.1728C138.252 81.1628 138.319 81.167 138.384 81.185C138.448 81.2031 138.507 81.2346 138.558 81.2776C138.61 81.3205 138.651 81.3738 138.68 81.4339C138.709 81.4941 138.724 81.5597 138.726 81.6264C138.695 81.7408 138.627 81.8418 138.533 81.9138C138.439 81.9857 138.323 82.0248 138.205 82.0248C138.086 82.0248 137.971 81.9857 137.877 81.9138C137.783 81.8418 137.715 81.7408 137.684 81.6264L137.646 81.6426ZM137.749 82.512H138.591V85.4118H137.749V82.512Z" fill="white"/>
    <path d="M142.333 83.7542V85.412H141.48V83.8838C141.48 83.414 141.264 83.198 140.891 83.198C140.519 83.198 140.2 83.4464 140.2 83.981V85.412H139.358V82.5122H140.162V82.8524C140.286 82.7247 140.434 82.6245 140.599 82.5585C140.764 82.4924 140.941 82.4619 141.118 82.469C141.287 82.4563 141.457 82.4815 141.615 82.5426C141.773 82.6037 141.915 82.6994 142.031 82.8225C142.148 82.9456 142.235 83.0931 142.287 83.2543C142.34 83.4155 142.355 83.5863 142.333 83.7542Z" fill="white"/>
    <path d="M145.946 84.2025H143.753C143.798 84.3824 143.906 84.54 144.058 84.6463C144.21 84.7525 144.395 84.8001 144.58 84.7803C144.713 84.7853 144.847 84.7635 144.972 84.7162C145.097 84.6689 145.212 84.597 145.309 84.5049L145.757 84.9855C145.603 85.1466 145.417 85.2722 145.21 85.3533C145.002 85.4345 144.78 85.4693 144.558 85.4553C144.35 85.4756 144.139 85.4522 143.94 85.3866C143.742 85.321 143.559 85.2148 143.403 85.0745C143.248 84.9343 143.123 84.7632 143.037 84.5721C142.952 84.3811 142.907 84.1743 142.906 83.9649C142.903 83.7632 142.942 83.5631 143.02 83.3769C143.097 83.1908 143.212 83.0225 143.358 82.8824C143.503 82.7423 143.675 82.6334 143.864 82.5623C144.053 82.4912 144.254 82.4595 144.455 82.4691C144.656 82.459 144.856 82.4911 145.044 82.5633C145.231 82.6354 145.401 82.746 145.543 82.888C145.685 83.03 145.796 83.2001 145.868 83.3874C145.94 83.5748 145.972 83.7752 145.962 83.9757C145.962 84.0405 145.951 84.1323 145.946 84.2025ZM143.743 83.7111H145.168C145.139 83.5433 145.051 83.3913 144.921 83.2817C144.791 83.1721 144.626 83.112 144.455 83.112C144.285 83.112 144.12 83.1721 143.99 83.2817C143.859 83.3913 143.772 83.5433 143.743 83.7111Z" fill="white"/>
    <path d="M148.883 82.35H147.679V81.6426H150.962V82.35H149.758V85.4118H148.883V82.35Z" fill="white"/>
    <path d="M153.9 84.2023H151.708C151.752 84.3822 151.86 84.5398 152.012 84.6461C152.164 84.7523 152.349 84.7999 152.534 84.7801C152.667 84.7851 152.801 84.7633 152.926 84.716C153.051 84.6687 153.166 84.5968 153.263 84.5047L153.711 84.9853C153.558 85.1464 153.371 85.272 153.164 85.3531C152.957 85.4343 152.734 85.4691 152.512 85.4551C152.304 85.4754 152.093 85.452 151.895 85.3864C151.696 85.3208 151.513 85.2146 151.357 85.0743C151.202 84.9341 151.077 84.763 150.992 84.5719C150.906 84.3809 150.861 84.1741 150.86 83.9647C150.857 83.7634 150.896 83.5638 150.973 83.3781C151.051 83.1923 151.165 83.0242 151.31 82.8842C151.454 82.7442 151.626 82.6352 151.814 82.5638C152.002 82.4923 152.203 82.4601 152.404 82.4689C152.605 82.458 152.806 82.4895 152.994 82.5613C153.182 82.6331 153.353 82.7436 153.495 82.8857C153.638 83.0277 153.749 83.1981 153.822 83.3859C153.894 83.5736 153.926 83.7745 153.916 83.9755C153.9 84.0403 153.9 84.1321 153.9 84.2023ZM151.697 83.7109H153.122C153.093 83.5431 153.005 83.3911 152.875 83.2815C152.745 83.1719 152.58 83.1118 152.41 83.1118C152.239 83.1118 152.074 83.1719 151.944 83.2815C151.814 83.3911 151.726 83.5431 151.697 83.7109Z" fill="white"/>
    <path d="M154.192 85.1417L154.472 84.5423C154.779 84.7203 155.127 84.8152 155.482 84.8177C155.871 84.8177 156.022 84.7151 156.022 84.5585C156.022 84.0833 154.267 84.5585 154.267 83.4083C154.267 82.8683 154.764 82.4687 155.612 82.4687C155.998 82.4613 156.38 82.5484 156.724 82.7225L156.443 83.3219C156.191 83.1764 155.903 83.1017 155.612 83.1059C155.234 83.1059 155.072 83.2247 155.072 83.3759C155.072 83.8727 156.821 83.3759 156.821 84.5369C156.821 85.0769 156.319 85.4549 155.455 85.4549C155.014 85.4642 154.578 85.3561 154.192 85.1417Z" fill="white"/>
    <path d="M159.203 85.2716C158.998 85.4003 158.759 85.4643 158.517 85.4552C158.374 85.4756 158.229 85.4632 158.091 85.419C157.954 85.3748 157.828 85.2999 157.724 85.2C157.62 85.1001 157.54 84.9777 157.49 84.8423C157.441 84.7069 157.422 84.5619 157.437 84.4184V83.225H156.989V82.577H157.437V81.875H158.274V82.577H158.998V83.225H158.274V84.4076C158.267 84.4574 158.272 84.5081 158.287 84.5559C158.303 84.6037 158.329 84.6473 158.364 84.6836C158.399 84.72 158.441 84.748 158.488 84.7656C158.535 84.7833 158.586 84.7901 158.636 84.7856C158.758 84.7872 158.877 84.7493 158.976 84.6776L159.203 85.2716Z" fill="white"/>
    <path d="M216.478 87.0993C218.15 85.427 218.15 82.7156 216.478 81.0433C214.805 79.371 212.094 79.371 210.422 81.0433C208.749 82.7156 208.749 85.427 210.422 87.0993C212.094 88.7716 214.805 88.7716 216.478 87.0993Z" fill="white"/>
    <path opacity="0.2" d="M217.242 82.0801L213.462 84.0781V79.7959C214.24 79.7973 215.003 80.0106 215.669 80.4131C216.335 80.8155 216.879 81.3918 217.242 82.0801Z" fill="black"/>
    <path d="M205.411 215.881C205.411 215.881 207.744 204.849 203.494 198.876C199.244 192.904 207.333 198.806 208.267 204.401C208.267 204.401 209.661 194.4 205.535 187.369C201.409 180.338 209.126 186.105 209.785 193.358C209.785 193.358 211.048 184.437 209.153 179.42C207.258 174.404 210.552 177.633 211.821 180.776C213.09 183.918 211.426 191.7 211.426 191.7C211.426 191.7 214.731 177.309 217.863 178.454C220.995 179.598 213.181 189.027 212.101 193.93C212.101 193.93 215.79 187.331 218.581 188.708C221.373 190.085 214.261 190.766 210.978 200.588L209.839 205.2C209.839 205.2 213.235 198.687 215.455 200.745C217.674 202.802 208.872 206.345 206.815 216.216L205.411 215.881Z" fill="#263238"/>
    <path d="M205.87 216.54C205.87 216.54 206.356 202.635 213.23 196.749C220.104 190.863 208.651 195.523 205.87 201.944C205.87 201.944 207.176 189.551 214.207 182.352C221.238 175.154 210.281 179.777 207.338 188.26C207.338 188.26 208.483 177.201 212.247 171.763C216.011 166.325 211.102 169.198 208.651 172.584C206.199 175.97 205.87 185.76 205.87 185.76C205.87 185.76 206.194 167.54 202.09 167.983C197.986 168.426 204.541 182.023 204.379 188.233C204.379 188.233 201.922 179.231 198.164 180.041C194.405 180.851 202.743 183.821 203.726 196.554V202.424C203.726 202.424 201.598 193.611 198.326 195.404C195.053 197.197 204.541 204.077 204.05 216.507L205.87 216.54Z" fill="#263238"/>
    <path opacity="0.2" d="M205.87 216.54C205.87 216.54 206.356 202.635 213.23 196.749C220.104 190.863 208.651 195.523 205.87 201.944C205.87 201.944 207.176 189.551 214.207 182.352C221.238 175.154 210.281 179.777 207.338 188.26C207.338 188.26 208.483 177.201 212.247 171.763C216.011 166.325 211.102 169.198 208.651 172.584C206.199 175.97 205.87 185.76 205.87 185.76C205.87 185.76 206.194 167.54 202.09 167.983C197.986 168.426 204.541 182.023 204.379 188.233C204.379 188.233 201.922 179.231 198.164 180.041C194.405 180.851 202.743 183.821 203.726 196.554V202.424C203.726 202.424 201.598 193.611 198.326 195.404C195.053 197.197 204.541 204.077 204.05 216.507L205.87 216.54Z" fill="white"/>
    <path d="M209.261 226.309H200.934C199.359 226.309 197.848 225.683 196.734 224.569C195.62 223.455 194.994 221.944 194.994 220.369V219.251H215.196V220.369C215.196 221.943 214.57 223.453 213.458 224.567C212.345 225.681 210.835 226.307 209.261 226.309Z" fill="#407BFF"/>
    <path d="M194.627 221.492H215.568C216.824 221.492 217.842 220.474 217.842 219.218V217.447C217.842 216.192 216.824 215.174 215.568 215.174H194.627C193.371 215.174 192.354 216.192 192.354 217.447V219.218C192.354 220.474 193.371 221.492 194.627 221.492Z" fill="#407BFF"/>
    <path opacity="0.2" d="M194.627 221.492H215.568C216.824 221.492 217.842 220.474 217.842 219.218V217.447C217.842 216.192 216.824 215.174 215.568 215.174H194.627C193.371 215.174 192.354 216.192 192.354 217.447V219.218C192.354 220.474 193.371 221.492 194.627 221.492Z" fill="white"/>
    <path d="M92.7235 150.374C92.648 150.53 92.6154 150.703 92.629 150.876C92.6426 151.049 92.7019 151.215 92.8008 151.357C92.8997 151.5 93.0347 151.613 93.1919 151.686C93.3491 151.759 93.5229 151.789 93.6955 151.772H119.27C119.695 151.752 120.105 151.609 120.451 151.361C120.797 151.113 121.064 150.77 121.219 150.374L126.619 134.768C126.673 134.623 126.7 134.469 126.7 134.314C126.699 134.181 126.671 134.049 126.616 133.928C126.561 133.806 126.482 133.698 126.383 133.609C126.284 133.52 126.167 133.452 126.04 133.411C125.914 133.37 125.78 133.356 125.647 133.369H100.089C99.6639 133.39 99.2538 133.533 98.9079 133.781C98.5621 134.029 98.2953 134.372 98.1397 134.768L92.7235 150.374Z" fill="#263238"/>
    <path d="M119.464 150.99C119.673 150.98 119.874 150.91 120.044 150.788C120.213 150.666 120.344 150.498 120.42 150.304L125.82 134.698C125.843 134.635 125.854 134.57 125.852 134.503C125.852 134.287 125.696 134.152 125.447 134.152H99.9C99.6914 134.162 99.4902 134.232 99.3205 134.354C99.1509 134.475 99.0202 134.644 98.9442 134.838L93.5442 150.444C93.5166 150.507 93.5046 150.576 93.5093 150.645C93.514 150.713 93.5352 150.78 93.5712 150.838C93.6116 150.89 93.6644 150.932 93.7247 150.958C93.7851 150.984 93.8511 150.995 93.9168 150.99H119.464Z" fill="#407BFF"/>
    <path opacity="0.8" d="M119.464 150.99C119.673 150.98 119.874 150.91 120.044 150.788C120.213 150.666 120.344 150.498 120.42 150.304L125.82 134.698C125.843 134.635 125.854 134.57 125.852 134.503C125.852 134.287 125.696 134.152 125.447 134.152H99.9C99.6914 134.162 99.4902 134.232 99.3205 134.354C99.1509 134.475 99.0202 134.644 98.9442 134.838L93.5442 150.444C93.5166 150.507 93.5046 150.576 93.5093 150.645C93.514 150.713 93.5352 150.78 93.5712 150.838C93.6116 150.89 93.6644 150.932 93.7247 150.958C93.7851 150.984 93.8511 150.995 93.9168 150.99H119.464Z" fill="white"/>
    <path d="M81.7776 150.617V151.335L86.8428 152.636H119.151C119.39 152.636 119.62 152.541 119.789 152.372C119.958 152.203 120.053 151.974 120.053 151.734V150.617H81.7776Z" fill="#263238"/>
    <path opacity="0.2" d="M108.81 150.617V151.335L113.881 152.636H86.8428L81.7776 151.335V150.617H108.81Z" fill="white"/>
    <g opacity="0.2">
    <path d="M124.211 137.819H98.3611L99.3655 135H125.215L124.211 137.819Z" fill="#407BFF"/>
    </g>
    <g opacity="0.1">
    <path d="M122.915 141.448H97.0651C96.9895 141.448 96.9517 141.388 96.9787 141.307C96.9934 141.269 97.0183 141.236 97.0507 141.211C97.0831 141.187 97.1217 141.171 97.1623 141.167H123.017C123.088 141.167 123.125 141.232 123.098 141.307C123.086 141.347 123.061 141.381 123.028 141.406C122.996 141.431 122.956 141.446 122.915 141.448Z" fill="black"/>
    </g>
    <g opacity="0.1">
    <path d="M121.5 145.406H95.6503C95.5747 145.406 95.5369 145.341 95.5639 145.265C95.579 145.227 95.6047 145.193 95.6382 145.168C95.6716 145.143 95.7114 145.128 95.7529 145.125H121.603C121.678 145.125 121.716 145.184 121.689 145.265C121.674 145.304 121.648 145.338 121.615 145.363C121.581 145.388 121.542 145.403 121.5 145.406Z" fill="black"/>
    </g>
    <g opacity="0.1">
    <path d="M120.091 149.364H94.2409C94.1653 149.364 94.1275 149.299 94.1545 149.223C94.1672 149.184 94.1914 149.149 94.2241 149.123C94.2568 149.097 94.2964 149.081 94.338 149.078H120.188C120.263 149.078 120.301 149.142 120.274 149.223C120.26 149.262 120.235 149.295 120.203 149.32C120.17 149.345 120.131 149.36 120.091 149.364Z" fill="black"/>
    </g>
    <path d="M111.494 226.244H114.307L119.367 155.806H115.63L111.494 226.244Z" fill="#263238"/>
    <path opacity="0.2" d="M111.489 226.244H114.307L119.119 159.305L119.367 155.919H115.63L115.431 159.305L111.489 226.244Z" fill="white"/>
    <path opacity="0.2" d="M115.43 159.138H119.119L119.367 155.919H115.63L115.43 159.138Z" fill="black"/>
    <path d="M90.8281 226.244H93.6415L94.1005 155.806H90.3691L90.8281 226.244Z" fill="#263238"/>
    <path opacity="0.3" d="M90.3635 155.919L90.4391 167.281L90.8225 226.244H93.6413L94.0301 167.281L94.1003 155.919H90.3635Z" fill="white"/>
    <path opacity="0.2" d="M90.3635 155.919L90.4391 167.411H94.0301L94.1003 155.919H90.3635Z" fill="black"/>
    <path d="M60.9336 226.244H63.747L68.8068 155.806H65.07L60.9336 226.244Z" fill="#263238"/>
    <path opacity="0.3" d="M60.9336 226.244H63.747L68.5638 159.305L68.8068 155.919H65.07L64.8702 159.305L60.9336 226.244Z" fill="white"/>
    <path opacity="0.2" d="M64.8704 159.138H68.564L68.807 155.919H65.0702L64.8704 159.138Z" fill="black"/>
    <path d="M143.705 226.244H146.518L142.382 155.806H138.645L143.705 226.244Z" fill="#263238"/>
    <path opacity="0.3" d="M138.645 155.919L138.893 159.305L143.705 226.244H146.518L142.582 159.305L142.382 155.919H138.645Z" fill="white"/>
    <path opacity="0.2" d="M142.382 155.919H138.645L138.893 159.138H142.582L142.382 155.919Z" fill="black"/>
    <path d="M144.175 157.572H63.2718C63.1186 157.572 62.967 157.542 62.8254 157.483C62.6839 157.425 62.5554 157.339 62.447 157.231C62.3387 157.122 62.2528 156.994 62.1942 156.852C62.1356 156.711 62.1054 156.559 62.1054 156.406V154.046H145.352V156.406C145.352 156.56 145.321 156.712 145.262 156.855C145.203 156.997 145.116 157.126 145.006 157.234C144.897 157.343 144.767 157.429 144.624 157.487C144.482 157.545 144.329 157.574 144.175 157.572Z" fill="#407BFF"/>
    <path opacity="0.2" d="M62.1109 155.806H145.341V154.04H62.1109V155.806Z" fill="black"/>
    <path d="M60.3666 154.499H147.085C147.349 154.499 147.602 154.395 147.788 154.208C147.974 154.022 148.079 153.769 148.079 153.506C148.079 153.242 147.974 152.99 147.788 152.803C147.602 152.617 147.349 152.512 147.085 152.512H60.3666C60.1031 152.512 59.8504 152.617 59.6641 152.803C59.4777 152.99 59.373 153.242 59.373 153.506C59.373 153.769 59.4777 154.022 59.6641 154.208C59.8504 154.395 60.1031 154.499 60.3666 154.499Z" fill="#407BFF"/>
    <path d="M144.315 150.012C144.353 150.869 144.196 151.724 143.856 152.512H124.097V152.042H124.497V147.96H124.097V147.49H143.856C144.194 148.286 144.351 149.148 144.315 150.012Z" fill="#263238"/>
    <path opacity="0.2" d="M144.315 150.012C144.353 150.869 144.196 151.724 143.856 152.512H124.097V152.042H124.497V147.96H124.097V147.49H143.856C144.194 148.286 144.351 149.148 144.315 150.012Z" fill="white"/>
    <path opacity="0.2" d="M133.742 150.012C133.78 150.869 133.623 151.724 133.283 152.512H124.103V152.042H124.502V147.96H124.103V147.49H133.283C133.621 148.286 133.778 149.148 133.742 150.012Z" fill="black"/>
    <path opacity="0.8" d="M132.77 150.012C132.801 150.708 132.674 151.403 132.397 152.042H124.497V147.96H132.397C132.672 148.608 132.799 149.309 132.77 150.012Z" fill="white"/>
    <path opacity="0.6" d="M141.097 150.012C141.135 150.869 140.978 151.724 140.638 152.512H136.96C137.3 151.724 137.457 150.869 137.419 150.012C137.453 149.153 137.296 148.298 136.96 147.506H140.638C140.973 148.298 141.13 149.153 141.097 150.012Z" fill="white"/>
    <path d="M146.076 145.006C146.114 145.863 145.957 146.718 145.617 147.506H125.858V147.036H126.258V142.97H125.858V142.5H145.617C145.951 143.292 146.108 144.147 146.076 145.006Z" fill="#407BFF"/>
    <path opacity="0.2" d="M135.502 145.006C135.54 145.863 135.383 146.718 135.043 147.506H125.863V147.036H126.263V142.97H125.863V142.5H135.043C135.378 143.292 135.535 144.147 135.502 145.006Z" fill="black"/>
    <path opacity="0.8" d="M134.53 145.006C134.561 145.702 134.434 146.397 134.158 147.036H126.257V142.97H134.158C134.429 143.613 134.557 144.308 134.53 145.006Z" fill="white"/>
    <path opacity="0.2" d="M142.857 145.006C142.895 145.863 142.738 146.718 142.398 147.506H138.721C139.061 146.718 139.218 145.863 139.18 145.006C139.212 144.147 139.055 143.292 138.721 142.5H142.398C142.733 143.292 142.89 144.147 142.857 145.006Z" fill="black"/>
    <path d="M79.785 214.202L78.0462 222.248L73.926 222.177L75.6486 214.202H79.785Z" fill="#EBB376"/>
    <path opacity="0.2" d="M79.7904 214.202L78.9264 218.181L74.844 217.906L75.6486 214.202H79.7904Z" fill="black"/>
    <path d="M78.6671 222.043H78.7535C78.7535 222.043 78.8453 222.075 78.8561 222.086C78.8611 222.088 78.8667 222.09 78.8723 222.09C78.8779 222.09 78.8834 222.088 78.8885 222.086C79.2391 222.199 79.6015 222.271 79.9685 222.302C80.2399 222.352 80.5201 222.296 80.7515 222.145C80.8275 222.081 80.8825 221.995 80.9095 221.898C80.9364 221.802 80.934 221.7 80.9027 221.605C80.8951 221.544 80.8724 221.485 80.8366 221.434C80.8008 221.383 80.753 221.342 80.6975 221.314C80.303 221.248 79.8981 221.323 79.5527 221.524C79.7972 221.271 79.9411 220.937 79.9577 220.585C79.9425 220.502 79.9005 220.426 79.838 220.369C79.7755 220.313 79.6961 220.278 79.6121 220.271C79.5323 220.257 79.4503 220.259 79.3714 220.278C79.2925 220.297 79.2182 220.331 79.1531 220.379C78.7211 220.752 78.6509 221.918 78.6509 221.999L78.6671 222.043ZM79.1099 221.805L79.0289 221.854C79.0029 221.408 79.1244 220.966 79.3745 220.595C79.4023 220.569 79.4355 220.548 79.4718 220.535C79.508 220.522 79.5466 220.517 79.5851 220.52H79.6337C79.7687 220.52 79.8011 220.612 79.8011 220.671C79.7127 221.119 79.4677 221.521 79.1099 221.805ZM79.1693 222.01C79.6661 221.735 80.3735 221.438 80.6381 221.557C80.6647 221.57 80.6876 221.59 80.7046 221.614C80.7216 221.639 80.7321 221.667 80.7353 221.697C80.7502 221.757 80.7497 221.82 80.7336 221.879C80.7175 221.939 80.6865 221.993 80.6435 222.037C80.4599 222.21 79.9199 222.199 79.1693 222.01Z" fill="#407BFF"/>
    <path d="M78.57 221.54L73.953 221.254C73.9147 221.249 73.8758 221.253 73.8387 221.263C73.8016 221.274 73.767 221.292 73.7369 221.316C73.7067 221.34 73.6817 221.37 73.6632 221.404C73.6446 221.438 73.633 221.475 73.629 221.513L73.1754 225.158C73.1649 225.349 73.2297 225.537 73.3558 225.682C73.4819 225.826 73.6594 225.915 73.8504 225.93C75.4704 226.001 76.2372 225.957 78.2676 226.065C80.0716 226.257 81.8869 226.322 83.7 226.26C85.4226 226.092 85.212 224.391 84.4668 224.31C82.7064 224.111 80.3736 222.815 79.2666 221.832C79.073 221.66 78.828 221.558 78.57 221.54Z" fill="#263238"/>
    <path d="M103.907 214.202L102.168 222.248L98.0422 222.177L99.7702 214.202H103.907Z" fill="#EBB376"/>
    <path opacity="0.2" d="M103.907 214.202L103.043 218.181L98.9604 217.906L99.7651 214.202H103.907Z" fill="black"/>
    <path d="M102.783 222.042H102.87C102.87 222.042 102.962 222.075 102.978 222.086C102.983 222.088 102.988 222.089 102.994 222.089C103 222.089 103.005 222.088 103.01 222.086C103.361 222.198 103.723 222.27 104.09 222.302C104.363 222.353 104.646 222.297 104.879 222.145C104.954 222.08 105.008 221.993 105.034 221.897C105.06 221.801 105.056 221.699 105.025 221.605C105.018 221.543 104.996 221.483 104.96 221.432C104.924 221.381 104.876 221.34 104.819 221.313C104.425 221.248 104.02 221.323 103.675 221.524C103.918 221.269 104.064 220.936 104.085 220.584C104.068 220.501 104.024 220.426 103.961 220.37C103.898 220.313 103.818 220.279 103.734 220.271C103.654 220.257 103.572 220.26 103.493 220.278C103.414 220.297 103.34 220.331 103.275 220.379C102.843 220.752 102.773 221.918 102.773 221.999L102.783 222.042ZM103.226 221.805L103.145 221.853C103.122 221.408 103.243 220.966 103.491 220.595C103.519 220.569 103.552 220.548 103.588 220.535C103.625 220.522 103.663 220.517 103.701 220.52H103.75C103.885 220.52 103.917 220.611 103.923 220.671C103.83 221.118 103.583 221.519 103.226 221.805ZM103.286 222.01C103.783 221.735 104.49 221.438 104.755 221.556C104.781 221.57 104.804 221.59 104.821 221.614C104.838 221.639 104.849 221.667 104.852 221.697C104.867 221.756 104.868 221.819 104.853 221.878C104.837 221.938 104.807 221.992 104.765 222.037C104.555 222.21 104.015 222.199 103.286 222.01Z" fill="#407BFF"/>
    <path d="M102.686 221.54L98.0692 221.254C98.0309 221.249 97.992 221.253 97.9549 221.263C97.9178 221.274 97.8832 221.292 97.8531 221.316C97.8229 221.34 97.7979 221.37 97.7794 221.404C97.7609 221.438 97.7492 221.475 97.7452 221.513L97.2916 225.158C97.2812 225.349 97.3459 225.537 97.472 225.682C97.5981 225.826 97.7756 225.915 97.9666 225.93C99.5866 226.001 100.353 225.957 102.384 226.065C104.186 226.252 106 226.311 107.811 226.244C109.533 226.076 109.323 224.375 108.583 224.294C106.817 224.094 104.484 222.798 103.383 221.816C103.187 221.65 102.942 221.553 102.686 221.54Z" fill="#263238"/>
    <path d="M87.1775 198.887C85.6082 204.94 83.6013 210.87 81.1727 216.632L73.6451 216.059C73.6451 216.059 76.7339 203.996 77.8517 192.947C78.5429 186.127 78.4835 180.484 76.4855 180.047C75.2273 179.766 72.2897 179.777 68.5205 179.863V165.823C79.0937 167.983 89.6129 172.087 90.4121 175.37C91.5299 179.998 89.5751 189.783 87.1775 198.887Z" fill="#407BFF"/>
    <path opacity="0.4" d="M87.1775 198.887C85.6082 204.94 83.6013 210.87 81.1727 216.632L73.6451 216.059C73.6451 216.059 76.7339 203.996 77.8517 192.947C78.5429 186.127 78.4835 180.484 76.4855 180.047C75.2273 179.766 72.2897 179.777 68.5205 179.863V165.823C79.0937 167.983 89.6129 172.087 90.4121 175.37C91.5299 179.998 89.5751 189.783 87.1775 198.887Z" fill="white"/>
    <path opacity="0.2" d="M87.1775 198.887C84.3695 197.105 81.0809 195.016 77.8517 192.947C78.5429 186.127 78.4835 180.484 76.4855 180.047C75.2273 179.766 72.2897 179.777 68.5205 179.863V165.823C79.0937 167.983 89.6129 172.087 90.4121 175.37C91.5299 179.998 89.5751 189.783 87.1775 198.887Z" fill="black"/>
    <path d="M83.0627 164.446L83.7269 159.116L62.1809 155.568C62.1809 155.568 55.1339 169.56 58.5845 176.375C61.7435 182.649 95.4179 178.913 100.602 180.041C105.786 181.17 97.7399 216.054 97.7399 216.054L105.3 216.632C105.3 216.632 116.932 185.247 114.539 175.376C113.486 171.072 95.7311 165.369 83.0627 164.446Z" fill="#407BFF"/>
    <path opacity="0.6" d="M83.0627 164.446L83.7269 159.116L62.1809 155.568C62.1809 155.568 55.1339 169.56 58.5845 176.375C61.7435 182.649 95.4179 178.913 100.602 180.041C105.786 181.17 97.7399 216.054 97.7399 216.054L105.3 216.632C105.3 216.632 116.932 185.247 114.539 175.376C113.486 171.072 95.7311 165.369 83.0627 164.446Z" fill="white"/>
    <path d="M94.9157 121.09C94.7321 121.408 94.7537 121.77 94.9643 121.889C95.1749 122.008 95.5043 121.846 95.6717 121.522C95.8391 121.198 95.8337 120.847 95.6285 120.722C95.4233 120.598 95.1155 120.782 94.9157 121.09Z" fill="#263238"/>
    <path d="M94.5756 119.367C94.5313 119.345 94.4939 119.312 94.4676 119.27C94.4471 119.217 94.4473 119.158 94.4683 119.105C94.4894 119.051 94.5296 119.008 94.581 118.984C94.8951 118.84 95.2389 118.774 95.5838 118.791C95.9286 118.808 96.2643 118.907 96.5628 119.081C96.61 119.111 96.6437 119.158 96.6568 119.212C96.6699 119.267 96.6614 119.324 96.633 119.372C96.6002 119.42 96.5503 119.452 96.4939 119.463C96.4374 119.474 96.3789 119.463 96.3306 119.432C96.0939 119.299 95.8289 119.224 95.5575 119.214C95.2862 119.203 95.0162 119.258 94.77 119.372C94.7395 119.387 94.706 119.394 94.6722 119.393C94.6384 119.392 94.6054 119.383 94.5756 119.367Z" fill="#263238"/>
    <path d="M95.218 120.679C95.0408 121.88 95.0281 123.099 95.1802 124.303C94.8707 124.332 94.5584 124.294 94.2649 124.191C93.9713 124.089 93.7033 123.924 93.4792 123.709L95.218 120.679Z" fill="#DE5753"/>
    <path d="M93.285 125.194C93.1554 125.35 93.0258 125.502 92.8854 125.642C92.098 126.468 91.0767 127.033 89.9586 127.262C89.6756 127.321 89.3886 127.359 89.1 127.375C88.3419 127.426 87.582 127.307 86.8758 127.027C86.1696 126.746 85.5347 126.312 85.0176 125.755C84.5536 125.248 84.1956 124.653 83.9646 124.006C82.9602 121.306 83.9646 119.146 85.428 115.414C85.7508 114.532 86.294 113.748 87.0059 113.135C87.7177 112.522 88.5746 112.102 89.4948 111.914C90.415 111.727 91.368 111.777 92.263 112.062C93.1581 112.347 93.9653 112.856 94.608 113.541C97.5348 116.597 95.58 122.262 93.285 125.194Z" fill="#E4897B"/>
    <path opacity="0.2" d="M89.9586 127.251C89.6756 127.31 89.3886 127.348 89.1 127.364C88.3419 127.415 87.582 127.296 86.8758 127.015C86.1696 126.735 85.5347 126.301 85.0176 125.744C85.3809 125.379 85.7891 125.062 86.2326 124.799C87.683 125.244 88.9758 126.095 89.9586 127.251Z" fill="black"/>
    <path d="M77.7922 127.391C78.1594 130.037 83.9374 131.025 83.9374 131.025C83.9374 131.025 86.7886 132.321 86.9074 131.193C85.7248 129.827 85.5952 128.633 86.0056 127.591C86.2765 126.959 86.6712 126.388 87.1666 125.912C87.4332 125.637 87.7144 125.378 88.009 125.134L86.2432 117.898C84.9742 120.647 80.6326 127.002 77.7922 127.391Z" fill="#E4897B"/>
    <path d="M94.2785 111.467C94.2785 111.467 95.5151 111.31 96.4385 113.627C97.2377 115.565 95.3585 115.987 95.4395 118.049C95.5205 120.112 93.6413 121.252 93.6413 121.252C93.6413 121.252 92.0537 122.618 90.7091 121.878C90.7091 121.878 88.9487 122.742 88.4843 124.249C88.0199 125.755 85.2929 123.034 82.8359 123.449C82.8359 123.449 81.1781 121.894 81.2969 118.125C81.3917 116.488 81.7928 114.884 82.4795 113.395C82.8056 112.606 83.2853 111.891 83.8908 111.29C84.4962 110.69 85.2151 110.215 86.0057 109.895C88.8353 108.632 93.7547 109.582 94.2785 111.467Z" fill="#263238"/>
    <path d="M90.3906 120.755C90.307 121.128 90.3073 121.516 90.3913 121.889C90.4754 122.263 90.6411 122.613 90.8766 122.915C91.476 123.568 92.4372 122.736 92.8314 121.592C93.1662 120.571 93.285 118.973 92.4048 118.794C91.5246 118.616 90.5796 119.653 90.3906 120.755Z" fill="#E4897B"/>
    <path d="M86.2433 128.358C84.6527 126.952 82.689 126.037 80.5895 125.723C79.6722 125.61 78.7434 125.808 77.9523 126.286C77.1611 126.764 76.5533 127.494 76.2263 128.358L85.9139 130.318L86.2433 128.358Z" fill="#407BFF"/>
    <path d="M84.5964 148.802L88.5438 149.391C89.4419 149.111 90.3638 148.914 91.2978 148.802C92.313 148.716 93.3337 148.716 94.3488 148.802C94.3488 148.802 96.12 149.472 96.12 151.2C96.12 151.2 91.9512 152.318 90.3528 151.648L84.5964 151.2V148.802Z" fill="#E4897B"/>
    <path opacity="0.2" d="M84.5964 148.802L88.5438 149.391C89.4419 149.111 90.3638 148.914 91.2978 148.802C92.313 148.716 93.3337 148.716 94.3488 148.802C94.3488 148.802 96.12 149.472 96.12 151.2C96.12 151.2 91.9512 152.318 90.3528 151.648L84.5964 151.2V148.802Z" fill="black"/>
    <path d="M91.0115 129.6C90.2087 131.846 89.4887 134.006 88.8515 136.08C88.4411 137.365 88.0685 138.623 87.7283 139.86C87.4367 140.88 87.1883 141.869 86.9237 142.83C86.8049 143.289 86.6861 143.748 86.5727 144.201C85.9517 146.685 85.4495 148.959 85.0553 150.957C84.3987 154.102 83.912 157.28 83.5973 160.477L61.4573 157.707C62.2241 153.9 62.8235 150.579 63.6605 146.993C64.1195 145.028 64.6487 142.986 65.3237 140.745C65.7989 139.125 66.3497 137.424 67.0085 135.567C69.2279 129.189 71.2799 127.424 71.2799 127.424C79.7795 126.025 91.0115 129.6 91.0115 129.6Z" fill="#407BFF"/>
    <path d="M98.3772 149.213L102.325 149.807C103.222 149.524 104.144 149.325 105.079 149.213C106.094 149.13 107.114 149.13 108.13 149.213C108.13 149.213 109.917 149.883 109.917 151.594C109.917 151.594 105.748 152.712 104.144 152.043L98.3772 151.594V149.213Z" fill="#E4897B"/>
    <path d="M72.8459 216.41L81.81 217.004L83.1276 213.132L73.2509 212.668L72.8459 216.41Z" fill="#407BFF"/>
    <path opacity="0.2" d="M72.8459 216.41L81.81 217.004L83.1276 213.132L73.2509 212.668L72.8459 216.41Z" fill="white"/>
    <path d="M96.9624 216.41L105.926 217.004L107.244 213.132L97.3674 212.668L96.9624 216.41Z" fill="#407BFF"/>
    <path opacity="0.2" d="M96.9624 216.41L105.926 217.004L107.244 213.132L97.3674 212.668L96.9624 216.41Z" fill="white"/>
    <path d="M61.3872 157.993L71.3718 159.305L71.6958 157.831L61.695 156.378L61.3872 157.993Z" fill="black"/>
    <path d="M72.5273 157.842L72.4031 159.305L81.6317 160.574V159.127L72.5273 157.842Z" fill="black"/>
    <path d="M82.2041 159.208V160.574L83.5433 160.752V159.429L82.2041 159.208Z" fill="black"/>
    <path opacity="0.2" d="M88.8462 136.08C88.4358 137.365 88.0632 138.623 87.723 139.86C87.4314 140.881 87.183 141.869 86.9184 142.83C86.2272 139.05 87.4584 134.53 87.4584 134.53L88.8462 136.08Z" fill="black"/>
    <path d="M90.3419 130.875C92.1455 131.236 93.0797 143.764 93.4793 145.422C93.8303 146.869 102.324 149.807 102.324 149.807V151.843C102.324 151.843 92.9285 151.2 90.7199 150.293C88.5113 149.386 87.1775 137.014 87.1775 137.014L90.3419 130.875Z" fill="#E4897B"/>
    <g opacity="0.2">
    <path d="M91.0115 129.6C90.2087 131.846 89.4887 134.006 88.8515 136.08C88.4411 137.365 88.0685 138.623 87.7283 139.86C87.4367 140.88 87.1883 141.869 86.9237 142.83C86.8049 143.289 86.6861 143.748 86.5727 144.201C85.9517 146.685 85.4495 148.959 85.0553 150.957C84.3987 154.102 83.912 157.28 83.5973 160.477L61.4573 157.707C62.2241 153.9 62.8235 150.579 63.6605 146.993C64.1195 145.028 64.6487 142.986 65.3237 140.745C65.7989 139.125 66.3497 137.424 67.0085 135.567C69.2279 129.189 71.2799 127.424 71.2799 127.424C79.7795 126.025 91.0115 129.6 91.0115 129.6Z" fill="white"/>
    </g>
    <path d="M91.0116 129.6C92.664 130.14 93.4794 140.94 93.4794 140.94L87.48 141.734L86.238 137.295C86.238 137.295 86.7348 135.2 87.4476 133.002C88.4844 129.816 91.0116 129.6 91.0116 129.6Z" fill="#407BFF"/>
    <path d="M52.3097 224.402C52.3097 224.026 52.198 223.658 51.9889 223.346C51.7798 223.033 51.4826 222.789 51.135 222.646C50.7874 222.502 50.4049 222.465 50.036 222.538C49.6672 222.612 49.3285 222.794 49.0629 223.06C48.7973 223.326 48.6167 223.666 48.5439 224.035C48.4712 224.404 48.5096 224.786 48.6543 225.133C48.799 225.481 49.0435 225.777 49.3568 225.985C49.6701 226.194 50.0381 226.304 50.4143 226.303C50.6636 226.303 50.9105 226.254 51.1408 226.158C51.3712 226.063 51.5803 225.923 51.7564 225.746C51.9325 225.569 52.072 225.36 52.1669 225.129C52.2619 224.899 52.3104 224.652 52.3097 224.402Z" fill="#263238"/>
    <path opacity="0.2" d="M52.3097 224.402C52.3097 224.026 52.198 223.658 51.9889 223.346C51.7798 223.033 51.4826 222.789 51.135 222.646C50.7874 222.502 50.4049 222.465 50.036 222.538C49.6672 222.612 49.3285 222.794 49.0629 223.06C48.7973 223.326 48.6167 223.666 48.5439 224.035C48.4712 224.404 48.5096 224.786 48.6543 225.133C48.799 225.481 49.0435 225.777 49.3568 225.985C49.6701 226.194 50.0381 226.304 50.4143 226.303C50.6636 226.303 50.9105 226.254 51.1408 226.158C51.3712 226.063 51.5803 225.923 51.7564 225.746C51.9325 225.569 52.072 225.36 52.1669 225.129C52.2619 224.899 52.3104 224.652 52.3097 224.402Z" fill="white"/>
    <path d="M97.9991 224.402C97.9991 224.026 97.8876 223.659 97.6788 223.346C97.4699 223.034 97.173 222.79 96.8257 222.646C96.4784 222.502 96.0962 222.465 95.7275 222.538C95.3588 222.611 95.0201 222.792 94.7542 223.058C94.4884 223.324 94.3074 223.663 94.234 224.031C94.1607 224.4 94.1983 224.782 94.3422 225.13C94.4861 225.477 94.7297 225.774 95.0423 225.983C95.3549 226.192 95.7224 226.303 96.0983 226.303C96.3481 226.304 96.5956 226.255 96.8266 226.16C97.0575 226.065 97.2673 225.925 97.444 225.748C97.6206 225.571 97.7606 225.361 97.8559 225.131C97.9511 224.9 97.9998 224.652 97.9991 224.402Z" fill="#263238"/>
    <path opacity="0.2" d="M97.9991 224.402C97.9991 224.026 97.8876 223.659 97.6788 223.346C97.4699 223.034 97.173 222.79 96.8257 222.646C96.4784 222.502 96.0962 222.465 95.7275 222.538C95.3588 222.611 95.0201 222.792 94.7542 223.058C94.4884 223.324 94.3074 223.663 94.234 224.031C94.1607 224.4 94.1983 224.782 94.3422 225.13C94.4861 225.477 94.7297 225.774 95.0423 225.983C95.3549 226.192 95.7224 226.303 96.0983 226.303C96.3481 226.304 96.5956 226.255 96.8266 226.16C97.0575 226.065 97.2673 225.925 97.444 225.748C97.6206 225.571 97.7606 225.361 97.8559 225.131C97.9511 224.9 97.9998 224.652 97.9991 224.402Z" fill="white"/>
    <path opacity="0.2" d="M51.3593 224.403C51.3593 224.214 51.3034 224.03 51.1987 223.874C51.0941 223.718 50.9453 223.596 50.7713 223.524C50.5974 223.452 50.406 223.434 50.2215 223.471C50.037 223.508 49.8676 223.599 49.735 223.732C49.6023 223.866 49.5122 224.036 49.4761 224.22C49.44 224.405 49.4596 224.596 49.5324 224.77C49.6052 224.944 49.7278 225.092 49.8848 225.195C50.0418 225.299 50.2261 225.354 50.4143 225.353C50.5389 225.353 50.6622 225.328 50.7772 225.28C50.8922 225.233 50.9966 225.163 51.0844 225.074C51.1723 224.986 51.2417 224.881 51.2889 224.766C51.3361 224.651 51.36 224.527 51.3593 224.403Z" fill="white"/>
    <path opacity="0.2" d="M96.0984 225.353C96.6232 225.353 97.0488 224.927 97.0488 224.403C97.0488 223.878 96.6232 223.452 96.0984 223.452C95.5735 223.452 95.1479 223.878 95.1479 224.403C95.1479 224.927 95.5735 225.353 96.0984 225.353Z" fill="white"/>
    <path d="M74.8278 216.076V195.658H71.685V216.076C59.4594 216.389 52.029 220.666 50.5386 221.6C50.4537 221.654 50.3839 221.73 50.3357 221.818C50.2876 221.907 50.2626 222.006 50.2632 222.107V223.803C50.2632 223.962 50.3263 224.114 50.4388 224.227C50.5512 224.339 50.7036 224.402 50.8626 224.402C50.9716 224.406 51.0795 224.38 51.1746 224.326C51.2698 224.273 51.3486 224.195 51.4026 224.1L52.1262 222.826C58.4606 220.806 65.054 219.715 71.7012 219.586V222.944C71.7026 223.15 71.7852 223.346 71.9308 223.491C72.0765 223.635 72.2735 223.717 72.4788 223.717H74.0664C74.2717 223.717 74.4687 223.635 74.6143 223.491C74.76 223.346 74.8426 223.15 74.844 222.944V219.586C81.4912 219.715 88.0846 220.806 94.419 222.826L95.1426 224.1C95.1966 224.195 95.2754 224.273 95.3705 224.326C95.4657 224.38 95.5736 224.406 95.6826 224.402C95.8416 224.402 95.994 224.339 96.1064 224.227C96.2188 224.114 96.282 223.962 96.282 223.803V222.107C96.2826 222.006 96.2576 221.907 96.2094 221.818C96.1613 221.73 96.0915 221.654 96.0066 221.6C94.5 220.666 87.0534 216.389 74.8278 216.076Z" fill="#263238"/>
    <path opacity="0.2" d="M74.8278 216.076V195.658H71.685V216.076C59.4594 216.389 52.029 220.666 50.5386 221.6C50.4537 221.654 50.3839 221.73 50.3357 221.818C50.2876 221.907 50.2626 222.006 50.2632 222.107V223.803C50.2632 223.962 50.3263 224.114 50.4388 224.227C50.5512 224.339 50.7036 224.402 50.8626 224.402C50.9716 224.406 51.0795 224.38 51.1746 224.326C51.2698 224.273 51.3486 224.195 51.4026 224.1L52.1262 222.826C58.4606 220.806 65.054 219.715 71.7012 219.586V222.944C71.7026 223.15 71.7852 223.346 71.9308 223.491C72.0765 223.635 72.2735 223.717 72.4788 223.717H74.0664C74.2717 223.717 74.4687 223.635 74.6143 223.491C74.76 223.346 74.8426 223.15 74.844 222.944V219.586C81.4912 219.715 88.0846 220.806 94.419 222.826L95.1426 224.1C95.1966 224.195 95.2754 224.273 95.3705 224.326C95.4657 224.38 95.5736 224.406 95.6826 224.402C95.8416 224.402 95.994 224.339 96.1064 224.227C96.2188 224.114 96.282 223.962 96.282 223.803V222.107C96.2826 222.006 96.2576 221.907 96.2094 221.818C96.1613 221.73 96.0915 221.654 96.0066 221.6C94.5 220.666 87.0534 216.389 74.8278 216.076Z" fill="black"/>
    <path d="M73.8719 222.507H72.6407C72.411 222.507 72.2249 222.693 72.2249 222.923V225.887C72.2249 226.117 72.411 226.303 72.6407 226.303H73.8719C74.1015 226.303 74.2877 226.117 74.2877 225.887V222.923C74.2877 222.693 74.1015 222.507 73.8719 222.507Z" fill="#263238"/>
    <path opacity="0.2" d="M73.8719 222.507H72.6407C72.411 222.507 72.2249 222.693 72.2249 222.923V225.887C72.2249 226.117 72.411 226.303 72.6407 226.303H73.8719C74.1015 226.303 74.2877 226.117 74.2877 225.887V222.923C74.2877 222.693 74.1015 222.507 73.8719 222.507Z" fill="white"/>
    <path d="M52.6769 175.56H93.8411C94.974 175.56 96.0604 176.01 96.8615 176.811C97.6625 177.612 98.1126 178.698 98.1126 179.831V182.412H48.4001V179.82C48.403 178.688 48.855 177.604 49.6569 176.805C50.4588 176.006 51.545 175.558 52.6769 175.56Z" fill="#407BFF"/>
    <path d="M66.1284 158.592H93.4956C93.831 158.582 94.1643 158.649 94.469 158.79C94.7737 158.93 95.0415 159.14 95.2512 159.402C95.4608 159.664 95.6065 159.971 95.6767 160.299C95.7469 160.628 95.7397 160.968 95.6556 161.292L90.72 182.417H89.5914L93.7602 163.884C93.8328 163.562 93.8315 163.228 93.7564 162.906C93.6812 162.585 93.5342 162.284 93.3264 162.027C93.1185 161.771 92.8553 161.564 92.5563 161.424C92.2574 161.284 91.9305 161.213 91.6002 161.217H66.69L66.1284 158.592Z" fill="#263238"/>
    <path d="M76.4855 183.157V201.02C76.4841 201.295 76.3744 201.558 76.1802 201.752C75.9861 201.946 75.7232 202.056 75.4487 202.057H71.0693C70.9329 202.058 70.7978 202.032 70.6717 201.98C70.5456 201.928 70.431 201.852 70.3346 201.755C70.2381 201.659 70.1618 201.544 70.1099 201.418C70.0581 201.292 70.0318 201.157 70.0325 201.02V183.157H76.4855Z" fill="#263238"/>
    <path opacity="0.2" d="M76.4909 183.157H70.0325V190.577H76.4909V183.157Z" fill="black"/>
    <path d="M99.4679 181.316V183.476C99.4679 183.762 99.3541 184.037 99.1516 184.24C98.949 184.442 98.6743 184.556 98.3879 184.556H48.1679C47.8815 184.556 47.6068 184.442 47.4042 184.24C47.2017 184.037 47.0879 183.762 47.0879 183.476V181.316C47.0879 181.029 47.2017 180.755 47.4042 180.552C47.6068 180.35 47.8815 180.236 48.1679 180.236H98.3879C98.6743 180.236 98.949 180.35 99.1516 180.552C99.3541 180.755 99.4679 181.029 99.4679 181.316Z" fill="#263238"/>
    <path d="M76.3559 182.417H47.0447C47.0447 182.417 37.7351 166.93 37.7351 141.339V131.938C37.7351 130.076 38.4747 128.291 39.7912 126.974C41.1077 125.658 42.8933 124.918 44.7551 124.918H57.1751C59.0016 124.909 60.7592 125.615 62.0713 126.886C63.3834 128.157 64.1457 129.891 64.1951 131.717C64.5137 144.925 66.4577 173.48 76.3559 182.417Z" fill="#263238"/>
    <path opacity="0.2" d="M69.9082 182.417H48.373C47.9646 182.418 47.5638 182.307 47.2143 182.095C46.8648 181.884 46.5801 181.581 46.3912 181.218C44.2744 177.131 37.7512 162.777 37.7512 141.339V131.938C37.7512 130.076 38.4908 128.291 39.8073 126.974C41.1238 125.658 42.9094 124.918 44.7712 124.918H55.5118C57.3359 124.917 59.0887 125.626 60.399 126.895C61.7094 128.164 62.4743 129.893 62.5318 131.717C62.8558 143.494 64.438 167.54 71.8306 178.907C72.0679 179.249 72.2053 179.649 72.2274 180.064C72.2495 180.479 72.1555 180.893 71.9558 181.257C71.7561 181.622 71.4587 181.923 71.097 182.128C70.7353 182.333 70.3236 182.433 69.9082 182.417Z" fill="white"/>
    <path opacity="0.2" d="M99.4679 181.316V183.476C99.4679 183.762 99.3542 184.037 99.1516 184.239C98.9491 184.442 98.6744 184.556 98.3879 184.556H75.8699C75.4794 184.554 75.1053 184.399 74.8291 184.122C74.5529 183.846 74.3972 183.472 74.3958 183.082V181.715C74.3958 181.324 74.5511 180.949 74.8275 180.673C75.104 180.397 75.479 180.241 75.8699 180.241H98.3826C98.5244 180.241 98.665 180.268 98.7963 180.321C98.9276 180.375 99.047 180.454 99.1478 180.554C99.2486 180.654 99.3288 180.772 99.3837 180.903C99.4386 181.034 99.4672 181.174 99.4679 181.316Z" fill="black"/>
    </svg>
    